%TF.GenerationSoftware,KiCad,Pcbnew,8.0.0-1.fc39*%
%TF.CreationDate,2024-05-13T23:19:07+02:00*%
%TF.ProjectId,mcu_dev,6d63755f-6465-4762-9e6b-696361645f70,rev?*%
%TF.SameCoordinates,Original*%
%TF.FileFunction,Paste,Top*%
%TF.FilePolarity,Positive*%
%FSLAX46Y46*%
G04 Gerber Fmt 4.6, Leading zero omitted, Abs format (unit mm)*
G04 Created by KiCad (PCBNEW 8.0.0-1.fc39) date 2024-05-13 23:19:07*
%MOMM*%
%LPD*%
G01*
G04 APERTURE LIST*
G04 Aperture macros list*
%AMRoundRect*
0 Rectangle with rounded corners*
0 $1 Rounding radius*
0 $2 $3 $4 $5 $6 $7 $8 $9 X,Y pos of 4 corners*
0 Add a 4 corners polygon primitive as box body*
4,1,4,$2,$3,$4,$5,$6,$7,$8,$9,$2,$3,0*
0 Add four circle primitives for the rounded corners*
1,1,$1+$1,$2,$3*
1,1,$1+$1,$4,$5*
1,1,$1+$1,$6,$7*
1,1,$1+$1,$8,$9*
0 Add four rect primitives between the rounded corners*
20,1,$1+$1,$2,$3,$4,$5,0*
20,1,$1+$1,$4,$5,$6,$7,0*
20,1,$1+$1,$6,$7,$8,$9,0*
20,1,$1+$1,$8,$9,$2,$3,0*%
G04 Aperture macros list end*
%ADD10RoundRect,0.225000X-0.250000X0.225000X-0.250000X-0.225000X0.250000X-0.225000X0.250000X0.225000X0*%
%ADD11RoundRect,0.200000X-0.200000X-0.275000X0.200000X-0.275000X0.200000X0.275000X-0.200000X0.275000X0*%
%ADD12RoundRect,0.125000X-0.353553X-0.530330X0.530330X0.353553X0.353553X0.530330X-0.530330X-0.353553X0*%
%ADD13RoundRect,0.125000X0.353553X-0.530330X0.530330X-0.353553X-0.353553X0.530330X-0.530330X0.353553X0*%
%ADD14RoundRect,0.225000X-0.225000X-0.250000X0.225000X-0.250000X0.225000X0.250000X-0.225000X0.250000X0*%
%ADD15RoundRect,0.375000X0.625000X0.375000X-0.625000X0.375000X-0.625000X-0.375000X0.625000X-0.375000X0*%
%ADD16RoundRect,0.500000X0.500000X1.400000X-0.500000X1.400000X-0.500000X-1.400000X0.500000X-1.400000X0*%
%ADD17RoundRect,0.218750X0.218750X0.256250X-0.218750X0.256250X-0.218750X-0.256250X0.218750X-0.256250X0*%
G04 APERTURE END LIST*
D10*
%TO.C,C1*%
X172900000Y-104140000D03*
X172900000Y-105690000D03*
%TD*%
D11*
%TO.C,R3*%
X194175000Y-102000000D03*
X195825000Y-102000000D03*
%TD*%
D10*
%TO.C,C5*%
X154534000Y-97282000D03*
X154534000Y-98832000D03*
%TD*%
%TO.C,C6*%
X154699000Y-102476000D03*
X154699000Y-104026000D03*
%TD*%
D12*
%TO.C,U1*%
X173067930Y-100272272D03*
X173633616Y-100837957D03*
X174199301Y-101403643D03*
X174764986Y-101969328D03*
X175330672Y-102535014D03*
X175896357Y-103100699D03*
X176462043Y-103666384D03*
X177027728Y-104232070D03*
D13*
X178972272Y-104232070D03*
X179537957Y-103666384D03*
X180103643Y-103100699D03*
X180669328Y-102535014D03*
X181235014Y-101969328D03*
X181800699Y-101403643D03*
X182366384Y-100837957D03*
X182932070Y-100272272D03*
D12*
X182932070Y-98327728D03*
X182366384Y-97762043D03*
X181800699Y-97196357D03*
X181235014Y-96630672D03*
X180669328Y-96064986D03*
X180103643Y-95499301D03*
X179537957Y-94933616D03*
X178972272Y-94367930D03*
D13*
X177027728Y-94367930D03*
X176462043Y-94933616D03*
X175896357Y-95499301D03*
X175330672Y-96064986D03*
X174764986Y-96630672D03*
X174199301Y-97196357D03*
X173633616Y-97762043D03*
X173067930Y-98327728D03*
%TD*%
D14*
%TO.C,C4*%
X152641000Y-91440000D03*
X154191000Y-91440000D03*
%TD*%
%TO.C,C9*%
X166325000Y-96500000D03*
X167875000Y-96500000D03*
%TD*%
D11*
%TO.C,R1*%
X164350000Y-105500000D03*
X166000000Y-105500000D03*
%TD*%
D10*
%TO.C,C3*%
X169700000Y-104140000D03*
X169700000Y-105690000D03*
%TD*%
D14*
%TO.C,C8*%
X166325000Y-103100000D03*
X167875000Y-103100000D03*
%TD*%
D15*
%TO.C,U3*%
X151994000Y-107456000D03*
X151994000Y-105156000D03*
D16*
X145694000Y-105156000D03*
D15*
X151994000Y-102856000D03*
%TD*%
D10*
%TO.C,C2*%
X171300000Y-104140000D03*
X171300000Y-105690000D03*
%TD*%
%TO.C,C7*%
X154686000Y-105651000D03*
X154686000Y-107201000D03*
%TD*%
D15*
%TO.C,U2*%
X151994000Y-98312000D03*
X151994000Y-96012000D03*
D16*
X145694000Y-96012000D03*
D15*
X151994000Y-93712000D03*
%TD*%
D11*
%TO.C,R2*%
X194175000Y-98500000D03*
X195825000Y-98500000D03*
%TD*%
D17*
%TO.C,D1*%
X190287500Y-98500000D03*
X188712500Y-98500000D03*
%TD*%
%TO.C,D2*%
X190247500Y-102000000D03*
X188672500Y-102000000D03*
%TD*%
M02*
