%TF.GenerationSoftware,KiCad,Pcbnew,8.0.0-1.fc39*%
%TF.CreationDate,2024-05-13T23:19:07+02:00*%
%TF.ProjectId,mcu_dev,6d63755f-6465-4762-9e6b-696361645f70,rev?*%
%TF.SameCoordinates,Original*%
%TF.FileFunction,Copper,L2,Bot*%
%TF.FilePolarity,Positive*%
%FSLAX46Y46*%
G04 Gerber Fmt 4.6, Leading zero omitted, Abs format (unit mm)*
G04 Created by KiCad (PCBNEW 8.0.0-1.fc39) date 2024-05-13 23:19:07*
%MOMM*%
%LPD*%
G01*
G04 APERTURE LIST*
%TA.AperFunction,ComponentPad*%
%ADD10C,1.700000*%
%TD*%
%TA.AperFunction,ComponentPad*%
%ADD11R,1.700000X1.700000*%
%TD*%
%TA.AperFunction,ComponentPad*%
%ADD12O,1.700000X1.700000*%
%TD*%
%TA.AperFunction,ComponentPad*%
%ADD13C,1.000000*%
%TD*%
%TA.AperFunction,ViaPad*%
%ADD14C,0.600000*%
%TD*%
%TA.AperFunction,ViaPad*%
%ADD15C,1.000000*%
%TD*%
%TA.AperFunction,Conductor*%
%ADD16C,1.000000*%
%TD*%
%TA.AperFunction,Conductor*%
%ADD17C,0.200000*%
%TD*%
G04 APERTURE END LIST*
D10*
%TO.P,,1*%
%TO.N,N/C*%
X203200000Y-88900000D03*
%TD*%
%TO.P,,1*%
%TO.N,N/C*%
X198120000Y-88900000D03*
%TD*%
%TO.P,,1*%
%TO.N,N/C*%
X200660000Y-88900000D03*
%TD*%
%TO.P,,1*%
%TO.N,N/C*%
X142240000Y-88900000D03*
%TD*%
%TO.P,,1*%
%TO.N,N/C*%
X149860000Y-88900000D03*
%TD*%
%TO.P,,1*%
%TO.N,N/C*%
X139700000Y-88900000D03*
%TD*%
%TO.P,,1*%
%TO.N,N/C*%
X147320000Y-88900000D03*
%TD*%
%TO.P,,1*%
%TO.N,N/C*%
X154940000Y-88900000D03*
%TD*%
%TO.P,,1*%
%TO.N,N/C*%
X144780000Y-88900000D03*
%TD*%
%TO.P,,1*%
%TO.N,N/C*%
X152400000Y-88900000D03*
%TD*%
%TO.P,,1*%
%TO.N,N/C*%
X147320000Y-111760000D03*
%TD*%
%TO.P,,1*%
%TO.N,N/C*%
X144780000Y-111760000D03*
%TD*%
%TO.P,,1*%
%TO.N,N/C*%
X149860000Y-111760000D03*
%TD*%
%TO.P,,1*%
%TO.N,N/C*%
X142240000Y-111760000D03*
%TD*%
%TO.P,,1*%
%TO.N,N/C*%
X139700000Y-111760000D03*
%TD*%
%TO.P,,1*%
%TO.N,N/C*%
X154940000Y-109220000D03*
%TD*%
%TO.P,,1*%
%TO.N,N/C*%
X154940000Y-111760000D03*
%TD*%
%TO.P,,1*%
%TO.N,N/C*%
X152400000Y-111760000D03*
%TD*%
%TO.P,,1*%
%TO.N,N/C*%
X203200000Y-106680000D03*
%TD*%
%TO.P,,1*%
%TO.N,N/C*%
X198120000Y-106680000D03*
%TD*%
%TO.P,,1*%
%TO.N,N/C*%
X200660000Y-104140000D03*
%TD*%
%TO.P,,1*%
%TO.N,N/C*%
X198120000Y-104140000D03*
%TD*%
%TO.P,,1*%
%TO.N,N/C*%
X203200000Y-104140000D03*
%TD*%
%TO.P,,1*%
%TO.N,N/C*%
X200660000Y-106680000D03*
%TD*%
%TO.P,,1*%
%TO.N,N/C*%
X203200000Y-111760000D03*
%TD*%
%TO.P,,1*%
%TO.N,N/C*%
X198120000Y-111760000D03*
%TD*%
%TO.P,,1*%
%TO.N,N/C*%
X200660000Y-109220000D03*
%TD*%
%TO.P,,1*%
%TO.N,N/C*%
X198120000Y-109220000D03*
%TD*%
%TO.P,,1*%
%TO.N,N/C*%
X203200000Y-109220000D03*
%TD*%
%TO.P,,1*%
%TO.N,N/C*%
X200660000Y-111760000D03*
%TD*%
%TO.P,,1*%
%TO.N,N/C*%
X139700000Y-109220000D03*
%TD*%
%TO.P,,1*%
%TO.N,N/C*%
X139700000Y-96520000D03*
%TD*%
%TO.P,,1*%
%TO.N,N/C*%
X139700000Y-101600000D03*
%TD*%
%TO.P,,1*%
%TO.N,N/C*%
X139700000Y-93980000D03*
%TD*%
%TO.P,,1*%
%TO.N,N/C*%
X139700000Y-91440000D03*
%TD*%
%TO.P,,1*%
%TO.N,N/C*%
X139700000Y-99060000D03*
%TD*%
%TO.P,,1*%
%TO.N,N/C*%
X139700000Y-104140000D03*
%TD*%
%TO.P,,1*%
%TO.N,N/C*%
X139700000Y-106680000D03*
%TD*%
%TO.P,,1*%
%TO.N,N/C*%
X180340000Y-111760000D03*
%TD*%
%TO.P,,1*%
%TO.N,N/C*%
X170180000Y-111760000D03*
%TD*%
%TO.P,,1*%
%TO.N,N/C*%
X193040000Y-111760000D03*
%TD*%
%TO.P,,1*%
%TO.N,N/C*%
X185420000Y-111760000D03*
%TD*%
%TO.P,,1*%
%TO.N,N/C*%
X195580000Y-111760000D03*
%TD*%
%TO.P,,1*%
%TO.N,N/C*%
X177800000Y-111760000D03*
%TD*%
%TO.P,,1*%
%TO.N,N/C*%
X187960000Y-111760000D03*
%TD*%
%TO.P,,1*%
%TO.N,N/C*%
X157480000Y-111760000D03*
%TD*%
%TO.P,,1*%
%TO.N,N/C*%
X175260000Y-111760000D03*
%TD*%
%TO.P,,1*%
%TO.N,N/C*%
X172720000Y-111760000D03*
%TD*%
%TO.P,,1*%
%TO.N,N/C*%
X162560000Y-111760000D03*
%TD*%
%TO.P,,1*%
%TO.N,N/C*%
X165100000Y-111760000D03*
%TD*%
%TO.P,,1*%
%TO.N,N/C*%
X167640000Y-111760000D03*
%TD*%
%TO.P,,1*%
%TO.N,N/C*%
X160020000Y-111760000D03*
%TD*%
%TO.P,,1*%
%TO.N,N/C*%
X182880000Y-111760000D03*
%TD*%
%TO.P,,1*%
%TO.N,N/C*%
X190500000Y-111760000D03*
%TD*%
%TO.P,,1*%
%TO.N,N/C*%
X190500000Y-88900000D03*
%TD*%
%TO.P,,1*%
%TO.N,N/C*%
X162560000Y-88900000D03*
%TD*%
%TO.P,,1*%
%TO.N,N/C*%
X180340000Y-88900000D03*
%TD*%
%TO.P,,1*%
%TO.N,N/C*%
X167640000Y-88900000D03*
%TD*%
%TO.P,,1*%
%TO.N,N/C*%
X157480000Y-88900000D03*
%TD*%
%TO.P,,1*%
%TO.N,N/C*%
X172720000Y-88900000D03*
%TD*%
%TO.P,,1*%
%TO.N,N/C*%
X170180000Y-88900000D03*
%TD*%
%TO.P,,1*%
%TO.N,N/C*%
X185420000Y-88900000D03*
%TD*%
%TO.P,,1*%
%TO.N,N/C*%
X182880000Y-88900000D03*
%TD*%
%TO.P,,1*%
%TO.N,N/C*%
X195580000Y-88900000D03*
%TD*%
%TO.P,,1*%
%TO.N,N/C*%
X165100000Y-88900000D03*
%TD*%
%TO.P,,1*%
%TO.N,N/C*%
X175260000Y-88900000D03*
%TD*%
%TO.P,,1*%
%TO.N,N/C*%
X187960000Y-88900000D03*
%TD*%
%TO.P,,1*%
%TO.N,N/C*%
X177800000Y-88900000D03*
%TD*%
%TO.P,,1*%
%TO.N,N/C*%
X193040000Y-88900000D03*
%TD*%
%TO.P,,1*%
%TO.N,N/C*%
X160020000Y-88900000D03*
%TD*%
%TO.P,,1*%
%TO.N,N/C*%
X137160000Y-111760000D03*
%TD*%
%TO.P,,1*%
%TO.N,N/C*%
X137160000Y-93980000D03*
%TD*%
%TO.P,,1*%
%TO.N,N/C*%
X137160000Y-96520000D03*
%TD*%
%TO.P,,1*%
%TO.N,N/C*%
X137160000Y-91440000D03*
%TD*%
%TO.P,,1*%
%TO.N,N/C*%
X137160000Y-104140000D03*
%TD*%
%TO.P,,1*%
%TO.N,N/C*%
X137160000Y-101600000D03*
%TD*%
%TO.P,,1*%
%TO.N,N/C*%
X137160000Y-106680000D03*
%TD*%
%TO.P,,1*%
%TO.N,N/C*%
X137160000Y-109220000D03*
%TD*%
%TO.P,,1*%
%TO.N,N/C*%
X137160000Y-88900000D03*
%TD*%
%TO.P,,1*%
%TO.N,N/C*%
X137160000Y-99060000D03*
%TD*%
%TO.P,,1*%
%TO.N,N/C*%
X236220000Y-104140000D03*
%TD*%
%TO.P,,1*%
%TO.N,N/C*%
X236220000Y-88900000D03*
%TD*%
%TO.P,,1*%
%TO.N,N/C*%
X236220000Y-93980000D03*
%TD*%
%TO.P,,1*%
%TO.N,N/C*%
X236220000Y-96520000D03*
%TD*%
%TO.P,,1*%
%TO.N,N/C*%
X236220000Y-91440000D03*
%TD*%
%TO.P,,1*%
%TO.N,N/C*%
X236220000Y-111760000D03*
%TD*%
%TO.P,,1*%
%TO.N,N/C*%
X236220000Y-101600000D03*
%TD*%
%TO.P,,1*%
%TO.N,N/C*%
X236220000Y-106680000D03*
%TD*%
%TO.P,,1*%
%TO.N,N/C*%
X236220000Y-99060000D03*
%TD*%
%TO.P,,1*%
%TO.N,N/C*%
X236220000Y-109220000D03*
%TD*%
%TO.P,,1*%
%TO.N,N/C*%
X223520000Y-111760000D03*
%TD*%
%TO.P,,1*%
%TO.N,N/C*%
X220980000Y-106680000D03*
%TD*%
%TO.P,,1*%
%TO.N,N/C*%
X220980000Y-109220000D03*
%TD*%
%TO.P,,1*%
%TO.N,N/C*%
X228600000Y-109220000D03*
%TD*%
%TO.P,,1*%
%TO.N,N/C*%
X233680000Y-111760000D03*
%TD*%
%TO.P,,1*%
%TO.N,N/C*%
X213360000Y-109220000D03*
%TD*%
%TO.P,,1*%
%TO.N,N/C*%
X231140000Y-109220000D03*
%TD*%
%TO.P,,1*%
%TO.N,N/C*%
X213360000Y-88900000D03*
%TD*%
%TO.P,,1*%
%TO.N,N/C*%
X231140000Y-93980000D03*
%TD*%
%TO.P,,1*%
%TO.N,N/C*%
X213360000Y-93980000D03*
%TD*%
%TO.P,,1*%
%TO.N,N/C*%
X233680000Y-93980000D03*
%TD*%
%TO.P,,1*%
%TO.N,N/C*%
X220980000Y-99060000D03*
%TD*%
%TO.P,,1*%
%TO.N,N/C*%
X210820000Y-99060000D03*
%TD*%
%TO.P,,1*%
%TO.N,N/C*%
X220980000Y-101600000D03*
%TD*%
%TO.P,,1*%
%TO.N,N/C*%
X210820000Y-101600000D03*
%TD*%
%TO.P,,1*%
%TO.N,N/C*%
X226060000Y-91440000D03*
%TD*%
%TO.P,,1*%
%TO.N,N/C*%
X218440000Y-91440000D03*
%TD*%
%TO.P,,1*%
%TO.N,N/C*%
X208280000Y-91440000D03*
%TD*%
%TO.P,,1*%
%TO.N,N/C*%
X228600000Y-93980000D03*
%TD*%
%TO.P,,1*%
%TO.N,N/C*%
X233680000Y-96520000D03*
%TD*%
%TO.P,,1*%
%TO.N,N/C*%
X228600000Y-88900000D03*
%TD*%
%TO.P,,1*%
%TO.N,N/C*%
X231140000Y-88900000D03*
%TD*%
%TO.P,,1*%
%TO.N,N/C*%
X226060000Y-106680000D03*
%TD*%
%TO.P,,1*%
%TO.N,N/C*%
X218440000Y-106680000D03*
%TD*%
%TO.P,,1*%
%TO.N,N/C*%
X208280000Y-106680000D03*
%TD*%
%TO.P,,1*%
%TO.N,N/C*%
X205740000Y-106680000D03*
%TD*%
%TO.P,,1*%
%TO.N,N/C*%
X215900000Y-104140000D03*
%TD*%
%TO.P,,1*%
%TO.N,N/C*%
X215900000Y-106680000D03*
%TD*%
%TO.P,,1*%
%TO.N,N/C*%
X208280000Y-96520000D03*
%TD*%
%TO.P,,1*%
%TO.N,N/C*%
X205740000Y-96520000D03*
%TD*%
%TO.P,,1*%
%TO.N,N/C*%
X215900000Y-93980000D03*
%TD*%
%TO.P,,1*%
%TO.N,N/C*%
X215900000Y-96520000D03*
%TD*%
%TO.P,,1*%
%TO.N,N/C*%
X213360000Y-96520000D03*
%TD*%
%TO.P,,1*%
%TO.N,N/C*%
X231140000Y-96520000D03*
%TD*%
%TO.P,,1*%
%TO.N,N/C*%
X228600000Y-96520000D03*
%TD*%
%TO.P,,1*%
%TO.N,N/C*%
X226060000Y-93980000D03*
%TD*%
%TO.P,,1*%
%TO.N,N/C*%
X218440000Y-93980000D03*
%TD*%
%TO.P,,1*%
%TO.N,N/C*%
X213360000Y-106680000D03*
%TD*%
%TO.P,,1*%
%TO.N,N/C*%
X231140000Y-106680000D03*
%TD*%
%TO.P,,1*%
%TO.N,N/C*%
X228600000Y-106680000D03*
%TD*%
%TO.P,,1*%
%TO.N,N/C*%
X226060000Y-104140000D03*
%TD*%
%TO.P,,1*%
%TO.N,N/C*%
X218440000Y-104140000D03*
%TD*%
%TO.P,,1*%
%TO.N,N/C*%
X208280000Y-104140000D03*
%TD*%
%TO.P,,1*%
%TO.N,N/C*%
X233680000Y-91440000D03*
%TD*%
%TO.P,,1*%
%TO.N,N/C*%
X213360000Y-99060000D03*
%TD*%
%TO.P,,1*%
%TO.N,N/C*%
X220980000Y-111760000D03*
%TD*%
%TO.P,,1*%
%TO.N,N/C*%
X210820000Y-111760000D03*
%TD*%
%TO.P,,1*%
%TO.N,N/C*%
X205740000Y-91440000D03*
%TD*%
%TO.P,,1*%
%TO.N,N/C*%
X215900000Y-88900000D03*
%TD*%
%TO.P,,1*%
%TO.N,N/C*%
X215900000Y-91440000D03*
%TD*%
%TO.P,,1*%
%TO.N,N/C*%
X213360000Y-91440000D03*
%TD*%
%TO.P,,1*%
%TO.N,N/C*%
X231140000Y-91440000D03*
%TD*%
%TO.P,,1*%
%TO.N,N/C*%
X228600000Y-91440000D03*
%TD*%
%TO.P,,1*%
%TO.N,N/C*%
X226060000Y-88900000D03*
%TD*%
%TO.P,,1*%
%TO.N,N/C*%
X218440000Y-88900000D03*
%TD*%
%TO.P,,1*%
%TO.N,N/C*%
X210820000Y-96520000D03*
%TD*%
%TO.P,,1*%
%TO.N,N/C*%
X220980000Y-93980000D03*
%TD*%
%TO.P,,1*%
%TO.N,N/C*%
X210820000Y-93980000D03*
%TD*%
%TO.P,,1*%
%TO.N,N/C*%
X213360000Y-104140000D03*
%TD*%
%TO.P,,1*%
%TO.N,N/C*%
X220980000Y-104140000D03*
%TD*%
%TO.P,,1*%
%TO.N,N/C*%
X210820000Y-106680000D03*
%TD*%
%TO.P,,1*%
%TO.N,N/C*%
X208280000Y-93980000D03*
%TD*%
%TO.P,,1*%
%TO.N,N/C*%
X205740000Y-93980000D03*
%TD*%
%TO.P,,1*%
%TO.N,N/C*%
X223520000Y-93980000D03*
%TD*%
%TO.P,,1*%
%TO.N,N/C*%
X223520000Y-96520000D03*
%TD*%
%TO.P,,1*%
%TO.N,N/C*%
X220980000Y-96520000D03*
%TD*%
%TO.P,,1*%
%TO.N,N/C*%
X231140000Y-104140000D03*
%TD*%
%TO.P,,1*%
%TO.N,N/C*%
X233680000Y-104140000D03*
%TD*%
%TO.P,,1*%
%TO.N,N/C*%
X228600000Y-104140000D03*
%TD*%
%TO.P,,1*%
%TO.N,N/C*%
X210820000Y-104140000D03*
%TD*%
%TO.P,,1*%
%TO.N,N/C*%
X215900000Y-99060000D03*
%TD*%
%TO.P,,1*%
%TO.N,N/C*%
X215900000Y-101600000D03*
%TD*%
%TO.P,,1*%
%TO.N,N/C*%
X213360000Y-101600000D03*
%TD*%
%TO.P,,1*%
%TO.N,N/C*%
X231140000Y-101600000D03*
%TD*%
%TO.P,,1*%
%TO.N,N/C*%
X228600000Y-101600000D03*
%TD*%
%TO.P,,1*%
%TO.N,N/C*%
X226060000Y-99060000D03*
%TD*%
%TO.P,,1*%
%TO.N,N/C*%
X218440000Y-99060000D03*
%TD*%
%TO.P,,1*%
%TO.N,N/C*%
X208280000Y-99060000D03*
%TD*%
%TO.P,,1*%
%TO.N,N/C*%
X205740000Y-99060000D03*
%TD*%
%TO.P,,1*%
%TO.N,N/C*%
X223520000Y-99060000D03*
%TD*%
%TO.P,,1*%
%TO.N,N/C*%
X223520000Y-101600000D03*
%TD*%
%TO.P,,1*%
%TO.N,N/C*%
X218440000Y-109220000D03*
%TD*%
%TO.P,,1*%
%TO.N,N/C*%
X208280000Y-109220000D03*
%TD*%
%TO.P,,1*%
%TO.N,N/C*%
X205740000Y-104140000D03*
%TD*%
%TO.P,,1*%
%TO.N,N/C*%
X223520000Y-106680000D03*
%TD*%
%TO.P,,1*%
%TO.N,N/C*%
X233680000Y-101600000D03*
%TD*%
%TO.P,,1*%
%TO.N,N/C*%
X233680000Y-106680000D03*
%TD*%
%TO.P,,1*%
%TO.N,N/C*%
X226060000Y-96520000D03*
%TD*%
%TO.P,,1*%
%TO.N,N/C*%
X218440000Y-96520000D03*
%TD*%
%TO.P,,1*%
%TO.N,N/C*%
X223520000Y-104140000D03*
%TD*%
%TO.P,,1*%
%TO.N,N/C*%
X231140000Y-111760000D03*
%TD*%
%TO.P,,1*%
%TO.N,N/C*%
X228600000Y-111760000D03*
%TD*%
%TO.P,,1*%
%TO.N,N/C*%
X226060000Y-109220000D03*
%TD*%
%TO.P,,1*%
%TO.N,N/C*%
X205740000Y-109220000D03*
%TD*%
%TO.P,,1*%
%TO.N,N/C*%
X223520000Y-109220000D03*
%TD*%
%TO.P,,1*%
%TO.N,N/C*%
X226060000Y-111760000D03*
%TD*%
%TO.P,,1*%
%TO.N,N/C*%
X218440000Y-111760000D03*
%TD*%
%TO.P,,1*%
%TO.N,N/C*%
X208280000Y-111760000D03*
%TD*%
%TO.P,,1*%
%TO.N,N/C*%
X205740000Y-111760000D03*
%TD*%
%TO.P,,1*%
%TO.N,N/C*%
X215900000Y-109220000D03*
%TD*%
%TO.P,,1*%
%TO.N,N/C*%
X215900000Y-111760000D03*
%TD*%
%TO.P,,1*%
%TO.N,N/C*%
X213360000Y-111760000D03*
%TD*%
%TO.P,,1*%
%TO.N,N/C*%
X233680000Y-109220000D03*
%TD*%
%TO.P,,1*%
%TO.N,N/C*%
X210820000Y-109220000D03*
%TD*%
%TO.P,,1*%
%TO.N,N/C*%
X226060000Y-101600000D03*
%TD*%
%TO.P,,1*%
%TO.N,N/C*%
X218440000Y-101600000D03*
%TD*%
%TO.P,,1*%
%TO.N,N/C*%
X208280000Y-101600000D03*
%TD*%
%TO.P,,1*%
%TO.N,N/C*%
X205740000Y-101600000D03*
%TD*%
%TO.P,,1*%
%TO.N,N/C*%
X233680000Y-88900000D03*
%TD*%
%TO.P,,1*%
%TO.N,N/C*%
X233680000Y-99060000D03*
%TD*%
%TO.P,,1*%
%TO.N,N/C*%
X228600000Y-99060000D03*
%TD*%
%TO.P,,1*%
%TO.N,N/C*%
X231140000Y-99060000D03*
%TD*%
%TO.P,,1*%
%TO.N,N/C*%
X208280000Y-88900000D03*
%TD*%
%TO.P,,1*%
%TO.N,N/C*%
X205740000Y-88900000D03*
%TD*%
%TO.P,,1*%
%TO.N,N/C*%
X223520000Y-88900000D03*
%TD*%
%TO.P,,1*%
%TO.N,N/C*%
X223520000Y-91440000D03*
%TD*%
%TO.P,,1*%
%TO.N,N/C*%
X220980000Y-91440000D03*
%TD*%
%TO.P,,1*%
%TO.N,N/C*%
X210820000Y-91440000D03*
%TD*%
%TO.P,,1*%
%TO.N,N/C*%
X220980000Y-88900000D03*
%TD*%
%TO.P,,1*%
%TO.N,N/C*%
X210820000Y-88900000D03*
%TD*%
%TO.P,,1*%
%TO.N,N/C*%
X91440000Y-96520000D03*
%TD*%
%TO.P,,1*%
%TO.N,N/C*%
X91440000Y-101600000D03*
%TD*%
%TO.P,,1*%
%TO.N,N/C*%
X91440000Y-93980000D03*
%TD*%
%TO.P,,1*%
%TO.N,N/C*%
X93980000Y-106680000D03*
%TD*%
%TO.P,,1*%
%TO.N,N/C*%
X93980000Y-96520000D03*
%TD*%
%TO.P,,1*%
%TO.N,N/C*%
X91440000Y-91440000D03*
%TD*%
%TO.P,,1*%
%TO.N,N/C*%
X93980000Y-114300000D03*
%TD*%
%TO.P,,1*%
%TO.N,N/C*%
X93980000Y-91440000D03*
%TD*%
%TO.P,,1*%
%TO.N,N/C*%
X93980000Y-93980000D03*
%TD*%
%TO.P,,1*%
%TO.N,N/C*%
X91440000Y-104140000D03*
%TD*%
%TO.P,,1*%
%TO.N,N/C*%
X93980000Y-99060000D03*
%TD*%
%TO.P,,1*%
%TO.N,N/C*%
X93980000Y-109220000D03*
%TD*%
%TO.P,,1*%
%TO.N,N/C*%
X93980000Y-104140000D03*
%TD*%
%TO.P,,1*%
%TO.N,N/C*%
X91440000Y-106680000D03*
%TD*%
%TO.P,,1*%
%TO.N,N/C*%
X91440000Y-114300000D03*
%TD*%
%TO.P,,1*%
%TO.N,N/C*%
X93980000Y-111760000D03*
%TD*%
%TO.P,,1*%
%TO.N,N/C*%
X91440000Y-109220000D03*
%TD*%
%TO.P,,1*%
%TO.N,N/C*%
X91440000Y-111760000D03*
%TD*%
%TO.P,,1*%
%TO.N,N/C*%
X93980000Y-101600000D03*
%TD*%
%TO.P,,1*%
%TO.N,N/C*%
X91440000Y-88900000D03*
%TD*%
%TO.P,,1*%
%TO.N,N/C*%
X91440000Y-99060000D03*
%TD*%
%TO.P,,1*%
%TO.N,N/C*%
X93980000Y-88900000D03*
%TD*%
%TO.P,,1*%
%TO.N,N/C*%
X233680000Y-114300000D03*
%TD*%
%TO.P,,1*%
%TO.N,N/C*%
X226060000Y-114300000D03*
%TD*%
%TO.P,,1*%
%TO.N,N/C*%
X223520000Y-114300000D03*
%TD*%
%TO.P,,1*%
%TO.N,N/C*%
X231140000Y-114300000D03*
%TD*%
%TO.P,,1*%
%TO.N,N/C*%
X218440000Y-116840000D03*
%TD*%
%TO.P,,1*%
%TO.N,N/C*%
X220980000Y-114300000D03*
%TD*%
%TO.P,,1*%
%TO.N,N/C*%
X220980000Y-116840000D03*
%TD*%
%TO.P,,1*%
%TO.N,N/C*%
X228600000Y-116840000D03*
%TD*%
%TO.P,,1*%
%TO.N,N/C*%
X223520000Y-116840000D03*
%TD*%
%TO.P,,1*%
%TO.N,N/C*%
X218440000Y-114300000D03*
%TD*%
%TO.P,,1*%
%TO.N,N/C*%
X226060000Y-116840000D03*
%TD*%
%TO.P,,1*%
%TO.N,N/C*%
X236220000Y-114300000D03*
%TD*%
%TO.P,,1*%
%TO.N,N/C*%
X231140000Y-116840000D03*
%TD*%
%TO.P,,1*%
%TO.N,N/C*%
X228600000Y-114300000D03*
%TD*%
%TO.P,,1*%
%TO.N,N/C*%
X193040000Y-114300000D03*
%TD*%
%TO.P,,1*%
%TO.N,N/C*%
X185420000Y-114300000D03*
%TD*%
%TO.P,,1*%
%TO.N,N/C*%
X213360000Y-114300000D03*
%TD*%
%TO.P,,1*%
%TO.N,N/C*%
X182880000Y-114300000D03*
%TD*%
%TO.P,,1*%
%TO.N,N/C*%
X203200000Y-114300000D03*
%TD*%
%TO.P,,1*%
%TO.N,N/C*%
X190500000Y-114300000D03*
%TD*%
%TO.P,,1*%
%TO.N,N/C*%
X177800000Y-116840000D03*
%TD*%
%TO.P,,1*%
%TO.N,N/C*%
X213360000Y-116840000D03*
%TD*%
%TO.P,,1*%
%TO.N,N/C*%
X210820000Y-116840000D03*
%TD*%
%TO.P,,1*%
%TO.N,N/C*%
X205740000Y-114300000D03*
%TD*%
%TO.P,,1*%
%TO.N,N/C*%
X208280000Y-114300000D03*
%TD*%
%TO.P,,1*%
%TO.N,N/C*%
X200660000Y-114300000D03*
%TD*%
%TO.P,,1*%
%TO.N,N/C*%
X180340000Y-114300000D03*
%TD*%
%TO.P,,1*%
%TO.N,N/C*%
X180340000Y-116840000D03*
%TD*%
%TO.P,,1*%
%TO.N,N/C*%
X187960000Y-116840000D03*
%TD*%
%TO.P,,1*%
%TO.N,N/C*%
X198120000Y-114300000D03*
%TD*%
%TO.P,,1*%
%TO.N,N/C*%
X198120000Y-116840000D03*
%TD*%
%TO.P,,1*%
%TO.N,N/C*%
X195580000Y-116840000D03*
%TD*%
%TO.P,,1*%
%TO.N,N/C*%
X182880000Y-116840000D03*
%TD*%
%TO.P,,1*%
%TO.N,N/C*%
X177800000Y-114300000D03*
%TD*%
%TO.P,,1*%
%TO.N,N/C*%
X215900000Y-114300000D03*
%TD*%
%TO.P,,1*%
%TO.N,N/C*%
X185420000Y-116840000D03*
%TD*%
%TO.P,,1*%
%TO.N,N/C*%
X210820000Y-114300000D03*
%TD*%
%TO.P,,1*%
%TO.N,N/C*%
X195580000Y-114300000D03*
%TD*%
%TO.P,,1*%
%TO.N,N/C*%
X205740000Y-116840000D03*
%TD*%
%TO.P,,1*%
%TO.N,N/C*%
X208280000Y-116840000D03*
%TD*%
%TO.P,,1*%
%TO.N,N/C*%
X200660000Y-116840000D03*
%TD*%
%TO.P,,1*%
%TO.N,N/C*%
X190500000Y-116840000D03*
%TD*%
%TO.P,,1*%
%TO.N,N/C*%
X215900000Y-116840000D03*
%TD*%
%TO.P,,1*%
%TO.N,N/C*%
X203200000Y-116840000D03*
%TD*%
%TO.P,,1*%
%TO.N,N/C*%
X193040000Y-116840000D03*
%TD*%
%TO.P,,1*%
%TO.N,N/C*%
X187960000Y-114300000D03*
%TD*%
%TO.P,,1*%
%TO.N,N/C*%
X152400000Y-114300000D03*
%TD*%
%TO.P,,1*%
%TO.N,N/C*%
X144780000Y-114300000D03*
%TD*%
%TO.P,,1*%
%TO.N,N/C*%
X172720000Y-114300000D03*
%TD*%
%TO.P,,1*%
%TO.N,N/C*%
X142240000Y-114300000D03*
%TD*%
%TO.P,,1*%
%TO.N,N/C*%
X162560000Y-114300000D03*
%TD*%
%TO.P,,1*%
%TO.N,N/C*%
X149860000Y-114300000D03*
%TD*%
%TO.P,,1*%
%TO.N,N/C*%
X137160000Y-116840000D03*
%TD*%
%TO.P,,1*%
%TO.N,N/C*%
X172720000Y-116840000D03*
%TD*%
%TO.P,,1*%
%TO.N,N/C*%
X170180000Y-116840000D03*
%TD*%
%TO.P,,1*%
%TO.N,N/C*%
X165100000Y-114300000D03*
%TD*%
%TO.P,,1*%
%TO.N,N/C*%
X167640000Y-114300000D03*
%TD*%
%TO.P,,1*%
%TO.N,N/C*%
X160020000Y-114300000D03*
%TD*%
%TO.P,,1*%
%TO.N,N/C*%
X139700000Y-114300000D03*
%TD*%
%TO.P,,1*%
%TO.N,N/C*%
X139700000Y-116840000D03*
%TD*%
%TO.P,,1*%
%TO.N,N/C*%
X147320000Y-116840000D03*
%TD*%
%TO.P,,1*%
%TO.N,N/C*%
X157480000Y-114300000D03*
%TD*%
%TO.P,,1*%
%TO.N,N/C*%
X157480000Y-116840000D03*
%TD*%
%TO.P,,1*%
%TO.N,N/C*%
X154940000Y-116840000D03*
%TD*%
%TO.P,,1*%
%TO.N,N/C*%
X142240000Y-116840000D03*
%TD*%
%TO.P,,1*%
%TO.N,N/C*%
X137160000Y-114300000D03*
%TD*%
%TO.P,,1*%
%TO.N,N/C*%
X175260000Y-114300000D03*
%TD*%
%TO.P,,1*%
%TO.N,N/C*%
X144780000Y-116840000D03*
%TD*%
%TO.P,,1*%
%TO.N,N/C*%
X170180000Y-114300000D03*
%TD*%
%TO.P,,1*%
%TO.N,N/C*%
X154940000Y-114300000D03*
%TD*%
%TO.P,,1*%
%TO.N,N/C*%
X165100000Y-116840000D03*
%TD*%
%TO.P,,1*%
%TO.N,N/C*%
X167640000Y-116840000D03*
%TD*%
%TO.P,,1*%
%TO.N,N/C*%
X160020000Y-116840000D03*
%TD*%
%TO.P,,1*%
%TO.N,N/C*%
X149860000Y-116840000D03*
%TD*%
%TO.P,,1*%
%TO.N,N/C*%
X175260000Y-116840000D03*
%TD*%
%TO.P,,1*%
%TO.N,N/C*%
X162560000Y-116840000D03*
%TD*%
%TO.P,,1*%
%TO.N,N/C*%
X152400000Y-116840000D03*
%TD*%
%TO.P,,1*%
%TO.N,N/C*%
X147320000Y-114300000D03*
%TD*%
%TO.P,,1*%
%TO.N,N/C*%
X231140000Y-119380000D03*
%TD*%
%TO.P,,1*%
%TO.N,N/C*%
X208280000Y-119380000D03*
%TD*%
%TO.P,,1*%
%TO.N,N/C*%
X137160000Y-119380000D03*
%TD*%
%TO.P,,1*%
%TO.N,N/C*%
X116840000Y-119380000D03*
%TD*%
%TO.P,,1*%
%TO.N,N/C*%
X154940000Y-119380000D03*
%TD*%
%TO.P,,1*%
%TO.N,N/C*%
X210820000Y-119380000D03*
%TD*%
%TO.P,,1*%
%TO.N,N/C*%
X220980000Y-119380000D03*
%TD*%
%TO.P,,1*%
%TO.N,N/C*%
X144780000Y-119380000D03*
%TD*%
%TO.P,,1*%
%TO.N,N/C*%
X170180000Y-119380000D03*
%TD*%
%TO.P,,1*%
%TO.N,N/C*%
X185420000Y-119380000D03*
%TD*%
%TO.P,,1*%
%TO.N,N/C*%
X182880000Y-119380000D03*
%TD*%
%TO.P,,1*%
%TO.N,N/C*%
X195580000Y-119380000D03*
%TD*%
%TO.P,,1*%
%TO.N,N/C*%
X223520000Y-119380000D03*
%TD*%
%TO.P,,1*%
%TO.N,N/C*%
X127000000Y-119380000D03*
%TD*%
%TO.P,,1*%
%TO.N,N/C*%
X119380000Y-119380000D03*
%TD*%
%TO.P,,1*%
%TO.N,N/C*%
X190500000Y-119380000D03*
%TD*%
%TO.P,,1*%
%TO.N,N/C*%
X109220000Y-119380000D03*
%TD*%
%TO.P,,1*%
%TO.N,N/C*%
X99060000Y-119380000D03*
%TD*%
%TO.P,,1*%
%TO.N,N/C*%
X106680000Y-119380000D03*
%TD*%
%TO.P,,1*%
%TO.N,N/C*%
X205740000Y-119380000D03*
%TD*%
%TO.P,,1*%
%TO.N,N/C*%
X203200000Y-119380000D03*
%TD*%
%TO.P,,1*%
%TO.N,N/C*%
X124460000Y-119380000D03*
%TD*%
%TO.P,,1*%
%TO.N,N/C*%
X198120000Y-119380000D03*
%TD*%
%TO.P,,1*%
%TO.N,N/C*%
X121920000Y-119380000D03*
%TD*%
%TO.P,,1*%
%TO.N,N/C*%
X165100000Y-119380000D03*
%TD*%
%TO.P,,1*%
%TO.N,N/C*%
X111760000Y-119380000D03*
%TD*%
%TO.P,,1*%
%TO.N,N/C*%
X175260000Y-119380000D03*
%TD*%
%TO.P,,1*%
%TO.N,N/C*%
X215900000Y-119380000D03*
%TD*%
%TO.P,,1*%
%TO.N,N/C*%
X187960000Y-119380000D03*
%TD*%
%TO.P,,1*%
%TO.N,N/C*%
X104140000Y-119380000D03*
%TD*%
%TO.P,,1*%
%TO.N,N/C*%
X213360000Y-119380000D03*
%TD*%
%TO.P,,1*%
%TO.N,N/C*%
X96520000Y-119380000D03*
%TD*%
%TO.P,,1*%
%TO.N,N/C*%
X226060000Y-119380000D03*
%TD*%
%TO.P,,1*%
%TO.N,N/C*%
X177800000Y-119380000D03*
%TD*%
%TO.P,,1*%
%TO.N,N/C*%
X134620000Y-119380000D03*
%TD*%
%TO.P,,1*%
%TO.N,N/C*%
X152400000Y-119380000D03*
%TD*%
%TO.P,,1*%
%TO.N,N/C*%
X167640000Y-119380000D03*
%TD*%
%TO.P,,1*%
%TO.N,N/C*%
X147320000Y-119380000D03*
%TD*%
%TO.P,,1*%
%TO.N,N/C*%
X157480000Y-119380000D03*
%TD*%
%TO.P,,1*%
%TO.N,N/C*%
X172720000Y-119380000D03*
%TD*%
%TO.P,,1*%
%TO.N,N/C*%
X101600000Y-119380000D03*
%TD*%
%TO.P,,1*%
%TO.N,N/C*%
X142240000Y-119380000D03*
%TD*%
%TO.P,,1*%
%TO.N,N/C*%
X132080000Y-119380000D03*
%TD*%
%TO.P,,1*%
%TO.N,N/C*%
X149860000Y-119380000D03*
%TD*%
%TO.P,,1*%
%TO.N,N/C*%
X180340000Y-119380000D03*
%TD*%
%TO.P,,1*%
%TO.N,N/C*%
X129540000Y-119380000D03*
%TD*%
%TO.P,,1*%
%TO.N,N/C*%
X139700000Y-119380000D03*
%TD*%
%TO.P,,1*%
%TO.N,N/C*%
X228600000Y-119380000D03*
%TD*%
%TO.P,,1*%
%TO.N,N/C*%
X162560000Y-119380000D03*
%TD*%
%TO.P,,1*%
%TO.N,N/C*%
X200660000Y-119380000D03*
%TD*%
%TO.P,,1*%
%TO.N,N/C*%
X114300000Y-119380000D03*
%TD*%
%TO.P,,1*%
%TO.N,N/C*%
X160020000Y-119380000D03*
%TD*%
%TO.P,,1*%
%TO.N,N/C*%
X193040000Y-119380000D03*
%TD*%
%TO.P,,1*%
%TO.N,N/C*%
X218440000Y-119380000D03*
%TD*%
%TO.P,,1*%
%TO.N,N/C*%
X127000000Y-116840000D03*
%TD*%
%TO.P,,1*%
%TO.N,N/C*%
X119380000Y-116840000D03*
%TD*%
%TO.P,,1*%
%TO.N,N/C*%
X109220000Y-116840000D03*
%TD*%
%TO.P,,1*%
%TO.N,N/C*%
X99060000Y-116840000D03*
%TD*%
%TO.P,,1*%
%TO.N,N/C*%
X106680000Y-116840000D03*
%TD*%
%TO.P,,1*%
%TO.N,N/C*%
X116840000Y-114300000D03*
%TD*%
%TO.P,,1*%
%TO.N,N/C*%
X116840000Y-116840000D03*
%TD*%
%TO.P,,1*%
%TO.N,N/C*%
X114300000Y-116840000D03*
%TD*%
%TO.P,,1*%
%TO.N,N/C*%
X101600000Y-116840000D03*
%TD*%
%TO.P,,1*%
%TO.N,N/C*%
X132080000Y-116840000D03*
%TD*%
%TO.P,,1*%
%TO.N,N/C*%
X129540000Y-116840000D03*
%TD*%
%TO.P,,1*%
%TO.N,N/C*%
X127000000Y-114300000D03*
%TD*%
%TO.P,,1*%
%TO.N,N/C*%
X119380000Y-114300000D03*
%TD*%
%TO.P,,1*%
%TO.N,N/C*%
X109220000Y-114300000D03*
%TD*%
%TO.P,,1*%
%TO.N,N/C*%
X99060000Y-114300000D03*
%TD*%
%TO.P,,1*%
%TO.N,N/C*%
X106680000Y-114300000D03*
%TD*%
%TO.P,,1*%
%TO.N,N/C*%
X124460000Y-114300000D03*
%TD*%
%TO.P,,1*%
%TO.N,N/C*%
X124460000Y-116840000D03*
%TD*%
%TO.P,,1*%
%TO.N,N/C*%
X121920000Y-116840000D03*
%TD*%
%TO.P,,1*%
%TO.N,N/C*%
X111760000Y-116840000D03*
%TD*%
%TO.P,,1*%
%TO.N,N/C*%
X121920000Y-114300000D03*
%TD*%
%TO.P,,1*%
%TO.N,N/C*%
X111760000Y-114300000D03*
%TD*%
%TO.P,,1*%
%TO.N,N/C*%
X104140000Y-116840000D03*
%TD*%
%TO.P,,1*%
%TO.N,N/C*%
X96520000Y-116840000D03*
%TD*%
%TO.P,,1*%
%TO.N,N/C*%
X134620000Y-116840000D03*
%TD*%
%TO.P,,1*%
%TO.N,N/C*%
X104140000Y-114300000D03*
%TD*%
%TO.P,,1*%
%TO.N,N/C*%
X96520000Y-114300000D03*
%TD*%
%TO.P,,1*%
%TO.N,N/C*%
X134620000Y-114300000D03*
%TD*%
%TO.P,,1*%
%TO.N,N/C*%
X101600000Y-114300000D03*
%TD*%
%TO.P,,1*%
%TO.N,N/C*%
X132080000Y-114300000D03*
%TD*%
%TO.P,,1*%
%TO.N,N/C*%
X129540000Y-114300000D03*
%TD*%
%TO.P,,1*%
%TO.N,N/C*%
X114300000Y-114300000D03*
%TD*%
%TO.P,,1*%
%TO.N,N/C*%
X127000000Y-111760000D03*
%TD*%
%TO.P,,1*%
%TO.N,N/C*%
X119380000Y-111760000D03*
%TD*%
%TO.P,,1*%
%TO.N,N/C*%
X109220000Y-111760000D03*
%TD*%
%TO.P,,1*%
%TO.N,N/C*%
X99060000Y-111760000D03*
%TD*%
%TO.P,,1*%
%TO.N,N/C*%
X106680000Y-111760000D03*
%TD*%
%TO.P,,1*%
%TO.N,N/C*%
X116840000Y-109220000D03*
%TD*%
%TO.P,,1*%
%TO.N,N/C*%
X116840000Y-111760000D03*
%TD*%
%TO.P,,1*%
%TO.N,N/C*%
X114300000Y-111760000D03*
%TD*%
%TO.P,,1*%
%TO.N,N/C*%
X101600000Y-111760000D03*
%TD*%
%TO.P,,1*%
%TO.N,N/C*%
X132080000Y-111760000D03*
%TD*%
%TO.P,,1*%
%TO.N,N/C*%
X129540000Y-111760000D03*
%TD*%
%TO.P,,1*%
%TO.N,N/C*%
X127000000Y-109220000D03*
%TD*%
%TO.P,,1*%
%TO.N,N/C*%
X119380000Y-109220000D03*
%TD*%
%TO.P,,1*%
%TO.N,N/C*%
X109220000Y-109220000D03*
%TD*%
%TO.P,,1*%
%TO.N,N/C*%
X99060000Y-109220000D03*
%TD*%
%TO.P,,1*%
%TO.N,N/C*%
X106680000Y-109220000D03*
%TD*%
%TO.P,,1*%
%TO.N,N/C*%
X124460000Y-109220000D03*
%TD*%
%TO.P,,1*%
%TO.N,N/C*%
X124460000Y-111760000D03*
%TD*%
%TO.P,,1*%
%TO.N,N/C*%
X121920000Y-111760000D03*
%TD*%
%TO.P,,1*%
%TO.N,N/C*%
X111760000Y-111760000D03*
%TD*%
%TO.P,,1*%
%TO.N,N/C*%
X121920000Y-109220000D03*
%TD*%
%TO.P,,1*%
%TO.N,N/C*%
X111760000Y-109220000D03*
%TD*%
%TO.P,,1*%
%TO.N,N/C*%
X104140000Y-111760000D03*
%TD*%
%TO.P,,1*%
%TO.N,N/C*%
X96520000Y-111760000D03*
%TD*%
%TO.P,,1*%
%TO.N,N/C*%
X134620000Y-111760000D03*
%TD*%
%TO.P,,1*%
%TO.N,N/C*%
X104140000Y-109220000D03*
%TD*%
%TO.P,,1*%
%TO.N,N/C*%
X96520000Y-109220000D03*
%TD*%
%TO.P,,1*%
%TO.N,N/C*%
X134620000Y-109220000D03*
%TD*%
%TO.P,,1*%
%TO.N,N/C*%
X101600000Y-109220000D03*
%TD*%
%TO.P,,1*%
%TO.N,N/C*%
X132080000Y-109220000D03*
%TD*%
%TO.P,,1*%
%TO.N,N/C*%
X129540000Y-109220000D03*
%TD*%
%TO.P,,1*%
%TO.N,N/C*%
X114300000Y-109220000D03*
%TD*%
%TO.P,,1*%
%TO.N,N/C*%
X127000000Y-106680000D03*
%TD*%
%TO.P,,1*%
%TO.N,N/C*%
X119380000Y-106680000D03*
%TD*%
%TO.P,,1*%
%TO.N,N/C*%
X109220000Y-106680000D03*
%TD*%
%TO.P,,1*%
%TO.N,N/C*%
X99060000Y-106680000D03*
%TD*%
%TO.P,,1*%
%TO.N,N/C*%
X106680000Y-106680000D03*
%TD*%
%TO.P,,1*%
%TO.N,N/C*%
X116840000Y-104140000D03*
%TD*%
%TO.P,,1*%
%TO.N,N/C*%
X116840000Y-106680000D03*
%TD*%
%TO.P,,1*%
%TO.N,N/C*%
X114300000Y-106680000D03*
%TD*%
%TO.P,,1*%
%TO.N,N/C*%
X101600000Y-106680000D03*
%TD*%
%TO.P,,1*%
%TO.N,N/C*%
X132080000Y-106680000D03*
%TD*%
%TO.P,,1*%
%TO.N,N/C*%
X129540000Y-106680000D03*
%TD*%
%TO.P,,1*%
%TO.N,N/C*%
X127000000Y-104140000D03*
%TD*%
%TO.P,,1*%
%TO.N,N/C*%
X119380000Y-104140000D03*
%TD*%
%TO.P,,1*%
%TO.N,N/C*%
X109220000Y-104140000D03*
%TD*%
%TO.P,,1*%
%TO.N,N/C*%
X99060000Y-104140000D03*
%TD*%
%TO.P,,1*%
%TO.N,N/C*%
X106680000Y-104140000D03*
%TD*%
%TO.P,,1*%
%TO.N,N/C*%
X124460000Y-104140000D03*
%TD*%
%TO.P,,1*%
%TO.N,N/C*%
X124460000Y-106680000D03*
%TD*%
%TO.P,,1*%
%TO.N,N/C*%
X121920000Y-106680000D03*
%TD*%
%TO.P,,1*%
%TO.N,N/C*%
X111760000Y-106680000D03*
%TD*%
%TO.P,,1*%
%TO.N,N/C*%
X121920000Y-104140000D03*
%TD*%
%TO.P,,1*%
%TO.N,N/C*%
X111760000Y-104140000D03*
%TD*%
%TO.P,,1*%
%TO.N,N/C*%
X104140000Y-106680000D03*
%TD*%
%TO.P,,1*%
%TO.N,N/C*%
X96520000Y-106680000D03*
%TD*%
%TO.P,,1*%
%TO.N,N/C*%
X134620000Y-106680000D03*
%TD*%
%TO.P,,1*%
%TO.N,N/C*%
X104140000Y-104140000D03*
%TD*%
%TO.P,,1*%
%TO.N,N/C*%
X96520000Y-104140000D03*
%TD*%
%TO.P,,1*%
%TO.N,N/C*%
X134620000Y-104140000D03*
%TD*%
%TO.P,,1*%
%TO.N,N/C*%
X101600000Y-104140000D03*
%TD*%
%TO.P,,1*%
%TO.N,N/C*%
X132080000Y-104140000D03*
%TD*%
%TO.P,,1*%
%TO.N,N/C*%
X129540000Y-104140000D03*
%TD*%
%TO.P,,1*%
%TO.N,N/C*%
X114300000Y-104140000D03*
%TD*%
%TO.P,,1*%
%TO.N,N/C*%
X127000000Y-101600000D03*
%TD*%
%TO.P,,1*%
%TO.N,N/C*%
X119380000Y-101600000D03*
%TD*%
%TO.P,,1*%
%TO.N,N/C*%
X109220000Y-101600000D03*
%TD*%
%TO.P,,1*%
%TO.N,N/C*%
X99060000Y-101600000D03*
%TD*%
%TO.P,,1*%
%TO.N,N/C*%
X106680000Y-101600000D03*
%TD*%
%TO.P,,1*%
%TO.N,N/C*%
X116840000Y-99060000D03*
%TD*%
%TO.P,,1*%
%TO.N,N/C*%
X116840000Y-101600000D03*
%TD*%
%TO.P,,1*%
%TO.N,N/C*%
X114300000Y-101600000D03*
%TD*%
%TO.P,,1*%
%TO.N,N/C*%
X101600000Y-101600000D03*
%TD*%
%TO.P,,1*%
%TO.N,N/C*%
X132080000Y-101600000D03*
%TD*%
%TO.P,,1*%
%TO.N,N/C*%
X129540000Y-101600000D03*
%TD*%
%TO.P,,1*%
%TO.N,N/C*%
X127000000Y-99060000D03*
%TD*%
%TO.P,,1*%
%TO.N,N/C*%
X119380000Y-99060000D03*
%TD*%
%TO.P,,1*%
%TO.N,N/C*%
X109220000Y-99060000D03*
%TD*%
%TO.P,,1*%
%TO.N,N/C*%
X99060000Y-99060000D03*
%TD*%
%TO.P,,1*%
%TO.N,N/C*%
X106680000Y-99060000D03*
%TD*%
%TO.P,,1*%
%TO.N,N/C*%
X124460000Y-99060000D03*
%TD*%
%TO.P,,1*%
%TO.N,N/C*%
X124460000Y-101600000D03*
%TD*%
%TO.P,,1*%
%TO.N,N/C*%
X121920000Y-101600000D03*
%TD*%
%TO.P,,1*%
%TO.N,N/C*%
X111760000Y-101600000D03*
%TD*%
%TO.P,,1*%
%TO.N,N/C*%
X121920000Y-99060000D03*
%TD*%
%TO.P,,1*%
%TO.N,N/C*%
X111760000Y-99060000D03*
%TD*%
%TO.P,,1*%
%TO.N,N/C*%
X104140000Y-101600000D03*
%TD*%
%TO.P,,1*%
%TO.N,N/C*%
X96520000Y-101600000D03*
%TD*%
%TO.P,,1*%
%TO.N,N/C*%
X134620000Y-101600000D03*
%TD*%
%TO.P,,1*%
%TO.N,N/C*%
X104140000Y-99060000D03*
%TD*%
%TO.P,,1*%
%TO.N,N/C*%
X96520000Y-99060000D03*
%TD*%
%TO.P,,1*%
%TO.N,N/C*%
X134620000Y-99060000D03*
%TD*%
%TO.P,,1*%
%TO.N,N/C*%
X101600000Y-99060000D03*
%TD*%
%TO.P,,1*%
%TO.N,N/C*%
X132080000Y-99060000D03*
%TD*%
%TO.P,,1*%
%TO.N,N/C*%
X129540000Y-99060000D03*
%TD*%
%TO.P,,1*%
%TO.N,N/C*%
X114300000Y-99060000D03*
%TD*%
%TO.P,,1*%
%TO.N,N/C*%
X127000000Y-96520000D03*
%TD*%
%TO.P,,1*%
%TO.N,N/C*%
X119380000Y-96520000D03*
%TD*%
%TO.P,,1*%
%TO.N,N/C*%
X109220000Y-96520000D03*
%TD*%
%TO.P,,1*%
%TO.N,N/C*%
X99060000Y-96520000D03*
%TD*%
%TO.P,,1*%
%TO.N,N/C*%
X106680000Y-96520000D03*
%TD*%
%TO.P,,1*%
%TO.N,N/C*%
X116840000Y-93980000D03*
%TD*%
%TO.P,,1*%
%TO.N,N/C*%
X116840000Y-96520000D03*
%TD*%
%TO.P,,1*%
%TO.N,N/C*%
X114300000Y-96520000D03*
%TD*%
%TO.P,,1*%
%TO.N,N/C*%
X101600000Y-96520000D03*
%TD*%
%TO.P,,1*%
%TO.N,N/C*%
X132080000Y-96520000D03*
%TD*%
%TO.P,,1*%
%TO.N,N/C*%
X129540000Y-96520000D03*
%TD*%
%TO.P,,1*%
%TO.N,N/C*%
X127000000Y-93980000D03*
%TD*%
%TO.P,,1*%
%TO.N,N/C*%
X119380000Y-93980000D03*
%TD*%
%TO.P,,1*%
%TO.N,N/C*%
X109220000Y-93980000D03*
%TD*%
%TO.P,,1*%
%TO.N,N/C*%
X99060000Y-93980000D03*
%TD*%
%TO.P,,1*%
%TO.N,N/C*%
X106680000Y-93980000D03*
%TD*%
%TO.P,,1*%
%TO.N,N/C*%
X124460000Y-93980000D03*
%TD*%
%TO.P,,1*%
%TO.N,N/C*%
X124460000Y-96520000D03*
%TD*%
%TO.P,,1*%
%TO.N,N/C*%
X121920000Y-96520000D03*
%TD*%
%TO.P,,1*%
%TO.N,N/C*%
X111760000Y-96520000D03*
%TD*%
%TO.P,,1*%
%TO.N,N/C*%
X121920000Y-93980000D03*
%TD*%
%TO.P,,1*%
%TO.N,N/C*%
X111760000Y-93980000D03*
%TD*%
%TO.P,,1*%
%TO.N,N/C*%
X104140000Y-96520000D03*
%TD*%
%TO.P,,1*%
%TO.N,N/C*%
X96520000Y-96520000D03*
%TD*%
%TO.P,,1*%
%TO.N,N/C*%
X134620000Y-96520000D03*
%TD*%
%TO.P,,1*%
%TO.N,N/C*%
X104140000Y-93980000D03*
%TD*%
%TO.P,,1*%
%TO.N,N/C*%
X96520000Y-93980000D03*
%TD*%
%TO.P,,1*%
%TO.N,N/C*%
X134620000Y-93980000D03*
%TD*%
%TO.P,,1*%
%TO.N,N/C*%
X101600000Y-93980000D03*
%TD*%
%TO.P,,1*%
%TO.N,N/C*%
X132080000Y-93980000D03*
%TD*%
%TO.P,,1*%
%TO.N,N/C*%
X129540000Y-93980000D03*
%TD*%
%TO.P,,1*%
%TO.N,N/C*%
X114300000Y-93980000D03*
%TD*%
%TO.P,,1*%
%TO.N,N/C*%
X127000000Y-91440000D03*
%TD*%
%TO.P,,1*%
%TO.N,N/C*%
X119380000Y-91440000D03*
%TD*%
%TO.P,,1*%
%TO.N,N/C*%
X109220000Y-91440000D03*
%TD*%
%TO.P,,1*%
%TO.N,N/C*%
X99060000Y-91440000D03*
%TD*%
%TO.P,,1*%
%TO.N,N/C*%
X106680000Y-91440000D03*
%TD*%
%TO.P,,1*%
%TO.N,N/C*%
X116840000Y-88900000D03*
%TD*%
%TO.P,,1*%
%TO.N,N/C*%
X116840000Y-91440000D03*
%TD*%
%TO.P,,1*%
%TO.N,N/C*%
X114300000Y-91440000D03*
%TD*%
%TO.P,,1*%
%TO.N,N/C*%
X101600000Y-91440000D03*
%TD*%
%TO.P,,1*%
%TO.N,N/C*%
X132080000Y-91440000D03*
%TD*%
%TO.P,,1*%
%TO.N,N/C*%
X129540000Y-91440000D03*
%TD*%
%TO.P,,1*%
%TO.N,N/C*%
X127000000Y-88900000D03*
%TD*%
%TO.P,,1*%
%TO.N,N/C*%
X119380000Y-88900000D03*
%TD*%
%TO.P,,1*%
%TO.N,N/C*%
X109220000Y-88900000D03*
%TD*%
%TO.P,,1*%
%TO.N,N/C*%
X99060000Y-88900000D03*
%TD*%
%TO.P,,1*%
%TO.N,N/C*%
X106680000Y-88900000D03*
%TD*%
%TO.P,,1*%
%TO.N,N/C*%
X124460000Y-88900000D03*
%TD*%
%TO.P,,1*%
%TO.N,N/C*%
X124460000Y-91440000D03*
%TD*%
%TO.P,,1*%
%TO.N,N/C*%
X121920000Y-91440000D03*
%TD*%
%TO.P,,1*%
%TO.N,N/C*%
X111760000Y-91440000D03*
%TD*%
%TO.P,,1*%
%TO.N,N/C*%
X121920000Y-88900000D03*
%TD*%
%TO.P,,1*%
%TO.N,N/C*%
X111760000Y-88900000D03*
%TD*%
%TO.P,,1*%
%TO.N,N/C*%
X104140000Y-91440000D03*
%TD*%
%TO.P,,1*%
%TO.N,N/C*%
X96520000Y-91440000D03*
%TD*%
%TO.P,,1*%
%TO.N,N/C*%
X134620000Y-91440000D03*
%TD*%
%TO.P,,1*%
%TO.N,N/C*%
X104140000Y-88900000D03*
%TD*%
%TO.P,,1*%
%TO.N,N/C*%
X96520000Y-88900000D03*
%TD*%
%TO.P,,1*%
%TO.N,N/C*%
X134620000Y-88900000D03*
%TD*%
%TO.P,,1*%
%TO.N,N/C*%
X101600000Y-88900000D03*
%TD*%
%TO.P,,1*%
%TO.N,N/C*%
X132080000Y-88900000D03*
%TD*%
%TO.P,,1*%
%TO.N,N/C*%
X129540000Y-88900000D03*
%TD*%
%TO.P,,1*%
%TO.N,N/C*%
X114300000Y-88900000D03*
%TD*%
%TO.P,,1*%
%TO.N,N/C*%
X231140000Y-86360000D03*
%TD*%
%TO.P,,1*%
%TO.N,N/C*%
X208280000Y-86360000D03*
%TD*%
%TO.P,,1*%
%TO.N,N/C*%
X137160000Y-86360000D03*
%TD*%
%TO.P,,1*%
%TO.N,N/C*%
X116840000Y-86360000D03*
%TD*%
%TO.P,,1*%
%TO.N,N/C*%
X154940000Y-86360000D03*
%TD*%
%TO.P,,1*%
%TO.N,N/C*%
X210820000Y-86360000D03*
%TD*%
%TO.P,,1*%
%TO.N,N/C*%
X220980000Y-86360000D03*
%TD*%
%TO.P,,1*%
%TO.N,N/C*%
X144780000Y-86360000D03*
%TD*%
%TO.P,,1*%
%TO.N,N/C*%
X170180000Y-86360000D03*
%TD*%
%TO.P,,1*%
%TO.N,N/C*%
X185420000Y-86360000D03*
%TD*%
%TO.P,,1*%
%TO.N,N/C*%
X182880000Y-86360000D03*
%TD*%
%TO.P,,1*%
%TO.N,N/C*%
X195580000Y-86360000D03*
%TD*%
%TO.P,,1*%
%TO.N,N/C*%
X223520000Y-86360000D03*
%TD*%
%TO.P,,1*%
%TO.N,N/C*%
X127000000Y-86360000D03*
%TD*%
%TO.P,,1*%
%TO.N,N/C*%
X119380000Y-86360000D03*
%TD*%
%TO.P,,1*%
%TO.N,N/C*%
X190500000Y-86360000D03*
%TD*%
%TO.P,,1*%
%TO.N,N/C*%
X109220000Y-86360000D03*
%TD*%
%TO.P,,1*%
%TO.N,N/C*%
X99060000Y-86360000D03*
%TD*%
%TO.P,,1*%
%TO.N,N/C*%
X106680000Y-86360000D03*
%TD*%
%TO.P,,1*%
%TO.N,N/C*%
X205740000Y-86360000D03*
%TD*%
%TO.P,,1*%
%TO.N,N/C*%
X203200000Y-86360000D03*
%TD*%
%TO.P,,1*%
%TO.N,N/C*%
X124460000Y-86360000D03*
%TD*%
%TO.P,,1*%
%TO.N,N/C*%
X198120000Y-86360000D03*
%TD*%
%TO.P,,1*%
%TO.N,N/C*%
X121920000Y-86360000D03*
%TD*%
%TO.P,,1*%
%TO.N,N/C*%
X165100000Y-86360000D03*
%TD*%
%TO.P,,1*%
%TO.N,N/C*%
X111760000Y-86360000D03*
%TD*%
%TO.P,,1*%
%TO.N,N/C*%
X175260000Y-86360000D03*
%TD*%
%TO.P,,1*%
%TO.N,N/C*%
X215900000Y-86360000D03*
%TD*%
%TO.P,,1*%
%TO.N,N/C*%
X187960000Y-86360000D03*
%TD*%
%TO.P,,1*%
%TO.N,N/C*%
X104140000Y-86360000D03*
%TD*%
%TO.P,,1*%
%TO.N,N/C*%
X213360000Y-86360000D03*
%TD*%
%TO.P,,1*%
%TO.N,N/C*%
X96520000Y-86360000D03*
%TD*%
%TO.P,,1*%
%TO.N,N/C*%
X226060000Y-86360000D03*
%TD*%
%TO.P,,1*%
%TO.N,N/C*%
X177800000Y-86360000D03*
%TD*%
%TO.P,,1*%
%TO.N,N/C*%
X134620000Y-86360000D03*
%TD*%
%TO.P,,1*%
%TO.N,N/C*%
X152400000Y-86360000D03*
%TD*%
%TO.P,,1*%
%TO.N,N/C*%
X167640000Y-86360000D03*
%TD*%
%TO.P,,1*%
%TO.N,N/C*%
X147320000Y-86360000D03*
%TD*%
%TO.P,,1*%
%TO.N,N/C*%
X157480000Y-86360000D03*
%TD*%
%TO.P,,1*%
%TO.N,N/C*%
X172720000Y-86360000D03*
%TD*%
%TO.P,,1*%
%TO.N,N/C*%
X101600000Y-86360000D03*
%TD*%
%TO.P,,1*%
%TO.N,N/C*%
X142240000Y-86360000D03*
%TD*%
%TO.P,,1*%
%TO.N,N/C*%
X132080000Y-86360000D03*
%TD*%
%TO.P,,1*%
%TO.N,N/C*%
X149860000Y-86360000D03*
%TD*%
%TO.P,,1*%
%TO.N,N/C*%
X180340000Y-86360000D03*
%TD*%
%TO.P,,1*%
%TO.N,N/C*%
X129540000Y-86360000D03*
%TD*%
%TO.P,,1*%
%TO.N,N/C*%
X139700000Y-86360000D03*
%TD*%
%TO.P,,1*%
%TO.N,N/C*%
X228600000Y-86360000D03*
%TD*%
%TO.P,,1*%
%TO.N,N/C*%
X162560000Y-86360000D03*
%TD*%
%TO.P,,1*%
%TO.N,N/C*%
X200660000Y-86360000D03*
%TD*%
%TO.P,,1*%
%TO.N,N/C*%
X114300000Y-86360000D03*
%TD*%
%TO.P,,1*%
%TO.N,N/C*%
X160020000Y-86360000D03*
%TD*%
%TO.P,,1*%
%TO.N,N/C*%
X193040000Y-86360000D03*
%TD*%
%TO.P,,1*%
%TO.N,N/C*%
X218440000Y-86360000D03*
%TD*%
%TO.P,,1*%
%TO.N,N/C*%
X228600000Y-83820000D03*
%TD*%
%TO.P,,1*%
%TO.N,N/C*%
X231140000Y-83820000D03*
%TD*%
%TO.P,,1*%
%TO.N,N/C*%
X220980000Y-83820000D03*
%TD*%
%TO.P,,1*%
%TO.N,N/C*%
X223520000Y-83820000D03*
%TD*%
%TO.P,,1*%
%TO.N,N/C*%
X218440000Y-83820000D03*
%TD*%
%TO.P,,1*%
%TO.N,N/C*%
X226060000Y-83820000D03*
%TD*%
%TO.P,,1*%
%TO.N,N/C*%
X101600000Y-83820000D03*
%TD*%
%TO.P,,1*%
%TO.N,N/C*%
X142240000Y-83820000D03*
%TD*%
%TO.P,,1*%
%TO.N,N/C*%
X132080000Y-83820000D03*
%TD*%
%TO.P,,1*%
%TO.N,N/C*%
X129540000Y-83820000D03*
%TD*%
%TO.P,,1*%
%TO.N,N/C*%
X139700000Y-83820000D03*
%TD*%
%TO.P,,1*%
%TO.N,N/C*%
X99060000Y-83820000D03*
%TD*%
%TO.P,,1*%
%TO.N,N/C*%
X106680000Y-83820000D03*
%TD*%
%TO.P,,1*%
%TO.N,N/C*%
X205740000Y-83820000D03*
%TD*%
%TO.P,,1*%
%TO.N,N/C*%
X154940000Y-83820000D03*
%TD*%
%TO.P,,1*%
%TO.N,N/C*%
X210820000Y-83820000D03*
%TD*%
%TO.P,,1*%
%TO.N,N/C*%
X208280000Y-83820000D03*
%TD*%
%TO.P,,1*%
%TO.N,N/C*%
X137160000Y-83820000D03*
%TD*%
%TO.P,,1*%
%TO.N,N/C*%
X116840000Y-83820000D03*
%TD*%
%TO.P,,1*%
%TO.N,N/C*%
X127000000Y-83820000D03*
%TD*%
%TO.P,,1*%
%TO.N,N/C*%
X119380000Y-83820000D03*
%TD*%
%TO.P,,1*%
%TO.N,N/C*%
X170180000Y-83820000D03*
%TD*%
%TO.P,,1*%
%TO.N,N/C*%
X185420000Y-83820000D03*
%TD*%
%TO.P,,1*%
%TO.N,N/C*%
X198120000Y-83820000D03*
%TD*%
%TO.P,,1*%
%TO.N,N/C*%
X121920000Y-83820000D03*
%TD*%
%TO.P,,1*%
%TO.N,N/C*%
X165100000Y-83820000D03*
%TD*%
%TO.P,,1*%
%TO.N,N/C*%
X162560000Y-83820000D03*
%TD*%
%TO.P,,1*%
%TO.N,N/C*%
X200660000Y-83820000D03*
%TD*%
%TO.P,,1*%
%TO.N,N/C*%
X149860000Y-83820000D03*
%TD*%
%TO.P,,1*%
%TO.N,N/C*%
X180340000Y-83820000D03*
%TD*%
%TO.P,,1*%
%TO.N,N/C*%
X152400000Y-83820000D03*
%TD*%
%TO.P,,1*%
%TO.N,N/C*%
X167640000Y-83820000D03*
%TD*%
%TO.P,,1*%
%TO.N,N/C*%
X213360000Y-83820000D03*
%TD*%
%TO.P,,1*%
%TO.N,N/C*%
X96520000Y-83820000D03*
%TD*%
%TO.P,,1*%
%TO.N,N/C*%
X160020000Y-83820000D03*
%TD*%
%TO.P,,1*%
%TO.N,N/C*%
X193040000Y-83820000D03*
%TD*%
%TO.P,,1*%
%TO.N,N/C*%
X147320000Y-83820000D03*
%TD*%
%TO.P,,1*%
%TO.N,N/C*%
X157480000Y-83820000D03*
%TD*%
%TO.P,,1*%
%TO.N,N/C*%
X175260000Y-83820000D03*
%TD*%
%TO.P,,1*%
%TO.N,N/C*%
X215900000Y-83820000D03*
%TD*%
%TO.P,,1*%
%TO.N,N/C*%
X187960000Y-83820000D03*
%TD*%
%TO.P,,1*%
%TO.N,N/C*%
X104140000Y-83820000D03*
%TD*%
%TO.P,,1*%
%TO.N,N/C*%
X203200000Y-83820000D03*
%TD*%
%TO.P,,1*%
%TO.N,N/C*%
X190500000Y-83820000D03*
%TD*%
%TO.P,,1*%
%TO.N,N/C*%
X109220000Y-83820000D03*
%TD*%
%TO.P,,1*%
%TO.N,N/C*%
X182880000Y-83820000D03*
%TD*%
%TO.P,,1*%
%TO.N,N/C*%
X195580000Y-83820000D03*
%TD*%
%TO.P,,1*%
%TO.N,N/C*%
X172720000Y-83820000D03*
%TD*%
%TO.P,,1*%
%TO.N,N/C*%
X177800000Y-83820000D03*
%TD*%
%TO.P,,1*%
%TO.N,N/C*%
X134620000Y-83820000D03*
%TD*%
%TO.P,,1*%
%TO.N,N/C*%
X111760000Y-83820000D03*
%TD*%
%TO.P,,1*%
%TO.N,N/C*%
X114300000Y-83820000D03*
%TD*%
%TO.P,,1*%
%TO.N,N/C*%
X144780000Y-83820000D03*
%TD*%
%TO.P,,1*%
%TO.N,N/C*%
X124460000Y-83820000D03*
%TD*%
D11*
%TO.P,J4,1,Pin_1*%
%TO.N,/INPUT*%
X142240000Y-91440000D03*
D12*
%TO.P,J4,2,Pin_2*%
%TO.N,+5V*%
X142240000Y-93980000D03*
%TO.P,J4,3,Pin_3*%
X142240000Y-96520000D03*
%TO.P,J4,4,Pin_4*%
%TO.N,+3V3*%
X142240000Y-99060000D03*
%TO.P,J4,5,Pin_5*%
X142240000Y-101600000D03*
%TO.P,J4,6,Pin_6*%
%TO.N,GND*%
X142240000Y-104140000D03*
%TO.P,J4,7,Pin_7*%
X142240000Y-106680000D03*
%TO.P,J4,8,Pin_8*%
X142240000Y-109220000D03*
%TD*%
D11*
%TO.P,J1,1,Pin_1*%
%TO.N,+3V3*%
X200660000Y-91440000D03*
D12*
%TO.P,J1,2,Pin_2*%
%TO.N,/SWDCLK*%
X200660000Y-93980000D03*
%TO.P,J1,3,Pin_3*%
%TO.N,GND*%
X200660000Y-96520000D03*
%TO.P,J1,4,Pin_4*%
%TO.N,/SWDIO*%
X200660000Y-99060000D03*
%TO.P,J1,5,Pin_5*%
%TO.N,/~{RST}*%
X200660000Y-101600000D03*
%TD*%
D11*
%TO.P,J2,1,Pin_1*%
%TO.N,/PB9*%
X157480000Y-109220000D03*
D12*
%TO.P,J2,2,Pin_2*%
%TO.N,/PC14*%
X160020000Y-109220000D03*
%TO.P,J2,3,Pin_3*%
%TO.N,/PC15*%
X162560000Y-109220000D03*
%TO.P,J2,4,Pin_4*%
%TO.N,+3V3*%
X165100000Y-109220000D03*
%TO.P,J2,5,Pin_5*%
%TO.N,GND*%
X167640000Y-109220000D03*
%TO.P,J2,6,Pin_6*%
%TO.N,/~{RST}*%
X170180000Y-109220000D03*
%TO.P,J2,7,Pin_7*%
%TO.N,/PA0*%
X172720000Y-109220000D03*
%TO.P,J2,8,Pin_8*%
%TO.N,/PA1*%
X175260000Y-109220000D03*
%TO.P,J2,9,Pin_9*%
%TO.N,/PA2*%
X177800000Y-109220000D03*
%TO.P,J2,10,Pin_10*%
%TO.N,/PA3*%
X180340000Y-109220000D03*
%TO.P,J2,11,Pin_11*%
%TO.N,/PA4*%
X182880000Y-109220000D03*
%TO.P,J2,12,Pin_12*%
%TO.N,/PA5*%
X185420000Y-109220000D03*
%TO.P,J2,13,Pin_13*%
%TO.N,/PA6*%
X187960000Y-109220000D03*
%TO.P,J2,14,Pin_14*%
%TO.N,/PA7*%
X190500000Y-109220000D03*
%TO.P,J2,15,Pin_15*%
%TO.N,/PB0*%
X193040000Y-109220000D03*
%TO.P,J2,16,Pin_16*%
%TO.N,/PB1*%
X195580000Y-109220000D03*
%TD*%
D11*
%TO.P,J3,1,Pin_1*%
%TO.N,/PB2*%
X195580000Y-91255000D03*
D12*
%TO.P,J3,2,Pin_2*%
%TO.N,/PA8*%
X193040000Y-91255000D03*
%TO.P,J3,3,Pin_3*%
%TO.N,/PA9*%
X190500000Y-91255000D03*
%TO.P,J3,4,Pin_4*%
%TO.N,/PC6*%
X187960000Y-91255000D03*
%TO.P,J3,5,Pin_5*%
%TO.N,/PA10*%
X185420000Y-91255000D03*
%TO.P,J3,6,Pin_6*%
%TO.N,/PA11*%
X182880000Y-91255000D03*
%TO.P,J3,7,Pin_7*%
%TO.N,/PA12*%
X180340000Y-91255000D03*
%TO.P,J3,8,Pin_8*%
%TO.N,/SWDIO*%
X177800000Y-91255000D03*
%TO.P,J3,9,Pin_9*%
%TO.N,/SWDCLK*%
X175260000Y-91255000D03*
%TO.P,J3,10,Pin_10*%
%TO.N,/PA15*%
X172720000Y-91255000D03*
%TO.P,J3,11,Pin_11*%
%TO.N,/PB3*%
X170180000Y-91255000D03*
%TO.P,J3,12,Pin_12*%
%TO.N,/PB4*%
X167640000Y-91255000D03*
%TO.P,J3,13,Pin_13*%
%TO.N,/PB5*%
X165100000Y-91255000D03*
%TO.P,J3,14,Pin_14*%
%TO.N,/PB6*%
X162560000Y-91255000D03*
%TO.P,J3,15,Pin_15*%
%TO.N,/PB7*%
X160020000Y-91255000D03*
%TO.P,J3,16,Pin_16*%
%TO.N,/PB8*%
X157480000Y-91255000D03*
%TD*%
D13*
%TO.P,Y1,1,1*%
%TO.N,/PC15*%
X170150000Y-98500000D03*
%TO.P,Y1,2,2*%
%TO.N,/PC14*%
X170150000Y-101040000D03*
%TD*%
D14*
%TO.N,GND*%
X168284608Y-106054608D03*
D15*
%TO.N,+3V3*%
X147320000Y-99060000D03*
%TO.N,/INPUT*%
X148590000Y-102870000D03*
X148590000Y-94615000D03*
D14*
%TO.N,GND*%
X193675000Y-104775000D03*
X194310000Y-104775000D03*
X194945000Y-104775000D03*
X195580000Y-104775000D03*
X195580000Y-104140000D03*
X194945000Y-104140000D03*
X194310000Y-104140000D03*
X193675000Y-104140000D03*
X156845000Y-97155000D03*
X157480000Y-97155000D03*
X158115000Y-97155000D03*
X158750000Y-97155000D03*
X158750000Y-96520000D03*
X158115000Y-96520000D03*
X157480000Y-96520000D03*
X156845000Y-96520000D03*
X158115000Y-103505000D03*
X158115000Y-104140000D03*
X158115000Y-104775000D03*
X158115000Y-105410000D03*
X157480000Y-105410000D03*
X157480000Y-104775000D03*
X157480000Y-104140000D03*
X157480000Y-103505000D03*
X160655000Y-99060000D03*
X160655000Y-99695000D03*
X160020000Y-99695000D03*
X160020000Y-99060000D03*
X165100000Y-99060000D03*
X168275000Y-101600000D03*
%TO.N,+3V3*%
X172600000Y-102800000D03*
X161300000Y-103400000D03*
%TO.N,/~{RST}*%
X178500000Y-101000000D03*
X165100000Y-106800000D03*
X171000000Y-107200000D03*
%TO.N,+3V3*%
X164000000Y-107200000D03*
%TO.N,/SWDCLK*%
X177100000Y-96500000D03*
X195200000Y-93800000D03*
%TO.N,/SWDIO*%
X178300000Y-96600000D03*
X193200000Y-97100000D03*
%TO.N,/PA8*%
X187500000Y-100300000D03*
X187547500Y-96747500D03*
%TO.N,/PB8*%
X170200000Y-96300000D03*
X164600000Y-96200000D03*
%TD*%
D16*
%TO.N,+3V3*%
X147320000Y-99060000D02*
X142240000Y-99060000D01*
%TO.N,/INPUT*%
X148590000Y-94615000D02*
X148590000Y-102870000D01*
D17*
%TO.N,+3V3*%
X172000000Y-103400000D02*
X172600000Y-102800000D01*
X161300000Y-103400000D02*
X172000000Y-103400000D01*
%TO.N,/~{RST}*%
X178500000Y-101000000D02*
X179100000Y-101600000D01*
X179100000Y-101600000D02*
X200660000Y-101600000D01*
X171000000Y-107200000D02*
X165500000Y-107200000D01*
X165500000Y-107200000D02*
X165100000Y-106800000D01*
%TO.N,+3V3*%
X164000000Y-107200000D02*
X165100000Y-108300000D01*
X165100000Y-108300000D02*
X165100000Y-109220000D01*
%TO.N,/SWDCLK*%
X179800000Y-93800000D02*
X177100000Y-96500000D01*
X195200000Y-93800000D02*
X179800000Y-93800000D01*
%TO.N,/SWDIO*%
X192247500Y-96147500D02*
X178752500Y-96147500D01*
X193200000Y-97100000D02*
X192247500Y-96147500D01*
X178752500Y-96147500D02*
X178300000Y-96600000D01*
%TO.N,/PA8*%
X187500000Y-100300000D02*
X187500000Y-96795000D01*
X187500000Y-96795000D02*
X187547500Y-96747500D01*
%TO.N,/PB8*%
X164600000Y-96200000D02*
X170100000Y-96200000D01*
X170100000Y-96200000D02*
X170200000Y-96300000D01*
%TD*%
%TA.AperFunction,Conductor*%
%TO.N,GND*%
G36*
X199474855Y-89566546D02*
G01*
X199491575Y-89585842D01*
X199621501Y-89771396D01*
X199621506Y-89771402D01*
X199743430Y-89893326D01*
X199776915Y-89954649D01*
X199771931Y-90024341D01*
X199730059Y-90080274D01*
X199699083Y-90097189D01*
X199567669Y-90146203D01*
X199567664Y-90146206D01*
X199452455Y-90232452D01*
X199452452Y-90232455D01*
X199366206Y-90347664D01*
X199366202Y-90347671D01*
X199315908Y-90482517D01*
X199309501Y-90542116D01*
X199309501Y-90542123D01*
X199309500Y-90542135D01*
X199309500Y-92337870D01*
X199309501Y-92337876D01*
X199315908Y-92397483D01*
X199366202Y-92532328D01*
X199366206Y-92532335D01*
X199452452Y-92647544D01*
X199452455Y-92647547D01*
X199567664Y-92733793D01*
X199567671Y-92733797D01*
X199699081Y-92782810D01*
X199755015Y-92824681D01*
X199779432Y-92890145D01*
X199764580Y-92958418D01*
X199743430Y-92986673D01*
X199621503Y-93108600D01*
X199485965Y-93302169D01*
X199485964Y-93302171D01*
X199386098Y-93516335D01*
X199386094Y-93516344D01*
X199324938Y-93744586D01*
X199324936Y-93744596D01*
X199304341Y-93979999D01*
X199304341Y-93980000D01*
X199324936Y-94215403D01*
X199324938Y-94215413D01*
X199386094Y-94443655D01*
X199386096Y-94443659D01*
X199386097Y-94443663D01*
X199452175Y-94585368D01*
X199485965Y-94657830D01*
X199485967Y-94657834D01*
X199494657Y-94670244D01*
X199621501Y-94851396D01*
X199621506Y-94851402D01*
X199788597Y-95018493D01*
X199788603Y-95018498D01*
X199974594Y-95148730D01*
X200018219Y-95203307D01*
X200025413Y-95272805D01*
X199993890Y-95335160D01*
X199974595Y-95351880D01*
X199788922Y-95481890D01*
X199788920Y-95481891D01*
X199621891Y-95648920D01*
X199621886Y-95648926D01*
X199486400Y-95842420D01*
X199486399Y-95842422D01*
X199386570Y-96056507D01*
X199386567Y-96056513D01*
X199329364Y-96269999D01*
X199329364Y-96270000D01*
X200226988Y-96270000D01*
X200194075Y-96327007D01*
X200160000Y-96454174D01*
X200160000Y-96585826D01*
X200194075Y-96712993D01*
X200226988Y-96770000D01*
X199329364Y-96770000D01*
X199386567Y-96983486D01*
X199386570Y-96983492D01*
X199486399Y-97197578D01*
X199621894Y-97391082D01*
X199788917Y-97558105D01*
X199974595Y-97688119D01*
X200018219Y-97742696D01*
X200025412Y-97812195D01*
X199993890Y-97874549D01*
X199974595Y-97891269D01*
X199788594Y-98021508D01*
X199621505Y-98188597D01*
X199485965Y-98382169D01*
X199485964Y-98382171D01*
X199386098Y-98596335D01*
X199386094Y-98596344D01*
X199324938Y-98824586D01*
X199324936Y-98824596D01*
X199304341Y-99059999D01*
X199304341Y-99060000D01*
X199324936Y-99295403D01*
X199324938Y-99295413D01*
X199386094Y-99523655D01*
X199386096Y-99523659D01*
X199386097Y-99523663D01*
X199390000Y-99532032D01*
X199485965Y-99737830D01*
X199485967Y-99737834D01*
X199525923Y-99794896D01*
X199621501Y-99931396D01*
X199621506Y-99931402D01*
X199788597Y-100098493D01*
X199788603Y-100098498D01*
X199974158Y-100228425D01*
X200017783Y-100283002D01*
X200024977Y-100352500D01*
X199993454Y-100414855D01*
X199974158Y-100431575D01*
X199788597Y-100561505D01*
X199621506Y-100728596D01*
X199485965Y-100922170D01*
X199485962Y-100922175D01*
X199483289Y-100927909D01*
X199437115Y-100980346D01*
X199370909Y-100999500D01*
X188230012Y-100999500D01*
X188162973Y-100979815D01*
X188117218Y-100927011D01*
X188107274Y-100857853D01*
X188128194Y-100809467D01*
X188126111Y-100808158D01*
X188129816Y-100802262D01*
X188225789Y-100649522D01*
X188285368Y-100479255D01*
X188285369Y-100479249D01*
X188305565Y-100300003D01*
X188305565Y-100299996D01*
X188285369Y-100120750D01*
X188285368Y-100120745D01*
X188264287Y-100060500D01*
X188225789Y-99950478D01*
X188213798Y-99931395D01*
X188129813Y-99797734D01*
X188127550Y-99794896D01*
X188126659Y-99792715D01*
X188126111Y-99791842D01*
X188126264Y-99791745D01*
X188101144Y-99730209D01*
X188100500Y-99717587D01*
X188100500Y-97377940D01*
X188120185Y-97310901D01*
X188136819Y-97290259D01*
X188147829Y-97279249D01*
X188177316Y-97249762D01*
X188273289Y-97097022D01*
X188332868Y-96926755D01*
X188340602Y-96858117D01*
X188367668Y-96793703D01*
X188425263Y-96754148D01*
X188463822Y-96748000D01*
X191947403Y-96748000D01*
X192014442Y-96767685D01*
X192035084Y-96784319D01*
X192369298Y-97118533D01*
X192402783Y-97179856D01*
X192404837Y-97192330D01*
X192414630Y-97279249D01*
X192414631Y-97279254D01*
X192414632Y-97279255D01*
X192422538Y-97301849D01*
X192474210Y-97449521D01*
X192514710Y-97513976D01*
X192570184Y-97602262D01*
X192697738Y-97729816D01*
X192757223Y-97767193D01*
X192829328Y-97812500D01*
X192850478Y-97825789D01*
X192989826Y-97874549D01*
X193020745Y-97885368D01*
X193020750Y-97885369D01*
X193199996Y-97905565D01*
X193200000Y-97905565D01*
X193200004Y-97905565D01*
X193379249Y-97885369D01*
X193379252Y-97885368D01*
X193379255Y-97885368D01*
X193549522Y-97825789D01*
X193702262Y-97729816D01*
X193829816Y-97602262D01*
X193925789Y-97449522D01*
X193985368Y-97279255D01*
X193988691Y-97249762D01*
X194005565Y-97100003D01*
X194005565Y-97099996D01*
X193985369Y-96920750D01*
X193985368Y-96920745D01*
X193985142Y-96920099D01*
X193925789Y-96750478D01*
X193829816Y-96597738D01*
X193702262Y-96470184D01*
X193676782Y-96454174D01*
X193549521Y-96374210D01*
X193379249Y-96314630D01*
X193292330Y-96304837D01*
X193227916Y-96277770D01*
X193218533Y-96269298D01*
X192735090Y-95785855D01*
X192735088Y-95785852D01*
X192616217Y-95666981D01*
X192616209Y-95666975D01*
X192501977Y-95601024D01*
X192501977Y-95601023D01*
X192501972Y-95601022D01*
X192494055Y-95596451D01*
X192479286Y-95587923D01*
X192441103Y-95577692D01*
X192326557Y-95546999D01*
X192168443Y-95546999D01*
X192160847Y-95546999D01*
X192160831Y-95547000D01*
X179201598Y-95547000D01*
X179134559Y-95527315D01*
X179088804Y-95474511D01*
X179078860Y-95405353D01*
X179107885Y-95341797D01*
X179113917Y-95335319D01*
X180012417Y-94436819D01*
X180073740Y-94403334D01*
X180100098Y-94400500D01*
X194617588Y-94400500D01*
X194684627Y-94420185D01*
X194694903Y-94427555D01*
X194697736Y-94429814D01*
X194697738Y-94429816D01*
X194850478Y-94525789D01*
X194964957Y-94565847D01*
X195020745Y-94585368D01*
X195020750Y-94585369D01*
X195199996Y-94605565D01*
X195200000Y-94605565D01*
X195200004Y-94605565D01*
X195379249Y-94585369D01*
X195379252Y-94585368D01*
X195379255Y-94585368D01*
X195549522Y-94525789D01*
X195702262Y-94429816D01*
X195829816Y-94302262D01*
X195925789Y-94149522D01*
X195985368Y-93979255D01*
X195985597Y-93977225D01*
X196005565Y-93800003D01*
X196005565Y-93799996D01*
X195985369Y-93620750D01*
X195985368Y-93620745D01*
X195981489Y-93609659D01*
X195925789Y-93450478D01*
X195829816Y-93297738D01*
X195702262Y-93170184D01*
X195604252Y-93108600D01*
X195549523Y-93074211D01*
X195379254Y-93014631D01*
X195379249Y-93014630D01*
X195200004Y-92994435D01*
X195199996Y-92994435D01*
X195020750Y-93014630D01*
X195020745Y-93014631D01*
X194850476Y-93074211D01*
X194697736Y-93170185D01*
X194694903Y-93172445D01*
X194692724Y-93173334D01*
X194691842Y-93173889D01*
X194691744Y-93173734D01*
X194630217Y-93198855D01*
X194617588Y-93199500D01*
X179886670Y-93199500D01*
X179886654Y-93199499D01*
X179879058Y-93199499D01*
X179720943Y-93199499D01*
X179644579Y-93219961D01*
X179568214Y-93240423D01*
X179568209Y-93240426D01*
X179431290Y-93319475D01*
X179431282Y-93319481D01*
X177081465Y-95669298D01*
X177020142Y-95702783D01*
X177007668Y-95704837D01*
X176920750Y-95714630D01*
X176750478Y-95774210D01*
X176597737Y-95870184D01*
X176470184Y-95997737D01*
X176374211Y-96150476D01*
X176314631Y-96320745D01*
X176314630Y-96320750D01*
X176294435Y-96499996D01*
X176294435Y-96500003D01*
X176314630Y-96679249D01*
X176314631Y-96679254D01*
X176374211Y-96849523D01*
X176437045Y-96949522D01*
X176470184Y-97002262D01*
X176597738Y-97129816D01*
X176637855Y-97155023D01*
X176718732Y-97205842D01*
X176750478Y-97225789D01*
X176903258Y-97279249D01*
X176920745Y-97285368D01*
X176920750Y-97285369D01*
X177099996Y-97305565D01*
X177100000Y-97305565D01*
X177100004Y-97305565D01*
X177279249Y-97285369D01*
X177279252Y-97285368D01*
X177279255Y-97285368D01*
X177449522Y-97225789D01*
X177481268Y-97205842D01*
X177494018Y-97197830D01*
X177577166Y-97145584D01*
X177644402Y-97126584D01*
X177711237Y-97146951D01*
X177730819Y-97162897D01*
X177797738Y-97229816D01*
X177950478Y-97325789D01*
X178099517Y-97377940D01*
X178120745Y-97385368D01*
X178120750Y-97385369D01*
X178299996Y-97405565D01*
X178300000Y-97405565D01*
X178300004Y-97405565D01*
X178479249Y-97385369D01*
X178479252Y-97385368D01*
X178479255Y-97385368D01*
X178649522Y-97325789D01*
X178802262Y-97229816D01*
X178929816Y-97102262D01*
X179025789Y-96949522D01*
X179067246Y-96831044D01*
X179107967Y-96774270D01*
X179172919Y-96748522D01*
X179184287Y-96748000D01*
X186631178Y-96748000D01*
X186698217Y-96767685D01*
X186743972Y-96820489D01*
X186754398Y-96858117D01*
X186762130Y-96926749D01*
X186821711Y-97097025D01*
X186880493Y-97190574D01*
X186899500Y-97256546D01*
X186899500Y-99717587D01*
X186879815Y-99784626D01*
X186872450Y-99794896D01*
X186870186Y-99797734D01*
X186774211Y-99950476D01*
X186714631Y-100120745D01*
X186714630Y-100120750D01*
X186694435Y-100299996D01*
X186694435Y-100300003D01*
X186714630Y-100479249D01*
X186714631Y-100479254D01*
X186774211Y-100649523D01*
X186873889Y-100808158D01*
X186871590Y-100809602D01*
X186893341Y-100862849D01*
X186880599Y-100931547D01*
X186832739Y-100982450D01*
X186769988Y-100999500D01*
X179416321Y-100999500D01*
X179349282Y-100979815D01*
X179303527Y-100927011D01*
X179293101Y-100889386D01*
X179285368Y-100820745D01*
X179225789Y-100650478D01*
X179129816Y-100497738D01*
X179002262Y-100370184D01*
X178938310Y-100330000D01*
X178849523Y-100274211D01*
X178679254Y-100214631D01*
X178679249Y-100214630D01*
X178500004Y-100194435D01*
X178499996Y-100194435D01*
X178320750Y-100214630D01*
X178320745Y-100214631D01*
X178150476Y-100274211D01*
X177997737Y-100370184D01*
X177870184Y-100497737D01*
X177774211Y-100650476D01*
X177714631Y-100820745D01*
X177714630Y-100820750D01*
X177694435Y-100999996D01*
X177694435Y-101000003D01*
X177714630Y-101179249D01*
X177714631Y-101179254D01*
X177774211Y-101349523D01*
X177821465Y-101424727D01*
X177870184Y-101502262D01*
X177997738Y-101629816D01*
X178150478Y-101725789D01*
X178320745Y-101785368D01*
X178407669Y-101795161D01*
X178472080Y-101822226D01*
X178481465Y-101830700D01*
X178615139Y-101964374D01*
X178615149Y-101964385D01*
X178619479Y-101968715D01*
X178619480Y-101968716D01*
X178731284Y-102080520D01*
X178815927Y-102129388D01*
X178868215Y-102159577D01*
X179020943Y-102200500D01*
X199370909Y-102200500D01*
X199437948Y-102220185D01*
X199483292Y-102272097D01*
X199485965Y-102277830D01*
X199621501Y-102471396D01*
X199621506Y-102471402D01*
X199788597Y-102638493D01*
X199788603Y-102638498D01*
X199974158Y-102768425D01*
X200017783Y-102823002D01*
X200024977Y-102892500D01*
X199993454Y-102954855D01*
X199974158Y-102971575D01*
X199788597Y-103101505D01*
X199621505Y-103268597D01*
X199491575Y-103454158D01*
X199436998Y-103497783D01*
X199367500Y-103504977D01*
X199305145Y-103473454D01*
X199288425Y-103454158D01*
X199158494Y-103268597D01*
X198991402Y-103101506D01*
X198991395Y-103101501D01*
X198797834Y-102965967D01*
X198797830Y-102965965D01*
X198774659Y-102955160D01*
X198583663Y-102866097D01*
X198583659Y-102866096D01*
X198583655Y-102866094D01*
X198355413Y-102804938D01*
X198355403Y-102804936D01*
X198120001Y-102784341D01*
X198119999Y-102784341D01*
X197884596Y-102804936D01*
X197884586Y-102804938D01*
X197656344Y-102866094D01*
X197656335Y-102866098D01*
X197442171Y-102965964D01*
X197442169Y-102965965D01*
X197248597Y-103101505D01*
X197081505Y-103268597D01*
X196945965Y-103462169D01*
X196945964Y-103462171D01*
X196846098Y-103676335D01*
X196846094Y-103676344D01*
X196784938Y-103904586D01*
X196784936Y-103904596D01*
X196764341Y-104139999D01*
X196764341Y-104140000D01*
X196784936Y-104375403D01*
X196784938Y-104375413D01*
X196846094Y-104603655D01*
X196846096Y-104603659D01*
X196846097Y-104603663D01*
X196926004Y-104775023D01*
X196945965Y-104817830D01*
X196945967Y-104817834D01*
X197054281Y-104972521D01*
X197081501Y-105011396D01*
X197081506Y-105011402D01*
X197248597Y-105178493D01*
X197248603Y-105178498D01*
X197434158Y-105308425D01*
X197477783Y-105363002D01*
X197484977Y-105432500D01*
X197453454Y-105494855D01*
X197434158Y-105511575D01*
X197248597Y-105641505D01*
X197081505Y-105808597D01*
X196945965Y-106002169D01*
X196945964Y-106002171D01*
X196846098Y-106216335D01*
X196846094Y-106216344D01*
X196784938Y-106444586D01*
X196784936Y-106444596D01*
X196764341Y-106679999D01*
X196764341Y-106680000D01*
X196784936Y-106915403D01*
X196784938Y-106915413D01*
X196846094Y-107143655D01*
X196846096Y-107143659D01*
X196846097Y-107143663D01*
X196926004Y-107315023D01*
X196945965Y-107357830D01*
X196945967Y-107357834D01*
X197054281Y-107512521D01*
X197081501Y-107551396D01*
X197081506Y-107551402D01*
X197248597Y-107718493D01*
X197248603Y-107718498D01*
X197434158Y-107848425D01*
X197477783Y-107903002D01*
X197484977Y-107972500D01*
X197453454Y-108034855D01*
X197434158Y-108051575D01*
X197248597Y-108181505D01*
X197081505Y-108348597D01*
X196951575Y-108534158D01*
X196896998Y-108577783D01*
X196827500Y-108584977D01*
X196765145Y-108553454D01*
X196748425Y-108534158D01*
X196618494Y-108348597D01*
X196451402Y-108181506D01*
X196451395Y-108181501D01*
X196257834Y-108045967D01*
X196257830Y-108045965D01*
X196234007Y-108034856D01*
X196043663Y-107946097D01*
X196043659Y-107946096D01*
X196043655Y-107946094D01*
X195815413Y-107884938D01*
X195815403Y-107884936D01*
X195580001Y-107864341D01*
X195579999Y-107864341D01*
X195344596Y-107884936D01*
X195344586Y-107884938D01*
X195116344Y-107946094D01*
X195116335Y-107946098D01*
X194902171Y-108045964D01*
X194902169Y-108045965D01*
X194708597Y-108181505D01*
X194541505Y-108348597D01*
X194411575Y-108534158D01*
X194356998Y-108577783D01*
X194287500Y-108584977D01*
X194225145Y-108553454D01*
X194208425Y-108534158D01*
X194078494Y-108348597D01*
X193911402Y-108181506D01*
X193911395Y-108181501D01*
X193717834Y-108045967D01*
X193717830Y-108045965D01*
X193694007Y-108034856D01*
X193503663Y-107946097D01*
X193503659Y-107946096D01*
X193503655Y-107946094D01*
X193275413Y-107884938D01*
X193275403Y-107884936D01*
X193040001Y-107864341D01*
X193039999Y-107864341D01*
X192804596Y-107884936D01*
X192804586Y-107884938D01*
X192576344Y-107946094D01*
X192576335Y-107946098D01*
X192362171Y-108045964D01*
X192362169Y-108045965D01*
X192168597Y-108181505D01*
X192001505Y-108348597D01*
X191871575Y-108534158D01*
X191816998Y-108577783D01*
X191747500Y-108584977D01*
X191685145Y-108553454D01*
X191668425Y-108534158D01*
X191538494Y-108348597D01*
X191371402Y-108181506D01*
X191371395Y-108181501D01*
X191177834Y-108045967D01*
X191177830Y-108045965D01*
X191154007Y-108034856D01*
X190963663Y-107946097D01*
X190963659Y-107946096D01*
X190963655Y-107946094D01*
X190735413Y-107884938D01*
X190735403Y-107884936D01*
X190500001Y-107864341D01*
X190499999Y-107864341D01*
X190264596Y-107884936D01*
X190264586Y-107884938D01*
X190036344Y-107946094D01*
X190036335Y-107946098D01*
X189822171Y-108045964D01*
X189822169Y-108045965D01*
X189628597Y-108181505D01*
X189461505Y-108348597D01*
X189331575Y-108534158D01*
X189276998Y-108577783D01*
X189207500Y-108584977D01*
X189145145Y-108553454D01*
X189128425Y-108534158D01*
X188998494Y-108348597D01*
X188831402Y-108181506D01*
X188831395Y-108181501D01*
X188637834Y-108045967D01*
X188637830Y-108045965D01*
X188614007Y-108034856D01*
X188423663Y-107946097D01*
X188423659Y-107946096D01*
X188423655Y-107946094D01*
X188195413Y-107884938D01*
X188195403Y-107884936D01*
X187960001Y-107864341D01*
X187959999Y-107864341D01*
X187724596Y-107884936D01*
X187724586Y-107884938D01*
X187496344Y-107946094D01*
X187496335Y-107946098D01*
X187282171Y-108045964D01*
X187282169Y-108045965D01*
X187088597Y-108181505D01*
X186921505Y-108348597D01*
X186791575Y-108534158D01*
X186736998Y-108577783D01*
X186667500Y-108584977D01*
X186605145Y-108553454D01*
X186588425Y-108534158D01*
X186458494Y-108348597D01*
X186291402Y-108181506D01*
X186291395Y-108181501D01*
X186097834Y-108045967D01*
X186097830Y-108045965D01*
X186074007Y-108034856D01*
X185883663Y-107946097D01*
X185883659Y-107946096D01*
X185883655Y-107946094D01*
X185655413Y-107884938D01*
X185655403Y-107884936D01*
X185420001Y-107864341D01*
X185419999Y-107864341D01*
X185184596Y-107884936D01*
X185184586Y-107884938D01*
X184956344Y-107946094D01*
X184956335Y-107946098D01*
X184742171Y-108045964D01*
X184742169Y-108045965D01*
X184548597Y-108181505D01*
X184381505Y-108348597D01*
X184251575Y-108534158D01*
X184196998Y-108577783D01*
X184127500Y-108584977D01*
X184065145Y-108553454D01*
X184048425Y-108534158D01*
X183918494Y-108348597D01*
X183751402Y-108181506D01*
X183751395Y-108181501D01*
X183557834Y-108045967D01*
X183557830Y-108045965D01*
X183534007Y-108034856D01*
X183343663Y-107946097D01*
X183343659Y-107946096D01*
X183343655Y-107946094D01*
X183115413Y-107884938D01*
X183115403Y-107884936D01*
X182880001Y-107864341D01*
X182879999Y-107864341D01*
X182644596Y-107884936D01*
X182644586Y-107884938D01*
X182416344Y-107946094D01*
X182416335Y-107946098D01*
X182202171Y-108045964D01*
X182202169Y-108045965D01*
X182008597Y-108181505D01*
X181841505Y-108348597D01*
X181711575Y-108534158D01*
X181656998Y-108577783D01*
X181587500Y-108584977D01*
X181525145Y-108553454D01*
X181508425Y-108534158D01*
X181378494Y-108348597D01*
X181211402Y-108181506D01*
X181211395Y-108181501D01*
X181017834Y-108045967D01*
X181017830Y-108045965D01*
X180994007Y-108034856D01*
X180803663Y-107946097D01*
X180803659Y-107946096D01*
X180803655Y-107946094D01*
X180575413Y-107884938D01*
X180575403Y-107884936D01*
X180340001Y-107864341D01*
X180339999Y-107864341D01*
X180104596Y-107884936D01*
X180104586Y-107884938D01*
X179876344Y-107946094D01*
X179876335Y-107946098D01*
X179662171Y-108045964D01*
X179662169Y-108045965D01*
X179468597Y-108181505D01*
X179301505Y-108348597D01*
X179171575Y-108534158D01*
X179116998Y-108577783D01*
X179047500Y-108584977D01*
X178985145Y-108553454D01*
X178968425Y-108534158D01*
X178838494Y-108348597D01*
X178671402Y-108181506D01*
X178671395Y-108181501D01*
X178477834Y-108045967D01*
X178477830Y-108045965D01*
X178454007Y-108034856D01*
X178263663Y-107946097D01*
X178263659Y-107946096D01*
X178263655Y-107946094D01*
X178035413Y-107884938D01*
X178035403Y-107884936D01*
X177800001Y-107864341D01*
X177799999Y-107864341D01*
X177564596Y-107884936D01*
X177564586Y-107884938D01*
X177336344Y-107946094D01*
X177336335Y-107946098D01*
X177122171Y-108045964D01*
X177122169Y-108045965D01*
X176928597Y-108181505D01*
X176761505Y-108348597D01*
X176631575Y-108534158D01*
X176576998Y-108577783D01*
X176507500Y-108584977D01*
X176445145Y-108553454D01*
X176428425Y-108534158D01*
X176298494Y-108348597D01*
X176131402Y-108181506D01*
X176131395Y-108181501D01*
X175937834Y-108045967D01*
X175937830Y-108045965D01*
X175914007Y-108034856D01*
X175723663Y-107946097D01*
X175723659Y-107946096D01*
X175723655Y-107946094D01*
X175495413Y-107884938D01*
X175495403Y-107884936D01*
X175260001Y-107864341D01*
X175259999Y-107864341D01*
X175024596Y-107884936D01*
X175024586Y-107884938D01*
X174796344Y-107946094D01*
X174796335Y-107946098D01*
X174582171Y-108045964D01*
X174582169Y-108045965D01*
X174388597Y-108181505D01*
X174221505Y-108348597D01*
X174091575Y-108534158D01*
X174036998Y-108577783D01*
X173967500Y-108584977D01*
X173905145Y-108553454D01*
X173888425Y-108534158D01*
X173758494Y-108348597D01*
X173591402Y-108181506D01*
X173591395Y-108181501D01*
X173397834Y-108045967D01*
X173397830Y-108045965D01*
X173374007Y-108034856D01*
X173183663Y-107946097D01*
X173183659Y-107946096D01*
X173183655Y-107946094D01*
X172955413Y-107884938D01*
X172955403Y-107884936D01*
X172720001Y-107864341D01*
X172719999Y-107864341D01*
X172484596Y-107884936D01*
X172484586Y-107884938D01*
X172256344Y-107946094D01*
X172256335Y-107946098D01*
X172042171Y-108045964D01*
X172042169Y-108045965D01*
X171848597Y-108181505D01*
X171681505Y-108348597D01*
X171551575Y-108534158D01*
X171496998Y-108577783D01*
X171427500Y-108584977D01*
X171365145Y-108553454D01*
X171348425Y-108534158D01*
X171218496Y-108348600D01*
X171159954Y-108290058D01*
X171070142Y-108200246D01*
X171036659Y-108138925D01*
X171041643Y-108069234D01*
X171083514Y-108013300D01*
X171143943Y-107989347D01*
X171179249Y-107985369D01*
X171179252Y-107985368D01*
X171179255Y-107985368D01*
X171349522Y-107925789D01*
X171502262Y-107829816D01*
X171629816Y-107702262D01*
X171725789Y-107549522D01*
X171785368Y-107379255D01*
X171785369Y-107379249D01*
X171805565Y-107200003D01*
X171805565Y-107199996D01*
X171785369Y-107020750D01*
X171785368Y-107020745D01*
X171725788Y-106850476D01*
X171629815Y-106697737D01*
X171502262Y-106570184D01*
X171349523Y-106474211D01*
X171179254Y-106414631D01*
X171179249Y-106414630D01*
X171000004Y-106394435D01*
X170999996Y-106394435D01*
X170820750Y-106414630D01*
X170820745Y-106414631D01*
X170650476Y-106474211D01*
X170497736Y-106570185D01*
X170494903Y-106572445D01*
X170492724Y-106573334D01*
X170491842Y-106573889D01*
X170491744Y-106573734D01*
X170430217Y-106598855D01*
X170417588Y-106599500D01*
X165965917Y-106599500D01*
X165898878Y-106579815D01*
X165853123Y-106527011D01*
X165848875Y-106516454D01*
X165825789Y-106450478D01*
X165729815Y-106297737D01*
X165602262Y-106170184D01*
X165449523Y-106074211D01*
X165279254Y-106014631D01*
X165279249Y-106014630D01*
X165100004Y-105994435D01*
X165099996Y-105994435D01*
X164920750Y-106014630D01*
X164920745Y-106014631D01*
X164750476Y-106074211D01*
X164597737Y-106170184D01*
X164470184Y-106297737D01*
X164410148Y-106393285D01*
X164357813Y-106439576D01*
X164288760Y-106450224D01*
X164264200Y-106444355D01*
X164179257Y-106414632D01*
X164179249Y-106414630D01*
X164000004Y-106394435D01*
X163999996Y-106394435D01*
X163820750Y-106414630D01*
X163820745Y-106414631D01*
X163650476Y-106474211D01*
X163497737Y-106570184D01*
X163370184Y-106697737D01*
X163274211Y-106850476D01*
X163214631Y-107020745D01*
X163214630Y-107020750D01*
X163194435Y-107199996D01*
X163194435Y-107200003D01*
X163214630Y-107379249D01*
X163214631Y-107379254D01*
X163274211Y-107549523D01*
X163275392Y-107551402D01*
X163370184Y-107702262D01*
X163497738Y-107829816D01*
X163650478Y-107925789D01*
X163820745Y-107985368D01*
X163907669Y-107995161D01*
X163972080Y-108022226D01*
X163981465Y-108030700D01*
X164092752Y-108141987D01*
X164126237Y-108203310D01*
X164121253Y-108273002D01*
X164092755Y-108317347D01*
X164061504Y-108348599D01*
X163931575Y-108534158D01*
X163876998Y-108577783D01*
X163807500Y-108584977D01*
X163745145Y-108553454D01*
X163728425Y-108534158D01*
X163598494Y-108348597D01*
X163431402Y-108181506D01*
X163431395Y-108181501D01*
X163237834Y-108045967D01*
X163237830Y-108045965D01*
X163214007Y-108034856D01*
X163023663Y-107946097D01*
X163023659Y-107946096D01*
X163023655Y-107946094D01*
X162795413Y-107884938D01*
X162795403Y-107884936D01*
X162560001Y-107864341D01*
X162559999Y-107864341D01*
X162324596Y-107884936D01*
X162324586Y-107884938D01*
X162096344Y-107946094D01*
X162096335Y-107946098D01*
X161882171Y-108045964D01*
X161882169Y-108045965D01*
X161688597Y-108181505D01*
X161521505Y-108348597D01*
X161391575Y-108534158D01*
X161336998Y-108577783D01*
X161267500Y-108584977D01*
X161205145Y-108553454D01*
X161188425Y-108534158D01*
X161058494Y-108348597D01*
X160891402Y-108181506D01*
X160891395Y-108181501D01*
X160697834Y-108045967D01*
X160697830Y-108045965D01*
X160674007Y-108034856D01*
X160483663Y-107946097D01*
X160483659Y-107946096D01*
X160483655Y-107946094D01*
X160255413Y-107884938D01*
X160255403Y-107884936D01*
X160020001Y-107864341D01*
X160019999Y-107864341D01*
X159784596Y-107884936D01*
X159784586Y-107884938D01*
X159556344Y-107946094D01*
X159556335Y-107946098D01*
X159342171Y-108045964D01*
X159342169Y-108045965D01*
X159148600Y-108181503D01*
X159026673Y-108303430D01*
X158965350Y-108336914D01*
X158895658Y-108331930D01*
X158839725Y-108290058D01*
X158822810Y-108259081D01*
X158773797Y-108127671D01*
X158773793Y-108127664D01*
X158687547Y-108012455D01*
X158687544Y-108012452D01*
X158572335Y-107926206D01*
X158572328Y-107926202D01*
X158437482Y-107875908D01*
X158437483Y-107875908D01*
X158377883Y-107869501D01*
X158377881Y-107869500D01*
X158377873Y-107869500D01*
X158377864Y-107869500D01*
X156582129Y-107869500D01*
X156582123Y-107869501D01*
X156522516Y-107875908D01*
X156387671Y-107926202D01*
X156387664Y-107926206D01*
X156272455Y-108012452D01*
X156272452Y-108012455D01*
X156186206Y-108127664D01*
X156186203Y-108127669D01*
X156137189Y-108259083D01*
X156095317Y-108315016D01*
X156029853Y-108339433D01*
X155961580Y-108324581D01*
X155933326Y-108303430D01*
X155811402Y-108181506D01*
X155811395Y-108181501D01*
X155617834Y-108045967D01*
X155617830Y-108045965D01*
X155594007Y-108034856D01*
X155403663Y-107946097D01*
X155403659Y-107946096D01*
X155403655Y-107946094D01*
X155175413Y-107884938D01*
X155175403Y-107884936D01*
X154940001Y-107864341D01*
X154939999Y-107864341D01*
X154704596Y-107884936D01*
X154704586Y-107884938D01*
X154476344Y-107946094D01*
X154476335Y-107946098D01*
X154262171Y-108045964D01*
X154262169Y-108045965D01*
X154068597Y-108181505D01*
X153901505Y-108348597D01*
X153765965Y-108542169D01*
X153765964Y-108542171D01*
X153666098Y-108756335D01*
X153666094Y-108756344D01*
X153604938Y-108984586D01*
X153604936Y-108984596D01*
X153584341Y-109219999D01*
X153584341Y-109220000D01*
X153604936Y-109455403D01*
X153604938Y-109455413D01*
X153666094Y-109683655D01*
X153666096Y-109683659D01*
X153666097Y-109683663D01*
X153745801Y-109854588D01*
X153765965Y-109897830D01*
X153765967Y-109897834D01*
X153874281Y-110052521D01*
X153901504Y-110091400D01*
X153901506Y-110091402D01*
X154068597Y-110258493D01*
X154068603Y-110258498D01*
X154254158Y-110388425D01*
X154297783Y-110443002D01*
X154304977Y-110512500D01*
X154273454Y-110574855D01*
X154254158Y-110591575D01*
X154068597Y-110721505D01*
X153901505Y-110888597D01*
X153771575Y-111074158D01*
X153716998Y-111117783D01*
X153647500Y-111124977D01*
X153585145Y-111093454D01*
X153568425Y-111074158D01*
X153438494Y-110888597D01*
X153271402Y-110721506D01*
X153271395Y-110721501D01*
X153077834Y-110585967D01*
X153077830Y-110585965D01*
X153064448Y-110579725D01*
X152863663Y-110486097D01*
X152863659Y-110486096D01*
X152863655Y-110486094D01*
X152635413Y-110424938D01*
X152635403Y-110424936D01*
X152400001Y-110404341D01*
X152399999Y-110404341D01*
X152164596Y-110424936D01*
X152164586Y-110424938D01*
X151936344Y-110486094D01*
X151936335Y-110486098D01*
X151722171Y-110585964D01*
X151722169Y-110585965D01*
X151528597Y-110721505D01*
X151361505Y-110888597D01*
X151231575Y-111074158D01*
X151176998Y-111117783D01*
X151107500Y-111124977D01*
X151045145Y-111093454D01*
X151028425Y-111074158D01*
X150898494Y-110888597D01*
X150731402Y-110721506D01*
X150731395Y-110721501D01*
X150537834Y-110585967D01*
X150537830Y-110585965D01*
X150524448Y-110579725D01*
X150323663Y-110486097D01*
X150323659Y-110486096D01*
X150323655Y-110486094D01*
X150095413Y-110424938D01*
X150095403Y-110424936D01*
X149860001Y-110404341D01*
X149859999Y-110404341D01*
X149624596Y-110424936D01*
X149624586Y-110424938D01*
X149396344Y-110486094D01*
X149396335Y-110486098D01*
X149182171Y-110585964D01*
X149182169Y-110585965D01*
X148988597Y-110721505D01*
X148821505Y-110888597D01*
X148691575Y-111074158D01*
X148636998Y-111117783D01*
X148567500Y-111124977D01*
X148505145Y-111093454D01*
X148488425Y-111074158D01*
X148358494Y-110888597D01*
X148191402Y-110721506D01*
X148191395Y-110721501D01*
X147997834Y-110585967D01*
X147997830Y-110585965D01*
X147984448Y-110579725D01*
X147783663Y-110486097D01*
X147783659Y-110486096D01*
X147783655Y-110486094D01*
X147555413Y-110424938D01*
X147555403Y-110424936D01*
X147320001Y-110404341D01*
X147319999Y-110404341D01*
X147084596Y-110424936D01*
X147084586Y-110424938D01*
X146856344Y-110486094D01*
X146856335Y-110486098D01*
X146642171Y-110585964D01*
X146642169Y-110585965D01*
X146448597Y-110721505D01*
X146281505Y-110888597D01*
X146151575Y-111074158D01*
X146096998Y-111117783D01*
X146027500Y-111124977D01*
X145965145Y-111093454D01*
X145948425Y-111074158D01*
X145818494Y-110888597D01*
X145651402Y-110721506D01*
X145651395Y-110721501D01*
X145457834Y-110585967D01*
X145457830Y-110585965D01*
X145444448Y-110579725D01*
X145243663Y-110486097D01*
X145243659Y-110486096D01*
X145243655Y-110486094D01*
X145015413Y-110424938D01*
X145015403Y-110424936D01*
X144780001Y-110404341D01*
X144779999Y-110404341D01*
X144544596Y-110424936D01*
X144544586Y-110424938D01*
X144316344Y-110486094D01*
X144316335Y-110486098D01*
X144102171Y-110585964D01*
X144102169Y-110585965D01*
X143908597Y-110721505D01*
X143741505Y-110888597D01*
X143611575Y-111074158D01*
X143556998Y-111117783D01*
X143487500Y-111124977D01*
X143425145Y-111093454D01*
X143408425Y-111074158D01*
X143278494Y-110888597D01*
X143111402Y-110721506D01*
X143111401Y-110721505D01*
X142925405Y-110591269D01*
X142881781Y-110536692D01*
X142874588Y-110467193D01*
X142906110Y-110404839D01*
X142925405Y-110388119D01*
X143111082Y-110258105D01*
X143278105Y-110091082D01*
X143413600Y-109897578D01*
X143513429Y-109683492D01*
X143513432Y-109683486D01*
X143570636Y-109470000D01*
X142673012Y-109470000D01*
X142705925Y-109412993D01*
X142740000Y-109285826D01*
X142740000Y-109154174D01*
X142705925Y-109027007D01*
X142673012Y-108970000D01*
X143570636Y-108970000D01*
X143570635Y-108969999D01*
X143513432Y-108756513D01*
X143513429Y-108756507D01*
X143413600Y-108542422D01*
X143413599Y-108542420D01*
X143278113Y-108348926D01*
X143278108Y-108348920D01*
X143111082Y-108181894D01*
X142924968Y-108051575D01*
X142881344Y-107996998D01*
X142874151Y-107927499D01*
X142905673Y-107865145D01*
X142924968Y-107848425D01*
X143111082Y-107718105D01*
X143278105Y-107551082D01*
X143413600Y-107357578D01*
X143513429Y-107143492D01*
X143513432Y-107143486D01*
X143570636Y-106930000D01*
X142673012Y-106930000D01*
X142705925Y-106872993D01*
X142740000Y-106745826D01*
X142740000Y-106614174D01*
X142705925Y-106487007D01*
X142673012Y-106430000D01*
X143570636Y-106430000D01*
X143570635Y-106429999D01*
X143513432Y-106216513D01*
X143513429Y-106216507D01*
X143413600Y-106002422D01*
X143413599Y-106002420D01*
X143278113Y-105808926D01*
X143278108Y-105808920D01*
X143111082Y-105641894D01*
X142924968Y-105511575D01*
X142881344Y-105456998D01*
X142874151Y-105387499D01*
X142905673Y-105325145D01*
X142924968Y-105308425D01*
X143111082Y-105178105D01*
X143278105Y-105011082D01*
X143413600Y-104817578D01*
X143513429Y-104603492D01*
X143513432Y-104603486D01*
X143570636Y-104390000D01*
X142673012Y-104390000D01*
X142705925Y-104332993D01*
X142740000Y-104205826D01*
X142740000Y-104074174D01*
X142705925Y-103947007D01*
X142673012Y-103890000D01*
X143570636Y-103890000D01*
X143570635Y-103889999D01*
X143513432Y-103676513D01*
X143513429Y-103676507D01*
X143413600Y-103462422D01*
X143413599Y-103462420D01*
X143278113Y-103268926D01*
X143278108Y-103268920D01*
X143111078Y-103101890D01*
X142925405Y-102971879D01*
X142881780Y-102917302D01*
X142874588Y-102847804D01*
X142906110Y-102785449D01*
X142925406Y-102768730D01*
X142925842Y-102768425D01*
X143111401Y-102638495D01*
X143278495Y-102471401D01*
X143414035Y-102277830D01*
X143513903Y-102063663D01*
X143575063Y-101835408D01*
X143595659Y-101600000D01*
X143575063Y-101364592D01*
X143513903Y-101136337D01*
X143414035Y-100922171D01*
X143414034Y-100922169D01*
X143278494Y-100728597D01*
X143111402Y-100561506D01*
X143111396Y-100561501D01*
X142925842Y-100431575D01*
X142882217Y-100376998D01*
X142875023Y-100307500D01*
X142906546Y-100245145D01*
X142925842Y-100228425D01*
X142960602Y-100204086D01*
X143111401Y-100098495D01*
X143113077Y-100096819D01*
X143113995Y-100096317D01*
X143115544Y-100095018D01*
X143115805Y-100095329D01*
X143174400Y-100063334D01*
X143200758Y-100060500D01*
X147264756Y-100060500D01*
X147276909Y-100061096D01*
X147320000Y-100065341D01*
X147363090Y-100061096D01*
X147375244Y-100060500D01*
X147418540Y-100060500D01*
X147418541Y-100060500D01*
X147441307Y-100055971D01*
X147510897Y-100062197D01*
X147566076Y-100105058D01*
X147589322Y-100170947D01*
X147589500Y-100177588D01*
X147589500Y-102814754D01*
X147588903Y-102826907D01*
X147584659Y-102870000D01*
X147586875Y-102892500D01*
X147588903Y-102913090D01*
X147589500Y-102925244D01*
X147589500Y-102968544D01*
X147597945Y-103011006D01*
X147599730Y-103023035D01*
X147603975Y-103066130D01*
X147603976Y-103066134D01*
X147616547Y-103107575D01*
X147619503Y-103119378D01*
X147627946Y-103161827D01*
X147627948Y-103161834D01*
X147644517Y-103201834D01*
X147648612Y-103213277D01*
X147661186Y-103254726D01*
X147661187Y-103254729D01*
X147681597Y-103292913D01*
X147686800Y-103303915D01*
X147703368Y-103343914D01*
X147703370Y-103343918D01*
X147727425Y-103379918D01*
X147733678Y-103390350D01*
X147738834Y-103399996D01*
X147754088Y-103428535D01*
X147754094Y-103428543D01*
X147781552Y-103462002D01*
X147788799Y-103471772D01*
X147801740Y-103491139D01*
X147812860Y-103507781D01*
X147812862Y-103507783D01*
X147812865Y-103507787D01*
X147843479Y-103538401D01*
X147851651Y-103547416D01*
X147879117Y-103580883D01*
X147912579Y-103608345D01*
X147912581Y-103608346D01*
X147921599Y-103616520D01*
X147952214Y-103647136D01*
X147952217Y-103647138D01*
X147952218Y-103647139D01*
X147988217Y-103671193D01*
X147988219Y-103671194D01*
X147997988Y-103678438D01*
X148031462Y-103705910D01*
X148069640Y-103726316D01*
X148080078Y-103732572D01*
X148087899Y-103737797D01*
X148116086Y-103756632D01*
X148156095Y-103773203D01*
X148167091Y-103778404D01*
X148205273Y-103798814D01*
X148246710Y-103811383D01*
X148258160Y-103815480D01*
X148298165Y-103832051D01*
X148340640Y-103840499D01*
X148352414Y-103843448D01*
X148393868Y-103856024D01*
X148436964Y-103860268D01*
X148448990Y-103862052D01*
X148479480Y-103868117D01*
X148491458Y-103870500D01*
X148491459Y-103870500D01*
X148534756Y-103870500D01*
X148546909Y-103871096D01*
X148590000Y-103875341D01*
X148633090Y-103871096D01*
X148645244Y-103870500D01*
X148688542Y-103870500D01*
X148704454Y-103867334D01*
X148731005Y-103862053D01*
X148743037Y-103860268D01*
X148786132Y-103856024D01*
X148827580Y-103843450D01*
X148839353Y-103840500D01*
X148881835Y-103832051D01*
X148921847Y-103815476D01*
X148933280Y-103811386D01*
X148974727Y-103798814D01*
X149012918Y-103778399D01*
X149023910Y-103773201D01*
X149063914Y-103756632D01*
X149099938Y-103732560D01*
X149110351Y-103726320D01*
X149136591Y-103712295D01*
X149148535Y-103705912D01*
X149148539Y-103705909D01*
X149182005Y-103678444D01*
X149191782Y-103671193D01*
X149227781Y-103647140D01*
X149227783Y-103647138D01*
X149234921Y-103640000D01*
X149258408Y-103616512D01*
X149267402Y-103608359D01*
X149300883Y-103580883D01*
X149328359Y-103547402D01*
X149336512Y-103538408D01*
X149367139Y-103507782D01*
X149369014Y-103504977D01*
X149391193Y-103471782D01*
X149398444Y-103462005D01*
X149425909Y-103428539D01*
X149425912Y-103428535D01*
X149432295Y-103416591D01*
X149441161Y-103400003D01*
X160494435Y-103400003D01*
X160514630Y-103579249D01*
X160514631Y-103579254D01*
X160574211Y-103749523D01*
X160662479Y-103889999D01*
X160670184Y-103902262D01*
X160797738Y-104029816D01*
X160950478Y-104125789D01*
X160991091Y-104140000D01*
X161120745Y-104185368D01*
X161120750Y-104185369D01*
X161299996Y-104205565D01*
X161300000Y-104205565D01*
X161300004Y-104205565D01*
X161479249Y-104185369D01*
X161479252Y-104185368D01*
X161479255Y-104185368D01*
X161649522Y-104125789D01*
X161802262Y-104029816D01*
X161802267Y-104029810D01*
X161805097Y-104027555D01*
X161807275Y-104026665D01*
X161808158Y-104026111D01*
X161808255Y-104026265D01*
X161869783Y-104001145D01*
X161882412Y-104000500D01*
X171913331Y-104000500D01*
X171913347Y-104000501D01*
X171920943Y-104000501D01*
X172079054Y-104000501D01*
X172079057Y-104000501D01*
X172231785Y-103959577D01*
X172281904Y-103930639D01*
X172368716Y-103880520D01*
X172480520Y-103768716D01*
X172480520Y-103768714D01*
X172490728Y-103758507D01*
X172490730Y-103758504D01*
X172618535Y-103630698D01*
X172679856Y-103597215D01*
X172692311Y-103595163D01*
X172779255Y-103585368D01*
X172949522Y-103525789D01*
X173102262Y-103429816D01*
X173229816Y-103302262D01*
X173325789Y-103149522D01*
X173385368Y-102979255D01*
X173386199Y-102971879D01*
X173405565Y-102800003D01*
X173405565Y-102799996D01*
X173385369Y-102620750D01*
X173385368Y-102620745D01*
X173376162Y-102594435D01*
X173325789Y-102450478D01*
X173229816Y-102297738D01*
X173102262Y-102170184D01*
X173085381Y-102159577D01*
X172949523Y-102074211D01*
X172779254Y-102014631D01*
X172779249Y-102014630D01*
X172600004Y-101994435D01*
X172599996Y-101994435D01*
X172420750Y-102014630D01*
X172420745Y-102014631D01*
X172250476Y-102074211D01*
X172097737Y-102170184D01*
X171970184Y-102297737D01*
X171874210Y-102450478D01*
X171814630Y-102620750D01*
X171806898Y-102689383D01*
X171779832Y-102753797D01*
X171722237Y-102793352D01*
X171683678Y-102799500D01*
X161882412Y-102799500D01*
X161815373Y-102779815D01*
X161805097Y-102772445D01*
X161802263Y-102770185D01*
X161802262Y-102770184D01*
X161745496Y-102734515D01*
X161649523Y-102674211D01*
X161479254Y-102614631D01*
X161479249Y-102614630D01*
X161300004Y-102594435D01*
X161299996Y-102594435D01*
X161120750Y-102614630D01*
X161120745Y-102614631D01*
X160950476Y-102674211D01*
X160797737Y-102770184D01*
X160670184Y-102897737D01*
X160574211Y-103050476D01*
X160514631Y-103220745D01*
X160514630Y-103220750D01*
X160494435Y-103399996D01*
X160494435Y-103400003D01*
X149441161Y-103400003D01*
X149446320Y-103390351D01*
X149452560Y-103379938D01*
X149476632Y-103343914D01*
X149493202Y-103303906D01*
X149498402Y-103292913D01*
X149518814Y-103254727D01*
X149531386Y-103213280D01*
X149535476Y-103201847D01*
X149552051Y-103161835D01*
X149560500Y-103119353D01*
X149563450Y-103107580D01*
X149576024Y-103066132D01*
X149580268Y-103023037D01*
X149582054Y-103010999D01*
X149590500Y-102968541D01*
X149590500Y-102925244D01*
X149591097Y-102913090D01*
X149592846Y-102895331D01*
X149595341Y-102870000D01*
X149591097Y-102826907D01*
X149590500Y-102814754D01*
X149590500Y-101040000D01*
X169144659Y-101040000D01*
X169163975Y-101236129D01*
X169221188Y-101424733D01*
X169314086Y-101598532D01*
X169314090Y-101598539D01*
X169439116Y-101750883D01*
X169591460Y-101875909D01*
X169591467Y-101875913D01*
X169765266Y-101968811D01*
X169765269Y-101968811D01*
X169765273Y-101968814D01*
X169953868Y-102026024D01*
X170150000Y-102045341D01*
X170346132Y-102026024D01*
X170534727Y-101968814D01*
X170534911Y-101968716D01*
X170708532Y-101875913D01*
X170708538Y-101875910D01*
X170860883Y-101750883D01*
X170985910Y-101598538D01*
X171078814Y-101424727D01*
X171136024Y-101236132D01*
X171155341Y-101040000D01*
X171136024Y-100843868D01*
X171078814Y-100655273D01*
X171078811Y-100655269D01*
X171078811Y-100655266D01*
X170985913Y-100481467D01*
X170985909Y-100481460D01*
X170860883Y-100329116D01*
X170708539Y-100204090D01*
X170708532Y-100204086D01*
X170534733Y-100111188D01*
X170534727Y-100111186D01*
X170346132Y-100053976D01*
X170346129Y-100053975D01*
X170150000Y-100034659D01*
X169953870Y-100053975D01*
X169765266Y-100111188D01*
X169591467Y-100204086D01*
X169591460Y-100204090D01*
X169439116Y-100329116D01*
X169314090Y-100481460D01*
X169314086Y-100481467D01*
X169221188Y-100655266D01*
X169163975Y-100843870D01*
X169144659Y-101040000D01*
X149590500Y-101040000D01*
X149590500Y-98500000D01*
X169144659Y-98500000D01*
X169163975Y-98696129D01*
X169221188Y-98884733D01*
X169314086Y-99058532D01*
X169314090Y-99058539D01*
X169439116Y-99210883D01*
X169591460Y-99335909D01*
X169591467Y-99335913D01*
X169765266Y-99428811D01*
X169765269Y-99428811D01*
X169765273Y-99428814D01*
X169953868Y-99486024D01*
X170150000Y-99505341D01*
X170346132Y-99486024D01*
X170534727Y-99428814D01*
X170708538Y-99335910D01*
X170860883Y-99210883D01*
X170985910Y-99058538D01*
X171078814Y-98884727D01*
X171136024Y-98696132D01*
X171155341Y-98500000D01*
X171136024Y-98303868D01*
X171078814Y-98115273D01*
X171078811Y-98115269D01*
X171078811Y-98115266D01*
X170985913Y-97941467D01*
X170985909Y-97941460D01*
X170860883Y-97789116D01*
X170708539Y-97664090D01*
X170708532Y-97664086D01*
X170534733Y-97571188D01*
X170534727Y-97571186D01*
X170346132Y-97513976D01*
X170346129Y-97513975D01*
X170150000Y-97494659D01*
X169953870Y-97513975D01*
X169765266Y-97571188D01*
X169591467Y-97664086D01*
X169591460Y-97664090D01*
X169439116Y-97789116D01*
X169314090Y-97941460D01*
X169314086Y-97941467D01*
X169221188Y-98115266D01*
X169163975Y-98303870D01*
X169144659Y-98500000D01*
X149590500Y-98500000D01*
X149590500Y-96200003D01*
X163794435Y-96200003D01*
X163814630Y-96379249D01*
X163814631Y-96379254D01*
X163874211Y-96549523D01*
X163904507Y-96597738D01*
X163970184Y-96702262D01*
X164097738Y-96829816D01*
X164142779Y-96858117D01*
X164242450Y-96920745D01*
X164250478Y-96925789D01*
X164415367Y-96983486D01*
X164420745Y-96985368D01*
X164420750Y-96985369D01*
X164599996Y-97005565D01*
X164600000Y-97005565D01*
X164600004Y-97005565D01*
X164779249Y-96985369D01*
X164779252Y-96985368D01*
X164779255Y-96985368D01*
X164949522Y-96925789D01*
X165102262Y-96829816D01*
X165102267Y-96829810D01*
X165105097Y-96827555D01*
X165107275Y-96826665D01*
X165108158Y-96826111D01*
X165108255Y-96826265D01*
X165169783Y-96801145D01*
X165182412Y-96800500D01*
X169517059Y-96800500D01*
X169584098Y-96820185D01*
X169604740Y-96836818D01*
X169697738Y-96929816D01*
X169850478Y-97025789D01*
X169998177Y-97077471D01*
X170020745Y-97085368D01*
X170020750Y-97085369D01*
X170199996Y-97105565D01*
X170200000Y-97105565D01*
X170200004Y-97105565D01*
X170379249Y-97085369D01*
X170379252Y-97085368D01*
X170379255Y-97085368D01*
X170549522Y-97025789D01*
X170702262Y-96929816D01*
X170829816Y-96802262D01*
X170925789Y-96649522D01*
X170985368Y-96479255D01*
X170988194Y-96454174D01*
X171005565Y-96300003D01*
X171005565Y-96299996D01*
X170985369Y-96120750D01*
X170985368Y-96120745D01*
X170942326Y-95997738D01*
X170925789Y-95950478D01*
X170829816Y-95797738D01*
X170702262Y-95670184D01*
X170592195Y-95601024D01*
X170549523Y-95574211D01*
X170379254Y-95514631D01*
X170379249Y-95514630D01*
X170200004Y-95494435D01*
X170199996Y-95494435D01*
X170020750Y-95514630D01*
X170020745Y-95514631D01*
X169850474Y-95574212D01*
X169840477Y-95580494D01*
X169774506Y-95599500D01*
X165182412Y-95599500D01*
X165115373Y-95579815D01*
X165105097Y-95572445D01*
X165102263Y-95570185D01*
X165102262Y-95570184D01*
X165045496Y-95534515D01*
X164949523Y-95474211D01*
X164779254Y-95414631D01*
X164779249Y-95414630D01*
X164600004Y-95394435D01*
X164599996Y-95394435D01*
X164420750Y-95414630D01*
X164420745Y-95414631D01*
X164250476Y-95474211D01*
X164097737Y-95570184D01*
X163970184Y-95697737D01*
X163874211Y-95850476D01*
X163814631Y-96020745D01*
X163814630Y-96020750D01*
X163794435Y-96199996D01*
X163794435Y-96200003D01*
X149590500Y-96200003D01*
X149590500Y-94670244D01*
X149591097Y-94658090D01*
X149592234Y-94646546D01*
X149595341Y-94615000D01*
X149591097Y-94571907D01*
X149590500Y-94559754D01*
X149590500Y-94516458D01*
X149588117Y-94504480D01*
X149582052Y-94473990D01*
X149580268Y-94461961D01*
X149576879Y-94427555D01*
X149576024Y-94418868D01*
X149563448Y-94377414D01*
X149560499Y-94365640D01*
X149552051Y-94323165D01*
X149535480Y-94283159D01*
X149531383Y-94271710D01*
X149518814Y-94230273D01*
X149498404Y-94192091D01*
X149493203Y-94181095D01*
X149476632Y-94141086D01*
X149452572Y-94105078D01*
X149446316Y-94094640D01*
X149425911Y-94056464D01*
X149425910Y-94056462D01*
X149398438Y-94022988D01*
X149391194Y-94013219D01*
X149367140Y-93977219D01*
X149367136Y-93977214D01*
X149336520Y-93946599D01*
X149328346Y-93937581D01*
X149300884Y-93904118D01*
X149267416Y-93876651D01*
X149258401Y-93868479D01*
X149227787Y-93837865D01*
X149227783Y-93837862D01*
X149227780Y-93837860D01*
X149211139Y-93826740D01*
X149191772Y-93813799D01*
X149182002Y-93806552D01*
X149148543Y-93779094D01*
X149148535Y-93779088D01*
X149131436Y-93769948D01*
X149110350Y-93758678D01*
X149099918Y-93752425D01*
X149063918Y-93728370D01*
X149063914Y-93728368D01*
X149023915Y-93711800D01*
X149012913Y-93706597D01*
X148974729Y-93686187D01*
X148974728Y-93686186D01*
X148974727Y-93686186D01*
X148933277Y-93673612D01*
X148921834Y-93669517D01*
X148881834Y-93652948D01*
X148881827Y-93652946D01*
X148839378Y-93644503D01*
X148827575Y-93641547D01*
X148786134Y-93628976D01*
X148786130Y-93628975D01*
X148743035Y-93624730D01*
X148731006Y-93622945D01*
X148688544Y-93614500D01*
X148688541Y-93614500D01*
X148645244Y-93614500D01*
X148633090Y-93613903D01*
X148590000Y-93609659D01*
X148546910Y-93613903D01*
X148534756Y-93614500D01*
X148491453Y-93614500D01*
X148448991Y-93622945D01*
X148436963Y-93624730D01*
X148393867Y-93628976D01*
X148352427Y-93641546D01*
X148340626Y-93644502D01*
X148298166Y-93652948D01*
X148298161Y-93652949D01*
X148258159Y-93669518D01*
X148246707Y-93673616D01*
X148205272Y-93686186D01*
X148167091Y-93706594D01*
X148156093Y-93711795D01*
X148116091Y-93728364D01*
X148080080Y-93752426D01*
X148069645Y-93758680D01*
X148031465Y-93779087D01*
X148031460Y-93779091D01*
X147997990Y-93806557D01*
X147988225Y-93813799D01*
X147952225Y-93837855D01*
X147952219Y-93837860D01*
X147921595Y-93868483D01*
X147912584Y-93876650D01*
X147879117Y-93904117D01*
X147851650Y-93937584D01*
X147843483Y-93946595D01*
X147812860Y-93977219D01*
X147812855Y-93977225D01*
X147788799Y-94013225D01*
X147781557Y-94022990D01*
X147754091Y-94056460D01*
X147754087Y-94056465D01*
X147733680Y-94094645D01*
X147727426Y-94105080D01*
X147703364Y-94141091D01*
X147686795Y-94181093D01*
X147681594Y-94192091D01*
X147661186Y-94230272D01*
X147648616Y-94271707D01*
X147644518Y-94283159D01*
X147627949Y-94323161D01*
X147627948Y-94323166D01*
X147619502Y-94365626D01*
X147616546Y-94377427D01*
X147603976Y-94418867D01*
X147599730Y-94461963D01*
X147597945Y-94473991D01*
X147589500Y-94516453D01*
X147589500Y-94559754D01*
X147588903Y-94571907D01*
X147584659Y-94614999D01*
X147588903Y-94658090D01*
X147589500Y-94670244D01*
X147589500Y-97942410D01*
X147569815Y-98009449D01*
X147517011Y-98055204D01*
X147447853Y-98065148D01*
X147441315Y-98064029D01*
X147423621Y-98060510D01*
X147418541Y-98059500D01*
X147418540Y-98059500D01*
X147375244Y-98059500D01*
X147363090Y-98058903D01*
X147325533Y-98055204D01*
X147320000Y-98054659D01*
X147314467Y-98055204D01*
X147276910Y-98058903D01*
X147264756Y-98059500D01*
X143200758Y-98059500D01*
X143133719Y-98039815D01*
X143113077Y-98023181D01*
X143111402Y-98021506D01*
X143111396Y-98021501D01*
X142925842Y-97891575D01*
X142882217Y-97836998D01*
X142875023Y-97767500D01*
X142906546Y-97705145D01*
X142925842Y-97688425D01*
X143048895Y-97602262D01*
X143111401Y-97558495D01*
X143278495Y-97391401D01*
X143414035Y-97197830D01*
X143513903Y-96983663D01*
X143575063Y-96755408D01*
X143595659Y-96520000D01*
X143575063Y-96284592D01*
X143513903Y-96056337D01*
X143414035Y-95842171D01*
X143408425Y-95834158D01*
X143278494Y-95648597D01*
X143111402Y-95481506D01*
X143111396Y-95481501D01*
X142925842Y-95351575D01*
X142882217Y-95296998D01*
X142875023Y-95227500D01*
X142906546Y-95165145D01*
X142925842Y-95148425D01*
X142948026Y-95132891D01*
X143111401Y-95018495D01*
X143278495Y-94851401D01*
X143414035Y-94657830D01*
X143513903Y-94443663D01*
X143575063Y-94215408D01*
X143595659Y-93980000D01*
X143575063Y-93744592D01*
X143513903Y-93516337D01*
X143414035Y-93302171D01*
X143410930Y-93297737D01*
X143278496Y-93108600D01*
X143244107Y-93074211D01*
X143156567Y-92986671D01*
X143123084Y-92925351D01*
X143128068Y-92855659D01*
X143169939Y-92799725D01*
X143200915Y-92782810D01*
X143332331Y-92733796D01*
X143447546Y-92647546D01*
X143533796Y-92532331D01*
X143584091Y-92397483D01*
X143590500Y-92337873D01*
X143590499Y-90542128D01*
X143584091Y-90482517D01*
X143582810Y-90479083D01*
X143533797Y-90347671D01*
X143533793Y-90347664D01*
X143447547Y-90232455D01*
X143447544Y-90232452D01*
X143332335Y-90146206D01*
X143332328Y-90146202D01*
X143200917Y-90097189D01*
X143144983Y-90055318D01*
X143120566Y-89989853D01*
X143135418Y-89921580D01*
X143156563Y-89893332D01*
X143278495Y-89771401D01*
X143408426Y-89585841D01*
X143463002Y-89542217D01*
X143532500Y-89535023D01*
X143594855Y-89566546D01*
X143611574Y-89585841D01*
X143741505Y-89771401D01*
X143908599Y-89938495D01*
X143934270Y-89956470D01*
X144102165Y-90074032D01*
X144102167Y-90074033D01*
X144102170Y-90074035D01*
X144316337Y-90173903D01*
X144544592Y-90235063D01*
X144732918Y-90251539D01*
X144779999Y-90255659D01*
X144780000Y-90255659D01*
X144780001Y-90255659D01*
X144819234Y-90252226D01*
X145015408Y-90235063D01*
X145243663Y-90173903D01*
X145457830Y-90074035D01*
X145651401Y-89938495D01*
X145818495Y-89771401D01*
X145948426Y-89585841D01*
X146003002Y-89542217D01*
X146072500Y-89535023D01*
X146134855Y-89566546D01*
X146151574Y-89585841D01*
X146281505Y-89771401D01*
X146448599Y-89938495D01*
X146474270Y-89956470D01*
X146642165Y-90074032D01*
X146642167Y-90074033D01*
X146642170Y-90074035D01*
X146856337Y-90173903D01*
X147084592Y-90235063D01*
X147272918Y-90251539D01*
X147319999Y-90255659D01*
X147320000Y-90255659D01*
X147320001Y-90255659D01*
X147359234Y-90252226D01*
X147555408Y-90235063D01*
X147783663Y-90173903D01*
X147997830Y-90074035D01*
X148191401Y-89938495D01*
X148358495Y-89771401D01*
X148488426Y-89585841D01*
X148543002Y-89542217D01*
X148612500Y-89535023D01*
X148674855Y-89566546D01*
X148691574Y-89585841D01*
X148821505Y-89771401D01*
X148988599Y-89938495D01*
X149014270Y-89956470D01*
X149182165Y-90074032D01*
X149182167Y-90074033D01*
X149182170Y-90074035D01*
X149396337Y-90173903D01*
X149624592Y-90235063D01*
X149812918Y-90251539D01*
X149859999Y-90255659D01*
X149860000Y-90255659D01*
X149860001Y-90255659D01*
X149899234Y-90252226D01*
X150095408Y-90235063D01*
X150323663Y-90173903D01*
X150537830Y-90074035D01*
X150731401Y-89938495D01*
X150898495Y-89771401D01*
X151028426Y-89585841D01*
X151083002Y-89542217D01*
X151152500Y-89535023D01*
X151214855Y-89566546D01*
X151231574Y-89585841D01*
X151361505Y-89771401D01*
X151528599Y-89938495D01*
X151554270Y-89956470D01*
X151722165Y-90074032D01*
X151722167Y-90074033D01*
X151722170Y-90074035D01*
X151936337Y-90173903D01*
X152164592Y-90235063D01*
X152352918Y-90251539D01*
X152399999Y-90255659D01*
X152400000Y-90255659D01*
X152400001Y-90255659D01*
X152439234Y-90252226D01*
X152635408Y-90235063D01*
X152863663Y-90173903D01*
X153077830Y-90074035D01*
X153271401Y-89938495D01*
X153438495Y-89771401D01*
X153568426Y-89585841D01*
X153623002Y-89542217D01*
X153692500Y-89535023D01*
X153754855Y-89566546D01*
X153771574Y-89585841D01*
X153901505Y-89771401D01*
X154068599Y-89938495D01*
X154094270Y-89956470D01*
X154262165Y-90074032D01*
X154262167Y-90074033D01*
X154262170Y-90074035D01*
X154476337Y-90173903D01*
X154704592Y-90235063D01*
X154892918Y-90251539D01*
X154939999Y-90255659D01*
X154940000Y-90255659D01*
X154940001Y-90255659D01*
X154979234Y-90252226D01*
X155175408Y-90235063D01*
X155403663Y-90173903D01*
X155617830Y-90074035D01*
X155811401Y-89938495D01*
X155978495Y-89771401D01*
X156108426Y-89585841D01*
X156163002Y-89542217D01*
X156232500Y-89535023D01*
X156294855Y-89566546D01*
X156311574Y-89585841D01*
X156441505Y-89771401D01*
X156608599Y-89938495D01*
X156631669Y-89954649D01*
X156662054Y-89975925D01*
X156705679Y-90030502D01*
X156712873Y-90100000D01*
X156681350Y-90162355D01*
X156662054Y-90179075D01*
X156608597Y-90216505D01*
X156441505Y-90383597D01*
X156305965Y-90577169D01*
X156305964Y-90577171D01*
X156206098Y-90791335D01*
X156206094Y-90791344D01*
X156144938Y-91019586D01*
X156144936Y-91019596D01*
X156124341Y-91254999D01*
X156124341Y-91255000D01*
X156144936Y-91490403D01*
X156144938Y-91490413D01*
X156206094Y-91718655D01*
X156206096Y-91718659D01*
X156206097Y-91718663D01*
X156210000Y-91727032D01*
X156305965Y-91932830D01*
X156305967Y-91932834D01*
X156412280Y-92084663D01*
X156441505Y-92126401D01*
X156608599Y-92293495D01*
X156698678Y-92356569D01*
X156802165Y-92429032D01*
X156802167Y-92429033D01*
X156802170Y-92429035D01*
X157016337Y-92528903D01*
X157016343Y-92528904D01*
X157016344Y-92528905D01*
X157071285Y-92543626D01*
X157244592Y-92590063D01*
X157421034Y-92605500D01*
X157479999Y-92610659D01*
X157480000Y-92610659D01*
X157480001Y-92610659D01*
X157538966Y-92605500D01*
X157715408Y-92590063D01*
X157943663Y-92528903D01*
X158157830Y-92429035D01*
X158351401Y-92293495D01*
X158518495Y-92126401D01*
X158648425Y-91940842D01*
X158703002Y-91897217D01*
X158772500Y-91890023D01*
X158834855Y-91921546D01*
X158851575Y-91940842D01*
X158981500Y-92126395D01*
X158981505Y-92126401D01*
X159148599Y-92293495D01*
X159238678Y-92356569D01*
X159342165Y-92429032D01*
X159342167Y-92429033D01*
X159342170Y-92429035D01*
X159556337Y-92528903D01*
X159556343Y-92528904D01*
X159556344Y-92528905D01*
X159611285Y-92543626D01*
X159784592Y-92590063D01*
X159961034Y-92605500D01*
X160019999Y-92610659D01*
X160020000Y-92610659D01*
X160020001Y-92610659D01*
X160078966Y-92605500D01*
X160255408Y-92590063D01*
X160483663Y-92528903D01*
X160697830Y-92429035D01*
X160891401Y-92293495D01*
X161058495Y-92126401D01*
X161188425Y-91940842D01*
X161243002Y-91897217D01*
X161312500Y-91890023D01*
X161374855Y-91921546D01*
X161391575Y-91940842D01*
X161521500Y-92126395D01*
X161521505Y-92126401D01*
X161688599Y-92293495D01*
X161778678Y-92356569D01*
X161882165Y-92429032D01*
X161882167Y-92429033D01*
X161882170Y-92429035D01*
X162096337Y-92528903D01*
X162096343Y-92528904D01*
X162096344Y-92528905D01*
X162151285Y-92543626D01*
X162324592Y-92590063D01*
X162501034Y-92605500D01*
X162559999Y-92610659D01*
X162560000Y-92610659D01*
X162560001Y-92610659D01*
X162618966Y-92605500D01*
X162795408Y-92590063D01*
X163023663Y-92528903D01*
X163237830Y-92429035D01*
X163431401Y-92293495D01*
X163598495Y-92126401D01*
X163728425Y-91940842D01*
X163783002Y-91897217D01*
X163852500Y-91890023D01*
X163914855Y-91921546D01*
X163931575Y-91940842D01*
X164061500Y-92126395D01*
X164061505Y-92126401D01*
X164228599Y-92293495D01*
X164318678Y-92356569D01*
X164422165Y-92429032D01*
X164422167Y-92429033D01*
X164422170Y-92429035D01*
X164636337Y-92528903D01*
X164636343Y-92528904D01*
X164636344Y-92528905D01*
X164691285Y-92543626D01*
X164864592Y-92590063D01*
X165041034Y-92605500D01*
X165099999Y-92610659D01*
X165100000Y-92610659D01*
X165100001Y-92610659D01*
X165158966Y-92605500D01*
X165335408Y-92590063D01*
X165563663Y-92528903D01*
X165777830Y-92429035D01*
X165971401Y-92293495D01*
X166138495Y-92126401D01*
X166268425Y-91940842D01*
X166323002Y-91897217D01*
X166392500Y-91890023D01*
X166454855Y-91921546D01*
X166471575Y-91940842D01*
X166601500Y-92126395D01*
X166601505Y-92126401D01*
X166768599Y-92293495D01*
X166858678Y-92356569D01*
X166962165Y-92429032D01*
X166962167Y-92429033D01*
X166962170Y-92429035D01*
X167176337Y-92528903D01*
X167176343Y-92528904D01*
X167176344Y-92528905D01*
X167231285Y-92543626D01*
X167404592Y-92590063D01*
X167581034Y-92605500D01*
X167639999Y-92610659D01*
X167640000Y-92610659D01*
X167640001Y-92610659D01*
X167698966Y-92605500D01*
X167875408Y-92590063D01*
X168103663Y-92528903D01*
X168317830Y-92429035D01*
X168511401Y-92293495D01*
X168678495Y-92126401D01*
X168808425Y-91940842D01*
X168863002Y-91897217D01*
X168932500Y-91890023D01*
X168994855Y-91921546D01*
X169011575Y-91940842D01*
X169141500Y-92126395D01*
X169141505Y-92126401D01*
X169308599Y-92293495D01*
X169398678Y-92356569D01*
X169502165Y-92429032D01*
X169502167Y-92429033D01*
X169502170Y-92429035D01*
X169716337Y-92528903D01*
X169716343Y-92528904D01*
X169716344Y-92528905D01*
X169771285Y-92543626D01*
X169944592Y-92590063D01*
X170121034Y-92605500D01*
X170179999Y-92610659D01*
X170180000Y-92610659D01*
X170180001Y-92610659D01*
X170238966Y-92605500D01*
X170415408Y-92590063D01*
X170643663Y-92528903D01*
X170857830Y-92429035D01*
X171051401Y-92293495D01*
X171218495Y-92126401D01*
X171348425Y-91940842D01*
X171403002Y-91897217D01*
X171472500Y-91890023D01*
X171534855Y-91921546D01*
X171551575Y-91940842D01*
X171681500Y-92126395D01*
X171681505Y-92126401D01*
X171848599Y-92293495D01*
X171938678Y-92356569D01*
X172042165Y-92429032D01*
X172042167Y-92429033D01*
X172042170Y-92429035D01*
X172256337Y-92528903D01*
X172256343Y-92528904D01*
X172256344Y-92528905D01*
X172311285Y-92543626D01*
X172484592Y-92590063D01*
X172661034Y-92605500D01*
X172719999Y-92610659D01*
X172720000Y-92610659D01*
X172720001Y-92610659D01*
X172778966Y-92605500D01*
X172955408Y-92590063D01*
X173183663Y-92528903D01*
X173397830Y-92429035D01*
X173591401Y-92293495D01*
X173758495Y-92126401D01*
X173888425Y-91940842D01*
X173943002Y-91897217D01*
X174012500Y-91890023D01*
X174074855Y-91921546D01*
X174091575Y-91940842D01*
X174221500Y-92126395D01*
X174221505Y-92126401D01*
X174388599Y-92293495D01*
X174478678Y-92356569D01*
X174582165Y-92429032D01*
X174582167Y-92429033D01*
X174582170Y-92429035D01*
X174796337Y-92528903D01*
X174796343Y-92528904D01*
X174796344Y-92528905D01*
X174851285Y-92543626D01*
X175024592Y-92590063D01*
X175201034Y-92605500D01*
X175259999Y-92610659D01*
X175260000Y-92610659D01*
X175260001Y-92610659D01*
X175318966Y-92605500D01*
X175495408Y-92590063D01*
X175723663Y-92528903D01*
X175937830Y-92429035D01*
X176131401Y-92293495D01*
X176298495Y-92126401D01*
X176428425Y-91940842D01*
X176483002Y-91897217D01*
X176552500Y-91890023D01*
X176614855Y-91921546D01*
X176631575Y-91940842D01*
X176761500Y-92126395D01*
X176761505Y-92126401D01*
X176928599Y-92293495D01*
X177018678Y-92356569D01*
X177122165Y-92429032D01*
X177122167Y-92429033D01*
X177122170Y-92429035D01*
X177336337Y-92528903D01*
X177336343Y-92528904D01*
X177336344Y-92528905D01*
X177391285Y-92543626D01*
X177564592Y-92590063D01*
X177741034Y-92605500D01*
X177799999Y-92610659D01*
X177800000Y-92610659D01*
X177800001Y-92610659D01*
X177858966Y-92605500D01*
X178035408Y-92590063D01*
X178263663Y-92528903D01*
X178477830Y-92429035D01*
X178671401Y-92293495D01*
X178838495Y-92126401D01*
X178968425Y-91940842D01*
X179023002Y-91897217D01*
X179092500Y-91890023D01*
X179154855Y-91921546D01*
X179171575Y-91940842D01*
X179301500Y-92126395D01*
X179301505Y-92126401D01*
X179468599Y-92293495D01*
X179558678Y-92356569D01*
X179662165Y-92429032D01*
X179662167Y-92429033D01*
X179662170Y-92429035D01*
X179876337Y-92528903D01*
X179876343Y-92528904D01*
X179876344Y-92528905D01*
X179931285Y-92543626D01*
X180104592Y-92590063D01*
X180281034Y-92605500D01*
X180339999Y-92610659D01*
X180340000Y-92610659D01*
X180340001Y-92610659D01*
X180398966Y-92605500D01*
X180575408Y-92590063D01*
X180803663Y-92528903D01*
X181017830Y-92429035D01*
X181211401Y-92293495D01*
X181378495Y-92126401D01*
X181508425Y-91940842D01*
X181563002Y-91897217D01*
X181632500Y-91890023D01*
X181694855Y-91921546D01*
X181711575Y-91940842D01*
X181841500Y-92126395D01*
X181841505Y-92126401D01*
X182008599Y-92293495D01*
X182098678Y-92356569D01*
X182202165Y-92429032D01*
X182202167Y-92429033D01*
X182202170Y-92429035D01*
X182416337Y-92528903D01*
X182416343Y-92528904D01*
X182416344Y-92528905D01*
X182471285Y-92543626D01*
X182644592Y-92590063D01*
X182821034Y-92605500D01*
X182879999Y-92610659D01*
X182880000Y-92610659D01*
X182880001Y-92610659D01*
X182938966Y-92605500D01*
X183115408Y-92590063D01*
X183343663Y-92528903D01*
X183557830Y-92429035D01*
X183751401Y-92293495D01*
X183918495Y-92126401D01*
X184048425Y-91940842D01*
X184103002Y-91897217D01*
X184172500Y-91890023D01*
X184234855Y-91921546D01*
X184251575Y-91940842D01*
X184381500Y-92126395D01*
X184381505Y-92126401D01*
X184548599Y-92293495D01*
X184638678Y-92356569D01*
X184742165Y-92429032D01*
X184742167Y-92429033D01*
X184742170Y-92429035D01*
X184956337Y-92528903D01*
X184956343Y-92528904D01*
X184956344Y-92528905D01*
X185011285Y-92543626D01*
X185184592Y-92590063D01*
X185361034Y-92605500D01*
X185419999Y-92610659D01*
X185420000Y-92610659D01*
X185420001Y-92610659D01*
X185478966Y-92605500D01*
X185655408Y-92590063D01*
X185883663Y-92528903D01*
X186097830Y-92429035D01*
X186291401Y-92293495D01*
X186458495Y-92126401D01*
X186588425Y-91940842D01*
X186643002Y-91897217D01*
X186712500Y-91890023D01*
X186774855Y-91921546D01*
X186791575Y-91940842D01*
X186921500Y-92126395D01*
X186921505Y-92126401D01*
X187088599Y-92293495D01*
X187178678Y-92356569D01*
X187282165Y-92429032D01*
X187282167Y-92429033D01*
X187282170Y-92429035D01*
X187496337Y-92528903D01*
X187496343Y-92528904D01*
X187496344Y-92528905D01*
X187551285Y-92543626D01*
X187724592Y-92590063D01*
X187901034Y-92605500D01*
X187959999Y-92610659D01*
X187960000Y-92610659D01*
X187960001Y-92610659D01*
X188018966Y-92605500D01*
X188195408Y-92590063D01*
X188423663Y-92528903D01*
X188637830Y-92429035D01*
X188831401Y-92293495D01*
X188998495Y-92126401D01*
X189128425Y-91940842D01*
X189183002Y-91897217D01*
X189252500Y-91890023D01*
X189314855Y-91921546D01*
X189331575Y-91940842D01*
X189461500Y-92126395D01*
X189461505Y-92126401D01*
X189628599Y-92293495D01*
X189718678Y-92356569D01*
X189822165Y-92429032D01*
X189822167Y-92429033D01*
X189822170Y-92429035D01*
X190036337Y-92528903D01*
X190036343Y-92528904D01*
X190036344Y-92528905D01*
X190091285Y-92543626D01*
X190264592Y-92590063D01*
X190441034Y-92605500D01*
X190499999Y-92610659D01*
X190500000Y-92610659D01*
X190500001Y-92610659D01*
X190558966Y-92605500D01*
X190735408Y-92590063D01*
X190963663Y-92528903D01*
X191177830Y-92429035D01*
X191371401Y-92293495D01*
X191538495Y-92126401D01*
X191668425Y-91940842D01*
X191723002Y-91897217D01*
X191792500Y-91890023D01*
X191854855Y-91921546D01*
X191871575Y-91940842D01*
X192001500Y-92126395D01*
X192001505Y-92126401D01*
X192168599Y-92293495D01*
X192258678Y-92356569D01*
X192362165Y-92429032D01*
X192362167Y-92429033D01*
X192362170Y-92429035D01*
X192576337Y-92528903D01*
X192576343Y-92528904D01*
X192576344Y-92528905D01*
X192631285Y-92543626D01*
X192804592Y-92590063D01*
X192981034Y-92605500D01*
X193039999Y-92610659D01*
X193040000Y-92610659D01*
X193040001Y-92610659D01*
X193098966Y-92605500D01*
X193275408Y-92590063D01*
X193503663Y-92528903D01*
X193717830Y-92429035D01*
X193911401Y-92293495D01*
X194033329Y-92171566D01*
X194094648Y-92138084D01*
X194164340Y-92143068D01*
X194220274Y-92184939D01*
X194237189Y-92215917D01*
X194286202Y-92347328D01*
X194286206Y-92347335D01*
X194372452Y-92462544D01*
X194372455Y-92462547D01*
X194487664Y-92548793D01*
X194487671Y-92548797D01*
X194622517Y-92599091D01*
X194622516Y-92599091D01*
X194629444Y-92599835D01*
X194682127Y-92605500D01*
X196477872Y-92605499D01*
X196537483Y-92599091D01*
X196672331Y-92548796D01*
X196787546Y-92462546D01*
X196873796Y-92347331D01*
X196924091Y-92212483D01*
X196930500Y-92152873D01*
X196930499Y-90357128D01*
X196924091Y-90297517D01*
X196922810Y-90294083D01*
X196873797Y-90162671D01*
X196873793Y-90162664D01*
X196787547Y-90047455D01*
X196787544Y-90047452D01*
X196672335Y-89961206D01*
X196664546Y-89956953D01*
X196665463Y-89955272D01*
X196618503Y-89920117D01*
X196594086Y-89854653D01*
X196608938Y-89786380D01*
X196616195Y-89774683D01*
X196618488Y-89771407D01*
X196618495Y-89771401D01*
X196748427Y-89585838D01*
X196803001Y-89542217D01*
X196872500Y-89535024D01*
X196934854Y-89566546D01*
X196951574Y-89585841D01*
X197081505Y-89771401D01*
X197248599Y-89938495D01*
X197274270Y-89956470D01*
X197442165Y-90074032D01*
X197442167Y-90074033D01*
X197442170Y-90074035D01*
X197656337Y-90173903D01*
X197884592Y-90235063D01*
X198072918Y-90251539D01*
X198119999Y-90255659D01*
X198120000Y-90255659D01*
X198120001Y-90255659D01*
X198159234Y-90252226D01*
X198355408Y-90235063D01*
X198583663Y-90173903D01*
X198797830Y-90074035D01*
X198991401Y-89938495D01*
X199158495Y-89771401D01*
X199288426Y-89585841D01*
X199343002Y-89542217D01*
X199412500Y-89535023D01*
X199474855Y-89566546D01*
G37*
%TD.AperFunction*%
%TA.AperFunction,Conductor*%
G36*
X142490000Y-108786988D02*
G01*
X142432993Y-108754075D01*
X142305826Y-108720000D01*
X142174174Y-108720000D01*
X142047007Y-108754075D01*
X141990000Y-108786988D01*
X141990000Y-107113012D01*
X142047007Y-107145925D01*
X142174174Y-107180000D01*
X142305826Y-107180000D01*
X142432993Y-107145925D01*
X142490000Y-107113012D01*
X142490000Y-108786988D01*
G37*
%TD.AperFunction*%
%TA.AperFunction,Conductor*%
G36*
X142490000Y-106246988D02*
G01*
X142432993Y-106214075D01*
X142305826Y-106180000D01*
X142174174Y-106180000D01*
X142047007Y-106214075D01*
X141990000Y-106246988D01*
X141990000Y-104573012D01*
X142047007Y-104605925D01*
X142174174Y-104640000D01*
X142305826Y-104640000D01*
X142432993Y-104605925D01*
X142490000Y-104573012D01*
X142490000Y-106246988D01*
G37*
%TD.AperFunction*%
%TA.AperFunction,Conductor*%
G36*
X202014855Y-89566546D02*
G01*
X202031574Y-89585841D01*
X202161505Y-89771401D01*
X202328599Y-89938495D01*
X202354270Y-89956470D01*
X202522165Y-90074032D01*
X202522167Y-90074033D01*
X202522170Y-90074035D01*
X202736337Y-90173903D01*
X202964592Y-90235063D01*
X203152918Y-90251539D01*
X203199999Y-90255659D01*
X203200000Y-90255659D01*
X203200001Y-90255659D01*
X203239234Y-90252226D01*
X203435408Y-90235063D01*
X203663663Y-90173903D01*
X203823595Y-90099324D01*
X203892673Y-90088833D01*
X203956457Y-90117353D01*
X203994696Y-90175829D01*
X204000000Y-90211707D01*
X204000000Y-102828292D01*
X203980315Y-102895331D01*
X203927511Y-102941086D01*
X203858353Y-102951030D01*
X203823596Y-102940674D01*
X203663669Y-102866099D01*
X203663655Y-102866094D01*
X203435413Y-102804938D01*
X203435403Y-102804936D01*
X203200001Y-102784341D01*
X203199999Y-102784341D01*
X202964596Y-102804936D01*
X202964586Y-102804938D01*
X202736344Y-102866094D01*
X202736335Y-102866098D01*
X202522171Y-102965964D01*
X202522169Y-102965965D01*
X202328597Y-103101505D01*
X202161505Y-103268597D01*
X202031575Y-103454158D01*
X201976998Y-103497783D01*
X201907500Y-103504977D01*
X201845145Y-103473454D01*
X201828425Y-103454158D01*
X201698494Y-103268597D01*
X201531402Y-103101506D01*
X201531396Y-103101501D01*
X201345842Y-102971575D01*
X201302217Y-102916998D01*
X201295023Y-102847500D01*
X201326546Y-102785145D01*
X201345842Y-102768425D01*
X201480393Y-102674211D01*
X201531401Y-102638495D01*
X201698495Y-102471401D01*
X201834035Y-102277830D01*
X201933903Y-102063663D01*
X201995063Y-101835408D01*
X202015659Y-101600000D01*
X201995063Y-101364592D01*
X201933903Y-101136337D01*
X201834035Y-100922171D01*
X201834034Y-100922169D01*
X201698494Y-100728597D01*
X201531402Y-100561506D01*
X201531396Y-100561501D01*
X201345842Y-100431575D01*
X201302217Y-100376998D01*
X201295023Y-100307500D01*
X201326546Y-100245145D01*
X201345842Y-100228425D01*
X201380602Y-100204086D01*
X201531401Y-100098495D01*
X201698495Y-99931401D01*
X201834035Y-99737830D01*
X201933903Y-99523663D01*
X201995063Y-99295408D01*
X202015659Y-99060000D01*
X201995063Y-98824592D01*
X201933903Y-98596337D01*
X201834035Y-98382171D01*
X201828425Y-98374158D01*
X201698494Y-98188597D01*
X201531402Y-98021506D01*
X201531401Y-98021505D01*
X201345405Y-97891269D01*
X201301781Y-97836692D01*
X201294588Y-97767193D01*
X201326110Y-97704839D01*
X201345405Y-97688119D01*
X201531082Y-97558105D01*
X201698105Y-97391082D01*
X201833600Y-97197578D01*
X201933429Y-96983492D01*
X201933432Y-96983486D01*
X201990636Y-96770000D01*
X201093012Y-96770000D01*
X201125925Y-96712993D01*
X201160000Y-96585826D01*
X201160000Y-96454174D01*
X201125925Y-96327007D01*
X201093012Y-96270000D01*
X201990636Y-96270000D01*
X201990635Y-96269999D01*
X201933432Y-96056513D01*
X201933429Y-96056507D01*
X201833600Y-95842422D01*
X201833599Y-95842420D01*
X201698113Y-95648926D01*
X201698108Y-95648920D01*
X201531078Y-95481890D01*
X201345405Y-95351879D01*
X201301780Y-95297302D01*
X201294588Y-95227804D01*
X201326110Y-95165449D01*
X201345406Y-95148730D01*
X201345842Y-95148425D01*
X201531401Y-95018495D01*
X201698495Y-94851401D01*
X201834035Y-94657830D01*
X201933903Y-94443663D01*
X201995063Y-94215408D01*
X202015659Y-93980000D01*
X201995063Y-93744592D01*
X201933903Y-93516337D01*
X201834035Y-93302171D01*
X201830930Y-93297737D01*
X201698496Y-93108600D01*
X201664107Y-93074211D01*
X201576567Y-92986671D01*
X201543084Y-92925351D01*
X201548068Y-92855659D01*
X201589939Y-92799725D01*
X201620915Y-92782810D01*
X201752331Y-92733796D01*
X201867546Y-92647546D01*
X201953796Y-92532331D01*
X202004091Y-92397483D01*
X202010500Y-92337873D01*
X202010499Y-90542128D01*
X202004091Y-90482517D01*
X202002810Y-90479083D01*
X201953797Y-90347671D01*
X201953793Y-90347664D01*
X201867547Y-90232455D01*
X201867544Y-90232452D01*
X201752335Y-90146206D01*
X201752328Y-90146202D01*
X201620917Y-90097189D01*
X201564983Y-90055318D01*
X201540566Y-89989853D01*
X201555418Y-89921580D01*
X201576563Y-89893332D01*
X201698495Y-89771401D01*
X201828426Y-89585841D01*
X201883002Y-89542217D01*
X201952500Y-89535023D01*
X202014855Y-89566546D01*
G37*
%TD.AperFunction*%
%TD*%
M02*
