M48
; DRILL file {KiCad 8.0.0-1.fc39} date 2024-05-13T23:19:04+0200
; FORMAT={-:-/ absolute / inch / decimal}
; #@! TF.CreationDate,2024-05-13T23:19:04+02:00
; #@! TF.GenerationSoftware,Kicad,Pcbnew,8.0.0-1.fc39
; #@! TF.FileFunction,Plated,1,2,PTH
FMAT,2
INCH
; #@! TA.AperFunction,Plated,PTH,ViaDrill
T1C0.0118
; #@! TA.AperFunction,Plated,PTH,ComponentDrill
T2C0.0197
; #@! TA.AperFunction,Plated,PTH,ViaDrill
T3C0.0276
; #@! TA.AperFunction,Plated,PTH,ComponentDrill
T4C0.0394
%
G90
G05
T1
X6.175Y-3.8
X6.175Y-3.825
X6.2Y-3.8
X6.2Y-3.825
X6.2Y-4.075
X6.2Y-4.1
X6.2Y-4.125
X6.2Y-4.15
X6.225Y-3.8
X6.225Y-3.825
X6.225Y-4.075
X6.225Y-4.1
X6.225Y-4.125
X6.225Y-4.15
X6.25Y-3.8
X6.25Y-3.825
X6.3Y-3.9
X6.3Y-3.925
X6.325Y-3.9
X6.325Y-3.925
X6.3504Y-4.0709
X6.4567Y-4.2205
X6.4803Y-3.7874
X6.5Y-3.9
X6.5Y-4.2047
X6.625Y-4.0
X6.6254Y-4.1754
X6.7008Y-3.7913
X6.7323Y-4.2205
X6.7953Y-4.0472
X6.9724Y-3.7992
X7.0197Y-3.8031
X7.0276Y-3.9764
X7.3819Y-3.9488
X7.3838Y-3.809
X7.6063Y-3.8228
X7.625Y-4.1
X7.625Y-4.125
X7.65Y-4.1
X7.65Y-4.125
X7.675Y-4.1
X7.675Y-4.125
X7.685Y-3.6929
X7.7Y-4.1
X7.7Y-4.125
T2
X6.6988Y-3.878
X6.6988Y-3.978
T3
X5.8Y-3.9
X5.85Y-3.725
X5.85Y-4.05
T4
X3.6Y-3.5
X3.6Y-3.6
X3.6Y-3.7
X3.6Y-3.8
X3.6Y-3.9
X3.6Y-4.0
X3.6Y-4.1
X3.6Y-4.2
X3.6Y-4.3
X3.6Y-4.4
X3.6Y-4.5
X3.7Y-3.5
X3.7Y-3.6
X3.7Y-3.7
X3.7Y-3.8
X3.7Y-3.9
X3.7Y-4.0
X3.7Y-4.1
X3.7Y-4.2
X3.7Y-4.3
X3.7Y-4.4
X3.7Y-4.5
X3.8Y-3.3
X3.8Y-3.4
X3.8Y-3.5
X3.8Y-3.6
X3.8Y-3.7
X3.8Y-3.8
X3.8Y-3.9
X3.8Y-4.0
X3.8Y-4.1
X3.8Y-4.2
X3.8Y-4.3
X3.8Y-4.4
X3.8Y-4.5
X3.8Y-4.6
X3.8Y-4.7
X3.9Y-3.3
X3.9Y-3.4
X3.9Y-3.5
X3.9Y-3.6
X3.9Y-3.7
X3.9Y-3.8
X3.9Y-3.9
X3.9Y-4.0
X3.9Y-4.1
X3.9Y-4.2
X3.9Y-4.3
X3.9Y-4.4
X3.9Y-4.5
X3.9Y-4.6
X3.9Y-4.7
X4.0Y-3.3
X4.0Y-3.4
X4.0Y-3.5
X4.0Y-3.6
X4.0Y-3.7
X4.0Y-3.8
X4.0Y-3.9
X4.0Y-4.0
X4.0Y-4.1
X4.0Y-4.2
X4.0Y-4.3
X4.0Y-4.4
X4.0Y-4.5
X4.0Y-4.6
X4.0Y-4.7
X4.1Y-3.3
X4.1Y-3.4
X4.1Y-3.5
X4.1Y-3.6
X4.1Y-3.7
X4.1Y-3.8
X4.1Y-3.9
X4.1Y-4.0
X4.1Y-4.1
X4.1Y-4.2
X4.1Y-4.3
X4.1Y-4.4
X4.1Y-4.5
X4.1Y-4.6
X4.1Y-4.7
X4.2Y-3.3
X4.2Y-3.4
X4.2Y-3.5
X4.2Y-3.6
X4.2Y-3.7
X4.2Y-3.8
X4.2Y-3.9
X4.2Y-4.0
X4.2Y-4.1
X4.2Y-4.2
X4.2Y-4.3
X4.2Y-4.4
X4.2Y-4.5
X4.2Y-4.6
X4.2Y-4.7
X4.3Y-3.3
X4.3Y-3.4
X4.3Y-3.5
X4.3Y-3.6
X4.3Y-3.7
X4.3Y-3.8
X4.3Y-3.9
X4.3Y-4.0
X4.3Y-4.1
X4.3Y-4.2
X4.3Y-4.3
X4.3Y-4.4
X4.3Y-4.5
X4.3Y-4.6
X4.3Y-4.7
X4.4Y-3.3
X4.4Y-3.4
X4.4Y-3.5
X4.4Y-3.6
X4.4Y-3.7
X4.4Y-3.8
X4.4Y-3.9
X4.4Y-4.0
X4.4Y-4.1
X4.4Y-4.2
X4.4Y-4.3
X4.4Y-4.4
X4.4Y-4.5
X4.4Y-4.6
X4.4Y-4.7
X4.5Y-3.3
X4.5Y-3.4
X4.5Y-3.5
X4.5Y-3.6
X4.5Y-3.7
X4.5Y-3.8
X4.5Y-3.9
X4.5Y-4.0
X4.5Y-4.1
X4.5Y-4.2
X4.5Y-4.3
X4.5Y-4.4
X4.5Y-4.5
X4.5Y-4.6
X4.5Y-4.7
X4.6Y-3.3
X4.6Y-3.4
X4.6Y-3.5
X4.6Y-3.6
X4.6Y-3.7
X4.6Y-3.8
X4.6Y-3.9
X4.6Y-4.0
X4.6Y-4.1
X4.6Y-4.2
X4.6Y-4.3
X4.6Y-4.4
X4.6Y-4.5
X4.6Y-4.6
X4.6Y-4.7
X4.7Y-3.3
X4.7Y-3.4
X4.7Y-3.5
X4.7Y-3.6
X4.7Y-3.7
X4.7Y-3.8
X4.7Y-3.9
X4.7Y-4.0
X4.7Y-4.1
X4.7Y-4.2
X4.7Y-4.3
X4.7Y-4.4
X4.7Y-4.5
X4.7Y-4.6
X4.7Y-4.7
X4.8Y-3.3
X4.8Y-3.4
X4.8Y-3.5
X4.8Y-3.6
X4.8Y-3.7
X4.8Y-3.8
X4.8Y-3.9
X4.8Y-4.0
X4.8Y-4.1
X4.8Y-4.2
X4.8Y-4.3
X4.8Y-4.4
X4.8Y-4.5
X4.8Y-4.6
X4.8Y-4.7
X4.9Y-3.3
X4.9Y-3.4
X4.9Y-3.5
X4.9Y-3.6
X4.9Y-3.7
X4.9Y-3.8
X4.9Y-3.9
X4.9Y-4.0
X4.9Y-4.1
X4.9Y-4.2
X4.9Y-4.3
X4.9Y-4.4
X4.9Y-4.5
X4.9Y-4.6
X4.9Y-4.7
X5.0Y-3.3
X5.0Y-3.4
X5.0Y-3.5
X5.0Y-3.6
X5.0Y-3.7
X5.0Y-3.8
X5.0Y-3.9
X5.0Y-4.0
X5.0Y-4.1
X5.0Y-4.2
X5.0Y-4.3
X5.0Y-4.4
X5.0Y-4.5
X5.0Y-4.6
X5.0Y-4.7
X5.1Y-3.3
X5.1Y-3.4
X5.1Y-3.5
X5.1Y-3.6
X5.1Y-3.7
X5.1Y-3.8
X5.1Y-3.9
X5.1Y-4.0
X5.1Y-4.1
X5.1Y-4.2
X5.1Y-4.3
X5.1Y-4.4
X5.1Y-4.5
X5.1Y-4.6
X5.1Y-4.7
X5.2Y-3.3
X5.2Y-3.4
X5.2Y-3.5
X5.2Y-3.6
X5.2Y-3.7
X5.2Y-3.8
X5.2Y-3.9
X5.2Y-4.0
X5.2Y-4.1
X5.2Y-4.2
X5.2Y-4.3
X5.2Y-4.4
X5.2Y-4.5
X5.2Y-4.6
X5.2Y-4.7
X5.3Y-3.3
X5.3Y-3.4
X5.3Y-3.5
X5.3Y-3.6
X5.3Y-3.7
X5.3Y-3.8
X5.3Y-3.9
X5.3Y-4.0
X5.3Y-4.1
X5.3Y-4.2
X5.3Y-4.3
X5.3Y-4.4
X5.3Y-4.5
X5.3Y-4.6
X5.3Y-4.7
X5.4Y-3.3
X5.4Y-3.4
X5.4Y-3.5
X5.4Y-3.6
X5.4Y-3.7
X5.4Y-3.8
X5.4Y-3.9
X5.4Y-4.0
X5.4Y-4.1
X5.4Y-4.2
X5.4Y-4.3
X5.4Y-4.4
X5.4Y-4.5
X5.4Y-4.6
X5.4Y-4.7
X5.5Y-3.3
X5.5Y-3.4
X5.5Y-3.5
X5.5Y-3.6
X5.5Y-3.7
X5.5Y-3.8
X5.5Y-3.9
X5.5Y-4.0
X5.5Y-4.1
X5.5Y-4.2
X5.5Y-4.3
X5.5Y-4.4
X5.5Y-4.5
X5.5Y-4.6
X5.5Y-4.7
X5.6Y-3.3
X5.6Y-3.4
X5.6Y-3.5
X5.6Y-3.6
X5.6Y-3.7
X5.6Y-3.8
X5.6Y-3.9
X5.6Y-4.0
X5.6Y-4.1
X5.6Y-4.2
X5.6Y-4.3
X5.6Y-4.4
X5.6Y-4.5
X5.6Y-4.6
X5.6Y-4.7
X5.7Y-3.3
X5.7Y-3.4
X5.7Y-3.5
X5.7Y-4.4
X5.7Y-4.5
X5.7Y-4.6
X5.7Y-4.7
X5.8Y-3.3
X5.8Y-3.4
X5.8Y-3.5
X5.8Y-4.4
X5.8Y-4.5
X5.8Y-4.6
X5.8Y-4.7
X5.9Y-3.3
X5.9Y-3.4
X5.9Y-3.5
X5.9Y-4.4
X5.9Y-4.5
X5.9Y-4.6
X5.9Y-4.7
X6.0Y-3.3
X6.0Y-3.4
X6.0Y-3.5
X6.0Y-4.4
X6.0Y-4.5
X6.0Y-4.6
X6.0Y-4.7
X6.1Y-3.3
X6.1Y-3.4
X6.1Y-3.5
X6.1Y-4.3
X6.1Y-4.4
X6.1Y-4.5
X6.1Y-4.6
X6.1Y-4.7
X6.2Y-3.3
X6.2Y-3.4
X6.2Y-3.5
X6.2Y-3.5927
X6.2Y-4.3
X6.2Y-4.4
X6.2Y-4.5
X6.2Y-4.6
X6.2Y-4.7
X6.3Y-3.3
X6.3Y-3.4
X6.3Y-3.5
X6.3Y-3.5927
X6.3Y-4.3
X6.3Y-4.4
X6.3Y-4.5
X6.3Y-4.6
X6.3Y-4.7
X6.4Y-3.3
X6.4Y-3.4
X6.4Y-3.5
X6.4Y-3.5927
X6.4Y-4.3
X6.4Y-4.4
X6.4Y-4.5
X6.4Y-4.6
X6.4Y-4.7
X6.5Y-3.3
X6.5Y-3.4
X6.5Y-3.5
X6.5Y-3.5927
X6.5Y-4.3
X6.5Y-4.4
X6.5Y-4.5
X6.5Y-4.6
X6.5Y-4.7
X6.6Y-3.3
X6.6Y-3.4
X6.6Y-3.5
X6.6Y-3.5927
X6.6Y-4.3
X6.6Y-4.4
X6.6Y-4.5
X6.6Y-4.6
X6.6Y-4.7
X6.7Y-3.3
X6.7Y-3.4
X6.7Y-3.5
X6.7Y-3.5927
X6.7Y-4.3
X6.7Y-4.4
X6.7Y-4.5
X6.7Y-4.6
X6.7Y-4.7
X6.8Y-3.3
X6.8Y-3.4
X6.8Y-3.5
X6.8Y-3.5927
X6.8Y-4.3
X6.8Y-4.4
X6.8Y-4.5
X6.8Y-4.6
X6.8Y-4.7
X6.9Y-3.3
X6.9Y-3.4
X6.9Y-3.5
X6.9Y-3.5927
X6.9Y-4.3
X6.9Y-4.4
X6.9Y-4.5
X6.9Y-4.6
X6.9Y-4.7
X7.0Y-3.3
X7.0Y-3.4
X7.0Y-3.5
X7.0Y-3.5927
X7.0Y-4.3
X7.0Y-4.4
X7.0Y-4.5
X7.0Y-4.6
X7.0Y-4.7
X7.1Y-3.3
X7.1Y-3.4
X7.1Y-3.5
X7.1Y-3.5927
X7.1Y-4.3
X7.1Y-4.4
X7.1Y-4.5
X7.1Y-4.6
X7.1Y-4.7
X7.2Y-3.3
X7.2Y-3.4
X7.2Y-3.5
X7.2Y-3.5927
X7.2Y-4.3
X7.2Y-4.4
X7.2Y-4.5
X7.2Y-4.6
X7.2Y-4.7
X7.3Y-3.3
X7.3Y-3.4
X7.3Y-3.5
X7.3Y-3.5927
X7.3Y-4.3
X7.3Y-4.4
X7.3Y-4.5
X7.3Y-4.6
X7.3Y-4.7
X7.4Y-3.3
X7.4Y-3.4
X7.4Y-3.5
X7.4Y-3.5927
X7.4Y-4.3
X7.4Y-4.4
X7.4Y-4.5
X7.4Y-4.6
X7.4Y-4.7
X7.5Y-3.3
X7.5Y-3.4
X7.5Y-3.5
X7.5Y-3.5927
X7.5Y-4.3
X7.5Y-4.4
X7.5Y-4.5
X7.5Y-4.6
X7.5Y-4.7
X7.6Y-3.3
X7.6Y-3.4
X7.6Y-3.5
X7.6Y-3.5927
X7.6Y-4.3
X7.6Y-4.4
X7.6Y-4.5
X7.6Y-4.6
X7.6Y-4.7
X7.7Y-3.3
X7.7Y-3.4
X7.7Y-3.5
X7.7Y-3.5927
X7.7Y-4.3
X7.7Y-4.4
X7.7Y-4.5
X7.7Y-4.6
X7.7Y-4.7
X7.8Y-3.3
X7.8Y-3.4
X7.8Y-3.5
X7.8Y-4.1
X7.8Y-4.2
X7.8Y-4.3
X7.8Y-4.4
X7.8Y-4.5
X7.8Y-4.6
X7.8Y-4.7
X7.9Y-3.3
X7.9Y-3.4
X7.9Y-3.5
X7.9Y-3.6
X7.9Y-3.7
X7.9Y-3.8
X7.9Y-3.9
X7.9Y-4.0
X7.9Y-4.1
X7.9Y-4.2
X7.9Y-4.3
X7.9Y-4.4
X7.9Y-4.5
X7.9Y-4.6
X7.9Y-4.7
X8.0Y-3.3
X8.0Y-3.4
X8.0Y-3.5
X8.0Y-4.1
X8.0Y-4.2
X8.0Y-4.3
X8.0Y-4.4
X8.0Y-4.5
X8.0Y-4.6
X8.0Y-4.7
X8.1Y-3.3
X8.1Y-3.4
X8.1Y-3.5
X8.1Y-3.6
X8.1Y-3.7
X8.1Y-3.8
X8.1Y-3.9
X8.1Y-4.0
X8.1Y-4.1
X8.1Y-4.2
X8.1Y-4.3
X8.1Y-4.4
X8.1Y-4.5
X8.1Y-4.6
X8.1Y-4.7
X8.2Y-3.3
X8.2Y-3.4
X8.2Y-3.5
X8.2Y-3.6
X8.2Y-3.7
X8.2Y-3.8
X8.2Y-3.9
X8.2Y-4.0
X8.2Y-4.1
X8.2Y-4.2
X8.2Y-4.3
X8.2Y-4.4
X8.2Y-4.5
X8.2Y-4.6
X8.2Y-4.7
X8.3Y-3.3
X8.3Y-3.4
X8.3Y-3.5
X8.3Y-3.6
X8.3Y-3.7
X8.3Y-3.8
X8.3Y-3.9
X8.3Y-4.0
X8.3Y-4.1
X8.3Y-4.2
X8.3Y-4.3
X8.3Y-4.4
X8.3Y-4.5
X8.3Y-4.6
X8.3Y-4.7
X8.4Y-3.3
X8.4Y-3.4
X8.4Y-3.5
X8.4Y-3.6
X8.4Y-3.7
X8.4Y-3.8
X8.4Y-3.9
X8.4Y-4.0
X8.4Y-4.1
X8.4Y-4.2
X8.4Y-4.3
X8.4Y-4.4
X8.4Y-4.5
X8.4Y-4.6
X8.4Y-4.7
X8.5Y-3.3
X8.5Y-3.4
X8.5Y-3.5
X8.5Y-3.6
X8.5Y-3.7
X8.5Y-3.8
X8.5Y-3.9
X8.5Y-4.0
X8.5Y-4.1
X8.5Y-4.2
X8.5Y-4.3
X8.5Y-4.4
X8.5Y-4.5
X8.5Y-4.6
X8.5Y-4.7
X8.6Y-3.3
X8.6Y-3.4
X8.6Y-3.5
X8.6Y-3.6
X8.6Y-3.7
X8.6Y-3.8
X8.6Y-3.9
X8.6Y-4.0
X8.6Y-4.1
X8.6Y-4.2
X8.6Y-4.3
X8.6Y-4.4
X8.6Y-4.5
X8.6Y-4.6
X8.6Y-4.7
X8.7Y-3.3
X8.7Y-3.4
X8.7Y-3.5
X8.7Y-3.6
X8.7Y-3.7
X8.7Y-3.8
X8.7Y-3.9
X8.7Y-4.0
X8.7Y-4.1
X8.7Y-4.2
X8.7Y-4.3
X8.7Y-4.4
X8.7Y-4.5
X8.7Y-4.6
X8.7Y-4.7
X8.8Y-3.3
X8.8Y-3.4
X8.8Y-3.5
X8.8Y-3.6
X8.8Y-3.7
X8.8Y-3.8
X8.8Y-3.9
X8.8Y-4.0
X8.8Y-4.1
X8.8Y-4.2
X8.8Y-4.3
X8.8Y-4.4
X8.8Y-4.5
X8.8Y-4.6
X8.8Y-4.7
X8.9Y-3.3
X8.9Y-3.4
X8.9Y-3.5
X8.9Y-3.6
X8.9Y-3.7
X8.9Y-3.8
X8.9Y-3.9
X8.9Y-4.0
X8.9Y-4.1
X8.9Y-4.2
X8.9Y-4.3
X8.9Y-4.4
X8.9Y-4.5
X8.9Y-4.6
X8.9Y-4.7
X9.0Y-3.3
X9.0Y-3.4
X9.0Y-3.5
X9.0Y-3.6
X9.0Y-3.7
X9.0Y-3.8
X9.0Y-3.9
X9.0Y-4.0
X9.0Y-4.1
X9.0Y-4.2
X9.0Y-4.3
X9.0Y-4.4
X9.0Y-4.5
X9.0Y-4.6
X9.0Y-4.7
X9.1Y-3.3
X9.1Y-3.4
X9.1Y-3.5
X9.1Y-3.6
X9.1Y-3.7
X9.1Y-3.8
X9.1Y-3.9
X9.1Y-4.0
X9.1Y-4.1
X9.1Y-4.2
X9.1Y-4.3
X9.1Y-4.4
X9.1Y-4.5
X9.1Y-4.6
X9.1Y-4.7
X9.2Y-3.5
X9.2Y-3.6
X9.2Y-3.7
X9.2Y-3.8
X9.2Y-3.9
X9.2Y-4.0
X9.2Y-4.1
X9.2Y-4.2
X9.2Y-4.3
X9.2Y-4.4
X9.2Y-4.5
X9.3Y-3.5
X9.3Y-3.6
X9.3Y-3.7
X9.3Y-3.8
X9.3Y-3.9
X9.3Y-4.0
X9.3Y-4.1
X9.3Y-4.2
X9.3Y-4.3
X9.3Y-4.4
X9.3Y-4.5
M30
