%TF.GenerationSoftware,KiCad,Pcbnew,8.0.0-1.fc39*%
%TF.CreationDate,2024-05-13T23:19:07+02:00*%
%TF.ProjectId,mcu_dev,6d63755f-6465-4762-9e6b-696361645f70,rev?*%
%TF.SameCoordinates,Original*%
%TF.FileFunction,Soldermask,Top*%
%TF.FilePolarity,Negative*%
%FSLAX46Y46*%
G04 Gerber Fmt 4.6, Leading zero omitted, Abs format (unit mm)*
G04 Created by KiCad (PCBNEW 8.0.0-1.fc39) date 2024-05-13 23:19:07*
%MOMM*%
%LPD*%
G01*
G04 APERTURE LIST*
G04 Aperture macros list*
%AMRoundRect*
0 Rectangle with rounded corners*
0 $1 Rounding radius*
0 $2 $3 $4 $5 $6 $7 $8 $9 X,Y pos of 4 corners*
0 Add a 4 corners polygon primitive as box body*
4,1,4,$2,$3,$4,$5,$6,$7,$8,$9,$2,$3,0*
0 Add four circle primitives for the rounded corners*
1,1,$1+$1,$2,$3*
1,1,$1+$1,$4,$5*
1,1,$1+$1,$6,$7*
1,1,$1+$1,$8,$9*
0 Add four rect primitives between the rounded corners*
20,1,$1+$1,$2,$3,$4,$5,0*
20,1,$1+$1,$4,$5,$6,$7,0*
20,1,$1+$1,$6,$7,$8,$9,0*
20,1,$1+$1,$8,$9,$2,$3,0*%
G04 Aperture macros list end*
%ADD10C,1.700000*%
%ADD11C,3.200000*%
%ADD12R,1.700000X1.700000*%
%ADD13O,1.700000X1.700000*%
%ADD14RoundRect,0.225000X-0.250000X0.225000X-0.250000X-0.225000X0.250000X-0.225000X0.250000X0.225000X0*%
%ADD15RoundRect,0.200000X-0.200000X-0.275000X0.200000X-0.275000X0.200000X0.275000X-0.200000X0.275000X0*%
%ADD16RoundRect,0.125000X-0.353553X-0.530330X0.530330X0.353553X0.353553X0.530330X-0.530330X-0.353553X0*%
%ADD17RoundRect,0.125000X0.353553X-0.530330X0.530330X-0.353553X-0.353553X0.530330X-0.530330X0.353553X0*%
%ADD18RoundRect,0.225000X-0.225000X-0.250000X0.225000X-0.250000X0.225000X0.250000X-0.225000X0.250000X0*%
%ADD19RoundRect,0.375000X0.625000X0.375000X-0.625000X0.375000X-0.625000X-0.375000X0.625000X-0.375000X0*%
%ADD20RoundRect,0.500000X0.500000X1.400000X-0.500000X1.400000X-0.500000X-1.400000X0.500000X-1.400000X0*%
%ADD21RoundRect,0.218750X0.218750X0.256250X-0.218750X0.256250X-0.218750X-0.256250X0.218750X-0.256250X0*%
%ADD22C,1.000000*%
G04 APERTURE END LIST*
D10*
%TO.C,*%
X203200000Y-88900000D03*
%TD*%
%TO.C,*%
X198120000Y-88900000D03*
%TD*%
%TO.C,*%
X200660000Y-88900000D03*
%TD*%
%TO.C,*%
X142240000Y-88900000D03*
%TD*%
%TO.C,*%
X149860000Y-88900000D03*
%TD*%
%TO.C,*%
X139700000Y-88900000D03*
%TD*%
%TO.C,*%
X147320000Y-88900000D03*
%TD*%
%TO.C,*%
X154940000Y-88900000D03*
%TD*%
%TO.C,*%
X144780000Y-88900000D03*
%TD*%
%TO.C,*%
X152400000Y-88900000D03*
%TD*%
%TO.C,*%
X147320000Y-111760000D03*
%TD*%
%TO.C,*%
X144780000Y-111760000D03*
%TD*%
%TO.C,*%
X149860000Y-111760000D03*
%TD*%
%TO.C,*%
X142240000Y-111760000D03*
%TD*%
%TO.C,*%
X139700000Y-111760000D03*
%TD*%
%TO.C,*%
X154940000Y-109220000D03*
%TD*%
%TO.C,*%
X154940000Y-111760000D03*
%TD*%
%TO.C,*%
X152400000Y-111760000D03*
%TD*%
%TO.C,*%
X203200000Y-106680000D03*
%TD*%
%TO.C,*%
X198120000Y-106680000D03*
%TD*%
%TO.C,*%
X200660000Y-104140000D03*
%TD*%
%TO.C,*%
X198120000Y-104140000D03*
%TD*%
%TO.C,*%
X203200000Y-104140000D03*
%TD*%
%TO.C,*%
X200660000Y-106680000D03*
%TD*%
%TO.C,*%
X203200000Y-111760000D03*
%TD*%
%TO.C,*%
X198120000Y-111760000D03*
%TD*%
%TO.C,*%
X200660000Y-109220000D03*
%TD*%
%TO.C,*%
X198120000Y-109220000D03*
%TD*%
%TO.C,*%
X203200000Y-109220000D03*
%TD*%
%TO.C,*%
X200660000Y-111760000D03*
%TD*%
%TO.C,*%
X139700000Y-109220000D03*
%TD*%
%TO.C,*%
X139700000Y-96520000D03*
%TD*%
%TO.C,*%
X139700000Y-101600000D03*
%TD*%
%TO.C,*%
X139700000Y-93980000D03*
%TD*%
%TO.C,*%
X139700000Y-91440000D03*
%TD*%
%TO.C,*%
X139700000Y-99060000D03*
%TD*%
%TO.C,*%
X139700000Y-104140000D03*
%TD*%
%TO.C,*%
X139700000Y-106680000D03*
%TD*%
%TO.C,*%
X180340000Y-111760000D03*
%TD*%
%TO.C,*%
X170180000Y-111760000D03*
%TD*%
%TO.C,*%
X193040000Y-111760000D03*
%TD*%
%TO.C,*%
X185420000Y-111760000D03*
%TD*%
%TO.C,*%
X195580000Y-111760000D03*
%TD*%
%TO.C,*%
X177800000Y-111760000D03*
%TD*%
%TO.C,*%
X187960000Y-111760000D03*
%TD*%
%TO.C,*%
X157480000Y-111760000D03*
%TD*%
%TO.C,*%
X175260000Y-111760000D03*
%TD*%
%TO.C,*%
X172720000Y-111760000D03*
%TD*%
%TO.C,*%
X162560000Y-111760000D03*
%TD*%
%TO.C,*%
X165100000Y-111760000D03*
%TD*%
%TO.C,*%
X167640000Y-111760000D03*
%TD*%
%TO.C,*%
X160020000Y-111760000D03*
%TD*%
%TO.C,*%
X182880000Y-111760000D03*
%TD*%
%TO.C,*%
X190500000Y-111760000D03*
%TD*%
%TO.C,*%
X190500000Y-88900000D03*
%TD*%
%TO.C,*%
X162560000Y-88900000D03*
%TD*%
%TO.C,*%
X180340000Y-88900000D03*
%TD*%
%TO.C,*%
X167640000Y-88900000D03*
%TD*%
%TO.C,*%
X157480000Y-88900000D03*
%TD*%
%TO.C,*%
X172720000Y-88900000D03*
%TD*%
%TO.C,*%
X170180000Y-88900000D03*
%TD*%
%TO.C,*%
X185420000Y-88900000D03*
%TD*%
%TO.C,*%
X182880000Y-88900000D03*
%TD*%
%TO.C,*%
X195580000Y-88900000D03*
%TD*%
%TO.C,*%
X165100000Y-88900000D03*
%TD*%
%TO.C,*%
X175260000Y-88900000D03*
%TD*%
%TO.C,*%
X187960000Y-88900000D03*
%TD*%
%TO.C,*%
X177800000Y-88900000D03*
%TD*%
%TO.C,*%
X193040000Y-88900000D03*
%TD*%
%TO.C,*%
X160020000Y-88900000D03*
%TD*%
%TO.C,*%
X137160000Y-111760000D03*
%TD*%
%TO.C,*%
X137160000Y-93980000D03*
%TD*%
%TO.C,*%
X137160000Y-96520000D03*
%TD*%
%TO.C,*%
X137160000Y-91440000D03*
%TD*%
%TO.C,*%
X137160000Y-104140000D03*
%TD*%
%TO.C,*%
X137160000Y-101600000D03*
%TD*%
%TO.C,*%
X137160000Y-106680000D03*
%TD*%
%TO.C,*%
X137160000Y-109220000D03*
%TD*%
%TO.C,*%
X137160000Y-88900000D03*
%TD*%
%TO.C,*%
X137160000Y-99060000D03*
%TD*%
%TO.C,*%
X236220000Y-104140000D03*
%TD*%
%TO.C,*%
X236220000Y-88900000D03*
%TD*%
%TO.C,*%
X236220000Y-93980000D03*
%TD*%
%TO.C,*%
X236220000Y-96520000D03*
%TD*%
%TO.C,*%
X236220000Y-91440000D03*
%TD*%
%TO.C,*%
X236220000Y-111760000D03*
%TD*%
%TO.C,*%
X236220000Y-101600000D03*
%TD*%
%TO.C,*%
X236220000Y-106680000D03*
%TD*%
%TO.C,*%
X236220000Y-99060000D03*
%TD*%
%TO.C,*%
X236220000Y-109220000D03*
%TD*%
%TO.C,*%
X223520000Y-111760000D03*
%TD*%
%TO.C,*%
X220980000Y-106680000D03*
%TD*%
%TO.C,*%
X220980000Y-109220000D03*
%TD*%
%TO.C,*%
X228600000Y-109220000D03*
%TD*%
%TO.C,*%
X233680000Y-111760000D03*
%TD*%
%TO.C,*%
X213360000Y-109220000D03*
%TD*%
%TO.C,*%
X231140000Y-109220000D03*
%TD*%
%TO.C,*%
X213360000Y-88900000D03*
%TD*%
%TO.C,*%
X231140000Y-93980000D03*
%TD*%
%TO.C,*%
X213360000Y-93980000D03*
%TD*%
%TO.C,*%
X233680000Y-93980000D03*
%TD*%
%TO.C,*%
X220980000Y-99060000D03*
%TD*%
%TO.C,*%
X210820000Y-99060000D03*
%TD*%
%TO.C,*%
X220980000Y-101600000D03*
%TD*%
%TO.C,*%
X210820000Y-101600000D03*
%TD*%
%TO.C,*%
X226060000Y-91440000D03*
%TD*%
%TO.C,*%
X218440000Y-91440000D03*
%TD*%
%TO.C,*%
X208280000Y-91440000D03*
%TD*%
%TO.C,*%
X228600000Y-93980000D03*
%TD*%
%TO.C,*%
X233680000Y-96520000D03*
%TD*%
%TO.C,*%
X228600000Y-88900000D03*
%TD*%
%TO.C,*%
X231140000Y-88900000D03*
%TD*%
%TO.C,*%
X226060000Y-106680000D03*
%TD*%
%TO.C,*%
X218440000Y-106680000D03*
%TD*%
%TO.C,*%
X208280000Y-106680000D03*
%TD*%
%TO.C,*%
X205740000Y-106680000D03*
%TD*%
%TO.C,*%
X215900000Y-104140000D03*
%TD*%
%TO.C,*%
X215900000Y-106680000D03*
%TD*%
%TO.C,*%
X208280000Y-96520000D03*
%TD*%
%TO.C,*%
X205740000Y-96520000D03*
%TD*%
%TO.C,*%
X215900000Y-93980000D03*
%TD*%
%TO.C,*%
X215900000Y-96520000D03*
%TD*%
%TO.C,*%
X213360000Y-96520000D03*
%TD*%
%TO.C,*%
X231140000Y-96520000D03*
%TD*%
%TO.C,*%
X228600000Y-96520000D03*
%TD*%
%TO.C,*%
X226060000Y-93980000D03*
%TD*%
%TO.C,*%
X218440000Y-93980000D03*
%TD*%
%TO.C,*%
X213360000Y-106680000D03*
%TD*%
%TO.C,*%
X231140000Y-106680000D03*
%TD*%
%TO.C,*%
X228600000Y-106680000D03*
%TD*%
%TO.C,*%
X226060000Y-104140000D03*
%TD*%
%TO.C,*%
X218440000Y-104140000D03*
%TD*%
%TO.C,*%
X208280000Y-104140000D03*
%TD*%
%TO.C,*%
X233680000Y-91440000D03*
%TD*%
%TO.C,*%
X213360000Y-99060000D03*
%TD*%
%TO.C,*%
X220980000Y-111760000D03*
%TD*%
%TO.C,*%
X210820000Y-111760000D03*
%TD*%
%TO.C,*%
X205740000Y-91440000D03*
%TD*%
%TO.C,*%
X215900000Y-88900000D03*
%TD*%
%TO.C,*%
X215900000Y-91440000D03*
%TD*%
%TO.C,*%
X213360000Y-91440000D03*
%TD*%
%TO.C,*%
X231140000Y-91440000D03*
%TD*%
%TO.C,*%
X228600000Y-91440000D03*
%TD*%
%TO.C,*%
X226060000Y-88900000D03*
%TD*%
%TO.C,*%
X218440000Y-88900000D03*
%TD*%
%TO.C,*%
X210820000Y-96520000D03*
%TD*%
%TO.C,*%
X220980000Y-93980000D03*
%TD*%
%TO.C,*%
X210820000Y-93980000D03*
%TD*%
%TO.C,*%
X213360000Y-104140000D03*
%TD*%
%TO.C,*%
X220980000Y-104140000D03*
%TD*%
%TO.C,*%
X210820000Y-106680000D03*
%TD*%
%TO.C,*%
X208280000Y-93980000D03*
%TD*%
%TO.C,*%
X205740000Y-93980000D03*
%TD*%
%TO.C,*%
X223520000Y-93980000D03*
%TD*%
%TO.C,*%
X223520000Y-96520000D03*
%TD*%
%TO.C,*%
X220980000Y-96520000D03*
%TD*%
%TO.C,*%
X231140000Y-104140000D03*
%TD*%
%TO.C,*%
X233680000Y-104140000D03*
%TD*%
%TO.C,*%
X228600000Y-104140000D03*
%TD*%
%TO.C,*%
X210820000Y-104140000D03*
%TD*%
%TO.C,*%
X215900000Y-99060000D03*
%TD*%
%TO.C,*%
X215900000Y-101600000D03*
%TD*%
%TO.C,*%
X213360000Y-101600000D03*
%TD*%
%TO.C,*%
X231140000Y-101600000D03*
%TD*%
%TO.C,*%
X228600000Y-101600000D03*
%TD*%
%TO.C,*%
X226060000Y-99060000D03*
%TD*%
%TO.C,*%
X218440000Y-99060000D03*
%TD*%
%TO.C,*%
X208280000Y-99060000D03*
%TD*%
%TO.C,*%
X205740000Y-99060000D03*
%TD*%
%TO.C,*%
X223520000Y-99060000D03*
%TD*%
%TO.C,*%
X223520000Y-101600000D03*
%TD*%
%TO.C,*%
X218440000Y-109220000D03*
%TD*%
%TO.C,*%
X208280000Y-109220000D03*
%TD*%
%TO.C,*%
X205740000Y-104140000D03*
%TD*%
%TO.C,*%
X223520000Y-106680000D03*
%TD*%
%TO.C,*%
X233680000Y-101600000D03*
%TD*%
%TO.C,*%
X233680000Y-106680000D03*
%TD*%
%TO.C,*%
X226060000Y-96520000D03*
%TD*%
%TO.C,*%
X218440000Y-96520000D03*
%TD*%
%TO.C,*%
X223520000Y-104140000D03*
%TD*%
%TO.C,*%
X231140000Y-111760000D03*
%TD*%
%TO.C,*%
X228600000Y-111760000D03*
%TD*%
%TO.C,*%
X226060000Y-109220000D03*
%TD*%
%TO.C,*%
X205740000Y-109220000D03*
%TD*%
%TO.C,*%
X223520000Y-109220000D03*
%TD*%
%TO.C,*%
X226060000Y-111760000D03*
%TD*%
%TO.C,*%
X218440000Y-111760000D03*
%TD*%
%TO.C,*%
X208280000Y-111760000D03*
%TD*%
%TO.C,*%
X205740000Y-111760000D03*
%TD*%
%TO.C,*%
X215900000Y-109220000D03*
%TD*%
%TO.C,*%
X215900000Y-111760000D03*
%TD*%
%TO.C,*%
X213360000Y-111760000D03*
%TD*%
%TO.C,*%
X233680000Y-109220000D03*
%TD*%
%TO.C,*%
X210820000Y-109220000D03*
%TD*%
%TO.C,*%
X226060000Y-101600000D03*
%TD*%
%TO.C,*%
X218440000Y-101600000D03*
%TD*%
%TO.C,*%
X208280000Y-101600000D03*
%TD*%
%TO.C,*%
X205740000Y-101600000D03*
%TD*%
%TO.C,*%
X233680000Y-88900000D03*
%TD*%
%TO.C,*%
X233680000Y-99060000D03*
%TD*%
%TO.C,*%
X228600000Y-99060000D03*
%TD*%
%TO.C,*%
X231140000Y-99060000D03*
%TD*%
%TO.C,*%
X208280000Y-88900000D03*
%TD*%
%TO.C,*%
X205740000Y-88900000D03*
%TD*%
%TO.C,*%
X223520000Y-88900000D03*
%TD*%
%TO.C,*%
X223520000Y-91440000D03*
%TD*%
%TO.C,*%
X220980000Y-91440000D03*
%TD*%
%TO.C,*%
X210820000Y-91440000D03*
%TD*%
%TO.C,*%
X220980000Y-88900000D03*
%TD*%
%TO.C,*%
X210820000Y-88900000D03*
%TD*%
%TO.C,*%
X91440000Y-96520000D03*
%TD*%
%TO.C,*%
X91440000Y-101600000D03*
%TD*%
%TO.C,*%
X91440000Y-93980000D03*
%TD*%
%TO.C,*%
X93980000Y-106680000D03*
%TD*%
%TO.C,*%
X93980000Y-96520000D03*
%TD*%
%TO.C,*%
X91440000Y-91440000D03*
%TD*%
%TO.C,*%
X93980000Y-114300000D03*
%TD*%
%TO.C,*%
X93980000Y-91440000D03*
%TD*%
%TO.C,*%
X93980000Y-93980000D03*
%TD*%
%TO.C,*%
X91440000Y-104140000D03*
%TD*%
%TO.C,*%
X93980000Y-99060000D03*
%TD*%
%TO.C,*%
X93980000Y-109220000D03*
%TD*%
%TO.C,*%
X93980000Y-104140000D03*
%TD*%
%TO.C,*%
X91440000Y-106680000D03*
%TD*%
%TO.C,*%
X91440000Y-114300000D03*
%TD*%
%TO.C,*%
X93980000Y-111760000D03*
%TD*%
%TO.C,*%
X91440000Y-109220000D03*
%TD*%
%TO.C,*%
X91440000Y-111760000D03*
%TD*%
%TO.C,*%
X93980000Y-101600000D03*
%TD*%
%TO.C,*%
X91440000Y-88900000D03*
%TD*%
%TO.C,*%
X91440000Y-99060000D03*
%TD*%
%TO.C,*%
X93980000Y-88900000D03*
%TD*%
%TO.C,*%
X233680000Y-114300000D03*
%TD*%
%TO.C,*%
X226060000Y-114300000D03*
%TD*%
%TO.C,*%
X223520000Y-114300000D03*
%TD*%
%TO.C,*%
X231140000Y-114300000D03*
%TD*%
%TO.C,*%
X218440000Y-116840000D03*
%TD*%
%TO.C,*%
X220980000Y-114300000D03*
%TD*%
%TO.C,*%
X220980000Y-116840000D03*
%TD*%
%TO.C,*%
X228600000Y-116840000D03*
%TD*%
%TO.C,*%
X223520000Y-116840000D03*
%TD*%
%TO.C,*%
X218440000Y-114300000D03*
%TD*%
%TO.C,*%
X226060000Y-116840000D03*
%TD*%
%TO.C,*%
X236220000Y-114300000D03*
%TD*%
%TO.C,*%
X231140000Y-116840000D03*
%TD*%
%TO.C,*%
X228600000Y-114300000D03*
%TD*%
%TO.C,*%
X193040000Y-114300000D03*
%TD*%
%TO.C,*%
X185420000Y-114300000D03*
%TD*%
%TO.C,*%
X213360000Y-114300000D03*
%TD*%
%TO.C,*%
X182880000Y-114300000D03*
%TD*%
%TO.C,*%
X203200000Y-114300000D03*
%TD*%
%TO.C,*%
X190500000Y-114300000D03*
%TD*%
%TO.C,*%
X177800000Y-116840000D03*
%TD*%
%TO.C,*%
X213360000Y-116840000D03*
%TD*%
%TO.C,*%
X210820000Y-116840000D03*
%TD*%
%TO.C,*%
X205740000Y-114300000D03*
%TD*%
%TO.C,*%
X208280000Y-114300000D03*
%TD*%
%TO.C,*%
X200660000Y-114300000D03*
%TD*%
%TO.C,*%
X180340000Y-114300000D03*
%TD*%
%TO.C,*%
X180340000Y-116840000D03*
%TD*%
%TO.C,*%
X187960000Y-116840000D03*
%TD*%
%TO.C,*%
X198120000Y-114300000D03*
%TD*%
%TO.C,*%
X198120000Y-116840000D03*
%TD*%
%TO.C,*%
X195580000Y-116840000D03*
%TD*%
%TO.C,*%
X182880000Y-116840000D03*
%TD*%
%TO.C,*%
X177800000Y-114300000D03*
%TD*%
%TO.C,*%
X215900000Y-114300000D03*
%TD*%
%TO.C,*%
X185420000Y-116840000D03*
%TD*%
%TO.C,*%
X210820000Y-114300000D03*
%TD*%
%TO.C,*%
X195580000Y-114300000D03*
%TD*%
%TO.C,*%
X205740000Y-116840000D03*
%TD*%
%TO.C,*%
X208280000Y-116840000D03*
%TD*%
%TO.C,*%
X200660000Y-116840000D03*
%TD*%
%TO.C,*%
X190500000Y-116840000D03*
%TD*%
%TO.C,*%
X215900000Y-116840000D03*
%TD*%
%TO.C,*%
X203200000Y-116840000D03*
%TD*%
%TO.C,*%
X193040000Y-116840000D03*
%TD*%
%TO.C,*%
X187960000Y-114300000D03*
%TD*%
%TO.C,*%
X152400000Y-114300000D03*
%TD*%
%TO.C,*%
X144780000Y-114300000D03*
%TD*%
%TO.C,*%
X172720000Y-114300000D03*
%TD*%
%TO.C,*%
X142240000Y-114300000D03*
%TD*%
%TO.C,*%
X162560000Y-114300000D03*
%TD*%
%TO.C,*%
X149860000Y-114300000D03*
%TD*%
%TO.C,*%
X137160000Y-116840000D03*
%TD*%
%TO.C,*%
X172720000Y-116840000D03*
%TD*%
%TO.C,*%
X170180000Y-116840000D03*
%TD*%
%TO.C,*%
X165100000Y-114300000D03*
%TD*%
%TO.C,*%
X167640000Y-114300000D03*
%TD*%
%TO.C,*%
X160020000Y-114300000D03*
%TD*%
%TO.C,*%
X139700000Y-114300000D03*
%TD*%
%TO.C,*%
X139700000Y-116840000D03*
%TD*%
%TO.C,*%
X147320000Y-116840000D03*
%TD*%
%TO.C,*%
X157480000Y-114300000D03*
%TD*%
%TO.C,*%
X157480000Y-116840000D03*
%TD*%
%TO.C,*%
X154940000Y-116840000D03*
%TD*%
%TO.C,*%
X142240000Y-116840000D03*
%TD*%
%TO.C,*%
X137160000Y-114300000D03*
%TD*%
%TO.C,*%
X175260000Y-114300000D03*
%TD*%
%TO.C,*%
X144780000Y-116840000D03*
%TD*%
%TO.C,*%
X170180000Y-114300000D03*
%TD*%
%TO.C,*%
X154940000Y-114300000D03*
%TD*%
%TO.C,*%
X165100000Y-116840000D03*
%TD*%
%TO.C,*%
X167640000Y-116840000D03*
%TD*%
%TO.C,*%
X160020000Y-116840000D03*
%TD*%
%TO.C,*%
X149860000Y-116840000D03*
%TD*%
%TO.C,*%
X175260000Y-116840000D03*
%TD*%
%TO.C,*%
X162560000Y-116840000D03*
%TD*%
%TO.C,*%
X152400000Y-116840000D03*
%TD*%
%TO.C,*%
X147320000Y-114300000D03*
%TD*%
%TO.C,*%
X231140000Y-119380000D03*
%TD*%
%TO.C,*%
X208280000Y-119380000D03*
%TD*%
%TO.C,*%
X137160000Y-119380000D03*
%TD*%
%TO.C,*%
X116840000Y-119380000D03*
%TD*%
%TO.C,*%
X154940000Y-119380000D03*
%TD*%
%TO.C,*%
X210820000Y-119380000D03*
%TD*%
%TO.C,*%
X220980000Y-119380000D03*
%TD*%
%TO.C,*%
X144780000Y-119380000D03*
%TD*%
%TO.C,*%
X170180000Y-119380000D03*
%TD*%
%TO.C,*%
X185420000Y-119380000D03*
%TD*%
%TO.C,*%
X182880000Y-119380000D03*
%TD*%
%TO.C,*%
X195580000Y-119380000D03*
%TD*%
%TO.C,*%
X223520000Y-119380000D03*
%TD*%
%TO.C,*%
X127000000Y-119380000D03*
%TD*%
%TO.C,*%
X119380000Y-119380000D03*
%TD*%
%TO.C,*%
X190500000Y-119380000D03*
%TD*%
%TO.C,*%
X109220000Y-119380000D03*
%TD*%
%TO.C,*%
X99060000Y-119380000D03*
%TD*%
%TO.C,*%
X106680000Y-119380000D03*
%TD*%
%TO.C,*%
X205740000Y-119380000D03*
%TD*%
%TO.C,*%
X203200000Y-119380000D03*
%TD*%
%TO.C,*%
X124460000Y-119380000D03*
%TD*%
%TO.C,*%
X198120000Y-119380000D03*
%TD*%
%TO.C,*%
X121920000Y-119380000D03*
%TD*%
%TO.C,*%
X165100000Y-119380000D03*
%TD*%
%TO.C,*%
X111760000Y-119380000D03*
%TD*%
%TO.C,*%
X175260000Y-119380000D03*
%TD*%
%TO.C,*%
X215900000Y-119380000D03*
%TD*%
%TO.C,*%
X187960000Y-119380000D03*
%TD*%
%TO.C,*%
X104140000Y-119380000D03*
%TD*%
%TO.C,*%
X213360000Y-119380000D03*
%TD*%
%TO.C,*%
X96520000Y-119380000D03*
%TD*%
%TO.C,*%
X226060000Y-119380000D03*
%TD*%
%TO.C,*%
X177800000Y-119380000D03*
%TD*%
%TO.C,*%
X134620000Y-119380000D03*
%TD*%
%TO.C,*%
X152400000Y-119380000D03*
%TD*%
%TO.C,*%
X167640000Y-119380000D03*
%TD*%
%TO.C,*%
X147320000Y-119380000D03*
%TD*%
%TO.C,*%
X157480000Y-119380000D03*
%TD*%
%TO.C,*%
X172720000Y-119380000D03*
%TD*%
%TO.C,*%
X101600000Y-119380000D03*
%TD*%
%TO.C,*%
X142240000Y-119380000D03*
%TD*%
%TO.C,*%
X132080000Y-119380000D03*
%TD*%
%TO.C,*%
X149860000Y-119380000D03*
%TD*%
%TO.C,*%
X180340000Y-119380000D03*
%TD*%
%TO.C,*%
X129540000Y-119380000D03*
%TD*%
%TO.C,*%
X139700000Y-119380000D03*
%TD*%
%TO.C,*%
X228600000Y-119380000D03*
%TD*%
%TO.C,*%
X162560000Y-119380000D03*
%TD*%
%TO.C,*%
X200660000Y-119380000D03*
%TD*%
%TO.C,*%
X114300000Y-119380000D03*
%TD*%
%TO.C,*%
X160020000Y-119380000D03*
%TD*%
%TO.C,*%
X193040000Y-119380000D03*
%TD*%
%TO.C,*%
X218440000Y-119380000D03*
%TD*%
%TO.C,*%
X127000000Y-116840000D03*
%TD*%
%TO.C,*%
X119380000Y-116840000D03*
%TD*%
%TO.C,*%
X109220000Y-116840000D03*
%TD*%
%TO.C,*%
X99060000Y-116840000D03*
%TD*%
%TO.C,*%
X106680000Y-116840000D03*
%TD*%
%TO.C,*%
X116840000Y-114300000D03*
%TD*%
%TO.C,*%
X116840000Y-116840000D03*
%TD*%
%TO.C,*%
X114300000Y-116840000D03*
%TD*%
%TO.C,*%
X101600000Y-116840000D03*
%TD*%
%TO.C,*%
X132080000Y-116840000D03*
%TD*%
%TO.C,*%
X129540000Y-116840000D03*
%TD*%
%TO.C,*%
X127000000Y-114300000D03*
%TD*%
%TO.C,*%
X119380000Y-114300000D03*
%TD*%
%TO.C,*%
X109220000Y-114300000D03*
%TD*%
%TO.C,*%
X99060000Y-114300000D03*
%TD*%
%TO.C,*%
X106680000Y-114300000D03*
%TD*%
%TO.C,*%
X124460000Y-114300000D03*
%TD*%
%TO.C,*%
X124460000Y-116840000D03*
%TD*%
%TO.C,*%
X121920000Y-116840000D03*
%TD*%
%TO.C,*%
X111760000Y-116840000D03*
%TD*%
%TO.C,*%
X121920000Y-114300000D03*
%TD*%
%TO.C,*%
X111760000Y-114300000D03*
%TD*%
%TO.C,*%
X104140000Y-116840000D03*
%TD*%
%TO.C,*%
X96520000Y-116840000D03*
%TD*%
%TO.C,*%
X134620000Y-116840000D03*
%TD*%
%TO.C,*%
X104140000Y-114300000D03*
%TD*%
%TO.C,*%
X96520000Y-114300000D03*
%TD*%
%TO.C,*%
X134620000Y-114300000D03*
%TD*%
%TO.C,*%
X101600000Y-114300000D03*
%TD*%
%TO.C,*%
X132080000Y-114300000D03*
%TD*%
%TO.C,*%
X129540000Y-114300000D03*
%TD*%
%TO.C,*%
X114300000Y-114300000D03*
%TD*%
%TO.C,*%
X127000000Y-111760000D03*
%TD*%
%TO.C,*%
X119380000Y-111760000D03*
%TD*%
%TO.C,*%
X109220000Y-111760000D03*
%TD*%
%TO.C,*%
X99060000Y-111760000D03*
%TD*%
%TO.C,*%
X106680000Y-111760000D03*
%TD*%
%TO.C,*%
X116840000Y-109220000D03*
%TD*%
%TO.C,*%
X116840000Y-111760000D03*
%TD*%
%TO.C,*%
X114300000Y-111760000D03*
%TD*%
%TO.C,*%
X101600000Y-111760000D03*
%TD*%
%TO.C,*%
X132080000Y-111760000D03*
%TD*%
%TO.C,*%
X129540000Y-111760000D03*
%TD*%
%TO.C,*%
X127000000Y-109220000D03*
%TD*%
%TO.C,*%
X119380000Y-109220000D03*
%TD*%
%TO.C,*%
X109220000Y-109220000D03*
%TD*%
%TO.C,*%
X99060000Y-109220000D03*
%TD*%
%TO.C,*%
X106680000Y-109220000D03*
%TD*%
%TO.C,*%
X124460000Y-109220000D03*
%TD*%
%TO.C,*%
X124460000Y-111760000D03*
%TD*%
%TO.C,*%
X121920000Y-111760000D03*
%TD*%
%TO.C,*%
X111760000Y-111760000D03*
%TD*%
%TO.C,*%
X121920000Y-109220000D03*
%TD*%
%TO.C,*%
X111760000Y-109220000D03*
%TD*%
%TO.C,*%
X104140000Y-111760000D03*
%TD*%
%TO.C,*%
X96520000Y-111760000D03*
%TD*%
%TO.C,*%
X134620000Y-111760000D03*
%TD*%
%TO.C,*%
X104140000Y-109220000D03*
%TD*%
%TO.C,*%
X96520000Y-109220000D03*
%TD*%
%TO.C,*%
X134620000Y-109220000D03*
%TD*%
%TO.C,*%
X101600000Y-109220000D03*
%TD*%
%TO.C,*%
X132080000Y-109220000D03*
%TD*%
%TO.C,*%
X129540000Y-109220000D03*
%TD*%
%TO.C,*%
X114300000Y-109220000D03*
%TD*%
%TO.C,*%
X127000000Y-106680000D03*
%TD*%
%TO.C,*%
X119380000Y-106680000D03*
%TD*%
%TO.C,*%
X109220000Y-106680000D03*
%TD*%
%TO.C,*%
X99060000Y-106680000D03*
%TD*%
%TO.C,*%
X106680000Y-106680000D03*
%TD*%
%TO.C,*%
X116840000Y-104140000D03*
%TD*%
%TO.C,*%
X116840000Y-106680000D03*
%TD*%
%TO.C,*%
X114300000Y-106680000D03*
%TD*%
%TO.C,*%
X101600000Y-106680000D03*
%TD*%
%TO.C,*%
X132080000Y-106680000D03*
%TD*%
%TO.C,*%
X129540000Y-106680000D03*
%TD*%
%TO.C,*%
X127000000Y-104140000D03*
%TD*%
%TO.C,*%
X119380000Y-104140000D03*
%TD*%
%TO.C,*%
X109220000Y-104140000D03*
%TD*%
%TO.C,*%
X99060000Y-104140000D03*
%TD*%
%TO.C,*%
X106680000Y-104140000D03*
%TD*%
%TO.C,*%
X124460000Y-104140000D03*
%TD*%
%TO.C,*%
X124460000Y-106680000D03*
%TD*%
%TO.C,*%
X121920000Y-106680000D03*
%TD*%
%TO.C,*%
X111760000Y-106680000D03*
%TD*%
%TO.C,*%
X121920000Y-104140000D03*
%TD*%
%TO.C,*%
X111760000Y-104140000D03*
%TD*%
%TO.C,*%
X104140000Y-106680000D03*
%TD*%
%TO.C,*%
X96520000Y-106680000D03*
%TD*%
%TO.C,*%
X134620000Y-106680000D03*
%TD*%
%TO.C,*%
X104140000Y-104140000D03*
%TD*%
%TO.C,*%
X96520000Y-104140000D03*
%TD*%
%TO.C,*%
X134620000Y-104140000D03*
%TD*%
%TO.C,*%
X101600000Y-104140000D03*
%TD*%
%TO.C,*%
X132080000Y-104140000D03*
%TD*%
%TO.C,*%
X129540000Y-104140000D03*
%TD*%
%TO.C,*%
X114300000Y-104140000D03*
%TD*%
%TO.C,*%
X127000000Y-101600000D03*
%TD*%
%TO.C,*%
X119380000Y-101600000D03*
%TD*%
%TO.C,*%
X109220000Y-101600000D03*
%TD*%
%TO.C,*%
X99060000Y-101600000D03*
%TD*%
%TO.C,*%
X106680000Y-101600000D03*
%TD*%
%TO.C,*%
X116840000Y-99060000D03*
%TD*%
%TO.C,*%
X116840000Y-101600000D03*
%TD*%
%TO.C,*%
X114300000Y-101600000D03*
%TD*%
%TO.C,*%
X101600000Y-101600000D03*
%TD*%
%TO.C,*%
X132080000Y-101600000D03*
%TD*%
%TO.C,*%
X129540000Y-101600000D03*
%TD*%
%TO.C,*%
X127000000Y-99060000D03*
%TD*%
%TO.C,*%
X119380000Y-99060000D03*
%TD*%
%TO.C,*%
X109220000Y-99060000D03*
%TD*%
%TO.C,*%
X99060000Y-99060000D03*
%TD*%
%TO.C,*%
X106680000Y-99060000D03*
%TD*%
%TO.C,*%
X124460000Y-99060000D03*
%TD*%
%TO.C,*%
X124460000Y-101600000D03*
%TD*%
%TO.C,*%
X121920000Y-101600000D03*
%TD*%
%TO.C,*%
X111760000Y-101600000D03*
%TD*%
%TO.C,*%
X121920000Y-99060000D03*
%TD*%
%TO.C,*%
X111760000Y-99060000D03*
%TD*%
%TO.C,*%
X104140000Y-101600000D03*
%TD*%
%TO.C,*%
X96520000Y-101600000D03*
%TD*%
%TO.C,*%
X134620000Y-101600000D03*
%TD*%
%TO.C,*%
X104140000Y-99060000D03*
%TD*%
%TO.C,*%
X96520000Y-99060000D03*
%TD*%
%TO.C,*%
X134620000Y-99060000D03*
%TD*%
%TO.C,*%
X101600000Y-99060000D03*
%TD*%
%TO.C,*%
X132080000Y-99060000D03*
%TD*%
%TO.C,*%
X129540000Y-99060000D03*
%TD*%
%TO.C,*%
X114300000Y-99060000D03*
%TD*%
%TO.C,*%
X127000000Y-96520000D03*
%TD*%
%TO.C,*%
X119380000Y-96520000D03*
%TD*%
%TO.C,*%
X109220000Y-96520000D03*
%TD*%
%TO.C,*%
X99060000Y-96520000D03*
%TD*%
%TO.C,*%
X106680000Y-96520000D03*
%TD*%
%TO.C,*%
X116840000Y-93980000D03*
%TD*%
%TO.C,*%
X116840000Y-96520000D03*
%TD*%
%TO.C,*%
X114300000Y-96520000D03*
%TD*%
%TO.C,*%
X101600000Y-96520000D03*
%TD*%
%TO.C,*%
X132080000Y-96520000D03*
%TD*%
%TO.C,*%
X129540000Y-96520000D03*
%TD*%
%TO.C,*%
X127000000Y-93980000D03*
%TD*%
%TO.C,*%
X119380000Y-93980000D03*
%TD*%
%TO.C,*%
X109220000Y-93980000D03*
%TD*%
%TO.C,*%
X99060000Y-93980000D03*
%TD*%
%TO.C,*%
X106680000Y-93980000D03*
%TD*%
%TO.C,*%
X124460000Y-93980000D03*
%TD*%
%TO.C,*%
X124460000Y-96520000D03*
%TD*%
%TO.C,*%
X121920000Y-96520000D03*
%TD*%
%TO.C,*%
X111760000Y-96520000D03*
%TD*%
%TO.C,*%
X121920000Y-93980000D03*
%TD*%
%TO.C,*%
X111760000Y-93980000D03*
%TD*%
%TO.C,*%
X104140000Y-96520000D03*
%TD*%
%TO.C,*%
X96520000Y-96520000D03*
%TD*%
%TO.C,*%
X134620000Y-96520000D03*
%TD*%
%TO.C,*%
X104140000Y-93980000D03*
%TD*%
%TO.C,*%
X96520000Y-93980000D03*
%TD*%
%TO.C,*%
X134620000Y-93980000D03*
%TD*%
%TO.C,*%
X101600000Y-93980000D03*
%TD*%
%TO.C,*%
X132080000Y-93980000D03*
%TD*%
%TO.C,*%
X129540000Y-93980000D03*
%TD*%
%TO.C,*%
X114300000Y-93980000D03*
%TD*%
%TO.C,*%
X127000000Y-91440000D03*
%TD*%
%TO.C,*%
X119380000Y-91440000D03*
%TD*%
%TO.C,*%
X109220000Y-91440000D03*
%TD*%
%TO.C,*%
X99060000Y-91440000D03*
%TD*%
%TO.C,*%
X106680000Y-91440000D03*
%TD*%
%TO.C,*%
X116840000Y-88900000D03*
%TD*%
%TO.C,*%
X116840000Y-91440000D03*
%TD*%
%TO.C,*%
X114300000Y-91440000D03*
%TD*%
%TO.C,*%
X101600000Y-91440000D03*
%TD*%
%TO.C,*%
X132080000Y-91440000D03*
%TD*%
%TO.C,*%
X129540000Y-91440000D03*
%TD*%
%TO.C,*%
X127000000Y-88900000D03*
%TD*%
%TO.C,*%
X119380000Y-88900000D03*
%TD*%
%TO.C,*%
X109220000Y-88900000D03*
%TD*%
%TO.C,*%
X99060000Y-88900000D03*
%TD*%
%TO.C,*%
X106680000Y-88900000D03*
%TD*%
%TO.C,*%
X124460000Y-88900000D03*
%TD*%
%TO.C,*%
X124460000Y-91440000D03*
%TD*%
%TO.C,*%
X121920000Y-91440000D03*
%TD*%
%TO.C,*%
X111760000Y-91440000D03*
%TD*%
%TO.C,*%
X121920000Y-88900000D03*
%TD*%
%TO.C,*%
X111760000Y-88900000D03*
%TD*%
%TO.C,*%
X104140000Y-91440000D03*
%TD*%
%TO.C,*%
X96520000Y-91440000D03*
%TD*%
%TO.C,*%
X134620000Y-91440000D03*
%TD*%
%TO.C,*%
X104140000Y-88900000D03*
%TD*%
%TO.C,*%
X96520000Y-88900000D03*
%TD*%
%TO.C,*%
X134620000Y-88900000D03*
%TD*%
%TO.C,*%
X101600000Y-88900000D03*
%TD*%
%TO.C,*%
X132080000Y-88900000D03*
%TD*%
%TO.C,*%
X129540000Y-88900000D03*
%TD*%
%TO.C,*%
X114300000Y-88900000D03*
%TD*%
%TO.C,*%
X231140000Y-86360000D03*
%TD*%
%TO.C,*%
X208280000Y-86360000D03*
%TD*%
%TO.C,*%
X137160000Y-86360000D03*
%TD*%
%TO.C,*%
X116840000Y-86360000D03*
%TD*%
%TO.C,*%
X154940000Y-86360000D03*
%TD*%
%TO.C,*%
X210820000Y-86360000D03*
%TD*%
%TO.C,*%
X220980000Y-86360000D03*
%TD*%
%TO.C,*%
X144780000Y-86360000D03*
%TD*%
%TO.C,*%
X170180000Y-86360000D03*
%TD*%
%TO.C,*%
X185420000Y-86360000D03*
%TD*%
%TO.C,*%
X182880000Y-86360000D03*
%TD*%
%TO.C,*%
X195580000Y-86360000D03*
%TD*%
%TO.C,*%
X223520000Y-86360000D03*
%TD*%
%TO.C,*%
X127000000Y-86360000D03*
%TD*%
%TO.C,*%
X119380000Y-86360000D03*
%TD*%
%TO.C,*%
X190500000Y-86360000D03*
%TD*%
%TO.C,*%
X109220000Y-86360000D03*
%TD*%
%TO.C,*%
X99060000Y-86360000D03*
%TD*%
%TO.C,*%
X106680000Y-86360000D03*
%TD*%
%TO.C,*%
X205740000Y-86360000D03*
%TD*%
%TO.C,*%
X203200000Y-86360000D03*
%TD*%
%TO.C,*%
X124460000Y-86360000D03*
%TD*%
%TO.C,*%
X198120000Y-86360000D03*
%TD*%
%TO.C,*%
X121920000Y-86360000D03*
%TD*%
%TO.C,*%
X165100000Y-86360000D03*
%TD*%
%TO.C,*%
X111760000Y-86360000D03*
%TD*%
%TO.C,*%
X175260000Y-86360000D03*
%TD*%
%TO.C,*%
X215900000Y-86360000D03*
%TD*%
%TO.C,*%
X187960000Y-86360000D03*
%TD*%
%TO.C,*%
X104140000Y-86360000D03*
%TD*%
%TO.C,*%
X213360000Y-86360000D03*
%TD*%
%TO.C,*%
X96520000Y-86360000D03*
%TD*%
%TO.C,*%
X226060000Y-86360000D03*
%TD*%
%TO.C,*%
X177800000Y-86360000D03*
%TD*%
%TO.C,*%
X134620000Y-86360000D03*
%TD*%
%TO.C,*%
X152400000Y-86360000D03*
%TD*%
%TO.C,*%
X167640000Y-86360000D03*
%TD*%
%TO.C,*%
X147320000Y-86360000D03*
%TD*%
%TO.C,*%
X157480000Y-86360000D03*
%TD*%
%TO.C,*%
X172720000Y-86360000D03*
%TD*%
%TO.C,*%
X101600000Y-86360000D03*
%TD*%
%TO.C,*%
X142240000Y-86360000D03*
%TD*%
%TO.C,*%
X132080000Y-86360000D03*
%TD*%
%TO.C,*%
X149860000Y-86360000D03*
%TD*%
%TO.C,*%
X180340000Y-86360000D03*
%TD*%
%TO.C,*%
X129540000Y-86360000D03*
%TD*%
%TO.C,*%
X139700000Y-86360000D03*
%TD*%
%TO.C,*%
X228600000Y-86360000D03*
%TD*%
%TO.C,*%
X162560000Y-86360000D03*
%TD*%
%TO.C,*%
X200660000Y-86360000D03*
%TD*%
%TO.C,*%
X114300000Y-86360000D03*
%TD*%
%TO.C,*%
X160020000Y-86360000D03*
%TD*%
%TO.C,*%
X193040000Y-86360000D03*
%TD*%
%TO.C,*%
X218440000Y-86360000D03*
%TD*%
%TO.C,*%
X228600000Y-83820000D03*
%TD*%
%TO.C,*%
X231140000Y-83820000D03*
%TD*%
%TO.C,*%
X220980000Y-83820000D03*
%TD*%
%TO.C,*%
X223520000Y-83820000D03*
%TD*%
%TO.C,*%
X218440000Y-83820000D03*
%TD*%
%TO.C,*%
X226060000Y-83820000D03*
%TD*%
%TO.C,*%
X101600000Y-83820000D03*
%TD*%
%TO.C,*%
X142240000Y-83820000D03*
%TD*%
%TO.C,*%
X132080000Y-83820000D03*
%TD*%
%TO.C,*%
X129540000Y-83820000D03*
%TD*%
%TO.C,*%
X139700000Y-83820000D03*
%TD*%
%TO.C,*%
X99060000Y-83820000D03*
%TD*%
%TO.C,*%
X106680000Y-83820000D03*
%TD*%
%TO.C,*%
X205740000Y-83820000D03*
%TD*%
%TO.C,*%
X154940000Y-83820000D03*
%TD*%
%TO.C,*%
X210820000Y-83820000D03*
%TD*%
%TO.C,*%
X208280000Y-83820000D03*
%TD*%
%TO.C,*%
X137160000Y-83820000D03*
%TD*%
%TO.C,*%
X116840000Y-83820000D03*
%TD*%
%TO.C,*%
X127000000Y-83820000D03*
%TD*%
%TO.C,*%
X119380000Y-83820000D03*
%TD*%
%TO.C,*%
X170180000Y-83820000D03*
%TD*%
%TO.C,*%
X185420000Y-83820000D03*
%TD*%
%TO.C,*%
X198120000Y-83820000D03*
%TD*%
%TO.C,*%
X121920000Y-83820000D03*
%TD*%
%TO.C,*%
X165100000Y-83820000D03*
%TD*%
%TO.C,*%
X162560000Y-83820000D03*
%TD*%
%TO.C,*%
X200660000Y-83820000D03*
%TD*%
%TO.C,*%
X149860000Y-83820000D03*
%TD*%
%TO.C,*%
X180340000Y-83820000D03*
%TD*%
%TO.C,*%
X152400000Y-83820000D03*
%TD*%
%TO.C,*%
X167640000Y-83820000D03*
%TD*%
%TO.C,*%
X213360000Y-83820000D03*
%TD*%
%TO.C,*%
X96520000Y-83820000D03*
%TD*%
%TO.C,*%
X160020000Y-83820000D03*
%TD*%
%TO.C,*%
X193040000Y-83820000D03*
%TD*%
%TO.C,*%
X147320000Y-83820000D03*
%TD*%
%TO.C,*%
X157480000Y-83820000D03*
%TD*%
%TO.C,*%
X175260000Y-83820000D03*
%TD*%
%TO.C,*%
X215900000Y-83820000D03*
%TD*%
%TO.C,*%
X187960000Y-83820000D03*
%TD*%
%TO.C,*%
X104140000Y-83820000D03*
%TD*%
%TO.C,*%
X203200000Y-83820000D03*
%TD*%
%TO.C,*%
X190500000Y-83820000D03*
%TD*%
%TO.C,*%
X109220000Y-83820000D03*
%TD*%
%TO.C,*%
X182880000Y-83820000D03*
%TD*%
%TO.C,*%
X195580000Y-83820000D03*
%TD*%
%TO.C,*%
X172720000Y-83820000D03*
%TD*%
%TO.C,*%
X177800000Y-83820000D03*
%TD*%
%TO.C,*%
X134620000Y-83820000D03*
%TD*%
%TO.C,*%
X111760000Y-83820000D03*
%TD*%
%TO.C,*%
X114300000Y-83820000D03*
%TD*%
%TO.C,*%
X144780000Y-83820000D03*
%TD*%
%TO.C,*%
X124460000Y-83820000D03*
%TD*%
D11*
%TO.C,H4*%
X236220000Y-119380000D03*
%TD*%
%TO.C,H3*%
X236220000Y-83820000D03*
%TD*%
%TO.C,H2*%
X91440000Y-119380000D03*
%TD*%
%TO.C,H1*%
X91440000Y-83820000D03*
%TD*%
D12*
%TO.C,J4*%
X142240000Y-91440000D03*
D13*
X142240000Y-93980000D03*
X142240000Y-96520000D03*
X142240000Y-99060000D03*
X142240000Y-101600000D03*
X142240000Y-104140000D03*
X142240000Y-106680000D03*
X142240000Y-109220000D03*
%TD*%
D14*
%TO.C,C1*%
X172900000Y-104140000D03*
X172900000Y-105690000D03*
%TD*%
D15*
%TO.C,R3*%
X194175000Y-102000000D03*
X195825000Y-102000000D03*
%TD*%
D14*
%TO.C,C5*%
X154534000Y-97282000D03*
X154534000Y-98832000D03*
%TD*%
D12*
%TO.C,J1*%
X200660000Y-91440000D03*
D13*
X200660000Y-93980000D03*
X200660000Y-96520000D03*
X200660000Y-99060000D03*
X200660000Y-101600000D03*
%TD*%
D14*
%TO.C,C6*%
X154699000Y-102476000D03*
X154699000Y-104026000D03*
%TD*%
D16*
%TO.C,U1*%
X173067930Y-100272272D03*
X173633616Y-100837957D03*
X174199301Y-101403643D03*
X174764986Y-101969328D03*
X175330672Y-102535014D03*
X175896357Y-103100699D03*
X176462043Y-103666384D03*
X177027728Y-104232070D03*
D17*
X178972272Y-104232070D03*
X179537957Y-103666384D03*
X180103643Y-103100699D03*
X180669328Y-102535014D03*
X181235014Y-101969328D03*
X181800699Y-101403643D03*
X182366384Y-100837957D03*
X182932070Y-100272272D03*
D16*
X182932070Y-98327728D03*
X182366384Y-97762043D03*
X181800699Y-97196357D03*
X181235014Y-96630672D03*
X180669328Y-96064986D03*
X180103643Y-95499301D03*
X179537957Y-94933616D03*
X178972272Y-94367930D03*
D17*
X177027728Y-94367930D03*
X176462043Y-94933616D03*
X175896357Y-95499301D03*
X175330672Y-96064986D03*
X174764986Y-96630672D03*
X174199301Y-97196357D03*
X173633616Y-97762043D03*
X173067930Y-98327728D03*
%TD*%
D18*
%TO.C,C4*%
X152641000Y-91440000D03*
X154191000Y-91440000D03*
%TD*%
%TO.C,C9*%
X166325000Y-96500000D03*
X167875000Y-96500000D03*
%TD*%
D15*
%TO.C,R1*%
X164350000Y-105500000D03*
X166000000Y-105500000D03*
%TD*%
D14*
%TO.C,C3*%
X169700000Y-104140000D03*
X169700000Y-105690000D03*
%TD*%
D18*
%TO.C,C8*%
X166325000Y-103100000D03*
X167875000Y-103100000D03*
%TD*%
D19*
%TO.C,U3*%
X151994000Y-107456000D03*
X151994000Y-105156000D03*
D20*
X145694000Y-105156000D03*
D19*
X151994000Y-102856000D03*
%TD*%
D14*
%TO.C,C2*%
X171300000Y-104140000D03*
X171300000Y-105690000D03*
%TD*%
D12*
%TO.C,J2*%
X157480000Y-109220000D03*
D13*
X160020000Y-109220000D03*
X162560000Y-109220000D03*
X165100000Y-109220000D03*
X167640000Y-109220000D03*
X170180000Y-109220000D03*
X172720000Y-109220000D03*
X175260000Y-109220000D03*
X177800000Y-109220000D03*
X180340000Y-109220000D03*
X182880000Y-109220000D03*
X185420000Y-109220000D03*
X187960000Y-109220000D03*
X190500000Y-109220000D03*
X193040000Y-109220000D03*
X195580000Y-109220000D03*
%TD*%
D14*
%TO.C,C7*%
X154686000Y-105651000D03*
X154686000Y-107201000D03*
%TD*%
D19*
%TO.C,U2*%
X151994000Y-98312000D03*
X151994000Y-96012000D03*
D20*
X145694000Y-96012000D03*
D19*
X151994000Y-93712000D03*
%TD*%
D15*
%TO.C,R2*%
X194175000Y-98500000D03*
X195825000Y-98500000D03*
%TD*%
D12*
%TO.C,J3*%
X195580000Y-91255000D03*
D13*
X193040000Y-91255000D03*
X190500000Y-91255000D03*
X187960000Y-91255000D03*
X185420000Y-91255000D03*
X182880000Y-91255000D03*
X180340000Y-91255000D03*
X177800000Y-91255000D03*
X175260000Y-91255000D03*
X172720000Y-91255000D03*
X170180000Y-91255000D03*
X167640000Y-91255000D03*
X165100000Y-91255000D03*
X162560000Y-91255000D03*
X160020000Y-91255000D03*
X157480000Y-91255000D03*
%TD*%
D21*
%TO.C,D1*%
X190287500Y-98500000D03*
X188712500Y-98500000D03*
%TD*%
%TO.C,D2*%
X190247500Y-102000000D03*
X188672500Y-102000000D03*
%TD*%
D22*
%TO.C,Y1*%
X170150000Y-98500000D03*
X170150000Y-101040000D03*
%TD*%
M02*
