%TF.GenerationSoftware,KiCad,Pcbnew,8.0.0-1.fc39*%
%TF.CreationDate,2024-05-13T23:19:06+02:00*%
%TF.ProjectId,mcu_dev,6d63755f-6465-4762-9e6b-696361645f70,rev?*%
%TF.SameCoordinates,Original*%
%TF.FileFunction,Copper,L1,Top*%
%TF.FilePolarity,Positive*%
%FSLAX46Y46*%
G04 Gerber Fmt 4.6, Leading zero omitted, Abs format (unit mm)*
G04 Created by KiCad (PCBNEW 8.0.0-1.fc39) date 2024-05-13 23:19:06*
%MOMM*%
%LPD*%
G01*
G04 APERTURE LIST*
G04 Aperture macros list*
%AMRoundRect*
0 Rectangle with rounded corners*
0 $1 Rounding radius*
0 $2 $3 $4 $5 $6 $7 $8 $9 X,Y pos of 4 corners*
0 Add a 4 corners polygon primitive as box body*
4,1,4,$2,$3,$4,$5,$6,$7,$8,$9,$2,$3,0*
0 Add four circle primitives for the rounded corners*
1,1,$1+$1,$2,$3*
1,1,$1+$1,$4,$5*
1,1,$1+$1,$6,$7*
1,1,$1+$1,$8,$9*
0 Add four rect primitives between the rounded corners*
20,1,$1+$1,$2,$3,$4,$5,0*
20,1,$1+$1,$4,$5,$6,$7,0*
20,1,$1+$1,$6,$7,$8,$9,0*
20,1,$1+$1,$8,$9,$2,$3,0*%
G04 Aperture macros list end*
%TA.AperFunction,ComponentPad*%
%ADD10C,1.700000*%
%TD*%
%TA.AperFunction,ComponentPad*%
%ADD11R,1.700000X1.700000*%
%TD*%
%TA.AperFunction,ComponentPad*%
%ADD12O,1.700000X1.700000*%
%TD*%
%TA.AperFunction,SMDPad,CuDef*%
%ADD13RoundRect,0.225000X-0.250000X0.225000X-0.250000X-0.225000X0.250000X-0.225000X0.250000X0.225000X0*%
%TD*%
%TA.AperFunction,SMDPad,CuDef*%
%ADD14RoundRect,0.200000X-0.200000X-0.275000X0.200000X-0.275000X0.200000X0.275000X-0.200000X0.275000X0*%
%TD*%
%TA.AperFunction,SMDPad,CuDef*%
%ADD15RoundRect,0.125000X-0.353553X-0.530330X0.530330X0.353553X0.353553X0.530330X-0.530330X-0.353553X0*%
%TD*%
%TA.AperFunction,SMDPad,CuDef*%
%ADD16RoundRect,0.125000X0.353553X-0.530330X0.530330X-0.353553X-0.353553X0.530330X-0.530330X0.353553X0*%
%TD*%
%TA.AperFunction,SMDPad,CuDef*%
%ADD17RoundRect,0.225000X-0.225000X-0.250000X0.225000X-0.250000X0.225000X0.250000X-0.225000X0.250000X0*%
%TD*%
%TA.AperFunction,SMDPad,CuDef*%
%ADD18RoundRect,0.375000X0.625000X0.375000X-0.625000X0.375000X-0.625000X-0.375000X0.625000X-0.375000X0*%
%TD*%
%TA.AperFunction,SMDPad,CuDef*%
%ADD19RoundRect,0.500000X0.500000X1.400000X-0.500000X1.400000X-0.500000X-1.400000X0.500000X-1.400000X0*%
%TD*%
%TA.AperFunction,SMDPad,CuDef*%
%ADD20RoundRect,0.218750X0.218750X0.256250X-0.218750X0.256250X-0.218750X-0.256250X0.218750X-0.256250X0*%
%TD*%
%TA.AperFunction,ComponentPad*%
%ADD21C,1.000000*%
%TD*%
%TA.AperFunction,ViaPad*%
%ADD22C,0.600000*%
%TD*%
%TA.AperFunction,ViaPad*%
%ADD23C,1.000000*%
%TD*%
%TA.AperFunction,Conductor*%
%ADD24C,1.000000*%
%TD*%
%TA.AperFunction,Conductor*%
%ADD25C,0.200000*%
%TD*%
G04 APERTURE END LIST*
D10*
%TO.P,,1*%
%TO.N,N/C*%
X203200000Y-88900000D03*
%TD*%
%TO.P,,1*%
%TO.N,N/C*%
X198120000Y-88900000D03*
%TD*%
%TO.P,,1*%
%TO.N,N/C*%
X200660000Y-88900000D03*
%TD*%
%TO.P,,1*%
%TO.N,N/C*%
X142240000Y-88900000D03*
%TD*%
%TO.P,,1*%
%TO.N,N/C*%
X149860000Y-88900000D03*
%TD*%
%TO.P,,1*%
%TO.N,N/C*%
X139700000Y-88900000D03*
%TD*%
%TO.P,,1*%
%TO.N,N/C*%
X147320000Y-88900000D03*
%TD*%
%TO.P,,1*%
%TO.N,N/C*%
X154940000Y-88900000D03*
%TD*%
%TO.P,,1*%
%TO.N,N/C*%
X144780000Y-88900000D03*
%TD*%
%TO.P,,1*%
%TO.N,N/C*%
X152400000Y-88900000D03*
%TD*%
%TO.P,,1*%
%TO.N,N/C*%
X147320000Y-111760000D03*
%TD*%
%TO.P,,1*%
%TO.N,N/C*%
X144780000Y-111760000D03*
%TD*%
%TO.P,,1*%
%TO.N,N/C*%
X149860000Y-111760000D03*
%TD*%
%TO.P,,1*%
%TO.N,N/C*%
X142240000Y-111760000D03*
%TD*%
%TO.P,,1*%
%TO.N,N/C*%
X139700000Y-111760000D03*
%TD*%
%TO.P,,1*%
%TO.N,N/C*%
X154940000Y-109220000D03*
%TD*%
%TO.P,,1*%
%TO.N,N/C*%
X154940000Y-111760000D03*
%TD*%
%TO.P,,1*%
%TO.N,N/C*%
X152400000Y-111760000D03*
%TD*%
%TO.P,,1*%
%TO.N,N/C*%
X203200000Y-106680000D03*
%TD*%
%TO.P,,1*%
%TO.N,N/C*%
X198120000Y-106680000D03*
%TD*%
%TO.P,,1*%
%TO.N,N/C*%
X200660000Y-104140000D03*
%TD*%
%TO.P,,1*%
%TO.N,N/C*%
X198120000Y-104140000D03*
%TD*%
%TO.P,,1*%
%TO.N,N/C*%
X203200000Y-104140000D03*
%TD*%
%TO.P,,1*%
%TO.N,N/C*%
X200660000Y-106680000D03*
%TD*%
%TO.P,,1*%
%TO.N,N/C*%
X203200000Y-111760000D03*
%TD*%
%TO.P,,1*%
%TO.N,N/C*%
X198120000Y-111760000D03*
%TD*%
%TO.P,,1*%
%TO.N,N/C*%
X200660000Y-109220000D03*
%TD*%
%TO.P,,1*%
%TO.N,N/C*%
X198120000Y-109220000D03*
%TD*%
%TO.P,,1*%
%TO.N,N/C*%
X203200000Y-109220000D03*
%TD*%
%TO.P,,1*%
%TO.N,N/C*%
X200660000Y-111760000D03*
%TD*%
%TO.P,,1*%
%TO.N,N/C*%
X139700000Y-109220000D03*
%TD*%
%TO.P,,1*%
%TO.N,N/C*%
X139700000Y-96520000D03*
%TD*%
%TO.P,,1*%
%TO.N,N/C*%
X139700000Y-101600000D03*
%TD*%
%TO.P,,1*%
%TO.N,N/C*%
X139700000Y-93980000D03*
%TD*%
%TO.P,,1*%
%TO.N,N/C*%
X139700000Y-91440000D03*
%TD*%
%TO.P,,1*%
%TO.N,N/C*%
X139700000Y-99060000D03*
%TD*%
%TO.P,,1*%
%TO.N,N/C*%
X139700000Y-104140000D03*
%TD*%
%TO.P,,1*%
%TO.N,N/C*%
X139700000Y-106680000D03*
%TD*%
%TO.P,,1*%
%TO.N,N/C*%
X180340000Y-111760000D03*
%TD*%
%TO.P,,1*%
%TO.N,N/C*%
X170180000Y-111760000D03*
%TD*%
%TO.P,,1*%
%TO.N,N/C*%
X193040000Y-111760000D03*
%TD*%
%TO.P,,1*%
%TO.N,N/C*%
X185420000Y-111760000D03*
%TD*%
%TO.P,,1*%
%TO.N,N/C*%
X195580000Y-111760000D03*
%TD*%
%TO.P,,1*%
%TO.N,N/C*%
X177800000Y-111760000D03*
%TD*%
%TO.P,,1*%
%TO.N,N/C*%
X187960000Y-111760000D03*
%TD*%
%TO.P,,1*%
%TO.N,N/C*%
X157480000Y-111760000D03*
%TD*%
%TO.P,,1*%
%TO.N,N/C*%
X175260000Y-111760000D03*
%TD*%
%TO.P,,1*%
%TO.N,N/C*%
X172720000Y-111760000D03*
%TD*%
%TO.P,,1*%
%TO.N,N/C*%
X162560000Y-111760000D03*
%TD*%
%TO.P,,1*%
%TO.N,N/C*%
X165100000Y-111760000D03*
%TD*%
%TO.P,,1*%
%TO.N,N/C*%
X167640000Y-111760000D03*
%TD*%
%TO.P,,1*%
%TO.N,N/C*%
X160020000Y-111760000D03*
%TD*%
%TO.P,,1*%
%TO.N,N/C*%
X182880000Y-111760000D03*
%TD*%
%TO.P,,1*%
%TO.N,N/C*%
X190500000Y-111760000D03*
%TD*%
%TO.P,,1*%
%TO.N,N/C*%
X190500000Y-88900000D03*
%TD*%
%TO.P,,1*%
%TO.N,N/C*%
X162560000Y-88900000D03*
%TD*%
%TO.P,,1*%
%TO.N,N/C*%
X180340000Y-88900000D03*
%TD*%
%TO.P,,1*%
%TO.N,N/C*%
X167640000Y-88900000D03*
%TD*%
%TO.P,,1*%
%TO.N,N/C*%
X157480000Y-88900000D03*
%TD*%
%TO.P,,1*%
%TO.N,N/C*%
X172720000Y-88900000D03*
%TD*%
%TO.P,,1*%
%TO.N,N/C*%
X170180000Y-88900000D03*
%TD*%
%TO.P,,1*%
%TO.N,N/C*%
X185420000Y-88900000D03*
%TD*%
%TO.P,,1*%
%TO.N,N/C*%
X182880000Y-88900000D03*
%TD*%
%TO.P,,1*%
%TO.N,N/C*%
X195580000Y-88900000D03*
%TD*%
%TO.P,,1*%
%TO.N,N/C*%
X165100000Y-88900000D03*
%TD*%
%TO.P,,1*%
%TO.N,N/C*%
X175260000Y-88900000D03*
%TD*%
%TO.P,,1*%
%TO.N,N/C*%
X187960000Y-88900000D03*
%TD*%
%TO.P,,1*%
%TO.N,N/C*%
X177800000Y-88900000D03*
%TD*%
%TO.P,,1*%
%TO.N,N/C*%
X193040000Y-88900000D03*
%TD*%
%TO.P,,1*%
%TO.N,N/C*%
X160020000Y-88900000D03*
%TD*%
%TO.P,,1*%
%TO.N,N/C*%
X137160000Y-111760000D03*
%TD*%
%TO.P,,1*%
%TO.N,N/C*%
X137160000Y-93980000D03*
%TD*%
%TO.P,,1*%
%TO.N,N/C*%
X137160000Y-96520000D03*
%TD*%
%TO.P,,1*%
%TO.N,N/C*%
X137160000Y-91440000D03*
%TD*%
%TO.P,,1*%
%TO.N,N/C*%
X137160000Y-104140000D03*
%TD*%
%TO.P,,1*%
%TO.N,N/C*%
X137160000Y-101600000D03*
%TD*%
%TO.P,,1*%
%TO.N,N/C*%
X137160000Y-106680000D03*
%TD*%
%TO.P,,1*%
%TO.N,N/C*%
X137160000Y-109220000D03*
%TD*%
%TO.P,,1*%
%TO.N,N/C*%
X137160000Y-88900000D03*
%TD*%
%TO.P,,1*%
%TO.N,N/C*%
X137160000Y-99060000D03*
%TD*%
%TO.P,,1*%
%TO.N,N/C*%
X236220000Y-104140000D03*
%TD*%
%TO.P,,1*%
%TO.N,N/C*%
X236220000Y-88900000D03*
%TD*%
%TO.P,,1*%
%TO.N,N/C*%
X236220000Y-93980000D03*
%TD*%
%TO.P,,1*%
%TO.N,N/C*%
X236220000Y-96520000D03*
%TD*%
%TO.P,,1*%
%TO.N,N/C*%
X236220000Y-91440000D03*
%TD*%
%TO.P,,1*%
%TO.N,N/C*%
X236220000Y-111760000D03*
%TD*%
%TO.P,,1*%
%TO.N,N/C*%
X236220000Y-101600000D03*
%TD*%
%TO.P,,1*%
%TO.N,N/C*%
X236220000Y-106680000D03*
%TD*%
%TO.P,,1*%
%TO.N,N/C*%
X236220000Y-99060000D03*
%TD*%
%TO.P,,1*%
%TO.N,N/C*%
X236220000Y-109220000D03*
%TD*%
%TO.P,,1*%
%TO.N,N/C*%
X223520000Y-111760000D03*
%TD*%
%TO.P,,1*%
%TO.N,N/C*%
X220980000Y-106680000D03*
%TD*%
%TO.P,,1*%
%TO.N,N/C*%
X220980000Y-109220000D03*
%TD*%
%TO.P,,1*%
%TO.N,N/C*%
X228600000Y-109220000D03*
%TD*%
%TO.P,,1*%
%TO.N,N/C*%
X233680000Y-111760000D03*
%TD*%
%TO.P,,1*%
%TO.N,N/C*%
X213360000Y-109220000D03*
%TD*%
%TO.P,,1*%
%TO.N,N/C*%
X231140000Y-109220000D03*
%TD*%
%TO.P,,1*%
%TO.N,N/C*%
X213360000Y-88900000D03*
%TD*%
%TO.P,,1*%
%TO.N,N/C*%
X231140000Y-93980000D03*
%TD*%
%TO.P,,1*%
%TO.N,N/C*%
X213360000Y-93980000D03*
%TD*%
%TO.P,,1*%
%TO.N,N/C*%
X233680000Y-93980000D03*
%TD*%
%TO.P,,1*%
%TO.N,N/C*%
X220980000Y-99060000D03*
%TD*%
%TO.P,,1*%
%TO.N,N/C*%
X210820000Y-99060000D03*
%TD*%
%TO.P,,1*%
%TO.N,N/C*%
X220980000Y-101600000D03*
%TD*%
%TO.P,,1*%
%TO.N,N/C*%
X210820000Y-101600000D03*
%TD*%
%TO.P,,1*%
%TO.N,N/C*%
X226060000Y-91440000D03*
%TD*%
%TO.P,,1*%
%TO.N,N/C*%
X218440000Y-91440000D03*
%TD*%
%TO.P,,1*%
%TO.N,N/C*%
X208280000Y-91440000D03*
%TD*%
%TO.P,,1*%
%TO.N,N/C*%
X228600000Y-93980000D03*
%TD*%
%TO.P,,1*%
%TO.N,N/C*%
X233680000Y-96520000D03*
%TD*%
%TO.P,,1*%
%TO.N,N/C*%
X228600000Y-88900000D03*
%TD*%
%TO.P,,1*%
%TO.N,N/C*%
X231140000Y-88900000D03*
%TD*%
%TO.P,,1*%
%TO.N,N/C*%
X226060000Y-106680000D03*
%TD*%
%TO.P,,1*%
%TO.N,N/C*%
X218440000Y-106680000D03*
%TD*%
%TO.P,,1*%
%TO.N,N/C*%
X208280000Y-106680000D03*
%TD*%
%TO.P,,1*%
%TO.N,N/C*%
X205740000Y-106680000D03*
%TD*%
%TO.P,,1*%
%TO.N,N/C*%
X215900000Y-104140000D03*
%TD*%
%TO.P,,1*%
%TO.N,N/C*%
X215900000Y-106680000D03*
%TD*%
%TO.P,,1*%
%TO.N,N/C*%
X208280000Y-96520000D03*
%TD*%
%TO.P,,1*%
%TO.N,N/C*%
X205740000Y-96520000D03*
%TD*%
%TO.P,,1*%
%TO.N,N/C*%
X215900000Y-93980000D03*
%TD*%
%TO.P,,1*%
%TO.N,N/C*%
X215900000Y-96520000D03*
%TD*%
%TO.P,,1*%
%TO.N,N/C*%
X213360000Y-96520000D03*
%TD*%
%TO.P,,1*%
%TO.N,N/C*%
X231140000Y-96520000D03*
%TD*%
%TO.P,,1*%
%TO.N,N/C*%
X228600000Y-96520000D03*
%TD*%
%TO.P,,1*%
%TO.N,N/C*%
X226060000Y-93980000D03*
%TD*%
%TO.P,,1*%
%TO.N,N/C*%
X218440000Y-93980000D03*
%TD*%
%TO.P,,1*%
%TO.N,N/C*%
X213360000Y-106680000D03*
%TD*%
%TO.P,,1*%
%TO.N,N/C*%
X231140000Y-106680000D03*
%TD*%
%TO.P,,1*%
%TO.N,N/C*%
X228600000Y-106680000D03*
%TD*%
%TO.P,,1*%
%TO.N,N/C*%
X226060000Y-104140000D03*
%TD*%
%TO.P,,1*%
%TO.N,N/C*%
X218440000Y-104140000D03*
%TD*%
%TO.P,,1*%
%TO.N,N/C*%
X208280000Y-104140000D03*
%TD*%
%TO.P,,1*%
%TO.N,N/C*%
X233680000Y-91440000D03*
%TD*%
%TO.P,,1*%
%TO.N,N/C*%
X213360000Y-99060000D03*
%TD*%
%TO.P,,1*%
%TO.N,N/C*%
X220980000Y-111760000D03*
%TD*%
%TO.P,,1*%
%TO.N,N/C*%
X210820000Y-111760000D03*
%TD*%
%TO.P,,1*%
%TO.N,N/C*%
X205740000Y-91440000D03*
%TD*%
%TO.P,,1*%
%TO.N,N/C*%
X215900000Y-88900000D03*
%TD*%
%TO.P,,1*%
%TO.N,N/C*%
X215900000Y-91440000D03*
%TD*%
%TO.P,,1*%
%TO.N,N/C*%
X213360000Y-91440000D03*
%TD*%
%TO.P,,1*%
%TO.N,N/C*%
X231140000Y-91440000D03*
%TD*%
%TO.P,,1*%
%TO.N,N/C*%
X228600000Y-91440000D03*
%TD*%
%TO.P,,1*%
%TO.N,N/C*%
X226060000Y-88900000D03*
%TD*%
%TO.P,,1*%
%TO.N,N/C*%
X218440000Y-88900000D03*
%TD*%
%TO.P,,1*%
%TO.N,N/C*%
X210820000Y-96520000D03*
%TD*%
%TO.P,,1*%
%TO.N,N/C*%
X220980000Y-93980000D03*
%TD*%
%TO.P,,1*%
%TO.N,N/C*%
X210820000Y-93980000D03*
%TD*%
%TO.P,,1*%
%TO.N,N/C*%
X213360000Y-104140000D03*
%TD*%
%TO.P,,1*%
%TO.N,N/C*%
X220980000Y-104140000D03*
%TD*%
%TO.P,,1*%
%TO.N,N/C*%
X210820000Y-106680000D03*
%TD*%
%TO.P,,1*%
%TO.N,N/C*%
X208280000Y-93980000D03*
%TD*%
%TO.P,,1*%
%TO.N,N/C*%
X205740000Y-93980000D03*
%TD*%
%TO.P,,1*%
%TO.N,N/C*%
X223520000Y-93980000D03*
%TD*%
%TO.P,,1*%
%TO.N,N/C*%
X223520000Y-96520000D03*
%TD*%
%TO.P,,1*%
%TO.N,N/C*%
X220980000Y-96520000D03*
%TD*%
%TO.P,,1*%
%TO.N,N/C*%
X231140000Y-104140000D03*
%TD*%
%TO.P,,1*%
%TO.N,N/C*%
X233680000Y-104140000D03*
%TD*%
%TO.P,,1*%
%TO.N,N/C*%
X228600000Y-104140000D03*
%TD*%
%TO.P,,1*%
%TO.N,N/C*%
X210820000Y-104140000D03*
%TD*%
%TO.P,,1*%
%TO.N,N/C*%
X215900000Y-99060000D03*
%TD*%
%TO.P,,1*%
%TO.N,N/C*%
X215900000Y-101600000D03*
%TD*%
%TO.P,,1*%
%TO.N,N/C*%
X213360000Y-101600000D03*
%TD*%
%TO.P,,1*%
%TO.N,N/C*%
X231140000Y-101600000D03*
%TD*%
%TO.P,,1*%
%TO.N,N/C*%
X228600000Y-101600000D03*
%TD*%
%TO.P,,1*%
%TO.N,N/C*%
X226060000Y-99060000D03*
%TD*%
%TO.P,,1*%
%TO.N,N/C*%
X218440000Y-99060000D03*
%TD*%
%TO.P,,1*%
%TO.N,N/C*%
X208280000Y-99060000D03*
%TD*%
%TO.P,,1*%
%TO.N,N/C*%
X205740000Y-99060000D03*
%TD*%
%TO.P,,1*%
%TO.N,N/C*%
X223520000Y-99060000D03*
%TD*%
%TO.P,,1*%
%TO.N,N/C*%
X223520000Y-101600000D03*
%TD*%
%TO.P,,1*%
%TO.N,N/C*%
X218440000Y-109220000D03*
%TD*%
%TO.P,,1*%
%TO.N,N/C*%
X208280000Y-109220000D03*
%TD*%
%TO.P,,1*%
%TO.N,N/C*%
X205740000Y-104140000D03*
%TD*%
%TO.P,,1*%
%TO.N,N/C*%
X223520000Y-106680000D03*
%TD*%
%TO.P,,1*%
%TO.N,N/C*%
X233680000Y-101600000D03*
%TD*%
%TO.P,,1*%
%TO.N,N/C*%
X233680000Y-106680000D03*
%TD*%
%TO.P,,1*%
%TO.N,N/C*%
X226060000Y-96520000D03*
%TD*%
%TO.P,,1*%
%TO.N,N/C*%
X218440000Y-96520000D03*
%TD*%
%TO.P,,1*%
%TO.N,N/C*%
X223520000Y-104140000D03*
%TD*%
%TO.P,,1*%
%TO.N,N/C*%
X231140000Y-111760000D03*
%TD*%
%TO.P,,1*%
%TO.N,N/C*%
X228600000Y-111760000D03*
%TD*%
%TO.P,,1*%
%TO.N,N/C*%
X226060000Y-109220000D03*
%TD*%
%TO.P,,1*%
%TO.N,N/C*%
X205740000Y-109220000D03*
%TD*%
%TO.P,,1*%
%TO.N,N/C*%
X223520000Y-109220000D03*
%TD*%
%TO.P,,1*%
%TO.N,N/C*%
X226060000Y-111760000D03*
%TD*%
%TO.P,,1*%
%TO.N,N/C*%
X218440000Y-111760000D03*
%TD*%
%TO.P,,1*%
%TO.N,N/C*%
X208280000Y-111760000D03*
%TD*%
%TO.P,,1*%
%TO.N,N/C*%
X205740000Y-111760000D03*
%TD*%
%TO.P,,1*%
%TO.N,N/C*%
X215900000Y-109220000D03*
%TD*%
%TO.P,,1*%
%TO.N,N/C*%
X215900000Y-111760000D03*
%TD*%
%TO.P,,1*%
%TO.N,N/C*%
X213360000Y-111760000D03*
%TD*%
%TO.P,,1*%
%TO.N,N/C*%
X233680000Y-109220000D03*
%TD*%
%TO.P,,1*%
%TO.N,N/C*%
X210820000Y-109220000D03*
%TD*%
%TO.P,,1*%
%TO.N,N/C*%
X226060000Y-101600000D03*
%TD*%
%TO.P,,1*%
%TO.N,N/C*%
X218440000Y-101600000D03*
%TD*%
%TO.P,,1*%
%TO.N,N/C*%
X208280000Y-101600000D03*
%TD*%
%TO.P,,1*%
%TO.N,N/C*%
X205740000Y-101600000D03*
%TD*%
%TO.P,,1*%
%TO.N,N/C*%
X233680000Y-88900000D03*
%TD*%
%TO.P,,1*%
%TO.N,N/C*%
X233680000Y-99060000D03*
%TD*%
%TO.P,,1*%
%TO.N,N/C*%
X228600000Y-99060000D03*
%TD*%
%TO.P,,1*%
%TO.N,N/C*%
X231140000Y-99060000D03*
%TD*%
%TO.P,,1*%
%TO.N,N/C*%
X208280000Y-88900000D03*
%TD*%
%TO.P,,1*%
%TO.N,N/C*%
X205740000Y-88900000D03*
%TD*%
%TO.P,,1*%
%TO.N,N/C*%
X223520000Y-88900000D03*
%TD*%
%TO.P,,1*%
%TO.N,N/C*%
X223520000Y-91440000D03*
%TD*%
%TO.P,,1*%
%TO.N,N/C*%
X220980000Y-91440000D03*
%TD*%
%TO.P,,1*%
%TO.N,N/C*%
X210820000Y-91440000D03*
%TD*%
%TO.P,,1*%
%TO.N,N/C*%
X220980000Y-88900000D03*
%TD*%
%TO.P,,1*%
%TO.N,N/C*%
X210820000Y-88900000D03*
%TD*%
%TO.P,,1*%
%TO.N,N/C*%
X91440000Y-96520000D03*
%TD*%
%TO.P,,1*%
%TO.N,N/C*%
X91440000Y-101600000D03*
%TD*%
%TO.P,,1*%
%TO.N,N/C*%
X91440000Y-93980000D03*
%TD*%
%TO.P,,1*%
%TO.N,N/C*%
X93980000Y-106680000D03*
%TD*%
%TO.P,,1*%
%TO.N,N/C*%
X93980000Y-96520000D03*
%TD*%
%TO.P,,1*%
%TO.N,N/C*%
X91440000Y-91440000D03*
%TD*%
%TO.P,,1*%
%TO.N,N/C*%
X93980000Y-114300000D03*
%TD*%
%TO.P,,1*%
%TO.N,N/C*%
X93980000Y-91440000D03*
%TD*%
%TO.P,,1*%
%TO.N,N/C*%
X93980000Y-93980000D03*
%TD*%
%TO.P,,1*%
%TO.N,N/C*%
X91440000Y-104140000D03*
%TD*%
%TO.P,,1*%
%TO.N,N/C*%
X93980000Y-99060000D03*
%TD*%
%TO.P,,1*%
%TO.N,N/C*%
X93980000Y-109220000D03*
%TD*%
%TO.P,,1*%
%TO.N,N/C*%
X93980000Y-104140000D03*
%TD*%
%TO.P,,1*%
%TO.N,N/C*%
X91440000Y-106680000D03*
%TD*%
%TO.P,,1*%
%TO.N,N/C*%
X91440000Y-114300000D03*
%TD*%
%TO.P,,1*%
%TO.N,N/C*%
X93980000Y-111760000D03*
%TD*%
%TO.P,,1*%
%TO.N,N/C*%
X91440000Y-109220000D03*
%TD*%
%TO.P,,1*%
%TO.N,N/C*%
X91440000Y-111760000D03*
%TD*%
%TO.P,,1*%
%TO.N,N/C*%
X93980000Y-101600000D03*
%TD*%
%TO.P,,1*%
%TO.N,N/C*%
X91440000Y-88900000D03*
%TD*%
%TO.P,,1*%
%TO.N,N/C*%
X91440000Y-99060000D03*
%TD*%
%TO.P,,1*%
%TO.N,N/C*%
X93980000Y-88900000D03*
%TD*%
%TO.P,,1*%
%TO.N,N/C*%
X233680000Y-114300000D03*
%TD*%
%TO.P,,1*%
%TO.N,N/C*%
X226060000Y-114300000D03*
%TD*%
%TO.P,,1*%
%TO.N,N/C*%
X223520000Y-114300000D03*
%TD*%
%TO.P,,1*%
%TO.N,N/C*%
X231140000Y-114300000D03*
%TD*%
%TO.P,,1*%
%TO.N,N/C*%
X218440000Y-116840000D03*
%TD*%
%TO.P,,1*%
%TO.N,N/C*%
X220980000Y-114300000D03*
%TD*%
%TO.P,,1*%
%TO.N,N/C*%
X220980000Y-116840000D03*
%TD*%
%TO.P,,1*%
%TO.N,N/C*%
X228600000Y-116840000D03*
%TD*%
%TO.P,,1*%
%TO.N,N/C*%
X223520000Y-116840000D03*
%TD*%
%TO.P,,1*%
%TO.N,N/C*%
X218440000Y-114300000D03*
%TD*%
%TO.P,,1*%
%TO.N,N/C*%
X226060000Y-116840000D03*
%TD*%
%TO.P,,1*%
%TO.N,N/C*%
X236220000Y-114300000D03*
%TD*%
%TO.P,,1*%
%TO.N,N/C*%
X231140000Y-116840000D03*
%TD*%
%TO.P,,1*%
%TO.N,N/C*%
X228600000Y-114300000D03*
%TD*%
%TO.P,,1*%
%TO.N,N/C*%
X193040000Y-114300000D03*
%TD*%
%TO.P,,1*%
%TO.N,N/C*%
X185420000Y-114300000D03*
%TD*%
%TO.P,,1*%
%TO.N,N/C*%
X213360000Y-114300000D03*
%TD*%
%TO.P,,1*%
%TO.N,N/C*%
X182880000Y-114300000D03*
%TD*%
%TO.P,,1*%
%TO.N,N/C*%
X203200000Y-114300000D03*
%TD*%
%TO.P,,1*%
%TO.N,N/C*%
X190500000Y-114300000D03*
%TD*%
%TO.P,,1*%
%TO.N,N/C*%
X177800000Y-116840000D03*
%TD*%
%TO.P,,1*%
%TO.N,N/C*%
X213360000Y-116840000D03*
%TD*%
%TO.P,,1*%
%TO.N,N/C*%
X210820000Y-116840000D03*
%TD*%
%TO.P,,1*%
%TO.N,N/C*%
X205740000Y-114300000D03*
%TD*%
%TO.P,,1*%
%TO.N,N/C*%
X208280000Y-114300000D03*
%TD*%
%TO.P,,1*%
%TO.N,N/C*%
X200660000Y-114300000D03*
%TD*%
%TO.P,,1*%
%TO.N,N/C*%
X180340000Y-114300000D03*
%TD*%
%TO.P,,1*%
%TO.N,N/C*%
X180340000Y-116840000D03*
%TD*%
%TO.P,,1*%
%TO.N,N/C*%
X187960000Y-116840000D03*
%TD*%
%TO.P,,1*%
%TO.N,N/C*%
X198120000Y-114300000D03*
%TD*%
%TO.P,,1*%
%TO.N,N/C*%
X198120000Y-116840000D03*
%TD*%
%TO.P,,1*%
%TO.N,N/C*%
X195580000Y-116840000D03*
%TD*%
%TO.P,,1*%
%TO.N,N/C*%
X182880000Y-116840000D03*
%TD*%
%TO.P,,1*%
%TO.N,N/C*%
X177800000Y-114300000D03*
%TD*%
%TO.P,,1*%
%TO.N,N/C*%
X215900000Y-114300000D03*
%TD*%
%TO.P,,1*%
%TO.N,N/C*%
X185420000Y-116840000D03*
%TD*%
%TO.P,,1*%
%TO.N,N/C*%
X210820000Y-114300000D03*
%TD*%
%TO.P,,1*%
%TO.N,N/C*%
X195580000Y-114300000D03*
%TD*%
%TO.P,,1*%
%TO.N,N/C*%
X205740000Y-116840000D03*
%TD*%
%TO.P,,1*%
%TO.N,N/C*%
X208280000Y-116840000D03*
%TD*%
%TO.P,,1*%
%TO.N,N/C*%
X200660000Y-116840000D03*
%TD*%
%TO.P,,1*%
%TO.N,N/C*%
X190500000Y-116840000D03*
%TD*%
%TO.P,,1*%
%TO.N,N/C*%
X215900000Y-116840000D03*
%TD*%
%TO.P,,1*%
%TO.N,N/C*%
X203200000Y-116840000D03*
%TD*%
%TO.P,,1*%
%TO.N,N/C*%
X193040000Y-116840000D03*
%TD*%
%TO.P,,1*%
%TO.N,N/C*%
X187960000Y-114300000D03*
%TD*%
%TO.P,,1*%
%TO.N,N/C*%
X152400000Y-114300000D03*
%TD*%
%TO.P,,1*%
%TO.N,N/C*%
X144780000Y-114300000D03*
%TD*%
%TO.P,,1*%
%TO.N,N/C*%
X172720000Y-114300000D03*
%TD*%
%TO.P,,1*%
%TO.N,N/C*%
X142240000Y-114300000D03*
%TD*%
%TO.P,,1*%
%TO.N,N/C*%
X162560000Y-114300000D03*
%TD*%
%TO.P,,1*%
%TO.N,N/C*%
X149860000Y-114300000D03*
%TD*%
%TO.P,,1*%
%TO.N,N/C*%
X137160000Y-116840000D03*
%TD*%
%TO.P,,1*%
%TO.N,N/C*%
X172720000Y-116840000D03*
%TD*%
%TO.P,,1*%
%TO.N,N/C*%
X170180000Y-116840000D03*
%TD*%
%TO.P,,1*%
%TO.N,N/C*%
X165100000Y-114300000D03*
%TD*%
%TO.P,,1*%
%TO.N,N/C*%
X167640000Y-114300000D03*
%TD*%
%TO.P,,1*%
%TO.N,N/C*%
X160020000Y-114300000D03*
%TD*%
%TO.P,,1*%
%TO.N,N/C*%
X139700000Y-114300000D03*
%TD*%
%TO.P,,1*%
%TO.N,N/C*%
X139700000Y-116840000D03*
%TD*%
%TO.P,,1*%
%TO.N,N/C*%
X147320000Y-116840000D03*
%TD*%
%TO.P,,1*%
%TO.N,N/C*%
X157480000Y-114300000D03*
%TD*%
%TO.P,,1*%
%TO.N,N/C*%
X157480000Y-116840000D03*
%TD*%
%TO.P,,1*%
%TO.N,N/C*%
X154940000Y-116840000D03*
%TD*%
%TO.P,,1*%
%TO.N,N/C*%
X142240000Y-116840000D03*
%TD*%
%TO.P,,1*%
%TO.N,N/C*%
X137160000Y-114300000D03*
%TD*%
%TO.P,,1*%
%TO.N,N/C*%
X175260000Y-114300000D03*
%TD*%
%TO.P,,1*%
%TO.N,N/C*%
X144780000Y-116840000D03*
%TD*%
%TO.P,,1*%
%TO.N,N/C*%
X170180000Y-114300000D03*
%TD*%
%TO.P,,1*%
%TO.N,N/C*%
X154940000Y-114300000D03*
%TD*%
%TO.P,,1*%
%TO.N,N/C*%
X165100000Y-116840000D03*
%TD*%
%TO.P,,1*%
%TO.N,N/C*%
X167640000Y-116840000D03*
%TD*%
%TO.P,,1*%
%TO.N,N/C*%
X160020000Y-116840000D03*
%TD*%
%TO.P,,1*%
%TO.N,N/C*%
X149860000Y-116840000D03*
%TD*%
%TO.P,,1*%
%TO.N,N/C*%
X175260000Y-116840000D03*
%TD*%
%TO.P,,1*%
%TO.N,N/C*%
X162560000Y-116840000D03*
%TD*%
%TO.P,,1*%
%TO.N,N/C*%
X152400000Y-116840000D03*
%TD*%
%TO.P,,1*%
%TO.N,N/C*%
X147320000Y-114300000D03*
%TD*%
%TO.P,,1*%
%TO.N,N/C*%
X231140000Y-119380000D03*
%TD*%
%TO.P,,1*%
%TO.N,N/C*%
X208280000Y-119380000D03*
%TD*%
%TO.P,,1*%
%TO.N,N/C*%
X137160000Y-119380000D03*
%TD*%
%TO.P,,1*%
%TO.N,N/C*%
X116840000Y-119380000D03*
%TD*%
%TO.P,,1*%
%TO.N,N/C*%
X154940000Y-119380000D03*
%TD*%
%TO.P,,1*%
%TO.N,N/C*%
X210820000Y-119380000D03*
%TD*%
%TO.P,,1*%
%TO.N,N/C*%
X220980000Y-119380000D03*
%TD*%
%TO.P,,1*%
%TO.N,N/C*%
X144780000Y-119380000D03*
%TD*%
%TO.P,,1*%
%TO.N,N/C*%
X170180000Y-119380000D03*
%TD*%
%TO.P,,1*%
%TO.N,N/C*%
X185420000Y-119380000D03*
%TD*%
%TO.P,,1*%
%TO.N,N/C*%
X182880000Y-119380000D03*
%TD*%
%TO.P,,1*%
%TO.N,N/C*%
X195580000Y-119380000D03*
%TD*%
%TO.P,,1*%
%TO.N,N/C*%
X223520000Y-119380000D03*
%TD*%
%TO.P,,1*%
%TO.N,N/C*%
X127000000Y-119380000D03*
%TD*%
%TO.P,,1*%
%TO.N,N/C*%
X119380000Y-119380000D03*
%TD*%
%TO.P,,1*%
%TO.N,N/C*%
X190500000Y-119380000D03*
%TD*%
%TO.P,,1*%
%TO.N,N/C*%
X109220000Y-119380000D03*
%TD*%
%TO.P,,1*%
%TO.N,N/C*%
X99060000Y-119380000D03*
%TD*%
%TO.P,,1*%
%TO.N,N/C*%
X106680000Y-119380000D03*
%TD*%
%TO.P,,1*%
%TO.N,N/C*%
X205740000Y-119380000D03*
%TD*%
%TO.P,,1*%
%TO.N,N/C*%
X203200000Y-119380000D03*
%TD*%
%TO.P,,1*%
%TO.N,N/C*%
X124460000Y-119380000D03*
%TD*%
%TO.P,,1*%
%TO.N,N/C*%
X198120000Y-119380000D03*
%TD*%
%TO.P,,1*%
%TO.N,N/C*%
X121920000Y-119380000D03*
%TD*%
%TO.P,,1*%
%TO.N,N/C*%
X165100000Y-119380000D03*
%TD*%
%TO.P,,1*%
%TO.N,N/C*%
X111760000Y-119380000D03*
%TD*%
%TO.P,,1*%
%TO.N,N/C*%
X175260000Y-119380000D03*
%TD*%
%TO.P,,1*%
%TO.N,N/C*%
X215900000Y-119380000D03*
%TD*%
%TO.P,,1*%
%TO.N,N/C*%
X187960000Y-119380000D03*
%TD*%
%TO.P,,1*%
%TO.N,N/C*%
X104140000Y-119380000D03*
%TD*%
%TO.P,,1*%
%TO.N,N/C*%
X213360000Y-119380000D03*
%TD*%
%TO.P,,1*%
%TO.N,N/C*%
X96520000Y-119380000D03*
%TD*%
%TO.P,,1*%
%TO.N,N/C*%
X226060000Y-119380000D03*
%TD*%
%TO.P,,1*%
%TO.N,N/C*%
X177800000Y-119380000D03*
%TD*%
%TO.P,,1*%
%TO.N,N/C*%
X134620000Y-119380000D03*
%TD*%
%TO.P,,1*%
%TO.N,N/C*%
X152400000Y-119380000D03*
%TD*%
%TO.P,,1*%
%TO.N,N/C*%
X167640000Y-119380000D03*
%TD*%
%TO.P,,1*%
%TO.N,N/C*%
X147320000Y-119380000D03*
%TD*%
%TO.P,,1*%
%TO.N,N/C*%
X157480000Y-119380000D03*
%TD*%
%TO.P,,1*%
%TO.N,N/C*%
X172720000Y-119380000D03*
%TD*%
%TO.P,,1*%
%TO.N,N/C*%
X101600000Y-119380000D03*
%TD*%
%TO.P,,1*%
%TO.N,N/C*%
X142240000Y-119380000D03*
%TD*%
%TO.P,,1*%
%TO.N,N/C*%
X132080000Y-119380000D03*
%TD*%
%TO.P,,1*%
%TO.N,N/C*%
X149860000Y-119380000D03*
%TD*%
%TO.P,,1*%
%TO.N,N/C*%
X180340000Y-119380000D03*
%TD*%
%TO.P,,1*%
%TO.N,N/C*%
X129540000Y-119380000D03*
%TD*%
%TO.P,,1*%
%TO.N,N/C*%
X139700000Y-119380000D03*
%TD*%
%TO.P,,1*%
%TO.N,N/C*%
X228600000Y-119380000D03*
%TD*%
%TO.P,,1*%
%TO.N,N/C*%
X162560000Y-119380000D03*
%TD*%
%TO.P,,1*%
%TO.N,N/C*%
X200660000Y-119380000D03*
%TD*%
%TO.P,,1*%
%TO.N,N/C*%
X114300000Y-119380000D03*
%TD*%
%TO.P,,1*%
%TO.N,N/C*%
X160020000Y-119380000D03*
%TD*%
%TO.P,,1*%
%TO.N,N/C*%
X193040000Y-119380000D03*
%TD*%
%TO.P,,1*%
%TO.N,N/C*%
X218440000Y-119380000D03*
%TD*%
%TO.P,,1*%
%TO.N,N/C*%
X127000000Y-116840000D03*
%TD*%
%TO.P,,1*%
%TO.N,N/C*%
X119380000Y-116840000D03*
%TD*%
%TO.P,,1*%
%TO.N,N/C*%
X109220000Y-116840000D03*
%TD*%
%TO.P,,1*%
%TO.N,N/C*%
X99060000Y-116840000D03*
%TD*%
%TO.P,,1*%
%TO.N,N/C*%
X106680000Y-116840000D03*
%TD*%
%TO.P,,1*%
%TO.N,N/C*%
X116840000Y-114300000D03*
%TD*%
%TO.P,,1*%
%TO.N,N/C*%
X116840000Y-116840000D03*
%TD*%
%TO.P,,1*%
%TO.N,N/C*%
X114300000Y-116840000D03*
%TD*%
%TO.P,,1*%
%TO.N,N/C*%
X101600000Y-116840000D03*
%TD*%
%TO.P,,1*%
%TO.N,N/C*%
X132080000Y-116840000D03*
%TD*%
%TO.P,,1*%
%TO.N,N/C*%
X129540000Y-116840000D03*
%TD*%
%TO.P,,1*%
%TO.N,N/C*%
X127000000Y-114300000D03*
%TD*%
%TO.P,,1*%
%TO.N,N/C*%
X119380000Y-114300000D03*
%TD*%
%TO.P,,1*%
%TO.N,N/C*%
X109220000Y-114300000D03*
%TD*%
%TO.P,,1*%
%TO.N,N/C*%
X99060000Y-114300000D03*
%TD*%
%TO.P,,1*%
%TO.N,N/C*%
X106680000Y-114300000D03*
%TD*%
%TO.P,,1*%
%TO.N,N/C*%
X124460000Y-114300000D03*
%TD*%
%TO.P,,1*%
%TO.N,N/C*%
X124460000Y-116840000D03*
%TD*%
%TO.P,,1*%
%TO.N,N/C*%
X121920000Y-116840000D03*
%TD*%
%TO.P,,1*%
%TO.N,N/C*%
X111760000Y-116840000D03*
%TD*%
%TO.P,,1*%
%TO.N,N/C*%
X121920000Y-114300000D03*
%TD*%
%TO.P,,1*%
%TO.N,N/C*%
X111760000Y-114300000D03*
%TD*%
%TO.P,,1*%
%TO.N,N/C*%
X104140000Y-116840000D03*
%TD*%
%TO.P,,1*%
%TO.N,N/C*%
X96520000Y-116840000D03*
%TD*%
%TO.P,,1*%
%TO.N,N/C*%
X134620000Y-116840000D03*
%TD*%
%TO.P,,1*%
%TO.N,N/C*%
X104140000Y-114300000D03*
%TD*%
%TO.P,,1*%
%TO.N,N/C*%
X96520000Y-114300000D03*
%TD*%
%TO.P,,1*%
%TO.N,N/C*%
X134620000Y-114300000D03*
%TD*%
%TO.P,,1*%
%TO.N,N/C*%
X101600000Y-114300000D03*
%TD*%
%TO.P,,1*%
%TO.N,N/C*%
X132080000Y-114300000D03*
%TD*%
%TO.P,,1*%
%TO.N,N/C*%
X129540000Y-114300000D03*
%TD*%
%TO.P,,1*%
%TO.N,N/C*%
X114300000Y-114300000D03*
%TD*%
%TO.P,,1*%
%TO.N,N/C*%
X127000000Y-111760000D03*
%TD*%
%TO.P,,1*%
%TO.N,N/C*%
X119380000Y-111760000D03*
%TD*%
%TO.P,,1*%
%TO.N,N/C*%
X109220000Y-111760000D03*
%TD*%
%TO.P,,1*%
%TO.N,N/C*%
X99060000Y-111760000D03*
%TD*%
%TO.P,,1*%
%TO.N,N/C*%
X106680000Y-111760000D03*
%TD*%
%TO.P,,1*%
%TO.N,N/C*%
X116840000Y-109220000D03*
%TD*%
%TO.P,,1*%
%TO.N,N/C*%
X116840000Y-111760000D03*
%TD*%
%TO.P,,1*%
%TO.N,N/C*%
X114300000Y-111760000D03*
%TD*%
%TO.P,,1*%
%TO.N,N/C*%
X101600000Y-111760000D03*
%TD*%
%TO.P,,1*%
%TO.N,N/C*%
X132080000Y-111760000D03*
%TD*%
%TO.P,,1*%
%TO.N,N/C*%
X129540000Y-111760000D03*
%TD*%
%TO.P,,1*%
%TO.N,N/C*%
X127000000Y-109220000D03*
%TD*%
%TO.P,,1*%
%TO.N,N/C*%
X119380000Y-109220000D03*
%TD*%
%TO.P,,1*%
%TO.N,N/C*%
X109220000Y-109220000D03*
%TD*%
%TO.P,,1*%
%TO.N,N/C*%
X99060000Y-109220000D03*
%TD*%
%TO.P,,1*%
%TO.N,N/C*%
X106680000Y-109220000D03*
%TD*%
%TO.P,,1*%
%TO.N,N/C*%
X124460000Y-109220000D03*
%TD*%
%TO.P,,1*%
%TO.N,N/C*%
X124460000Y-111760000D03*
%TD*%
%TO.P,,1*%
%TO.N,N/C*%
X121920000Y-111760000D03*
%TD*%
%TO.P,,1*%
%TO.N,N/C*%
X111760000Y-111760000D03*
%TD*%
%TO.P,,1*%
%TO.N,N/C*%
X121920000Y-109220000D03*
%TD*%
%TO.P,,1*%
%TO.N,N/C*%
X111760000Y-109220000D03*
%TD*%
%TO.P,,1*%
%TO.N,N/C*%
X104140000Y-111760000D03*
%TD*%
%TO.P,,1*%
%TO.N,N/C*%
X96520000Y-111760000D03*
%TD*%
%TO.P,,1*%
%TO.N,N/C*%
X134620000Y-111760000D03*
%TD*%
%TO.P,,1*%
%TO.N,N/C*%
X104140000Y-109220000D03*
%TD*%
%TO.P,,1*%
%TO.N,N/C*%
X96520000Y-109220000D03*
%TD*%
%TO.P,,1*%
%TO.N,N/C*%
X134620000Y-109220000D03*
%TD*%
%TO.P,,1*%
%TO.N,N/C*%
X101600000Y-109220000D03*
%TD*%
%TO.P,,1*%
%TO.N,N/C*%
X132080000Y-109220000D03*
%TD*%
%TO.P,,1*%
%TO.N,N/C*%
X129540000Y-109220000D03*
%TD*%
%TO.P,,1*%
%TO.N,N/C*%
X114300000Y-109220000D03*
%TD*%
%TO.P,,1*%
%TO.N,N/C*%
X127000000Y-106680000D03*
%TD*%
%TO.P,,1*%
%TO.N,N/C*%
X119380000Y-106680000D03*
%TD*%
%TO.P,,1*%
%TO.N,N/C*%
X109220000Y-106680000D03*
%TD*%
%TO.P,,1*%
%TO.N,N/C*%
X99060000Y-106680000D03*
%TD*%
%TO.P,,1*%
%TO.N,N/C*%
X106680000Y-106680000D03*
%TD*%
%TO.P,,1*%
%TO.N,N/C*%
X116840000Y-104140000D03*
%TD*%
%TO.P,,1*%
%TO.N,N/C*%
X116840000Y-106680000D03*
%TD*%
%TO.P,,1*%
%TO.N,N/C*%
X114300000Y-106680000D03*
%TD*%
%TO.P,,1*%
%TO.N,N/C*%
X101600000Y-106680000D03*
%TD*%
%TO.P,,1*%
%TO.N,N/C*%
X132080000Y-106680000D03*
%TD*%
%TO.P,,1*%
%TO.N,N/C*%
X129540000Y-106680000D03*
%TD*%
%TO.P,,1*%
%TO.N,N/C*%
X127000000Y-104140000D03*
%TD*%
%TO.P,,1*%
%TO.N,N/C*%
X119380000Y-104140000D03*
%TD*%
%TO.P,,1*%
%TO.N,N/C*%
X109220000Y-104140000D03*
%TD*%
%TO.P,,1*%
%TO.N,N/C*%
X99060000Y-104140000D03*
%TD*%
%TO.P,,1*%
%TO.N,N/C*%
X106680000Y-104140000D03*
%TD*%
%TO.P,,1*%
%TO.N,N/C*%
X124460000Y-104140000D03*
%TD*%
%TO.P,,1*%
%TO.N,N/C*%
X124460000Y-106680000D03*
%TD*%
%TO.P,,1*%
%TO.N,N/C*%
X121920000Y-106680000D03*
%TD*%
%TO.P,,1*%
%TO.N,N/C*%
X111760000Y-106680000D03*
%TD*%
%TO.P,,1*%
%TO.N,N/C*%
X121920000Y-104140000D03*
%TD*%
%TO.P,,1*%
%TO.N,N/C*%
X111760000Y-104140000D03*
%TD*%
%TO.P,,1*%
%TO.N,N/C*%
X104140000Y-106680000D03*
%TD*%
%TO.P,,1*%
%TO.N,N/C*%
X96520000Y-106680000D03*
%TD*%
%TO.P,,1*%
%TO.N,N/C*%
X134620000Y-106680000D03*
%TD*%
%TO.P,,1*%
%TO.N,N/C*%
X104140000Y-104140000D03*
%TD*%
%TO.P,,1*%
%TO.N,N/C*%
X96520000Y-104140000D03*
%TD*%
%TO.P,,1*%
%TO.N,N/C*%
X134620000Y-104140000D03*
%TD*%
%TO.P,,1*%
%TO.N,N/C*%
X101600000Y-104140000D03*
%TD*%
%TO.P,,1*%
%TO.N,N/C*%
X132080000Y-104140000D03*
%TD*%
%TO.P,,1*%
%TO.N,N/C*%
X129540000Y-104140000D03*
%TD*%
%TO.P,,1*%
%TO.N,N/C*%
X114300000Y-104140000D03*
%TD*%
%TO.P,,1*%
%TO.N,N/C*%
X127000000Y-101600000D03*
%TD*%
%TO.P,,1*%
%TO.N,N/C*%
X119380000Y-101600000D03*
%TD*%
%TO.P,,1*%
%TO.N,N/C*%
X109220000Y-101600000D03*
%TD*%
%TO.P,,1*%
%TO.N,N/C*%
X99060000Y-101600000D03*
%TD*%
%TO.P,,1*%
%TO.N,N/C*%
X106680000Y-101600000D03*
%TD*%
%TO.P,,1*%
%TO.N,N/C*%
X116840000Y-99060000D03*
%TD*%
%TO.P,,1*%
%TO.N,N/C*%
X116840000Y-101600000D03*
%TD*%
%TO.P,,1*%
%TO.N,N/C*%
X114300000Y-101600000D03*
%TD*%
%TO.P,,1*%
%TO.N,N/C*%
X101600000Y-101600000D03*
%TD*%
%TO.P,,1*%
%TO.N,N/C*%
X132080000Y-101600000D03*
%TD*%
%TO.P,,1*%
%TO.N,N/C*%
X129540000Y-101600000D03*
%TD*%
%TO.P,,1*%
%TO.N,N/C*%
X127000000Y-99060000D03*
%TD*%
%TO.P,,1*%
%TO.N,N/C*%
X119380000Y-99060000D03*
%TD*%
%TO.P,,1*%
%TO.N,N/C*%
X109220000Y-99060000D03*
%TD*%
%TO.P,,1*%
%TO.N,N/C*%
X99060000Y-99060000D03*
%TD*%
%TO.P,,1*%
%TO.N,N/C*%
X106680000Y-99060000D03*
%TD*%
%TO.P,,1*%
%TO.N,N/C*%
X124460000Y-99060000D03*
%TD*%
%TO.P,,1*%
%TO.N,N/C*%
X124460000Y-101600000D03*
%TD*%
%TO.P,,1*%
%TO.N,N/C*%
X121920000Y-101600000D03*
%TD*%
%TO.P,,1*%
%TO.N,N/C*%
X111760000Y-101600000D03*
%TD*%
%TO.P,,1*%
%TO.N,N/C*%
X121920000Y-99060000D03*
%TD*%
%TO.P,,1*%
%TO.N,N/C*%
X111760000Y-99060000D03*
%TD*%
%TO.P,,1*%
%TO.N,N/C*%
X104140000Y-101600000D03*
%TD*%
%TO.P,,1*%
%TO.N,N/C*%
X96520000Y-101600000D03*
%TD*%
%TO.P,,1*%
%TO.N,N/C*%
X134620000Y-101600000D03*
%TD*%
%TO.P,,1*%
%TO.N,N/C*%
X104140000Y-99060000D03*
%TD*%
%TO.P,,1*%
%TO.N,N/C*%
X96520000Y-99060000D03*
%TD*%
%TO.P,,1*%
%TO.N,N/C*%
X134620000Y-99060000D03*
%TD*%
%TO.P,,1*%
%TO.N,N/C*%
X101600000Y-99060000D03*
%TD*%
%TO.P,,1*%
%TO.N,N/C*%
X132080000Y-99060000D03*
%TD*%
%TO.P,,1*%
%TO.N,N/C*%
X129540000Y-99060000D03*
%TD*%
%TO.P,,1*%
%TO.N,N/C*%
X114300000Y-99060000D03*
%TD*%
%TO.P,,1*%
%TO.N,N/C*%
X127000000Y-96520000D03*
%TD*%
%TO.P,,1*%
%TO.N,N/C*%
X119380000Y-96520000D03*
%TD*%
%TO.P,,1*%
%TO.N,N/C*%
X109220000Y-96520000D03*
%TD*%
%TO.P,,1*%
%TO.N,N/C*%
X99060000Y-96520000D03*
%TD*%
%TO.P,,1*%
%TO.N,N/C*%
X106680000Y-96520000D03*
%TD*%
%TO.P,,1*%
%TO.N,N/C*%
X116840000Y-93980000D03*
%TD*%
%TO.P,,1*%
%TO.N,N/C*%
X116840000Y-96520000D03*
%TD*%
%TO.P,,1*%
%TO.N,N/C*%
X114300000Y-96520000D03*
%TD*%
%TO.P,,1*%
%TO.N,N/C*%
X101600000Y-96520000D03*
%TD*%
%TO.P,,1*%
%TO.N,N/C*%
X132080000Y-96520000D03*
%TD*%
%TO.P,,1*%
%TO.N,N/C*%
X129540000Y-96520000D03*
%TD*%
%TO.P,,1*%
%TO.N,N/C*%
X127000000Y-93980000D03*
%TD*%
%TO.P,,1*%
%TO.N,N/C*%
X119380000Y-93980000D03*
%TD*%
%TO.P,,1*%
%TO.N,N/C*%
X109220000Y-93980000D03*
%TD*%
%TO.P,,1*%
%TO.N,N/C*%
X99060000Y-93980000D03*
%TD*%
%TO.P,,1*%
%TO.N,N/C*%
X106680000Y-93980000D03*
%TD*%
%TO.P,,1*%
%TO.N,N/C*%
X124460000Y-93980000D03*
%TD*%
%TO.P,,1*%
%TO.N,N/C*%
X124460000Y-96520000D03*
%TD*%
%TO.P,,1*%
%TO.N,N/C*%
X121920000Y-96520000D03*
%TD*%
%TO.P,,1*%
%TO.N,N/C*%
X111760000Y-96520000D03*
%TD*%
%TO.P,,1*%
%TO.N,N/C*%
X121920000Y-93980000D03*
%TD*%
%TO.P,,1*%
%TO.N,N/C*%
X111760000Y-93980000D03*
%TD*%
%TO.P,,1*%
%TO.N,N/C*%
X104140000Y-96520000D03*
%TD*%
%TO.P,,1*%
%TO.N,N/C*%
X96520000Y-96520000D03*
%TD*%
%TO.P,,1*%
%TO.N,N/C*%
X134620000Y-96520000D03*
%TD*%
%TO.P,,1*%
%TO.N,N/C*%
X104140000Y-93980000D03*
%TD*%
%TO.P,,1*%
%TO.N,N/C*%
X96520000Y-93980000D03*
%TD*%
%TO.P,,1*%
%TO.N,N/C*%
X134620000Y-93980000D03*
%TD*%
%TO.P,,1*%
%TO.N,N/C*%
X101600000Y-93980000D03*
%TD*%
%TO.P,,1*%
%TO.N,N/C*%
X132080000Y-93980000D03*
%TD*%
%TO.P,,1*%
%TO.N,N/C*%
X129540000Y-93980000D03*
%TD*%
%TO.P,,1*%
%TO.N,N/C*%
X114300000Y-93980000D03*
%TD*%
%TO.P,,1*%
%TO.N,N/C*%
X127000000Y-91440000D03*
%TD*%
%TO.P,,1*%
%TO.N,N/C*%
X119380000Y-91440000D03*
%TD*%
%TO.P,,1*%
%TO.N,N/C*%
X109220000Y-91440000D03*
%TD*%
%TO.P,,1*%
%TO.N,N/C*%
X99060000Y-91440000D03*
%TD*%
%TO.P,,1*%
%TO.N,N/C*%
X106680000Y-91440000D03*
%TD*%
%TO.P,,1*%
%TO.N,N/C*%
X116840000Y-88900000D03*
%TD*%
%TO.P,,1*%
%TO.N,N/C*%
X116840000Y-91440000D03*
%TD*%
%TO.P,,1*%
%TO.N,N/C*%
X114300000Y-91440000D03*
%TD*%
%TO.P,,1*%
%TO.N,N/C*%
X101600000Y-91440000D03*
%TD*%
%TO.P,,1*%
%TO.N,N/C*%
X132080000Y-91440000D03*
%TD*%
%TO.P,,1*%
%TO.N,N/C*%
X129540000Y-91440000D03*
%TD*%
%TO.P,,1*%
%TO.N,N/C*%
X127000000Y-88900000D03*
%TD*%
%TO.P,,1*%
%TO.N,N/C*%
X119380000Y-88900000D03*
%TD*%
%TO.P,,1*%
%TO.N,N/C*%
X109220000Y-88900000D03*
%TD*%
%TO.P,,1*%
%TO.N,N/C*%
X99060000Y-88900000D03*
%TD*%
%TO.P,,1*%
%TO.N,N/C*%
X106680000Y-88900000D03*
%TD*%
%TO.P,,1*%
%TO.N,N/C*%
X124460000Y-88900000D03*
%TD*%
%TO.P,,1*%
%TO.N,N/C*%
X124460000Y-91440000D03*
%TD*%
%TO.P,,1*%
%TO.N,N/C*%
X121920000Y-91440000D03*
%TD*%
%TO.P,,1*%
%TO.N,N/C*%
X111760000Y-91440000D03*
%TD*%
%TO.P,,1*%
%TO.N,N/C*%
X121920000Y-88900000D03*
%TD*%
%TO.P,,1*%
%TO.N,N/C*%
X111760000Y-88900000D03*
%TD*%
%TO.P,,1*%
%TO.N,N/C*%
X104140000Y-91440000D03*
%TD*%
%TO.P,,1*%
%TO.N,N/C*%
X96520000Y-91440000D03*
%TD*%
%TO.P,,1*%
%TO.N,N/C*%
X134620000Y-91440000D03*
%TD*%
%TO.P,,1*%
%TO.N,N/C*%
X104140000Y-88900000D03*
%TD*%
%TO.P,,1*%
%TO.N,N/C*%
X96520000Y-88900000D03*
%TD*%
%TO.P,,1*%
%TO.N,N/C*%
X134620000Y-88900000D03*
%TD*%
%TO.P,,1*%
%TO.N,N/C*%
X101600000Y-88900000D03*
%TD*%
%TO.P,,1*%
%TO.N,N/C*%
X132080000Y-88900000D03*
%TD*%
%TO.P,,1*%
%TO.N,N/C*%
X129540000Y-88900000D03*
%TD*%
%TO.P,,1*%
%TO.N,N/C*%
X114300000Y-88900000D03*
%TD*%
%TO.P,,1*%
%TO.N,N/C*%
X231140000Y-86360000D03*
%TD*%
%TO.P,,1*%
%TO.N,N/C*%
X208280000Y-86360000D03*
%TD*%
%TO.P,,1*%
%TO.N,N/C*%
X137160000Y-86360000D03*
%TD*%
%TO.P,,1*%
%TO.N,N/C*%
X116840000Y-86360000D03*
%TD*%
%TO.P,,1*%
%TO.N,N/C*%
X154940000Y-86360000D03*
%TD*%
%TO.P,,1*%
%TO.N,N/C*%
X210820000Y-86360000D03*
%TD*%
%TO.P,,1*%
%TO.N,N/C*%
X220980000Y-86360000D03*
%TD*%
%TO.P,,1*%
%TO.N,N/C*%
X144780000Y-86360000D03*
%TD*%
%TO.P,,1*%
%TO.N,N/C*%
X170180000Y-86360000D03*
%TD*%
%TO.P,,1*%
%TO.N,N/C*%
X185420000Y-86360000D03*
%TD*%
%TO.P,,1*%
%TO.N,N/C*%
X182880000Y-86360000D03*
%TD*%
%TO.P,,1*%
%TO.N,N/C*%
X195580000Y-86360000D03*
%TD*%
%TO.P,,1*%
%TO.N,N/C*%
X223520000Y-86360000D03*
%TD*%
%TO.P,,1*%
%TO.N,N/C*%
X127000000Y-86360000D03*
%TD*%
%TO.P,,1*%
%TO.N,N/C*%
X119380000Y-86360000D03*
%TD*%
%TO.P,,1*%
%TO.N,N/C*%
X190500000Y-86360000D03*
%TD*%
%TO.P,,1*%
%TO.N,N/C*%
X109220000Y-86360000D03*
%TD*%
%TO.P,,1*%
%TO.N,N/C*%
X99060000Y-86360000D03*
%TD*%
%TO.P,,1*%
%TO.N,N/C*%
X106680000Y-86360000D03*
%TD*%
%TO.P,,1*%
%TO.N,N/C*%
X205740000Y-86360000D03*
%TD*%
%TO.P,,1*%
%TO.N,N/C*%
X203200000Y-86360000D03*
%TD*%
%TO.P,,1*%
%TO.N,N/C*%
X124460000Y-86360000D03*
%TD*%
%TO.P,,1*%
%TO.N,N/C*%
X198120000Y-86360000D03*
%TD*%
%TO.P,,1*%
%TO.N,N/C*%
X121920000Y-86360000D03*
%TD*%
%TO.P,,1*%
%TO.N,N/C*%
X165100000Y-86360000D03*
%TD*%
%TO.P,,1*%
%TO.N,N/C*%
X111760000Y-86360000D03*
%TD*%
%TO.P,,1*%
%TO.N,N/C*%
X175260000Y-86360000D03*
%TD*%
%TO.P,,1*%
%TO.N,N/C*%
X215900000Y-86360000D03*
%TD*%
%TO.P,,1*%
%TO.N,N/C*%
X187960000Y-86360000D03*
%TD*%
%TO.P,,1*%
%TO.N,N/C*%
X104140000Y-86360000D03*
%TD*%
%TO.P,,1*%
%TO.N,N/C*%
X213360000Y-86360000D03*
%TD*%
%TO.P,,1*%
%TO.N,N/C*%
X96520000Y-86360000D03*
%TD*%
%TO.P,,1*%
%TO.N,N/C*%
X226060000Y-86360000D03*
%TD*%
%TO.P,,1*%
%TO.N,N/C*%
X177800000Y-86360000D03*
%TD*%
%TO.P,,1*%
%TO.N,N/C*%
X134620000Y-86360000D03*
%TD*%
%TO.P,,1*%
%TO.N,N/C*%
X152400000Y-86360000D03*
%TD*%
%TO.P,,1*%
%TO.N,N/C*%
X167640000Y-86360000D03*
%TD*%
%TO.P,,1*%
%TO.N,N/C*%
X147320000Y-86360000D03*
%TD*%
%TO.P,,1*%
%TO.N,N/C*%
X157480000Y-86360000D03*
%TD*%
%TO.P,,1*%
%TO.N,N/C*%
X172720000Y-86360000D03*
%TD*%
%TO.P,,1*%
%TO.N,N/C*%
X101600000Y-86360000D03*
%TD*%
%TO.P,,1*%
%TO.N,N/C*%
X142240000Y-86360000D03*
%TD*%
%TO.P,,1*%
%TO.N,N/C*%
X132080000Y-86360000D03*
%TD*%
%TO.P,,1*%
%TO.N,N/C*%
X149860000Y-86360000D03*
%TD*%
%TO.P,,1*%
%TO.N,N/C*%
X180340000Y-86360000D03*
%TD*%
%TO.P,,1*%
%TO.N,N/C*%
X129540000Y-86360000D03*
%TD*%
%TO.P,,1*%
%TO.N,N/C*%
X139700000Y-86360000D03*
%TD*%
%TO.P,,1*%
%TO.N,N/C*%
X228600000Y-86360000D03*
%TD*%
%TO.P,,1*%
%TO.N,N/C*%
X162560000Y-86360000D03*
%TD*%
%TO.P,,1*%
%TO.N,N/C*%
X200660000Y-86360000D03*
%TD*%
%TO.P,,1*%
%TO.N,N/C*%
X114300000Y-86360000D03*
%TD*%
%TO.P,,1*%
%TO.N,N/C*%
X160020000Y-86360000D03*
%TD*%
%TO.P,,1*%
%TO.N,N/C*%
X193040000Y-86360000D03*
%TD*%
%TO.P,,1*%
%TO.N,N/C*%
X218440000Y-86360000D03*
%TD*%
%TO.P,,1*%
%TO.N,N/C*%
X228600000Y-83820000D03*
%TD*%
%TO.P,,1*%
%TO.N,N/C*%
X231140000Y-83820000D03*
%TD*%
%TO.P,,1*%
%TO.N,N/C*%
X220980000Y-83820000D03*
%TD*%
%TO.P,,1*%
%TO.N,N/C*%
X223520000Y-83820000D03*
%TD*%
%TO.P,,1*%
%TO.N,N/C*%
X218440000Y-83820000D03*
%TD*%
%TO.P,,1*%
%TO.N,N/C*%
X226060000Y-83820000D03*
%TD*%
%TO.P,,1*%
%TO.N,N/C*%
X101600000Y-83820000D03*
%TD*%
%TO.P,,1*%
%TO.N,N/C*%
X142240000Y-83820000D03*
%TD*%
%TO.P,,1*%
%TO.N,N/C*%
X132080000Y-83820000D03*
%TD*%
%TO.P,,1*%
%TO.N,N/C*%
X129540000Y-83820000D03*
%TD*%
%TO.P,,1*%
%TO.N,N/C*%
X139700000Y-83820000D03*
%TD*%
%TO.P,,1*%
%TO.N,N/C*%
X99060000Y-83820000D03*
%TD*%
%TO.P,,1*%
%TO.N,N/C*%
X106680000Y-83820000D03*
%TD*%
%TO.P,,1*%
%TO.N,N/C*%
X205740000Y-83820000D03*
%TD*%
%TO.P,,1*%
%TO.N,N/C*%
X154940000Y-83820000D03*
%TD*%
%TO.P,,1*%
%TO.N,N/C*%
X210820000Y-83820000D03*
%TD*%
%TO.P,,1*%
%TO.N,N/C*%
X208280000Y-83820000D03*
%TD*%
%TO.P,,1*%
%TO.N,N/C*%
X137160000Y-83820000D03*
%TD*%
%TO.P,,1*%
%TO.N,N/C*%
X116840000Y-83820000D03*
%TD*%
%TO.P,,1*%
%TO.N,N/C*%
X127000000Y-83820000D03*
%TD*%
%TO.P,,1*%
%TO.N,N/C*%
X119380000Y-83820000D03*
%TD*%
%TO.P,,1*%
%TO.N,N/C*%
X170180000Y-83820000D03*
%TD*%
%TO.P,,1*%
%TO.N,N/C*%
X185420000Y-83820000D03*
%TD*%
%TO.P,,1*%
%TO.N,N/C*%
X198120000Y-83820000D03*
%TD*%
%TO.P,,1*%
%TO.N,N/C*%
X121920000Y-83820000D03*
%TD*%
%TO.P,,1*%
%TO.N,N/C*%
X165100000Y-83820000D03*
%TD*%
%TO.P,,1*%
%TO.N,N/C*%
X162560000Y-83820000D03*
%TD*%
%TO.P,,1*%
%TO.N,N/C*%
X200660000Y-83820000D03*
%TD*%
%TO.P,,1*%
%TO.N,N/C*%
X149860000Y-83820000D03*
%TD*%
%TO.P,,1*%
%TO.N,N/C*%
X180340000Y-83820000D03*
%TD*%
%TO.P,,1*%
%TO.N,N/C*%
X152400000Y-83820000D03*
%TD*%
%TO.P,,1*%
%TO.N,N/C*%
X167640000Y-83820000D03*
%TD*%
%TO.P,,1*%
%TO.N,N/C*%
X213360000Y-83820000D03*
%TD*%
%TO.P,,1*%
%TO.N,N/C*%
X96520000Y-83820000D03*
%TD*%
%TO.P,,1*%
%TO.N,N/C*%
X160020000Y-83820000D03*
%TD*%
%TO.P,,1*%
%TO.N,N/C*%
X193040000Y-83820000D03*
%TD*%
%TO.P,,1*%
%TO.N,N/C*%
X147320000Y-83820000D03*
%TD*%
%TO.P,,1*%
%TO.N,N/C*%
X157480000Y-83820000D03*
%TD*%
%TO.P,,1*%
%TO.N,N/C*%
X175260000Y-83820000D03*
%TD*%
%TO.P,,1*%
%TO.N,N/C*%
X215900000Y-83820000D03*
%TD*%
%TO.P,,1*%
%TO.N,N/C*%
X187960000Y-83820000D03*
%TD*%
%TO.P,,1*%
%TO.N,N/C*%
X104140000Y-83820000D03*
%TD*%
%TO.P,,1*%
%TO.N,N/C*%
X203200000Y-83820000D03*
%TD*%
%TO.P,,1*%
%TO.N,N/C*%
X190500000Y-83820000D03*
%TD*%
%TO.P,,1*%
%TO.N,N/C*%
X109220000Y-83820000D03*
%TD*%
%TO.P,,1*%
%TO.N,N/C*%
X182880000Y-83820000D03*
%TD*%
%TO.P,,1*%
%TO.N,N/C*%
X195580000Y-83820000D03*
%TD*%
%TO.P,,1*%
%TO.N,N/C*%
X172720000Y-83820000D03*
%TD*%
%TO.P,,1*%
%TO.N,N/C*%
X177800000Y-83820000D03*
%TD*%
%TO.P,,1*%
%TO.N,N/C*%
X134620000Y-83820000D03*
%TD*%
%TO.P,,1*%
%TO.N,N/C*%
X111760000Y-83820000D03*
%TD*%
%TO.P,,1*%
%TO.N,N/C*%
X114300000Y-83820000D03*
%TD*%
%TO.P,,1*%
%TO.N,N/C*%
X144780000Y-83820000D03*
%TD*%
%TO.P,,1*%
%TO.N,N/C*%
X124460000Y-83820000D03*
%TD*%
D11*
%TO.P,J4,1,Pin_1*%
%TO.N,/INPUT*%
X142240000Y-91440000D03*
D12*
%TO.P,J4,2,Pin_2*%
%TO.N,+5V*%
X142240000Y-93980000D03*
%TO.P,J4,3,Pin_3*%
X142240000Y-96520000D03*
%TO.P,J4,4,Pin_4*%
%TO.N,+3V3*%
X142240000Y-99060000D03*
%TO.P,J4,5,Pin_5*%
X142240000Y-101600000D03*
%TO.P,J4,6,Pin_6*%
%TO.N,GND*%
X142240000Y-104140000D03*
%TO.P,J4,7,Pin_7*%
X142240000Y-106680000D03*
%TO.P,J4,8,Pin_8*%
X142240000Y-109220000D03*
%TD*%
D13*
%TO.P,C1,1*%
%TO.N,+3V3*%
X172900000Y-104140000D03*
%TO.P,C1,2*%
%TO.N,GND*%
X172900000Y-105690000D03*
%TD*%
D14*
%TO.P,R3,1*%
%TO.N,Net-(D2-K)*%
X194175000Y-102000000D03*
%TO.P,R3,2*%
%TO.N,GND*%
X195825000Y-102000000D03*
%TD*%
D13*
%TO.P,C5,1*%
%TO.N,+3V3*%
X154534000Y-97282000D03*
%TO.P,C5,2*%
%TO.N,GND*%
X154534000Y-98832000D03*
%TD*%
D11*
%TO.P,J1,1,Pin_1*%
%TO.N,+3V3*%
X200660000Y-91440000D03*
D12*
%TO.P,J1,2,Pin_2*%
%TO.N,/SWDCLK*%
X200660000Y-93980000D03*
%TO.P,J1,3,Pin_3*%
%TO.N,GND*%
X200660000Y-96520000D03*
%TO.P,J1,4,Pin_4*%
%TO.N,/SWDIO*%
X200660000Y-99060000D03*
%TO.P,J1,5,Pin_5*%
%TO.N,/~{RST}*%
X200660000Y-101600000D03*
%TD*%
D13*
%TO.P,C6,1*%
%TO.N,/INPUT*%
X154699000Y-102476000D03*
%TO.P,C6,2*%
%TO.N,GND*%
X154699000Y-104026000D03*
%TD*%
D15*
%TO.P,U1,1,PB9*%
%TO.N,/PB9*%
X173067930Y-100272272D03*
%TO.P,U1,2,PC14*%
%TO.N,/PC14*%
X173633616Y-100837957D03*
%TO.P,U1,3,PC15*%
%TO.N,/PC15*%
X174199301Y-101403643D03*
%TO.P,U1,4,VDD*%
%TO.N,+3V3*%
X174764986Y-101969328D03*
%TO.P,U1,5,VSS*%
%TO.N,GND*%
X175330672Y-102535014D03*
%TO.P,U1,6,PF2*%
%TO.N,/~{RST}*%
X175896357Y-103100699D03*
%TO.P,U1,7,PA0*%
%TO.N,/PA0*%
X176462043Y-103666384D03*
%TO.P,U1,8,PA1*%
%TO.N,/PA1*%
X177027728Y-104232070D03*
D16*
%TO.P,U1,9,PA2*%
%TO.N,/PA2*%
X178972272Y-104232070D03*
%TO.P,U1,10,PA3*%
%TO.N,/PA3*%
X179537957Y-103666384D03*
%TO.P,U1,11,PA4*%
%TO.N,/PA4*%
X180103643Y-103100699D03*
%TO.P,U1,12,PA5*%
%TO.N,/PA5*%
X180669328Y-102535014D03*
%TO.P,U1,13,PA6*%
%TO.N,/PA6*%
X181235014Y-101969328D03*
%TO.P,U1,14,PA7*%
%TO.N,/PA7*%
X181800699Y-101403643D03*
%TO.P,U1,15,PB0*%
%TO.N,/PB0*%
X182366384Y-100837957D03*
%TO.P,U1,16,PB1*%
%TO.N,/PB1*%
X182932070Y-100272272D03*
D15*
%TO.P,U1,17,PB2*%
%TO.N,/PB2*%
X182932070Y-98327728D03*
%TO.P,U1,18,PA8*%
%TO.N,/PA8*%
X182366384Y-97762043D03*
%TO.P,U1,19,PA9/UCPD1_DBCC1*%
%TO.N,/PA9*%
X181800699Y-97196357D03*
%TO.P,U1,20,PC6*%
%TO.N,/PC6*%
X181235014Y-96630672D03*
%TO.P,U1,21,PA10/UCPD1_DBCC2*%
%TO.N,/PA10*%
X180669328Y-96064986D03*
%TO.P,U1,22,PA11/PA9*%
%TO.N,/PA11*%
X180103643Y-95499301D03*
%TO.P,U1,23,PA12/PA10*%
%TO.N,/PA12*%
X179537957Y-94933616D03*
%TO.P,U1,24,PA13*%
%TO.N,/SWDIO*%
X178972272Y-94367930D03*
D16*
%TO.P,U1,25,PA14*%
%TO.N,/SWDCLK*%
X177027728Y-94367930D03*
%TO.P,U1,26,PA15*%
%TO.N,/PA15*%
X176462043Y-94933616D03*
%TO.P,U1,27,PB3*%
%TO.N,/PB3*%
X175896357Y-95499301D03*
%TO.P,U1,28,PB4*%
%TO.N,/PB4*%
X175330672Y-96064986D03*
%TO.P,U1,29,PB5*%
%TO.N,/PB5*%
X174764986Y-96630672D03*
%TO.P,U1,30,PB6*%
%TO.N,/PB6*%
X174199301Y-97196357D03*
%TO.P,U1,31,PB7*%
%TO.N,/PB7*%
X173633616Y-97762043D03*
%TO.P,U1,32,PB8*%
%TO.N,/PB8*%
X173067930Y-98327728D03*
%TD*%
D17*
%TO.P,C4,1*%
%TO.N,/INPUT*%
X152641000Y-91440000D03*
%TO.P,C4,2*%
%TO.N,GND*%
X154191000Y-91440000D03*
%TD*%
%TO.P,C9,1*%
%TO.N,GND*%
X166325000Y-96500000D03*
%TO.P,C9,2*%
%TO.N,/PC15*%
X167875000Y-96500000D03*
%TD*%
D14*
%TO.P,R1,1*%
%TO.N,+3V3*%
X164350000Y-105500000D03*
%TO.P,R1,2*%
%TO.N,/~{RST}*%
X166000000Y-105500000D03*
%TD*%
D13*
%TO.P,C3,1*%
%TO.N,+3V3*%
X169700000Y-104140000D03*
%TO.P,C3,2*%
%TO.N,GND*%
X169700000Y-105690000D03*
%TD*%
D17*
%TO.P,C8,1*%
%TO.N,GND*%
X166325000Y-103100000D03*
%TO.P,C8,2*%
%TO.N,/PC14*%
X167875000Y-103100000D03*
%TD*%
D18*
%TO.P,U3,1,GND*%
%TO.N,GND*%
X151994000Y-107456000D03*
%TO.P,U3,2,VO*%
%TO.N,+5V*%
X151994000Y-105156000D03*
D19*
X145694000Y-105156000D03*
D18*
%TO.P,U3,3,VI*%
%TO.N,/INPUT*%
X151994000Y-102856000D03*
%TD*%
D13*
%TO.P,C2,1*%
%TO.N,+3V3*%
X171300000Y-104140000D03*
%TO.P,C2,2*%
%TO.N,GND*%
X171300000Y-105690000D03*
%TD*%
D11*
%TO.P,J2,1,Pin_1*%
%TO.N,/PB9*%
X157480000Y-109220000D03*
D12*
%TO.P,J2,2,Pin_2*%
%TO.N,/PC14*%
X160020000Y-109220000D03*
%TO.P,J2,3,Pin_3*%
%TO.N,/PC15*%
X162560000Y-109220000D03*
%TO.P,J2,4,Pin_4*%
%TO.N,+3V3*%
X165100000Y-109220000D03*
%TO.P,J2,5,Pin_5*%
%TO.N,GND*%
X167640000Y-109220000D03*
%TO.P,J2,6,Pin_6*%
%TO.N,/~{RST}*%
X170180000Y-109220000D03*
%TO.P,J2,7,Pin_7*%
%TO.N,/PA0*%
X172720000Y-109220000D03*
%TO.P,J2,8,Pin_8*%
%TO.N,/PA1*%
X175260000Y-109220000D03*
%TO.P,J2,9,Pin_9*%
%TO.N,/PA2*%
X177800000Y-109220000D03*
%TO.P,J2,10,Pin_10*%
%TO.N,/PA3*%
X180340000Y-109220000D03*
%TO.P,J2,11,Pin_11*%
%TO.N,/PA4*%
X182880000Y-109220000D03*
%TO.P,J2,12,Pin_12*%
%TO.N,/PA5*%
X185420000Y-109220000D03*
%TO.P,J2,13,Pin_13*%
%TO.N,/PA6*%
X187960000Y-109220000D03*
%TO.P,J2,14,Pin_14*%
%TO.N,/PA7*%
X190500000Y-109220000D03*
%TO.P,J2,15,Pin_15*%
%TO.N,/PB0*%
X193040000Y-109220000D03*
%TO.P,J2,16,Pin_16*%
%TO.N,/PB1*%
X195580000Y-109220000D03*
%TD*%
D13*
%TO.P,C7,1*%
%TO.N,+5V*%
X154686000Y-105651000D03*
%TO.P,C7,2*%
%TO.N,GND*%
X154686000Y-107201000D03*
%TD*%
D18*
%TO.P,U2,1,GND*%
%TO.N,GND*%
X151994000Y-98312000D03*
%TO.P,U2,2,VO*%
%TO.N,+3V3*%
X151994000Y-96012000D03*
D19*
X145694000Y-96012000D03*
D18*
%TO.P,U2,3,VI*%
%TO.N,/INPUT*%
X151994000Y-93712000D03*
%TD*%
D14*
%TO.P,R2,1*%
%TO.N,Net-(D1-K)*%
X194175000Y-98500000D03*
%TO.P,R2,2*%
%TO.N,GND*%
X195825000Y-98500000D03*
%TD*%
D11*
%TO.P,J3,1,Pin_1*%
%TO.N,/PB2*%
X195580000Y-91255000D03*
D12*
%TO.P,J3,2,Pin_2*%
%TO.N,/PA8*%
X193040000Y-91255000D03*
%TO.P,J3,3,Pin_3*%
%TO.N,/PA9*%
X190500000Y-91255000D03*
%TO.P,J3,4,Pin_4*%
%TO.N,/PC6*%
X187960000Y-91255000D03*
%TO.P,J3,5,Pin_5*%
%TO.N,/PA10*%
X185420000Y-91255000D03*
%TO.P,J3,6,Pin_6*%
%TO.N,/PA11*%
X182880000Y-91255000D03*
%TO.P,J3,7,Pin_7*%
%TO.N,/PA12*%
X180340000Y-91255000D03*
%TO.P,J3,8,Pin_8*%
%TO.N,/SWDIO*%
X177800000Y-91255000D03*
%TO.P,J3,9,Pin_9*%
%TO.N,/SWDCLK*%
X175260000Y-91255000D03*
%TO.P,J3,10,Pin_10*%
%TO.N,/PA15*%
X172720000Y-91255000D03*
%TO.P,J3,11,Pin_11*%
%TO.N,/PB3*%
X170180000Y-91255000D03*
%TO.P,J3,12,Pin_12*%
%TO.N,/PB4*%
X167640000Y-91255000D03*
%TO.P,J3,13,Pin_13*%
%TO.N,/PB5*%
X165100000Y-91255000D03*
%TO.P,J3,14,Pin_14*%
%TO.N,/PB6*%
X162560000Y-91255000D03*
%TO.P,J3,15,Pin_15*%
%TO.N,/PB7*%
X160020000Y-91255000D03*
%TO.P,J3,16,Pin_16*%
%TO.N,/PB8*%
X157480000Y-91255000D03*
%TD*%
D20*
%TO.P,D1,1,K*%
%TO.N,Net-(D1-K)*%
X190287500Y-98500000D03*
%TO.P,D1,2,A*%
%TO.N,+3V3*%
X188712500Y-98500000D03*
%TD*%
%TO.P,D2,1,K*%
%TO.N,Net-(D2-K)*%
X190247500Y-102000000D03*
%TO.P,D2,2,A*%
%TO.N,/PA8*%
X188672500Y-102000000D03*
%TD*%
D21*
%TO.P,Y1,1,1*%
%TO.N,/PC15*%
X170150000Y-98500000D03*
%TO.P,Y1,2,2*%
%TO.N,/PC14*%
X170150000Y-101040000D03*
%TD*%
D22*
%TO.N,GND*%
X168284608Y-106054608D03*
D23*
%TO.N,+3V3*%
X147320000Y-99060000D03*
%TO.N,/INPUT*%
X148590000Y-102870000D03*
X148590000Y-94615000D03*
D22*
%TO.N,GND*%
X193675000Y-104775000D03*
X194310000Y-104775000D03*
X194945000Y-104775000D03*
X195580000Y-104775000D03*
X195580000Y-104140000D03*
X194945000Y-104140000D03*
X194310000Y-104140000D03*
X193675000Y-104140000D03*
X156845000Y-97155000D03*
X157480000Y-97155000D03*
X158115000Y-97155000D03*
X158750000Y-97155000D03*
X158750000Y-96520000D03*
X158115000Y-96520000D03*
X157480000Y-96520000D03*
X156845000Y-96520000D03*
X158115000Y-103505000D03*
X158115000Y-104140000D03*
X158115000Y-104775000D03*
X158115000Y-105410000D03*
X157480000Y-105410000D03*
X157480000Y-104775000D03*
X157480000Y-104140000D03*
X157480000Y-103505000D03*
X160655000Y-99060000D03*
X160655000Y-99695000D03*
X160020000Y-99695000D03*
X160020000Y-99060000D03*
X165100000Y-99060000D03*
X168275000Y-101600000D03*
%TO.N,+3V3*%
X172600000Y-102800000D03*
X161300000Y-103400000D03*
%TO.N,/~{RST}*%
X178500000Y-101000000D03*
X165100000Y-106800000D03*
X171000000Y-107200000D03*
%TO.N,+3V3*%
X164000000Y-107200000D03*
%TO.N,/SWDCLK*%
X177100000Y-96500000D03*
X195200000Y-93800000D03*
%TO.N,/SWDIO*%
X178300000Y-96600000D03*
X193200000Y-97100000D03*
%TO.N,/PA8*%
X187500000Y-100300000D03*
X187547500Y-96747500D03*
%TO.N,/PB8*%
X170200000Y-96300000D03*
X164600000Y-96200000D03*
%TD*%
D24*
%TO.N,+5V*%
X151994000Y-105156000D02*
X154191000Y-105156000D01*
X154191000Y-105156000D02*
X154686000Y-105651000D01*
D25*
%TO.N,GND*%
X167640000Y-106699216D02*
X168284608Y-106054608D01*
X167640000Y-109220000D02*
X167640000Y-106699216D01*
%TO.N,+3V3*%
X169700000Y-104140000D02*
X169350686Y-104140000D01*
X169350686Y-104140000D02*
X165100000Y-108390686D01*
X165100000Y-108390686D02*
X165100000Y-109220000D01*
D24*
%TO.N,+5V*%
X142240000Y-93980000D02*
X142240000Y-96520000D01*
X145694000Y-105156000D02*
X145694000Y-99974000D01*
X145694000Y-99974000D02*
X142240000Y-96520000D01*
X145694000Y-105156000D02*
X151994000Y-105156000D01*
%TO.N,+3V3*%
X154356000Y-97104000D02*
X153264000Y-96012000D01*
X154534000Y-97282000D02*
X154356000Y-97104000D01*
X154356000Y-97104000D02*
X155004000Y-97104000D01*
X155004000Y-97104000D02*
X161300000Y-103400000D01*
X153264000Y-96012000D02*
X151994000Y-96012000D01*
X151994000Y-96012000D02*
X145694000Y-96012000D01*
X145694000Y-97434000D02*
X147320000Y-99060000D01*
X145694000Y-96012000D02*
X145694000Y-97434000D01*
X142240000Y-101600000D02*
X142240000Y-99060000D01*
%TO.N,/INPUT*%
X151994000Y-102856000D02*
X154319000Y-102856000D01*
X154319000Y-102856000D02*
X154699000Y-102476000D01*
X151994000Y-93712000D02*
X149493000Y-93712000D01*
X149493000Y-93712000D02*
X148590000Y-94615000D01*
X148590000Y-102870000D02*
X151980000Y-102870000D01*
X151980000Y-102870000D02*
X151994000Y-102856000D01*
X152641000Y-91440000D02*
X152641000Y-93065000D01*
X152641000Y-93065000D02*
X151994000Y-93712000D01*
X142240000Y-91440000D02*
X149722000Y-91440000D01*
X149722000Y-91440000D02*
X151994000Y-93712000D01*
D25*
%TO.N,+3V3*%
X172600000Y-102800000D02*
X172600000Y-103840000D01*
X172600000Y-103840000D02*
X172900000Y-104140000D01*
%TO.N,/~{RST}*%
X177997056Y-101000000D02*
X178500000Y-101000000D01*
X175896357Y-103100699D02*
X177997056Y-101000000D01*
X170180000Y-109220000D02*
X171000000Y-108400000D01*
X171000000Y-108400000D02*
X171000000Y-107200000D01*
X165100000Y-106400000D02*
X166000000Y-105500000D01*
X165100000Y-106800000D02*
X165100000Y-106400000D01*
%TO.N,+3V3*%
X164350000Y-106850000D02*
X164000000Y-107200000D01*
X164350000Y-105500000D02*
X164350000Y-106850000D01*
X200660000Y-91440000D02*
X198900000Y-93200000D01*
X198900000Y-93200000D02*
X194372814Y-93200000D01*
X194372814Y-93200000D02*
X189072814Y-98500000D01*
X189072814Y-98500000D02*
X188712500Y-98500000D01*
%TO.N,/SWDCLK*%
X200660000Y-93980000D02*
X195380000Y-93980000D01*
X177100000Y-96500000D02*
X177419822Y-96180178D01*
X195380000Y-93980000D02*
X195200000Y-93800000D01*
X177419822Y-96180178D02*
X177419822Y-94760024D01*
X177419822Y-94760024D02*
X177027728Y-94367930D01*
%TO.N,/SWDIO*%
X178300000Y-96600000D02*
X178300000Y-95040202D01*
X200660000Y-99060000D02*
X198700000Y-97100000D01*
X198700000Y-97100000D02*
X193200000Y-97100000D01*
X178300000Y-95040202D02*
X178972272Y-94367930D01*
%TO.N,Net-(D1-K)*%
X190287500Y-98500000D02*
X194175000Y-98500000D01*
%TO.N,Net-(D2-K)*%
X190247500Y-102000000D02*
X194175000Y-102000000D01*
%TO.N,/PA8*%
X188672500Y-101472500D02*
X187500000Y-100300000D01*
X188672500Y-102000000D02*
X188672500Y-101472500D01*
X186970000Y-97325000D02*
X187547500Y-96747500D01*
X187547500Y-96747500D02*
X193040000Y-91255000D01*
%TO.N,+3V3*%
X188712500Y-98500000D02*
X187898007Y-99314493D01*
X187898007Y-99314493D02*
X177419821Y-99314493D01*
X177419821Y-99314493D02*
X174764986Y-101969328D01*
%TO.N,/PB8*%
X157480000Y-91255000D02*
X162425000Y-96200000D01*
X162425000Y-96200000D02*
X164600000Y-96200000D01*
X170200000Y-96300000D02*
X172227728Y-98327728D01*
X172227728Y-98327728D02*
X173067930Y-98327728D01*
%TO.N,/PB7*%
X160020000Y-91255000D02*
X164165000Y-95400000D01*
X164165000Y-95400000D02*
X171271573Y-95400000D01*
X171271573Y-95400000D02*
X173633616Y-97762043D01*
%TO.N,/PB6*%
X174199301Y-97196357D02*
X172002944Y-95000000D01*
X172002944Y-95000000D02*
X166305000Y-95000000D01*
X166305000Y-95000000D02*
X162560000Y-91255000D01*
%TO.N,/PB5*%
X174764986Y-96630672D02*
X172734314Y-94600000D01*
X172734314Y-94600000D02*
X168445000Y-94600000D01*
X168445000Y-94600000D02*
X165100000Y-91255000D01*
%TO.N,/PB4*%
X175330672Y-96064986D02*
X173365686Y-94100000D01*
X173365686Y-94100000D02*
X170485000Y-94100000D01*
X170485000Y-94100000D02*
X167640000Y-91255000D01*
%TO.N,/PB3*%
X170180000Y-91255000D02*
X171330000Y-92405000D01*
X172802056Y-92405000D02*
X175896357Y-95499301D01*
X171330000Y-92405000D02*
X172802056Y-92405000D01*
%TO.N,/PA15*%
X176462043Y-94933616D02*
X176398616Y-94933616D01*
X176398616Y-94933616D02*
X172720000Y-91255000D01*
%TO.N,/SWDCLK*%
X177027728Y-94367930D02*
X177027728Y-93022728D01*
X177027728Y-93022728D02*
X175260000Y-91255000D01*
%TO.N,/SWDIO*%
X178972272Y-94367930D02*
X178972272Y-92427272D01*
X178972272Y-92427272D02*
X177800000Y-91255000D01*
%TO.N,/PA12*%
X179537957Y-94933616D02*
X180340000Y-94131573D01*
X180340000Y-94131573D02*
X180340000Y-91255000D01*
%TO.N,/PA11*%
X180103643Y-95499301D02*
X182880000Y-92722944D01*
X182880000Y-92722944D02*
X182880000Y-91255000D01*
%TO.N,/PA10*%
X180669328Y-96064986D02*
X180669328Y-96005672D01*
X180669328Y-96005672D02*
X185420000Y-91255000D01*
%TO.N,/PC6*%
X181235014Y-96630672D02*
X181627108Y-96238578D01*
X181627108Y-96238578D02*
X182976422Y-96238578D01*
X182976422Y-96238578D02*
X187960000Y-91255000D01*
%TO.N,/PA9*%
X181800699Y-97196357D02*
X182192792Y-96804264D01*
X182192792Y-96804264D02*
X184950736Y-96804264D01*
X184950736Y-96804264D02*
X190500000Y-91255000D01*
%TO.N,/PA8*%
X182366384Y-97762043D02*
X182803427Y-97325000D01*
X182803427Y-97325000D02*
X186970000Y-97325000D01*
%TO.N,/PB2*%
X182932070Y-98327728D02*
X183534798Y-97725000D01*
X183534798Y-97725000D02*
X189110000Y-97725000D01*
X189110000Y-97725000D02*
X195580000Y-91255000D01*
%TO.N,/PB1*%
X182932070Y-100272272D02*
X185730086Y-100272272D01*
X185730086Y-100272272D02*
X194677814Y-109220000D01*
X194677814Y-109220000D02*
X195580000Y-109220000D01*
%TO.N,/PB0*%
X182366384Y-100837957D02*
X184303427Y-102775000D01*
X184303427Y-102775000D02*
X186595000Y-102775000D01*
X186595000Y-102775000D02*
X193040000Y-109220000D01*
%TO.N,/PA7*%
X181800699Y-101403643D02*
X189617056Y-109220000D01*
X189617056Y-109220000D02*
X190500000Y-109220000D01*
%TO.N,/PA6*%
X181235014Y-101969328D02*
X187960000Y-108694314D01*
X187960000Y-108694314D02*
X187960000Y-109220000D01*
%TO.N,/PA5*%
X180669328Y-102535014D02*
X185420000Y-107285686D01*
X185420000Y-107285686D02*
X185420000Y-109220000D01*
%TO.N,/PA4*%
X180103643Y-103100699D02*
X182880000Y-105877056D01*
X182880000Y-105877056D02*
X182880000Y-109220000D01*
%TO.N,/PA3*%
X179537957Y-103666384D02*
X180340000Y-104468427D01*
X180340000Y-104468427D02*
X180340000Y-109220000D01*
%TO.N,/PA2*%
X177800000Y-109220000D02*
X178972272Y-108047728D01*
X178972272Y-108047728D02*
X178972272Y-104232070D01*
%TO.N,/PA1*%
X175260000Y-109220000D02*
X177027728Y-107452272D01*
X177027728Y-107452272D02*
X177027728Y-104232070D01*
%TO.N,/PA0*%
X172720000Y-109220000D02*
X172720000Y-107761980D01*
X172720000Y-107761980D02*
X176462043Y-104019937D01*
X176462043Y-104019937D02*
X176462043Y-103666384D01*
%TO.N,GND*%
X172900000Y-105690000D02*
X173675000Y-104915000D01*
X173675000Y-104915000D02*
X173675000Y-104190686D01*
X173675000Y-104190686D02*
X175330672Y-102535014D01*
%TO.N,/~{RST}*%
X170180000Y-109220000D02*
X170593696Y-109220000D01*
X170593696Y-109220000D02*
X175200000Y-104613696D01*
X175200000Y-104613696D02*
X175200000Y-103797056D01*
X175200000Y-103797056D02*
X175896357Y-103100699D01*
%TO.N,GND*%
X172900000Y-105690000D02*
X169700000Y-105690000D01*
X167640000Y-109220000D02*
X169700000Y-107160000D01*
X169700000Y-107160000D02*
X169700000Y-105690000D01*
%TO.N,+3V3*%
X174764986Y-101969328D02*
X174764986Y-102275014D01*
X174764986Y-102275014D02*
X172900000Y-104140000D01*
X169700000Y-104140000D02*
X172900000Y-104140000D01*
%TO.N,/PC15*%
X162560000Y-109220000D02*
X163710000Y-108070000D01*
X173662945Y-101939999D02*
X174199301Y-101403643D01*
X163710000Y-108070000D02*
X164855000Y-108070000D01*
X164855000Y-108070000D02*
X168925000Y-104000000D01*
X168925000Y-104000000D02*
X168925000Y-103675000D01*
X168925000Y-103675000D02*
X170660001Y-101939999D01*
X170660001Y-101939999D02*
X173662945Y-101939999D01*
%TO.N,/PC14*%
X167875000Y-103100000D02*
X166250000Y-104725000D01*
X166250000Y-104725000D02*
X163875000Y-104725000D01*
X163875000Y-104725000D02*
X160020000Y-108580000D01*
X160020000Y-108580000D02*
X160020000Y-109220000D01*
%TO.N,/PB9*%
X157480000Y-109220000D02*
X166460000Y-100240000D01*
X166460000Y-100240000D02*
X173035658Y-100240000D01*
X173035658Y-100240000D02*
X173067930Y-100272272D01*
%TO.N,GND*%
X142240000Y-104140000D02*
X142240000Y-109220000D01*
%TO.N,+3V3*%
X174764986Y-101969328D02*
X174730672Y-101969328D01*
%TO.N,/PC14*%
X172931574Y-101539999D02*
X170649999Y-101539999D01*
X173633616Y-100837957D02*
X172931574Y-101539999D01*
X170150000Y-101040000D02*
X168090000Y-103100000D01*
X168090000Y-103100000D02*
X167875000Y-103100000D01*
X170649999Y-101539999D02*
X170150000Y-101040000D01*
%TO.N,/PC15*%
X168150000Y-96500000D02*
X167875000Y-96500000D01*
X170964493Y-99314493D02*
X170150000Y-98500000D01*
X174199301Y-101403643D02*
X174591395Y-101011549D01*
X174591395Y-100191395D02*
X173714493Y-99314493D01*
X170150000Y-98500000D02*
X168150000Y-96500000D01*
X173714493Y-99314493D02*
X170964493Y-99314493D01*
X174591395Y-101011549D02*
X174591395Y-100191395D01*
%TD*%
%TA.AperFunction,Conductor*%
%TO.N,GND*%
G36*
X143693433Y-99400917D02*
G01*
X143732304Y-99427225D01*
X144657181Y-100352101D01*
X144690666Y-100413424D01*
X144693500Y-100439782D01*
X144693500Y-102814648D01*
X144673815Y-102881687D01*
X144644590Y-102911252D01*
X144645467Y-102912328D01*
X144640593Y-102916301D01*
X144640593Y-102916302D01*
X144628602Y-102926079D01*
X144482890Y-103044890D01*
X144354304Y-103202590D01*
X144354302Y-103202593D01*
X144319656Y-103268920D01*
X144260089Y-103382954D01*
X144204114Y-103578583D01*
X144204113Y-103578586D01*
X144197463Y-103653392D01*
X144195236Y-103678444D01*
X144193500Y-103697966D01*
X144193500Y-106614028D01*
X144193501Y-106614034D01*
X144204113Y-106733415D01*
X144260089Y-106929045D01*
X144260090Y-106929048D01*
X144260091Y-106929049D01*
X144354302Y-107109407D01*
X144388977Y-107151933D01*
X144482890Y-107267109D01*
X144560021Y-107330000D01*
X144640593Y-107395698D01*
X144820951Y-107489909D01*
X145016582Y-107545886D01*
X145135963Y-107556500D01*
X146252036Y-107556499D01*
X146371418Y-107545886D01*
X146567049Y-107489909D01*
X146747407Y-107395698D01*
X146905109Y-107267109D01*
X147033698Y-107109407D01*
X147127909Y-106929049D01*
X147183886Y-106733418D01*
X147194500Y-106614037D01*
X147194500Y-106280500D01*
X147214185Y-106213461D01*
X147266989Y-106167706D01*
X147318500Y-106156500D01*
X150706076Y-106156500D01*
X150773115Y-106176185D01*
X150783751Y-106183844D01*
X150815885Y-106209674D01*
X150855803Y-106267017D01*
X150858383Y-106336839D01*
X150822804Y-106396972D01*
X150815885Y-106402967D01*
X150746631Y-106458635D01*
X150627392Y-106606974D01*
X150627390Y-106606977D01*
X150542831Y-106777476D01*
X150496897Y-106962175D01*
X150494000Y-107004903D01*
X150494000Y-107206000D01*
X152120000Y-107206000D01*
X152187039Y-107225685D01*
X152232794Y-107278489D01*
X152244000Y-107330000D01*
X152244000Y-108706000D01*
X152695097Y-108706000D01*
X152737824Y-108703102D01*
X152922523Y-108657168D01*
X153093022Y-108572609D01*
X153093025Y-108572607D01*
X153241366Y-108453367D01*
X153241367Y-108453366D01*
X153360607Y-108305025D01*
X153360609Y-108305022D01*
X153445168Y-108134523D01*
X153491102Y-107949824D01*
X153494000Y-107907096D01*
X153494000Y-107656556D01*
X153513685Y-107589517D01*
X153566489Y-107543762D01*
X153635647Y-107533818D01*
X153699203Y-107562843D01*
X153735706Y-107617552D01*
X153774452Y-107734481D01*
X153774457Y-107734492D01*
X153863424Y-107878728D01*
X153863427Y-107878732D01*
X153983268Y-107998573D01*
X154015713Y-108018585D01*
X154062438Y-108070532D01*
X154073661Y-108139495D01*
X154045818Y-108203577D01*
X154038298Y-108211805D01*
X153901505Y-108348597D01*
X153765965Y-108542169D01*
X153765964Y-108542171D01*
X153666098Y-108756335D01*
X153666094Y-108756344D01*
X153604938Y-108984586D01*
X153604936Y-108984596D01*
X153584341Y-109219999D01*
X153584341Y-109220000D01*
X153604936Y-109455403D01*
X153604938Y-109455413D01*
X153666094Y-109683655D01*
X153666096Y-109683659D01*
X153666097Y-109683663D01*
X153745801Y-109854588D01*
X153765965Y-109897830D01*
X153765967Y-109897834D01*
X153874281Y-110052521D01*
X153901504Y-110091400D01*
X153901506Y-110091402D01*
X154068597Y-110258493D01*
X154068603Y-110258498D01*
X154254158Y-110388425D01*
X154297783Y-110443002D01*
X154304977Y-110512500D01*
X154273454Y-110574855D01*
X154254158Y-110591575D01*
X154068597Y-110721505D01*
X153901505Y-110888597D01*
X153771575Y-111074158D01*
X153716998Y-111117783D01*
X153647500Y-111124977D01*
X153585145Y-111093454D01*
X153568425Y-111074158D01*
X153438494Y-110888597D01*
X153271402Y-110721506D01*
X153271395Y-110721501D01*
X153077834Y-110585967D01*
X153077830Y-110585965D01*
X153064448Y-110579725D01*
X152863663Y-110486097D01*
X152863659Y-110486096D01*
X152863655Y-110486094D01*
X152635413Y-110424938D01*
X152635403Y-110424936D01*
X152400001Y-110404341D01*
X152399999Y-110404341D01*
X152164596Y-110424936D01*
X152164586Y-110424938D01*
X151936344Y-110486094D01*
X151936335Y-110486098D01*
X151722171Y-110585964D01*
X151722169Y-110585965D01*
X151528597Y-110721505D01*
X151361505Y-110888597D01*
X151231575Y-111074158D01*
X151176998Y-111117783D01*
X151107500Y-111124977D01*
X151045145Y-111093454D01*
X151028425Y-111074158D01*
X150898494Y-110888597D01*
X150731402Y-110721506D01*
X150731395Y-110721501D01*
X150537834Y-110585967D01*
X150537830Y-110585965D01*
X150524448Y-110579725D01*
X150323663Y-110486097D01*
X150323659Y-110486096D01*
X150323655Y-110486094D01*
X150095413Y-110424938D01*
X150095403Y-110424936D01*
X149860001Y-110404341D01*
X149859999Y-110404341D01*
X149624596Y-110424936D01*
X149624586Y-110424938D01*
X149396344Y-110486094D01*
X149396335Y-110486098D01*
X149182171Y-110585964D01*
X149182169Y-110585965D01*
X148988597Y-110721505D01*
X148821505Y-110888597D01*
X148691575Y-111074158D01*
X148636998Y-111117783D01*
X148567500Y-111124977D01*
X148505145Y-111093454D01*
X148488425Y-111074158D01*
X148358494Y-110888597D01*
X148191402Y-110721506D01*
X148191395Y-110721501D01*
X147997834Y-110585967D01*
X147997830Y-110585965D01*
X147984448Y-110579725D01*
X147783663Y-110486097D01*
X147783659Y-110486096D01*
X147783655Y-110486094D01*
X147555413Y-110424938D01*
X147555403Y-110424936D01*
X147320001Y-110404341D01*
X147319999Y-110404341D01*
X147084596Y-110424936D01*
X147084586Y-110424938D01*
X146856344Y-110486094D01*
X146856335Y-110486098D01*
X146642171Y-110585964D01*
X146642169Y-110585965D01*
X146448597Y-110721505D01*
X146281505Y-110888597D01*
X146151575Y-111074158D01*
X146096998Y-111117783D01*
X146027500Y-111124977D01*
X145965145Y-111093454D01*
X145948425Y-111074158D01*
X145818494Y-110888597D01*
X145651402Y-110721506D01*
X145651395Y-110721501D01*
X145457834Y-110585967D01*
X145457830Y-110585965D01*
X145444448Y-110579725D01*
X145243663Y-110486097D01*
X145243659Y-110486096D01*
X145243655Y-110486094D01*
X145015413Y-110424938D01*
X145015403Y-110424936D01*
X144780001Y-110404341D01*
X144779999Y-110404341D01*
X144544596Y-110424936D01*
X144544586Y-110424938D01*
X144316344Y-110486094D01*
X144316335Y-110486098D01*
X144102171Y-110585964D01*
X144102169Y-110585965D01*
X143908597Y-110721505D01*
X143741505Y-110888597D01*
X143611575Y-111074158D01*
X143556998Y-111117783D01*
X143487500Y-111124977D01*
X143425145Y-111093454D01*
X143408425Y-111074158D01*
X143278494Y-110888597D01*
X143111402Y-110721506D01*
X143111401Y-110721505D01*
X142925405Y-110591269D01*
X142881781Y-110536692D01*
X142874588Y-110467193D01*
X142906110Y-110404839D01*
X142925405Y-110388119D01*
X143111082Y-110258105D01*
X143278105Y-110091082D01*
X143413600Y-109897578D01*
X143513429Y-109683492D01*
X143513432Y-109683486D01*
X143570636Y-109470000D01*
X142673012Y-109470000D01*
X142705925Y-109412993D01*
X142740000Y-109285826D01*
X142740000Y-109154174D01*
X142705925Y-109027007D01*
X142673012Y-108970000D01*
X143570636Y-108970000D01*
X143570635Y-108969999D01*
X143513432Y-108756513D01*
X143513429Y-108756507D01*
X143413600Y-108542422D01*
X143413599Y-108542420D01*
X143278113Y-108348926D01*
X143278108Y-108348920D01*
X143111082Y-108181894D01*
X142924968Y-108051575D01*
X142881344Y-107996998D01*
X142874151Y-107927499D01*
X142905673Y-107865145D01*
X142924968Y-107848425D01*
X143111082Y-107718105D01*
X143123187Y-107706000D01*
X150494000Y-107706000D01*
X150494000Y-107907096D01*
X150496897Y-107949824D01*
X150542831Y-108134523D01*
X150627390Y-108305022D01*
X150627392Y-108305025D01*
X150746632Y-108453366D01*
X150746633Y-108453367D01*
X150894974Y-108572607D01*
X150894977Y-108572609D01*
X151065476Y-108657168D01*
X151250175Y-108703102D01*
X151292903Y-108706000D01*
X151744000Y-108706000D01*
X151744000Y-107706000D01*
X150494000Y-107706000D01*
X143123187Y-107706000D01*
X143278105Y-107551082D01*
X143413600Y-107357578D01*
X143513429Y-107143492D01*
X143513432Y-107143486D01*
X143570636Y-106930000D01*
X142673012Y-106930000D01*
X142705925Y-106872993D01*
X142740000Y-106745826D01*
X142740000Y-106614174D01*
X142705925Y-106487007D01*
X142673012Y-106430000D01*
X143570636Y-106430000D01*
X143570635Y-106429999D01*
X143513432Y-106216513D01*
X143513429Y-106216507D01*
X143413600Y-106002422D01*
X143413599Y-106002420D01*
X143278113Y-105808926D01*
X143278108Y-105808920D01*
X143111082Y-105641894D01*
X142924968Y-105511575D01*
X142881344Y-105456998D01*
X142874151Y-105387499D01*
X142905673Y-105325145D01*
X142924968Y-105308425D01*
X143111082Y-105178105D01*
X143278105Y-105011082D01*
X143413600Y-104817578D01*
X143513429Y-104603492D01*
X143513432Y-104603486D01*
X143570636Y-104390000D01*
X142673012Y-104390000D01*
X142705925Y-104332993D01*
X142740000Y-104205826D01*
X142740000Y-104074174D01*
X142705925Y-103947007D01*
X142673012Y-103890000D01*
X143570636Y-103890000D01*
X143570635Y-103889999D01*
X143513432Y-103676513D01*
X143513429Y-103676507D01*
X143413600Y-103462422D01*
X143413599Y-103462420D01*
X143278113Y-103268926D01*
X143278108Y-103268920D01*
X143111078Y-103101890D01*
X142925405Y-102971879D01*
X142881780Y-102917302D01*
X142874588Y-102847804D01*
X142906110Y-102785449D01*
X142925406Y-102768730D01*
X142925842Y-102768425D01*
X143111401Y-102638495D01*
X143278495Y-102471401D01*
X143414035Y-102277830D01*
X143513903Y-102063663D01*
X143575063Y-101835408D01*
X143595659Y-101600000D01*
X143575063Y-101364592D01*
X143513903Y-101136337D01*
X143414035Y-100922171D01*
X143408425Y-100914158D01*
X143278494Y-100728597D01*
X143276819Y-100726922D01*
X143276315Y-100726000D01*
X143275014Y-100724449D01*
X143275325Y-100724187D01*
X143243334Y-100665599D01*
X143240500Y-100639241D01*
X143240500Y-100020758D01*
X143260185Y-99953719D01*
X143276819Y-99933077D01*
X143278495Y-99931401D01*
X143414035Y-99737830D01*
X143513903Y-99523663D01*
X143524848Y-99482811D01*
X143561211Y-99423154D01*
X143624057Y-99392623D01*
X143693433Y-99400917D01*
G37*
%TD.AperFunction*%
%TA.AperFunction,Conductor*%
G36*
X142490000Y-108786988D02*
G01*
X142432993Y-108754075D01*
X142305826Y-108720000D01*
X142174174Y-108720000D01*
X142047007Y-108754075D01*
X141990000Y-108786988D01*
X141990000Y-107113012D01*
X142047007Y-107145925D01*
X142174174Y-107180000D01*
X142305826Y-107180000D01*
X142432993Y-107145925D01*
X142490000Y-107113012D01*
X142490000Y-108786988D01*
G37*
%TD.AperFunction*%
%TA.AperFunction,Conductor*%
G36*
X173093039Y-105459685D02*
G01*
X173138794Y-105512489D01*
X173150000Y-105564000D01*
X173150000Y-105763097D01*
X173130315Y-105830136D01*
X173113681Y-105850778D01*
X173060778Y-105903681D01*
X172999455Y-105937166D01*
X172973097Y-105940000D01*
X169950000Y-105940000D01*
X169950000Y-106639999D01*
X169998308Y-106639999D01*
X169998322Y-106639998D01*
X170097605Y-106629856D01*
X170168103Y-106606495D01*
X170237932Y-106604093D01*
X170297974Y-106639824D01*
X170329167Y-106702345D01*
X170321607Y-106771804D01*
X170312102Y-106790172D01*
X170274212Y-106850474D01*
X170214631Y-107020745D01*
X170214630Y-107020750D01*
X170194435Y-107199996D01*
X170194435Y-107200003D01*
X170214630Y-107379249D01*
X170214631Y-107379254D01*
X170274211Y-107549523D01*
X170356279Y-107680132D01*
X170375279Y-107747368D01*
X170354911Y-107814204D01*
X170301644Y-107859418D01*
X170240478Y-107869632D01*
X170180002Y-107864341D01*
X170179999Y-107864341D01*
X169944596Y-107884936D01*
X169944586Y-107884938D01*
X169716344Y-107946094D01*
X169716337Y-107946096D01*
X169716337Y-107946097D01*
X169707967Y-107950000D01*
X169502171Y-108045964D01*
X169502169Y-108045965D01*
X169308597Y-108181505D01*
X169141508Y-108348594D01*
X169011269Y-108534595D01*
X168956692Y-108578219D01*
X168887193Y-108585412D01*
X168824839Y-108553890D01*
X168808119Y-108534594D01*
X168678113Y-108348926D01*
X168678108Y-108348920D01*
X168511082Y-108181894D01*
X168317578Y-108046399D01*
X168103492Y-107946570D01*
X168103486Y-107946567D01*
X167890000Y-107889364D01*
X167890000Y-108786988D01*
X167832993Y-108754075D01*
X167705826Y-108720000D01*
X167574174Y-108720000D01*
X167447007Y-108754075D01*
X167390000Y-108786988D01*
X167390000Y-107889364D01*
X167389999Y-107889364D01*
X167176513Y-107946567D01*
X167176507Y-107946570D01*
X166962422Y-108046399D01*
X166962420Y-108046400D01*
X166768926Y-108181886D01*
X166768920Y-108181891D01*
X166601891Y-108348920D01*
X166601890Y-108348922D01*
X166471880Y-108534595D01*
X166417303Y-108578219D01*
X166347804Y-108585412D01*
X166285450Y-108553890D01*
X166268730Y-108534595D01*
X166138495Y-108348599D01*
X166138490Y-108348594D01*
X166137562Y-108347268D01*
X166115235Y-108281061D01*
X166132245Y-108213294D01*
X166151452Y-108188467D01*
X168513322Y-105826597D01*
X168574642Y-105793115D01*
X168644334Y-105798099D01*
X168700267Y-105839971D01*
X168724684Y-105905435D01*
X168725000Y-105914279D01*
X168725000Y-105963305D01*
X168725001Y-105963323D01*
X168735144Y-106062607D01*
X168788452Y-106223481D01*
X168788457Y-106223492D01*
X168877424Y-106367728D01*
X168877427Y-106367732D01*
X168997267Y-106487572D01*
X168997271Y-106487575D01*
X169141507Y-106576542D01*
X169141518Y-106576547D01*
X169302393Y-106629855D01*
X169401683Y-106639999D01*
X169449999Y-106639998D01*
X169450000Y-106639998D01*
X169450000Y-105564000D01*
X169469685Y-105496961D01*
X169522489Y-105451206D01*
X169574000Y-105440000D01*
X173026000Y-105440000D01*
X173093039Y-105459685D01*
G37*
%TD.AperFunction*%
%TA.AperFunction,Conductor*%
G36*
X198466942Y-97720185D02*
G01*
X198487584Y-97736819D01*
X199327233Y-98576468D01*
X199360718Y-98637791D01*
X199359327Y-98696241D01*
X199324939Y-98824583D01*
X199324936Y-98824596D01*
X199304341Y-99059999D01*
X199304341Y-99060000D01*
X199324936Y-99295403D01*
X199324938Y-99295413D01*
X199386094Y-99523655D01*
X199386096Y-99523659D01*
X199386097Y-99523663D01*
X199459196Y-99680423D01*
X199485965Y-99737830D01*
X199485967Y-99737834D01*
X199574716Y-99864579D01*
X199621501Y-99931396D01*
X199621506Y-99931402D01*
X199788597Y-100098493D01*
X199788603Y-100098498D01*
X199974158Y-100228425D01*
X200017783Y-100283002D01*
X200024977Y-100352500D01*
X199993454Y-100414855D01*
X199974158Y-100431575D01*
X199788597Y-100561505D01*
X199621505Y-100728597D01*
X199485965Y-100922169D01*
X199485964Y-100922171D01*
X199386098Y-101136335D01*
X199386094Y-101136344D01*
X199324938Y-101364586D01*
X199324936Y-101364596D01*
X199304341Y-101599999D01*
X199304341Y-101600000D01*
X199324936Y-101835403D01*
X199324938Y-101835413D01*
X199386094Y-102063655D01*
X199386096Y-102063659D01*
X199386097Y-102063663D01*
X199456389Y-102214404D01*
X199485965Y-102277830D01*
X199485967Y-102277834D01*
X199572984Y-102402106D01*
X199621501Y-102471396D01*
X199621506Y-102471402D01*
X199788597Y-102638493D01*
X199788603Y-102638498D01*
X199974158Y-102768425D01*
X200017783Y-102823002D01*
X200024977Y-102892500D01*
X199993454Y-102954855D01*
X199974158Y-102971575D01*
X199788597Y-103101505D01*
X199621505Y-103268597D01*
X199491575Y-103454158D01*
X199436998Y-103497783D01*
X199367500Y-103504977D01*
X199305145Y-103473454D01*
X199288425Y-103454158D01*
X199158494Y-103268597D01*
X198991402Y-103101506D01*
X198991395Y-103101501D01*
X198797834Y-102965967D01*
X198797830Y-102965965D01*
X198774659Y-102955160D01*
X198583663Y-102866097D01*
X198583659Y-102866096D01*
X198583655Y-102866094D01*
X198355413Y-102804938D01*
X198355403Y-102804936D01*
X198120001Y-102784341D01*
X198119999Y-102784341D01*
X197884596Y-102804936D01*
X197884586Y-102804938D01*
X197656344Y-102866094D01*
X197656335Y-102866098D01*
X197442171Y-102965964D01*
X197442169Y-102965965D01*
X197248597Y-103101505D01*
X197081505Y-103268597D01*
X196945965Y-103462169D01*
X196945964Y-103462171D01*
X196846098Y-103676335D01*
X196846094Y-103676344D01*
X196784938Y-103904586D01*
X196784936Y-103904596D01*
X196764341Y-104139999D01*
X196764341Y-104140000D01*
X196784936Y-104375403D01*
X196784938Y-104375413D01*
X196846094Y-104603655D01*
X196846096Y-104603659D01*
X196846097Y-104603663D01*
X196926004Y-104775023D01*
X196945965Y-104817830D01*
X196945967Y-104817834D01*
X197032707Y-104941711D01*
X197081501Y-105011396D01*
X197081506Y-105011402D01*
X197248597Y-105178493D01*
X197248603Y-105178498D01*
X197434158Y-105308425D01*
X197477783Y-105363002D01*
X197484977Y-105432500D01*
X197453454Y-105494855D01*
X197434158Y-105511575D01*
X197248597Y-105641505D01*
X197081505Y-105808597D01*
X196945965Y-106002169D01*
X196945964Y-106002171D01*
X196861245Y-106183853D01*
X196846409Y-106215669D01*
X196846098Y-106216335D01*
X196846094Y-106216344D01*
X196784938Y-106444586D01*
X196784936Y-106444596D01*
X196764341Y-106679999D01*
X196764341Y-106680000D01*
X196784936Y-106915403D01*
X196784938Y-106915413D01*
X196846094Y-107143655D01*
X196846096Y-107143659D01*
X196846097Y-107143663D01*
X196926004Y-107315023D01*
X196945965Y-107357830D01*
X196945967Y-107357834D01*
X197038448Y-107489909D01*
X197081501Y-107551396D01*
X197081506Y-107551402D01*
X197248597Y-107718493D01*
X197248603Y-107718498D01*
X197434158Y-107848425D01*
X197477783Y-107903002D01*
X197484977Y-107972500D01*
X197453454Y-108034855D01*
X197434158Y-108051575D01*
X197248597Y-108181505D01*
X197081505Y-108348597D01*
X196951575Y-108534158D01*
X196896998Y-108577783D01*
X196827500Y-108584977D01*
X196765145Y-108553454D01*
X196748425Y-108534158D01*
X196618494Y-108348597D01*
X196451402Y-108181506D01*
X196451399Y-108181504D01*
X196384304Y-108134523D01*
X196257834Y-108045967D01*
X196257830Y-108045965D01*
X196234007Y-108034856D01*
X196043663Y-107946097D01*
X196043659Y-107946096D01*
X196043655Y-107946094D01*
X195815413Y-107884938D01*
X195815403Y-107884936D01*
X195580001Y-107864341D01*
X195579999Y-107864341D01*
X195344596Y-107884936D01*
X195344586Y-107884938D01*
X195116344Y-107946094D01*
X195116337Y-107946096D01*
X195116337Y-107946097D01*
X195107967Y-107950000D01*
X194902171Y-108045964D01*
X194902169Y-108045965D01*
X194708599Y-108181504D01*
X194686253Y-108203849D01*
X194624928Y-108237331D01*
X194555237Y-108232344D01*
X194510894Y-108203845D01*
X189321977Y-103014928D01*
X189288492Y-102953605D01*
X189293476Y-102883913D01*
X189334743Y-102828787D01*
X189334724Y-102828762D01*
X189334818Y-102828687D01*
X189335348Y-102827980D01*
X189337972Y-102826194D01*
X189340385Y-102824284D01*
X189340391Y-102824281D01*
X189372319Y-102792353D01*
X189433642Y-102758868D01*
X189503334Y-102763852D01*
X189547681Y-102792353D01*
X189579608Y-102824280D01*
X189579612Y-102824283D01*
X189722704Y-102912544D01*
X189722707Y-102912545D01*
X189722713Y-102912549D01*
X189882315Y-102965436D01*
X189980826Y-102975500D01*
X189980831Y-102975500D01*
X190514169Y-102975500D01*
X190514174Y-102975500D01*
X190612685Y-102965436D01*
X190772287Y-102912549D01*
X190915391Y-102824281D01*
X191034281Y-102705391D01*
X191062648Y-102659401D01*
X191114594Y-102612679D01*
X191168185Y-102600500D01*
X193283285Y-102600500D01*
X193350324Y-102620185D01*
X193389401Y-102660349D01*
X193413506Y-102700223D01*
X193419530Y-102710188D01*
X193539811Y-102830469D01*
X193539813Y-102830470D01*
X193539815Y-102830472D01*
X193685394Y-102918478D01*
X193847804Y-102969086D01*
X193918384Y-102975500D01*
X193918387Y-102975500D01*
X194431613Y-102975500D01*
X194431616Y-102975500D01*
X194502196Y-102969086D01*
X194664606Y-102918478D01*
X194810185Y-102830472D01*
X194912673Y-102727983D01*
X194973994Y-102694499D01*
X195043685Y-102699483D01*
X195088034Y-102727984D01*
X195190122Y-102830072D01*
X195335604Y-102918019D01*
X195335603Y-102918019D01*
X195497894Y-102968590D01*
X195497893Y-102968590D01*
X195568408Y-102974998D01*
X195568426Y-102974999D01*
X195574999Y-102974998D01*
X195575000Y-102974998D01*
X195575000Y-102250000D01*
X196075000Y-102250000D01*
X196075000Y-102974999D01*
X196081581Y-102974999D01*
X196152102Y-102968591D01*
X196152107Y-102968590D01*
X196314396Y-102918018D01*
X196459877Y-102830072D01*
X196580072Y-102709877D01*
X196668019Y-102564395D01*
X196718590Y-102402106D01*
X196725000Y-102331572D01*
X196725000Y-102250000D01*
X196075000Y-102250000D01*
X195575000Y-102250000D01*
X195575000Y-101025000D01*
X196075000Y-101025000D01*
X196075000Y-101750000D01*
X196724999Y-101750000D01*
X196724999Y-101668417D01*
X196718591Y-101597897D01*
X196718590Y-101597892D01*
X196668018Y-101435603D01*
X196580072Y-101290122D01*
X196459877Y-101169927D01*
X196314395Y-101081980D01*
X196314396Y-101081980D01*
X196152105Y-101031409D01*
X196152106Y-101031409D01*
X196081572Y-101025000D01*
X196075000Y-101025000D01*
X195575000Y-101025000D01*
X195574999Y-101024999D01*
X195568436Y-101025000D01*
X195568417Y-101025001D01*
X195497897Y-101031408D01*
X195497892Y-101031409D01*
X195335603Y-101081981D01*
X195190122Y-101169927D01*
X195190121Y-101169928D01*
X195088035Y-101272015D01*
X195026712Y-101305500D01*
X194957020Y-101300516D01*
X194912673Y-101272015D01*
X194810188Y-101169530D01*
X194755280Y-101136337D01*
X194664606Y-101081522D01*
X194502196Y-101030914D01*
X194502194Y-101030913D01*
X194502192Y-101030913D01*
X194452778Y-101026423D01*
X194431616Y-101024500D01*
X193918384Y-101024500D01*
X193899145Y-101026248D01*
X193847807Y-101030913D01*
X193685393Y-101081522D01*
X193539811Y-101169530D01*
X193419530Y-101289811D01*
X193389402Y-101339650D01*
X193337874Y-101386838D01*
X193283285Y-101399500D01*
X191168185Y-101399500D01*
X191101146Y-101379815D01*
X191062648Y-101340599D01*
X191034281Y-101294609D01*
X190915391Y-101175719D01*
X190915387Y-101175716D01*
X190772295Y-101087455D01*
X190772289Y-101087452D01*
X190772287Y-101087451D01*
X190612685Y-101034564D01*
X190612683Y-101034563D01*
X190514181Y-101024500D01*
X190514174Y-101024500D01*
X189980826Y-101024500D01*
X189980818Y-101024500D01*
X189882316Y-101034563D01*
X189882315Y-101034564D01*
X189813346Y-101057418D01*
X189722715Y-101087450D01*
X189722704Y-101087455D01*
X189579612Y-101175716D01*
X189579608Y-101175719D01*
X189547681Y-101207647D01*
X189486358Y-101241132D01*
X189416666Y-101236148D01*
X189372319Y-101207647D01*
X189340391Y-101175719D01*
X189340387Y-101175716D01*
X189197290Y-101087452D01*
X189197287Y-101087451D01*
X189180777Y-101081980D01*
X189134549Y-101066661D01*
X189085872Y-101036636D01*
X189036897Y-100987660D01*
X189036874Y-100987639D01*
X188330700Y-100281465D01*
X188297215Y-100220142D01*
X188295163Y-100207686D01*
X188285368Y-100120745D01*
X188225789Y-99950478D01*
X188225788Y-99950476D01*
X188223489Y-99943906D01*
X188224711Y-99943478D01*
X188214548Y-99881775D01*
X188242268Y-99817639D01*
X188262136Y-99798532D01*
X188266715Y-99795017D01*
X188266723Y-99795013D01*
X188378527Y-99683209D01*
X188378527Y-99683207D01*
X188388728Y-99673007D01*
X188388731Y-99673002D01*
X188549917Y-99511817D01*
X188611240Y-99478334D01*
X188637597Y-99475500D01*
X188979169Y-99475500D01*
X188979174Y-99475500D01*
X189077685Y-99465436D01*
X189237287Y-99412549D01*
X189380391Y-99324281D01*
X189412319Y-99292353D01*
X189473642Y-99258868D01*
X189543334Y-99263852D01*
X189587681Y-99292353D01*
X189619608Y-99324280D01*
X189619612Y-99324283D01*
X189762704Y-99412544D01*
X189762707Y-99412545D01*
X189762713Y-99412549D01*
X189922315Y-99465436D01*
X190020826Y-99475500D01*
X190020831Y-99475500D01*
X190554169Y-99475500D01*
X190554174Y-99475500D01*
X190652685Y-99465436D01*
X190812287Y-99412549D01*
X190955391Y-99324281D01*
X191074281Y-99205391D01*
X191102648Y-99159401D01*
X191154594Y-99112679D01*
X191208185Y-99100500D01*
X193283285Y-99100500D01*
X193350324Y-99120185D01*
X193389401Y-99160349D01*
X193417589Y-99206977D01*
X193419530Y-99210188D01*
X193539811Y-99330469D01*
X193539813Y-99330470D01*
X193539815Y-99330472D01*
X193685394Y-99418478D01*
X193847804Y-99469086D01*
X193918384Y-99475500D01*
X193918387Y-99475500D01*
X194431613Y-99475500D01*
X194431616Y-99475500D01*
X194502196Y-99469086D01*
X194664606Y-99418478D01*
X194810185Y-99330472D01*
X194912673Y-99227983D01*
X194973994Y-99194499D01*
X195043685Y-99199483D01*
X195088034Y-99227984D01*
X195190122Y-99330072D01*
X195335604Y-99418019D01*
X195335603Y-99418019D01*
X195497894Y-99468590D01*
X195497893Y-99468590D01*
X195568408Y-99474998D01*
X195568426Y-99474999D01*
X195574999Y-99474998D01*
X195575000Y-99474998D01*
X195575000Y-98750000D01*
X196075000Y-98750000D01*
X196075000Y-99474999D01*
X196081581Y-99474999D01*
X196152102Y-99468591D01*
X196152107Y-99468590D01*
X196314396Y-99418018D01*
X196459877Y-99330072D01*
X196580072Y-99209877D01*
X196668019Y-99064395D01*
X196718590Y-98902106D01*
X196725000Y-98831572D01*
X196725000Y-98750000D01*
X196075000Y-98750000D01*
X195575000Y-98750000D01*
X195575000Y-98374000D01*
X195594685Y-98306961D01*
X195647489Y-98261206D01*
X195699000Y-98250000D01*
X196724999Y-98250000D01*
X196724999Y-98168417D01*
X196718591Y-98097897D01*
X196718590Y-98097892D01*
X196668018Y-97935601D01*
X196668017Y-97935599D01*
X196639635Y-97888649D01*
X196621799Y-97821095D01*
X196643317Y-97754621D01*
X196697358Y-97710334D01*
X196745752Y-97700500D01*
X198399903Y-97700500D01*
X198466942Y-97720185D01*
G37*
%TD.AperFunction*%
%TA.AperFunction,Conductor*%
G36*
X150773115Y-97032185D02*
G01*
X150783751Y-97039844D01*
X150815885Y-97065674D01*
X150855803Y-97123017D01*
X150858383Y-97192839D01*
X150822804Y-97252972D01*
X150815885Y-97258967D01*
X150746631Y-97314635D01*
X150627392Y-97462974D01*
X150627390Y-97462977D01*
X150542831Y-97633476D01*
X150496897Y-97818175D01*
X150494000Y-97860903D01*
X150494000Y-98062000D01*
X152120000Y-98062000D01*
X152187039Y-98081685D01*
X152232794Y-98134489D01*
X152244000Y-98186000D01*
X152244000Y-99562000D01*
X152695097Y-99562000D01*
X152737824Y-99559102D01*
X152922523Y-99513168D01*
X153093022Y-99428609D01*
X153093025Y-99428607D01*
X153241366Y-99309367D01*
X153241367Y-99309366D01*
X153355339Y-99167579D01*
X153412682Y-99127660D01*
X153482504Y-99125080D01*
X153542637Y-99160658D01*
X153569692Y-99206262D01*
X153622452Y-99365481D01*
X153622457Y-99365492D01*
X153711424Y-99509728D01*
X153711427Y-99509732D01*
X153831267Y-99629572D01*
X153831271Y-99629575D01*
X153975507Y-99718542D01*
X153975518Y-99718547D01*
X154136393Y-99771855D01*
X154235683Y-99781999D01*
X154283999Y-99781998D01*
X154284000Y-99781998D01*
X154284000Y-98706000D01*
X154303685Y-98638961D01*
X154356489Y-98593206D01*
X154408000Y-98582000D01*
X154660000Y-98582000D01*
X154727039Y-98601685D01*
X154772794Y-98654489D01*
X154784000Y-98706000D01*
X154784000Y-99781999D01*
X154832308Y-99781999D01*
X154832322Y-99781998D01*
X154931607Y-99771855D01*
X155092481Y-99718547D01*
X155092492Y-99718542D01*
X155236728Y-99629575D01*
X155236732Y-99629572D01*
X155356572Y-99509732D01*
X155356575Y-99509728D01*
X155445542Y-99365492D01*
X155445548Y-99365479D01*
X155483117Y-99252102D01*
X155522889Y-99194657D01*
X155587405Y-99167833D01*
X155656180Y-99180148D01*
X155688504Y-99203424D01*
X160662215Y-104177137D01*
X160662219Y-104177140D01*
X160826079Y-104286628D01*
X160826085Y-104286631D01*
X160826086Y-104286632D01*
X161008165Y-104362052D01*
X161072539Y-104374857D01*
X161181453Y-104396522D01*
X161243364Y-104428907D01*
X161277938Y-104489623D01*
X161274199Y-104559392D01*
X161244943Y-104605820D01*
X158017582Y-107833181D01*
X157956259Y-107866666D01*
X157929901Y-107869500D01*
X156582129Y-107869500D01*
X156582123Y-107869501D01*
X156522516Y-107875908D01*
X156387671Y-107926202D01*
X156387664Y-107926206D01*
X156272455Y-108012452D01*
X156272452Y-108012455D01*
X156186206Y-108127664D01*
X156186203Y-108127669D01*
X156137189Y-108259083D01*
X156095317Y-108315016D01*
X156029853Y-108339433D01*
X155961580Y-108324581D01*
X155933326Y-108303430D01*
X155811402Y-108181506D01*
X155811399Y-108181504D01*
X155672665Y-108084361D01*
X155617832Y-108045966D01*
X155617823Y-108045962D01*
X155579150Y-108027928D01*
X155526711Y-107981755D01*
X155507560Y-107914561D01*
X155526018Y-107850448D01*
X155597544Y-107734488D01*
X155597547Y-107734481D01*
X155650855Y-107573606D01*
X155660999Y-107474322D01*
X155661000Y-107474309D01*
X155661000Y-107451000D01*
X154560000Y-107451000D01*
X154492961Y-107431315D01*
X154447206Y-107378511D01*
X154436000Y-107327000D01*
X154436000Y-107075000D01*
X154455685Y-107007961D01*
X154508489Y-106962206D01*
X154560000Y-106951000D01*
X155660999Y-106951000D01*
X155660999Y-106927692D01*
X155660998Y-106927677D01*
X155650855Y-106828392D01*
X155597547Y-106667518D01*
X155597542Y-106667507D01*
X155508575Y-106523271D01*
X155508572Y-106523267D01*
X155499339Y-106514034D01*
X155465854Y-106452711D01*
X155470838Y-106383019D01*
X155499343Y-106338668D01*
X155508968Y-106329044D01*
X155598003Y-106184697D01*
X155651349Y-106023708D01*
X155661500Y-105924345D01*
X155661499Y-105887437D01*
X155663882Y-105863245D01*
X155671172Y-105826600D01*
X155677832Y-105793115D01*
X155686500Y-105749542D01*
X155686500Y-105552459D01*
X155686499Y-105552456D01*
X155663882Y-105438749D01*
X155661499Y-105414558D01*
X155661499Y-105377662D01*
X155661498Y-105377644D01*
X155651349Y-105278292D01*
X155651348Y-105278289D01*
X155627464Y-105206211D01*
X155598003Y-105117303D01*
X155597999Y-105117297D01*
X155597998Y-105117294D01*
X155508970Y-104972959D01*
X155508967Y-104972955D01*
X155468339Y-104932327D01*
X155434854Y-104871004D01*
X155439838Y-104801312D01*
X155468340Y-104756964D01*
X155521572Y-104703731D01*
X155521575Y-104703728D01*
X155610542Y-104559492D01*
X155610547Y-104559481D01*
X155663855Y-104398606D01*
X155673999Y-104299322D01*
X155674000Y-104299309D01*
X155674000Y-104276000D01*
X154705591Y-104276000D01*
X154658139Y-104266561D01*
X154510880Y-104205565D01*
X154510879Y-104205565D01*
X154482836Y-104193949D01*
X154482828Y-104193947D01*
X154341181Y-104165772D01*
X154341180Y-104165771D01*
X154315361Y-104160636D01*
X154289542Y-104155500D01*
X154289541Y-104155500D01*
X153281924Y-104155500D01*
X153214885Y-104135815D01*
X153204243Y-104128151D01*
X153172512Y-104102646D01*
X153132594Y-104045305D01*
X153130014Y-103975483D01*
X153165592Y-103915350D01*
X153172500Y-103909364D01*
X153204239Y-103883851D01*
X153268822Y-103857194D01*
X153281924Y-103856500D01*
X154417542Y-103856500D01*
X154436870Y-103852655D01*
X154514188Y-103837275D01*
X154610836Y-103818051D01*
X154683759Y-103787845D01*
X154683759Y-103787846D01*
X154683767Y-103787841D01*
X154689587Y-103785431D01*
X154737020Y-103776000D01*
X155673999Y-103776000D01*
X155673999Y-103752692D01*
X155673998Y-103752677D01*
X155663855Y-103653392D01*
X155610547Y-103492518D01*
X155610542Y-103492507D01*
X155521575Y-103348271D01*
X155521572Y-103348267D01*
X155512339Y-103339034D01*
X155478854Y-103277711D01*
X155483838Y-103208019D01*
X155512343Y-103163668D01*
X155521968Y-103154044D01*
X155611003Y-103009697D01*
X155664349Y-102848708D01*
X155674500Y-102749345D01*
X155674499Y-102712434D01*
X155676882Y-102688241D01*
X155678844Y-102678382D01*
X155699500Y-102574540D01*
X155699500Y-102377460D01*
X155699500Y-102377457D01*
X155676882Y-102263752D01*
X155674499Y-102239560D01*
X155674499Y-102202662D01*
X155674498Y-102202644D01*
X155664349Y-102103292D01*
X155664348Y-102103289D01*
X155661215Y-102093834D01*
X155611003Y-101942303D01*
X155610999Y-101942297D01*
X155610998Y-101942294D01*
X155521970Y-101797959D01*
X155521967Y-101797955D01*
X155402044Y-101678032D01*
X155402040Y-101678029D01*
X155257705Y-101589001D01*
X155257699Y-101588998D01*
X155257697Y-101588997D01*
X155257694Y-101588996D01*
X155096709Y-101535651D01*
X155096702Y-101535650D01*
X155043788Y-101530244D01*
X155008940Y-101521447D01*
X154990841Y-101513950D01*
X154990833Y-101513947D01*
X154797543Y-101475500D01*
X154797540Y-101475500D01*
X154600460Y-101475500D01*
X154600457Y-101475500D01*
X154407168Y-101513947D01*
X154407159Y-101513950D01*
X154389051Y-101521450D01*
X154354210Y-101530244D01*
X154301290Y-101535651D01*
X154140305Y-101588996D01*
X154140294Y-101589001D01*
X153995959Y-101678029D01*
X153995955Y-101678032D01*
X153876032Y-101797955D01*
X153871551Y-101803623D01*
X153870224Y-101802573D01*
X153824927Y-101843319D01*
X153771332Y-101855500D01*
X153281924Y-101855500D01*
X153214885Y-101835815D01*
X153204237Y-101828147D01*
X153093295Y-101738969D01*
X153093292Y-101738967D01*
X152922697Y-101654360D01*
X152737892Y-101608400D01*
X152716506Y-101606950D01*
X152695123Y-101605500D01*
X152695120Y-101605500D01*
X151292877Y-101605500D01*
X151292874Y-101605501D01*
X151250113Y-101608399D01*
X151250112Y-101608399D01*
X151065303Y-101654360D01*
X150894709Y-101738966D01*
X150894704Y-101738969D01*
X150894704Y-101738970D01*
X150774224Y-101835815D01*
X150766345Y-101842148D01*
X150701761Y-101868806D01*
X150688658Y-101869500D01*
X148645244Y-101869500D01*
X148633090Y-101868903D01*
X148632105Y-101868806D01*
X148590000Y-101864659D01*
X148547895Y-101868806D01*
X148546910Y-101868903D01*
X148534756Y-101869500D01*
X148491453Y-101869500D01*
X148448991Y-101877945D01*
X148436963Y-101879730D01*
X148393867Y-101883976D01*
X148352427Y-101896546D01*
X148340626Y-101899502D01*
X148298166Y-101907948D01*
X148298161Y-101907949D01*
X148258159Y-101924518D01*
X148246707Y-101928616D01*
X148205272Y-101941186D01*
X148167091Y-101961594D01*
X148156093Y-101966795D01*
X148116091Y-101983364D01*
X148080080Y-102007426D01*
X148069645Y-102013680D01*
X148031465Y-102034087D01*
X148031460Y-102034091D01*
X147997990Y-102061557D01*
X147988225Y-102068799D01*
X147952225Y-102092855D01*
X147952219Y-102092860D01*
X147921595Y-102123483D01*
X147912584Y-102131650D01*
X147879117Y-102159117D01*
X147851650Y-102192584D01*
X147843483Y-102201595D01*
X147812860Y-102232219D01*
X147812855Y-102232225D01*
X147788799Y-102268225D01*
X147781557Y-102277990D01*
X147754091Y-102311460D01*
X147754087Y-102311465D01*
X147733680Y-102349645D01*
X147727426Y-102360080D01*
X147703364Y-102396091D01*
X147686795Y-102436093D01*
X147681594Y-102447091D01*
X147661186Y-102485272D01*
X147648616Y-102526707D01*
X147644518Y-102538159D01*
X147627949Y-102578161D01*
X147627948Y-102578166D01*
X147619502Y-102620626D01*
X147616546Y-102632427D01*
X147603976Y-102673867D01*
X147599730Y-102716963D01*
X147597945Y-102728991D01*
X147589500Y-102771453D01*
X147589500Y-102814754D01*
X147588903Y-102826907D01*
X147584659Y-102870000D01*
X147585810Y-102881687D01*
X147588903Y-102913090D01*
X147589500Y-102925244D01*
X147589500Y-102968544D01*
X147597945Y-103011006D01*
X147599730Y-103023035D01*
X147603975Y-103066130D01*
X147603976Y-103066134D01*
X147616547Y-103107575D01*
X147619503Y-103119378D01*
X147627946Y-103161827D01*
X147627948Y-103161834D01*
X147644517Y-103201834D01*
X147648612Y-103213277D01*
X147661186Y-103254727D01*
X147661187Y-103254729D01*
X147681597Y-103292913D01*
X147686800Y-103303915D01*
X147703368Y-103343914D01*
X147703370Y-103343918D01*
X147727425Y-103379918D01*
X147733678Y-103390350D01*
X147738961Y-103400233D01*
X147754088Y-103428535D01*
X147754094Y-103428543D01*
X147781552Y-103462002D01*
X147788799Y-103471772D01*
X147797549Y-103484867D01*
X147811277Y-103505412D01*
X147812862Y-103507783D01*
X147812865Y-103507787D01*
X147843479Y-103538401D01*
X147851651Y-103547416D01*
X147877229Y-103578583D01*
X147879118Y-103580884D01*
X147912581Y-103608346D01*
X147921599Y-103616520D01*
X147952214Y-103647136D01*
X147952219Y-103647140D01*
X147988219Y-103671194D01*
X147997988Y-103678438D01*
X148031462Y-103705910D01*
X148031464Y-103705911D01*
X148069640Y-103726316D01*
X148080078Y-103732572D01*
X148116086Y-103756632D01*
X148156095Y-103773203D01*
X148167091Y-103778404D01*
X148205273Y-103798814D01*
X148246710Y-103811383D01*
X148258160Y-103815480D01*
X148298165Y-103832051D01*
X148340640Y-103840499D01*
X148352414Y-103843448D01*
X148393868Y-103856024D01*
X148436964Y-103860268D01*
X148448990Y-103862052D01*
X148479480Y-103868117D01*
X148491458Y-103870500D01*
X148491459Y-103870500D01*
X148534756Y-103870500D01*
X148546909Y-103871096D01*
X148590000Y-103875341D01*
X148633090Y-103871096D01*
X148645244Y-103870500D01*
X150723493Y-103870500D01*
X150790532Y-103890185D01*
X150801169Y-103897845D01*
X150815485Y-103909352D01*
X150855404Y-103966693D01*
X150857986Y-104036515D01*
X150822408Y-104096648D01*
X150815489Y-104102644D01*
X150798864Y-104116007D01*
X150783764Y-104128145D01*
X150719182Y-104154805D01*
X150706076Y-104155500D01*
X147318499Y-104155500D01*
X147251460Y-104135815D01*
X147205705Y-104083011D01*
X147194499Y-104031500D01*
X147194499Y-103697971D01*
X147194499Y-103697964D01*
X147183886Y-103578582D01*
X147131410Y-103395185D01*
X147127910Y-103382954D01*
X147127909Y-103382953D01*
X147127909Y-103382951D01*
X147033698Y-103202593D01*
X146965845Y-103119378D01*
X146905109Y-103044890D01*
X146770416Y-102935063D01*
X146747407Y-102916302D01*
X146747406Y-102916301D01*
X146742533Y-102912328D01*
X146743892Y-102910660D01*
X146705117Y-102864850D01*
X146694500Y-102814648D01*
X146694500Y-100069421D01*
X146714185Y-100002382D01*
X146766989Y-99956627D01*
X146836147Y-99946683D01*
X146865954Y-99954861D01*
X146877405Y-99959604D01*
X146886090Y-99963202D01*
X146897082Y-99968401D01*
X146935273Y-99988814D01*
X146976721Y-100001387D01*
X146988166Y-100005483D01*
X147028156Y-100022048D01*
X147028157Y-100022048D01*
X147028164Y-100022051D01*
X147070632Y-100030497D01*
X147082424Y-100033451D01*
X147123868Y-100046024D01*
X147166965Y-100050268D01*
X147178991Y-100052052D01*
X147202055Y-100056640D01*
X147221459Y-100060500D01*
X147221460Y-100060500D01*
X147264756Y-100060500D01*
X147276909Y-100061096D01*
X147320000Y-100065341D01*
X147363090Y-100061096D01*
X147375244Y-100060500D01*
X147418541Y-100060500D01*
X147437945Y-100056640D01*
X147461004Y-100052053D01*
X147473036Y-100050268D01*
X147516132Y-100046024D01*
X147557570Y-100033452D01*
X147569370Y-100030497D01*
X147611836Y-100022051D01*
X147651855Y-100005473D01*
X147663275Y-100001387D01*
X147704727Y-99988814D01*
X147742922Y-99968397D01*
X147753901Y-99963204D01*
X147793914Y-99946631D01*
X147810506Y-99935544D01*
X147829908Y-99922580D01*
X147840332Y-99916330D01*
X147878538Y-99895910D01*
X147912020Y-99868430D01*
X147921780Y-99861193D01*
X147957781Y-99837139D01*
X147988394Y-99806524D01*
X147997411Y-99798352D01*
X148030883Y-99770883D01*
X148058353Y-99737409D01*
X148066526Y-99728393D01*
X148076377Y-99718542D01*
X148097139Y-99697781D01*
X148121193Y-99661780D01*
X148128430Y-99652020D01*
X148155910Y-99618538D01*
X148176330Y-99580332D01*
X148182580Y-99569908D01*
X148206627Y-99533920D01*
X148206627Y-99533919D01*
X148206631Y-99533914D01*
X148223204Y-99493901D01*
X148228401Y-99482916D01*
X148228455Y-99482815D01*
X148248814Y-99444727D01*
X148261387Y-99403275D01*
X148265473Y-99391855D01*
X148282051Y-99351836D01*
X148290498Y-99309366D01*
X148293454Y-99297566D01*
X148294110Y-99295403D01*
X148306024Y-99256132D01*
X148310268Y-99213036D01*
X148312054Y-99200998D01*
X148312356Y-99199483D01*
X148320500Y-99158540D01*
X148320500Y-99115244D01*
X148321097Y-99103090D01*
X148321352Y-99100500D01*
X148325341Y-99060000D01*
X148321097Y-99016907D01*
X148320500Y-99004754D01*
X148320500Y-98961459D01*
X148313739Y-98927471D01*
X148312052Y-98918991D01*
X148310268Y-98906962D01*
X148306024Y-98863868D01*
X148293451Y-98822424D01*
X148290496Y-98810625D01*
X148288867Y-98802435D01*
X148282051Y-98768164D01*
X148276563Y-98754916D01*
X148265483Y-98728166D01*
X148261387Y-98716721D01*
X148248814Y-98675273D01*
X148228402Y-98637084D01*
X148223201Y-98626087D01*
X148215295Y-98607002D01*
X148206631Y-98586086D01*
X148190537Y-98562000D01*
X150494000Y-98562000D01*
X150494000Y-98763096D01*
X150496897Y-98805824D01*
X150542831Y-98990523D01*
X150627390Y-99161022D01*
X150627392Y-99161025D01*
X150746632Y-99309366D01*
X150746633Y-99309367D01*
X150894974Y-99428607D01*
X150894977Y-99428609D01*
X151065476Y-99513168D01*
X151250175Y-99559102D01*
X151292903Y-99562000D01*
X151744000Y-99562000D01*
X151744000Y-98562000D01*
X150494000Y-98562000D01*
X148190537Y-98562000D01*
X148182571Y-98550079D01*
X148176322Y-98539652D01*
X148155910Y-98501462D01*
X148128440Y-98467990D01*
X148121194Y-98458219D01*
X148097140Y-98422219D01*
X148097136Y-98422214D01*
X148066520Y-98391599D01*
X148058346Y-98382581D01*
X148030884Y-98349118D01*
X147997414Y-98321650D01*
X147988398Y-98313478D01*
X147230819Y-97555899D01*
X147197334Y-97494576D01*
X147194500Y-97468218D01*
X147194500Y-97136500D01*
X147214185Y-97069461D01*
X147266989Y-97023706D01*
X147318500Y-97012500D01*
X150706076Y-97012500D01*
X150773115Y-97032185D01*
G37*
%TD.AperFunction*%
%TA.AperFunction,Conductor*%
G36*
X142490000Y-106246988D02*
G01*
X142432993Y-106214075D01*
X142305826Y-106180000D01*
X142174174Y-106180000D01*
X142047007Y-106214075D01*
X141990000Y-106246988D01*
X141990000Y-104573012D01*
X142047007Y-104605925D01*
X142174174Y-104640000D01*
X142305826Y-104640000D01*
X142432993Y-104605925D01*
X142490000Y-104573012D01*
X142490000Y-106246988D01*
G37*
%TD.AperFunction*%
%TA.AperFunction,Conductor*%
G36*
X174501896Y-103489851D02*
G01*
X174546243Y-103518352D01*
X174579812Y-103551921D01*
X174613297Y-103613244D01*
X174611906Y-103671694D01*
X174599499Y-103717997D01*
X174599499Y-103886102D01*
X174599500Y-103886115D01*
X174599500Y-104313597D01*
X174579815Y-104380636D01*
X174563181Y-104401278D01*
X173921062Y-105043396D01*
X173859739Y-105076881D01*
X173790047Y-105071897D01*
X173734114Y-105030025D01*
X173727841Y-105020809D01*
X173722573Y-105012269D01*
X173722572Y-105012267D01*
X173713339Y-105003034D01*
X173679854Y-104941711D01*
X173684838Y-104872019D01*
X173713343Y-104827668D01*
X173722968Y-104818044D01*
X173812003Y-104673697D01*
X173865349Y-104512708D01*
X173875500Y-104413345D01*
X173875499Y-104065095D01*
X173895183Y-103998057D01*
X173911813Y-103977420D01*
X174370883Y-103518350D01*
X174432204Y-103484867D01*
X174501896Y-103489851D01*
G37*
%TD.AperFunction*%
%TA.AperFunction,Conductor*%
G36*
X169094534Y-100860185D02*
G01*
X169140289Y-100912989D01*
X169150897Y-100976653D01*
X169148952Y-100996412D01*
X169144659Y-101040000D01*
X169144659Y-101040001D01*
X169152906Y-101123746D01*
X169139886Y-101192391D01*
X169117184Y-101223579D01*
X168251634Y-102089129D01*
X168190311Y-102122614D01*
X168151370Y-102124808D01*
X168148362Y-102124501D01*
X168148349Y-102124500D01*
X168148345Y-102124500D01*
X168148338Y-102124500D01*
X167601662Y-102124500D01*
X167601644Y-102124501D01*
X167502292Y-102134650D01*
X167502289Y-102134651D01*
X167341305Y-102187996D01*
X167341294Y-102188001D01*
X167196959Y-102277029D01*
X167196953Y-102277033D01*
X167187324Y-102286663D01*
X167126000Y-102320146D01*
X167056308Y-102315159D01*
X167011965Y-102286660D01*
X167002732Y-102277427D01*
X167002728Y-102277424D01*
X166858492Y-102188457D01*
X166858481Y-102188452D01*
X166697606Y-102135144D01*
X166598322Y-102125000D01*
X166575000Y-102125000D01*
X166575000Y-103226000D01*
X166555315Y-103293039D01*
X166502511Y-103338794D01*
X166451000Y-103350000D01*
X165375001Y-103350000D01*
X165375001Y-103398322D01*
X165385144Y-103497607D01*
X165438452Y-103658481D01*
X165438457Y-103658492D01*
X165527424Y-103802728D01*
X165527427Y-103802732D01*
X165637514Y-103912819D01*
X165670999Y-103974142D01*
X165666015Y-104043834D01*
X165624143Y-104099767D01*
X165558679Y-104124184D01*
X165549833Y-104124500D01*
X163954057Y-104124500D01*
X163795942Y-104124500D01*
X163735867Y-104140596D01*
X163666018Y-104138934D01*
X163608156Y-104099771D01*
X163580652Y-104035543D01*
X163592239Y-103966641D01*
X163616094Y-103933141D01*
X164699236Y-102850000D01*
X165375000Y-102850000D01*
X166075000Y-102850000D01*
X166075000Y-102124999D01*
X166051693Y-102125000D01*
X166051674Y-102125001D01*
X165952392Y-102135144D01*
X165791518Y-102188452D01*
X165791507Y-102188457D01*
X165647271Y-102277424D01*
X165647267Y-102277427D01*
X165527427Y-102397267D01*
X165527424Y-102397271D01*
X165438457Y-102541507D01*
X165438452Y-102541518D01*
X165385144Y-102702393D01*
X165375000Y-102801677D01*
X165375000Y-102850000D01*
X164699236Y-102850000D01*
X164948736Y-102600500D01*
X166672417Y-100876819D01*
X166733740Y-100843334D01*
X166760098Y-100840500D01*
X169027495Y-100840500D01*
X169094534Y-100860185D01*
G37*
%TD.AperFunction*%
%TA.AperFunction,Conductor*%
G36*
X202014855Y-89566546D02*
G01*
X202031574Y-89585841D01*
X202161505Y-89771401D01*
X202328599Y-89938495D01*
X202354270Y-89956470D01*
X202522165Y-90074032D01*
X202522167Y-90074033D01*
X202522170Y-90074035D01*
X202736337Y-90173903D01*
X202964592Y-90235063D01*
X203152918Y-90251539D01*
X203199999Y-90255659D01*
X203200000Y-90255659D01*
X203200001Y-90255659D01*
X203244245Y-90251788D01*
X203435408Y-90235063D01*
X203663663Y-90173903D01*
X203823595Y-90099324D01*
X203892673Y-90088833D01*
X203956457Y-90117353D01*
X203994696Y-90175829D01*
X204000000Y-90211707D01*
X204000000Y-102828292D01*
X203980315Y-102895331D01*
X203927511Y-102941086D01*
X203858353Y-102951030D01*
X203823596Y-102940674D01*
X203663669Y-102866099D01*
X203663655Y-102866094D01*
X203435413Y-102804938D01*
X203435403Y-102804936D01*
X203200001Y-102784341D01*
X203199999Y-102784341D01*
X202964596Y-102804936D01*
X202964586Y-102804938D01*
X202736344Y-102866094D01*
X202736335Y-102866098D01*
X202522171Y-102965964D01*
X202522169Y-102965965D01*
X202328597Y-103101505D01*
X202161505Y-103268597D01*
X202031575Y-103454158D01*
X201976998Y-103497783D01*
X201907500Y-103504977D01*
X201845145Y-103473454D01*
X201828425Y-103454158D01*
X201698494Y-103268597D01*
X201531402Y-103101506D01*
X201531396Y-103101501D01*
X201345842Y-102971575D01*
X201302217Y-102916998D01*
X201295023Y-102847500D01*
X201326546Y-102785145D01*
X201345842Y-102768425D01*
X201403596Y-102727985D01*
X201531401Y-102638495D01*
X201698495Y-102471401D01*
X201834035Y-102277830D01*
X201933903Y-102063663D01*
X201995063Y-101835408D01*
X202015659Y-101600000D01*
X201995063Y-101364592D01*
X201933903Y-101136337D01*
X201834035Y-100922171D01*
X201828425Y-100914158D01*
X201698494Y-100728597D01*
X201531402Y-100561506D01*
X201531396Y-100561501D01*
X201345842Y-100431575D01*
X201302217Y-100376998D01*
X201295023Y-100307500D01*
X201326546Y-100245145D01*
X201345842Y-100228425D01*
X201375489Y-100207666D01*
X201531401Y-100098495D01*
X201698495Y-99931401D01*
X201834035Y-99737830D01*
X201933903Y-99523663D01*
X201995063Y-99295408D01*
X202015659Y-99060000D01*
X201995063Y-98824592D01*
X201933903Y-98596337D01*
X201834035Y-98382171D01*
X201828425Y-98374158D01*
X201698494Y-98188597D01*
X201531402Y-98021506D01*
X201531401Y-98021505D01*
X201345405Y-97891269D01*
X201301781Y-97836692D01*
X201294588Y-97767193D01*
X201326110Y-97704839D01*
X201345405Y-97688119D01*
X201531082Y-97558105D01*
X201698105Y-97391082D01*
X201833600Y-97197578D01*
X201933429Y-96983492D01*
X201933432Y-96983486D01*
X201990636Y-96770000D01*
X201093012Y-96770000D01*
X201125925Y-96712993D01*
X201160000Y-96585826D01*
X201160000Y-96454174D01*
X201125925Y-96327007D01*
X201093012Y-96270000D01*
X201990636Y-96270000D01*
X201990635Y-96269999D01*
X201933432Y-96056513D01*
X201933429Y-96056507D01*
X201833600Y-95842422D01*
X201833599Y-95842420D01*
X201698113Y-95648926D01*
X201698108Y-95648920D01*
X201531078Y-95481890D01*
X201345405Y-95351879D01*
X201301780Y-95297302D01*
X201294588Y-95227804D01*
X201326110Y-95165449D01*
X201345406Y-95148730D01*
X201378766Y-95125371D01*
X201531401Y-95018495D01*
X201698495Y-94851401D01*
X201834035Y-94657830D01*
X201933903Y-94443663D01*
X201995063Y-94215408D01*
X202015659Y-93980000D01*
X202015416Y-93977228D01*
X202006616Y-93876645D01*
X201995063Y-93744592D01*
X201933903Y-93516337D01*
X201834035Y-93302171D01*
X201828424Y-93294158D01*
X201698496Y-93108600D01*
X201664114Y-93074218D01*
X201576567Y-92986671D01*
X201543084Y-92925351D01*
X201548068Y-92855659D01*
X201589939Y-92799725D01*
X201620915Y-92782810D01*
X201752331Y-92733796D01*
X201867546Y-92647546D01*
X201953796Y-92532331D01*
X202004091Y-92397483D01*
X202010500Y-92337873D01*
X202010499Y-90542128D01*
X202004091Y-90482517D01*
X202002810Y-90479083D01*
X201953797Y-90347671D01*
X201953793Y-90347664D01*
X201867547Y-90232455D01*
X201867544Y-90232452D01*
X201752335Y-90146206D01*
X201752328Y-90146202D01*
X201620917Y-90097189D01*
X201564983Y-90055318D01*
X201540566Y-89989853D01*
X201555418Y-89921580D01*
X201576563Y-89893332D01*
X201698495Y-89771401D01*
X201828426Y-89585841D01*
X201883002Y-89542217D01*
X201952500Y-89535023D01*
X202014855Y-89566546D01*
G37*
%TD.AperFunction*%
%TA.AperFunction,Conductor*%
G36*
X156294855Y-89566546D02*
G01*
X156311574Y-89585841D01*
X156441505Y-89771401D01*
X156608599Y-89938495D01*
X156631669Y-89954649D01*
X156662054Y-89975925D01*
X156705679Y-90030502D01*
X156712873Y-90100000D01*
X156681350Y-90162355D01*
X156662054Y-90179075D01*
X156608597Y-90216505D01*
X156441505Y-90383597D01*
X156305965Y-90577169D01*
X156305964Y-90577171D01*
X156206098Y-90791335D01*
X156206094Y-90791344D01*
X156144938Y-91019586D01*
X156144936Y-91019596D01*
X156124341Y-91254999D01*
X156124341Y-91255000D01*
X156144936Y-91490403D01*
X156144938Y-91490413D01*
X156206094Y-91718655D01*
X156206096Y-91718659D01*
X156206097Y-91718663D01*
X156261561Y-91837606D01*
X156305965Y-91932830D01*
X156305967Y-91932834D01*
X156337301Y-91977583D01*
X156441505Y-92126401D01*
X156608599Y-92293495D01*
X156685485Y-92347331D01*
X156802165Y-92429032D01*
X156802167Y-92429033D01*
X156802170Y-92429035D01*
X157016337Y-92528903D01*
X157016343Y-92528904D01*
X157016344Y-92528905D01*
X157047089Y-92537143D01*
X157244592Y-92590063D01*
X157432918Y-92606539D01*
X157479999Y-92610659D01*
X157480000Y-92610659D01*
X157480001Y-92610659D01*
X157519234Y-92607226D01*
X157715408Y-92590063D01*
X157843757Y-92555672D01*
X157913606Y-92557335D01*
X157963531Y-92587766D01*
X161940139Y-96564374D01*
X161940149Y-96564385D01*
X161944479Y-96568715D01*
X161944480Y-96568716D01*
X162056284Y-96680520D01*
X162133685Y-96725207D01*
X162133686Y-96725208D01*
X162193209Y-96759574D01*
X162193210Y-96759574D01*
X162193215Y-96759577D01*
X162345943Y-96800500D01*
X164017588Y-96800500D01*
X164084627Y-96820185D01*
X164094903Y-96827555D01*
X164097736Y-96829814D01*
X164097738Y-96829816D01*
X164134524Y-96852930D01*
X164242450Y-96920745D01*
X164250478Y-96925789D01*
X164318306Y-96949523D01*
X164420745Y-96985368D01*
X164420750Y-96985369D01*
X164599996Y-97005565D01*
X164600000Y-97005565D01*
X164600004Y-97005565D01*
X164779249Y-96985369D01*
X164779252Y-96985368D01*
X164779255Y-96985368D01*
X164949522Y-96925789D01*
X165102262Y-96829816D01*
X165168124Y-96763953D01*
X165229443Y-96730471D01*
X165299135Y-96735455D01*
X165355069Y-96777326D01*
X165379160Y-96839034D01*
X165385144Y-96897607D01*
X165438452Y-97058481D01*
X165438457Y-97058492D01*
X165527424Y-97202728D01*
X165527427Y-97202732D01*
X165647267Y-97322572D01*
X165647271Y-97322575D01*
X165791507Y-97411542D01*
X165791518Y-97411547D01*
X165952393Y-97464855D01*
X166051683Y-97474999D01*
X166075000Y-97474998D01*
X166075000Y-96374000D01*
X166094685Y-96306961D01*
X166147489Y-96261206D01*
X166199000Y-96250000D01*
X166451000Y-96250000D01*
X166518039Y-96269685D01*
X166563794Y-96322489D01*
X166575000Y-96374000D01*
X166575000Y-97474999D01*
X166598308Y-97474999D01*
X166598322Y-97474998D01*
X166697607Y-97464855D01*
X166858481Y-97411547D01*
X166858492Y-97411542D01*
X167002731Y-97322573D01*
X167011959Y-97313345D01*
X167073279Y-97279856D01*
X167142971Y-97284835D01*
X167187327Y-97313339D01*
X167196955Y-97322967D01*
X167196959Y-97322970D01*
X167341294Y-97411998D01*
X167341297Y-97411999D01*
X167341303Y-97412003D01*
X167502292Y-97465349D01*
X167601655Y-97475500D01*
X168148344Y-97475499D01*
X168148352Y-97475498D01*
X168148355Y-97475498D01*
X168205791Y-97469631D01*
X168274484Y-97482401D01*
X168306073Y-97505308D01*
X169117184Y-98316419D01*
X169150669Y-98377742D01*
X169152906Y-98416252D01*
X169144659Y-98499998D01*
X169144659Y-98499999D01*
X169163975Y-98696129D01*
X169163976Y-98696132D01*
X169214858Y-98863868D01*
X169221188Y-98884733D01*
X169314086Y-99058532D01*
X169314090Y-99058539D01*
X169439116Y-99210883D01*
X169591460Y-99335909D01*
X169591467Y-99335913D01*
X169722855Y-99406142D01*
X169772700Y-99455104D01*
X169788160Y-99523242D01*
X169764328Y-99588922D01*
X169708771Y-99631290D01*
X169664402Y-99639500D01*
X166546670Y-99639500D01*
X166546654Y-99639499D01*
X166539058Y-99639499D01*
X166380943Y-99639499D01*
X166228215Y-99680423D01*
X166228213Y-99680423D01*
X166228213Y-99680424D01*
X166223389Y-99683209D01*
X166137662Y-99732704D01*
X166091281Y-99759482D01*
X162505820Y-103344943D01*
X162444497Y-103378428D01*
X162374805Y-103373444D01*
X162318872Y-103331572D01*
X162296522Y-103281453D01*
X162270278Y-103149522D01*
X162262052Y-103108165D01*
X162193327Y-102942249D01*
X162186633Y-102926088D01*
X162186628Y-102926079D01*
X162077140Y-102762219D01*
X162077137Y-102762215D01*
X155788209Y-96473289D01*
X155788206Y-96473285D01*
X155788206Y-96473286D01*
X155781139Y-96466219D01*
X155781139Y-96466218D01*
X155641782Y-96326861D01*
X155641781Y-96326860D01*
X155641780Y-96326859D01*
X155477920Y-96217371D01*
X155477907Y-96217364D01*
X155338258Y-96159521D01*
X155295836Y-96141949D01*
X155295828Y-96141947D01*
X155173848Y-96117684D01*
X155150079Y-96112956D01*
X155102543Y-96103500D01*
X155102541Y-96103500D01*
X154821782Y-96103500D01*
X154754743Y-96083815D01*
X154734101Y-96067181D01*
X154045479Y-95378559D01*
X154045459Y-95378537D01*
X153901785Y-95234863D01*
X153901781Y-95234860D01*
X153737920Y-95125371D01*
X153737911Y-95125366D01*
X153654683Y-95090892D01*
X153609165Y-95072038D01*
X153582500Y-95060993D01*
X153555837Y-95049949D01*
X153555833Y-95049948D01*
X153428368Y-95024594D01*
X153362543Y-95011500D01*
X153362541Y-95011500D01*
X153281924Y-95011500D01*
X153214885Y-94991815D01*
X153204248Y-94984155D01*
X153172511Y-94958645D01*
X153132595Y-94901303D01*
X153130015Y-94831481D01*
X153165594Y-94771349D01*
X153172514Y-94765353D01*
X153204237Y-94739853D01*
X153241722Y-94709722D01*
X153361030Y-94561296D01*
X153445641Y-94390693D01*
X153491600Y-94205889D01*
X153494500Y-94163123D01*
X153494499Y-93626114D01*
X153514183Y-93559076D01*
X153515343Y-93557304D01*
X153527632Y-93538914D01*
X153593663Y-93379500D01*
X153603051Y-93356836D01*
X153636773Y-93187304D01*
X153641500Y-93163541D01*
X153641500Y-92517959D01*
X153661185Y-92450920D01*
X153713989Y-92405165D01*
X153783147Y-92395221D01*
X153804507Y-92400254D01*
X153818393Y-92404856D01*
X153917683Y-92414999D01*
X153941000Y-92414998D01*
X153941000Y-91690000D01*
X154441000Y-91690000D01*
X154441000Y-92414999D01*
X154464308Y-92414999D01*
X154464322Y-92414998D01*
X154563607Y-92404855D01*
X154724481Y-92351547D01*
X154724492Y-92351542D01*
X154868728Y-92262575D01*
X154868732Y-92262572D01*
X154988572Y-92142732D01*
X154988575Y-92142728D01*
X155077542Y-91998492D01*
X155077547Y-91998481D01*
X155130855Y-91837606D01*
X155140999Y-91738322D01*
X155141000Y-91738309D01*
X155141000Y-91690000D01*
X154441000Y-91690000D01*
X153941000Y-91690000D01*
X153941000Y-90465000D01*
X154441000Y-90465000D01*
X154441000Y-91190000D01*
X155140999Y-91190000D01*
X155140999Y-91141692D01*
X155140998Y-91141677D01*
X155130855Y-91042392D01*
X155077547Y-90881518D01*
X155077542Y-90881507D01*
X154988575Y-90737271D01*
X154988572Y-90737267D01*
X154868732Y-90617427D01*
X154868728Y-90617424D01*
X154724492Y-90528457D01*
X154724481Y-90528452D01*
X154563606Y-90475144D01*
X154464322Y-90465000D01*
X154441000Y-90465000D01*
X153941000Y-90465000D01*
X153941000Y-90464999D01*
X153917693Y-90465000D01*
X153917674Y-90465001D01*
X153818392Y-90475144D01*
X153657518Y-90528452D01*
X153657507Y-90528457D01*
X153513271Y-90617424D01*
X153513265Y-90617428D01*
X153504031Y-90626663D01*
X153442707Y-90660146D01*
X153373015Y-90655159D01*
X153328672Y-90626660D01*
X153319044Y-90617032D01*
X153319040Y-90617029D01*
X153174705Y-90528001D01*
X153174699Y-90527998D01*
X153174697Y-90527997D01*
X153090319Y-90500037D01*
X153013709Y-90474651D01*
X152914352Y-90464500D01*
X152914345Y-90464500D01*
X152877434Y-90464500D01*
X152853243Y-90462117D01*
X152805072Y-90452535D01*
X152763467Y-90444259D01*
X152701556Y-90411874D01*
X152666982Y-90351158D01*
X152670723Y-90281388D01*
X152711589Y-90224717D01*
X152755565Y-90202867D01*
X152863663Y-90173903D01*
X153077830Y-90074035D01*
X153271401Y-89938495D01*
X153438495Y-89771401D01*
X153568426Y-89585841D01*
X153623002Y-89542217D01*
X153692500Y-89535023D01*
X153754855Y-89566546D01*
X153771574Y-89585841D01*
X153901505Y-89771401D01*
X154068599Y-89938495D01*
X154094270Y-89956470D01*
X154262165Y-90074032D01*
X154262167Y-90074033D01*
X154262170Y-90074035D01*
X154476337Y-90173903D01*
X154704592Y-90235063D01*
X154892918Y-90251539D01*
X154939999Y-90255659D01*
X154940000Y-90255659D01*
X154940001Y-90255659D01*
X154984245Y-90251788D01*
X155175408Y-90235063D01*
X155403663Y-90173903D01*
X155617830Y-90074035D01*
X155811401Y-89938495D01*
X155978495Y-89771401D01*
X156108426Y-89585841D01*
X156163002Y-89542217D01*
X156232500Y-89535023D01*
X156294855Y-89566546D01*
G37*
%TD.AperFunction*%
%TA.AperFunction,Conductor*%
G36*
X194417451Y-94107110D02*
G01*
X194473384Y-94148982D01*
X194479108Y-94157316D01*
X194570184Y-94302262D01*
X194697738Y-94429816D01*
X194850478Y-94525789D01*
X194964957Y-94565847D01*
X195020745Y-94585368D01*
X195020750Y-94585369D01*
X195199996Y-94605565D01*
X195200000Y-94605565D01*
X195200004Y-94605565D01*
X195379249Y-94585369D01*
X195379251Y-94585368D01*
X195379255Y-94585368D01*
X195379258Y-94585366D01*
X195386047Y-94583818D01*
X195386370Y-94585236D01*
X195414237Y-94580500D01*
X199370909Y-94580500D01*
X199437948Y-94600185D01*
X199483292Y-94652097D01*
X199485965Y-94657830D01*
X199621505Y-94851401D01*
X199788599Y-95018495D01*
X199941229Y-95125368D01*
X199974594Y-95148730D01*
X200018219Y-95203307D01*
X200025413Y-95272805D01*
X199993890Y-95335160D01*
X199974595Y-95351880D01*
X199788922Y-95481890D01*
X199788920Y-95481891D01*
X199621891Y-95648920D01*
X199621886Y-95648926D01*
X199486400Y-95842420D01*
X199486399Y-95842422D01*
X199386570Y-96056507D01*
X199386567Y-96056513D01*
X199329364Y-96269999D01*
X199329364Y-96270000D01*
X200226988Y-96270000D01*
X200194075Y-96327007D01*
X200160000Y-96454174D01*
X200160000Y-96585826D01*
X200194075Y-96712993D01*
X200226988Y-96770000D01*
X199270598Y-96770000D01*
X199203559Y-96750315D01*
X199182917Y-96733681D01*
X199068717Y-96619481D01*
X199068709Y-96619475D01*
X198966936Y-96560717D01*
X198966934Y-96560716D01*
X198931790Y-96540425D01*
X198931789Y-96540424D01*
X198919263Y-96537067D01*
X198779057Y-96499499D01*
X198620943Y-96499499D01*
X198613347Y-96499499D01*
X198613331Y-96499500D01*
X193782412Y-96499500D01*
X193715373Y-96479815D01*
X193705097Y-96472445D01*
X193702263Y-96470185D01*
X193702262Y-96470184D01*
X193631380Y-96425646D01*
X193549523Y-96374211D01*
X193379254Y-96314631D01*
X193379249Y-96314630D01*
X193200004Y-96294435D01*
X193199996Y-96294435D01*
X193020750Y-96314630D01*
X193020745Y-96314631D01*
X192850476Y-96374211D01*
X192697737Y-96470184D01*
X192570184Y-96597737D01*
X192474211Y-96750476D01*
X192414631Y-96920745D01*
X192414630Y-96920750D01*
X192394435Y-97099996D01*
X192394435Y-97100003D01*
X192414630Y-97279249D01*
X192414631Y-97279254D01*
X192474211Y-97449523D01*
X192570184Y-97602262D01*
X192655741Y-97687819D01*
X192689226Y-97749142D01*
X192684242Y-97818834D01*
X192642370Y-97874767D01*
X192576906Y-97899184D01*
X192568060Y-97899500D01*
X191208185Y-97899500D01*
X191141146Y-97879815D01*
X191102648Y-97840599D01*
X191074281Y-97794609D01*
X190955391Y-97675719D01*
X190949724Y-97671238D01*
X190951358Y-97669171D01*
X190912836Y-97626344D01*
X190901613Y-97557382D01*
X190929456Y-97493300D01*
X190936965Y-97485082D01*
X194286438Y-94135609D01*
X194347759Y-94102126D01*
X194417451Y-94107110D01*
G37*
%TD.AperFunction*%
%TD*%
M02*
